<svg width="316" height="316" viewBox="0 0 316 316" fill="none" xmlns="http://www.w3.org/2000/svg">
<rect width="316" height="316" fill="#E5E5E5"/>
<g filter="url(#filter0_d)">
<circle cx="152" cy="152" r="152" fill="#FFFAFA"/>
<circle cx="152" cy="152" r="150.5" stroke="#FF0000" stroke-width="3"/>
</g>
<g filter="url(#filter1_d)">
<path d="M111.61 239.45C92.9033 239.45 78.5667 232.473 68.6 218.52C58.6333 204.567 53.65 183.023 53.65 153.89C53.65 139.017 55.03 126.443 57.79 116.17C60.7033 105.897 64.69 97.54 69.75 91.1C74.81 84.66 80.79 80.06 87.69 77.3C94.59 74.3867 102.103 72.93 110.23 72.93C116.977 72.93 123.263 73.85 129.09 75.69C134.917 77.3767 139.67 79.5233 143.35 82.13L137.14 99.38C133.46 96.9267 129.473 94.9333 125.18 93.4C121.04 91.8667 116.21 91.1 110.69 91.1C98.4233 91.1 89.53 96.2367 84.01 106.51C78.49 116.63 75.73 132.423 75.73 153.89C75.73 175.51 78.6433 192.147 84.47 203.8C90.2967 215.453 99.8033 221.28 112.99 221.28C119.277 221.28 124.337 220.513 128.17 218.98C132.157 217.447 135.99 215.453 139.67 213L145.42 229.33C141.893 232.09 137.217 234.467 131.39 236.46C125.717 238.453 119.123 239.45 111.61 239.45ZM229.129 193.68C229.129 200.733 228.363 207.097 226.829 212.77C225.449 218.29 223.149 223.043 219.929 227.03C216.863 231.017 212.723 234.083 207.509 236.23C202.449 238.377 196.239 239.45 188.879 239.45C183.053 239.45 177.456 238.53 172.089 236.69C166.723 235.003 161.893 232.55 157.599 229.33L164.499 213C167.106 214.993 170.556 216.91 174.849 218.75C179.296 220.437 183.589 221.28 187.729 221.28C190.949 221.28 193.786 220.897 196.239 220.13C198.846 219.363 201.069 217.983 202.909 215.99C204.749 213.843 206.129 211.007 207.049 207.48C207.969 203.8 208.429 199.2 208.429 193.68V76.61H229.129V193.68Z" fill="black"/>
<path d="M68.6 218.52L71.0412 216.776L71.0412 216.776L68.6 218.52ZM57.79 116.17L54.9038 115.352L54.8981 115.372L54.8927 115.392L57.79 116.17ZM69.75 91.1L67.391 89.2465L67.391 89.2465L69.75 91.1ZM87.69 77.3L88.8042 80.0854L88.8306 80.0748L88.8569 80.0637L87.69 77.3ZM129.09 75.69L128.187 78.5507L128.221 78.5616L128.256 78.5717L129.09 75.69ZM143.35 82.13L146.173 83.1462L146.945 81.0002L145.084 79.6819L143.35 82.13ZM137.14 99.38L135.476 101.876L138.665 104.002L139.963 100.396L137.14 99.38ZM125.18 93.4L124.138 96.2132L124.154 96.2193L124.171 96.2252L125.18 93.4ZM84.01 106.51L86.6437 107.947L86.6482 107.938L86.6527 107.93L84.01 106.51ZM84.47 203.8L81.7867 205.142L81.7867 205.142L84.47 203.8ZM128.17 218.98L127.093 216.18L127.074 216.187L127.056 216.195L128.17 218.98ZM139.67 213L142.5 212.004L141.218 208.363L138.006 210.504L139.67 213ZM145.42 229.33L147.269 231.693L148.965 230.365L148.25 228.334L145.42 229.33ZM131.39 236.46L130.419 233.622L130.407 233.626L130.396 233.63L131.39 236.46ZM111.61 236.45C93.7693 236.45 80.3875 229.861 71.0412 216.776L66.1588 220.264C76.7458 235.086 92.0373 242.45 111.61 242.45V236.45ZM71.0412 216.776C61.6138 203.578 56.65 182.79 56.65 153.89H50.65C50.65 183.256 55.6529 205.555 66.1588 220.264L71.0412 216.776ZM56.65 153.89C56.65 139.184 58.0165 126.89 60.6873 116.948L54.8927 115.392C52.0435 125.997 50.65 138.85 50.65 153.89H56.65ZM60.6762 116.988C63.5137 106.982 67.3517 99.0082 72.109 92.9535L67.391 89.2465C62.0283 96.0718 57.8929 104.811 54.9038 115.352L60.6762 116.988ZM72.109 92.9535C76.8773 86.8847 82.4427 82.63 88.8042 80.0854L86.5758 74.5146C79.1373 77.49 72.7427 82.4353 67.391 89.2465L72.109 92.9535ZM88.8569 80.0637C95.3572 77.3192 102.47 75.93 110.23 75.93V69.93C101.737 69.93 93.8228 71.4541 86.5231 74.5362L88.8569 80.0637ZM110.23 75.93C116.702 75.93 122.681 76.8121 128.187 78.5507L129.993 72.8292C123.846 70.8879 117.252 69.93 110.23 69.93V75.93ZM128.256 78.5717C133.864 80.1952 138.286 82.2192 141.616 84.5781L145.084 79.6819C141.054 76.8275 135.969 74.5581 129.924 72.8083L128.256 78.5717ZM140.527 81.1138L134.317 98.3638L139.963 100.396L146.173 83.1462L140.527 81.1138ZM138.804 96.8838C134.914 94.2903 130.706 92.1881 126.189 90.5748L124.171 96.2252C128.24 97.6786 132.006 99.563 135.476 101.876L138.804 96.8838ZM126.222 90.5868C121.677 88.9033 116.48 88.1 110.69 88.1V94.1C115.94 94.1 120.403 94.83 124.138 96.2132L126.222 90.5868ZM110.69 88.1C104.133 88.1 98.3037 89.4759 93.3195 92.3547C88.3272 95.2382 84.3546 99.5304 81.3673 105.09L86.6527 107.93C89.1854 103.216 92.4195 99.8034 96.3205 97.5503C100.23 95.2924 104.981 94.1 110.69 94.1V88.1ZM81.3763 105.073C75.4873 115.87 72.73 132.285 72.73 153.89H78.73C78.73 132.562 81.4927 117.39 86.6437 107.947L81.3763 105.073ZM72.73 153.89C72.73 175.706 75.6577 192.884 81.7867 205.142L87.1533 202.458C81.629 191.41 78.73 175.314 78.73 153.89H72.73ZM81.7867 205.142C84.908 211.384 89.095 216.215 94.4023 219.468C99.7075 222.719 105.946 224.28 112.99 224.28V218.28C106.848 218.28 101.739 216.927 97.5377 214.352C93.3384 211.778 89.8587 207.869 87.1533 202.458L81.7867 205.142ZM112.99 224.28C119.479 224.28 124.961 223.495 129.284 221.765L127.056 216.195C123.712 217.532 119.074 218.28 112.99 218.28V224.28ZM129.247 221.78C133.447 220.165 137.477 218.068 141.334 215.496L138.006 210.504C134.503 212.839 130.866 214.729 127.093 216.18L129.247 221.78ZM136.84 213.996L142.59 230.326L148.25 228.334L142.5 212.004L136.84 213.996ZM143.571 226.967C140.387 229.46 136.039 231.699 130.419 233.622L132.361 239.298C138.395 237.234 143.4 234.72 147.269 231.693L143.571 226.967ZM130.396 233.63C125.11 235.487 118.866 236.45 111.61 236.45V242.45C119.381 242.45 126.323 241.42 132.384 239.29L130.396 233.63ZM226.829 212.77L223.933 211.987L223.926 212.015L223.919 212.042L226.829 212.77ZM219.929 227.03L217.595 225.145L217.573 225.173L217.551 225.201L219.929 227.03ZM207.509 236.23L206.367 233.456L206.352 233.462L206.338 233.468L207.509 236.23ZM172.089 236.69L173.062 233.852L173.026 233.84L172.989 233.828L172.089 236.69ZM157.599 229.33L154.836 228.162L153.923 230.323L155.799 231.73L157.599 229.33ZM164.499 213L166.322 210.617L163.244 208.263L161.736 211.832L164.499 213ZM174.849 218.75L173.667 221.507L173.726 221.532L173.785 221.555L174.849 218.75ZM196.239 220.13L195.393 217.252L195.368 217.259L195.344 217.267L196.239 220.13ZM202.909 215.99L205.114 218.025L205.151 217.984L205.187 217.942L202.909 215.99ZM207.049 207.48L209.952 208.237L209.956 208.222L209.96 208.208L207.049 207.48ZM208.429 76.61V73.61H205.429V76.61H208.429ZM229.129 76.61H232.129V73.61H229.129V76.61ZM226.129 193.68C226.129 200.52 225.385 206.614 223.933 211.987L229.725 213.553C231.34 207.579 232.129 200.947 232.129 193.68H226.129ZM223.919 212.042C222.633 217.186 220.512 221.533 217.595 225.145L222.263 228.915C225.786 224.553 228.266 219.394 229.74 213.498L223.919 212.042ZM217.551 225.201C214.844 228.721 211.153 231.485 206.367 233.456L208.651 239.004C214.292 236.681 218.881 233.313 222.307 228.859L217.551 225.201ZM206.338 233.468C201.751 235.414 195.966 236.45 188.879 236.45V242.45C196.513 242.45 203.148 241.339 208.681 238.992L206.338 233.468ZM188.879 236.45C183.375 236.45 178.107 235.582 173.062 233.852L171.116 239.528C176.805 241.478 182.731 242.45 188.879 242.45V236.45ZM172.989 233.828C167.93 232.238 163.408 229.936 159.399 226.93L155.799 231.73C160.377 235.164 165.515 237.768 171.19 239.552L172.989 233.828ZM160.363 230.498L167.263 214.168L161.736 211.832L154.836 228.162L160.363 230.498ZM162.677 215.383C165.544 217.576 169.234 219.607 173.667 221.507L176.031 215.993C171.878 214.213 168.667 212.411 166.322 210.617L162.677 215.383ZM173.785 221.555C178.522 223.352 183.176 224.28 187.729 224.28V218.28C184.003 218.28 180.07 217.522 175.913 215.945L173.785 221.555ZM187.729 224.28C191.18 224.28 194.329 223.87 197.134 222.993L195.344 217.267C193.243 217.923 190.719 218.28 187.729 218.28V224.28ZM197.086 223.008C200.212 222.089 202.905 220.418 205.114 218.025L200.705 213.955C199.233 215.549 197.48 216.638 195.393 217.252L197.086 223.008ZM205.187 217.942C207.396 215.365 208.949 212.082 209.952 208.237L204.146 206.723C203.309 209.932 202.102 212.322 200.631 214.038L205.187 217.942ZM209.96 208.208C210.959 204.209 211.429 199.345 211.429 193.68H205.429C205.429 199.055 204.979 203.391 204.139 206.752L209.96 208.208ZM211.429 193.68V76.61H205.429V193.68H211.429ZM208.429 79.61H229.129V73.61H208.429V79.61ZM226.129 76.61V193.68H232.129V76.61H226.129Z" fill="#00C2FF"/>
</g>
<defs>
<filter id="filter0_d" x="0" y="0" width="316" height="316" filterUnits="userSpaceOnUse" color-interpolation-filters="sRGB">
<feFlood flood-opacity="0" result="BackgroundImageFix"/>
<feColorMatrix in="SourceAlpha" type="matrix" values="0 0 0 0 0 0 0 0 0 0 0 0 0 0 0 0 0 0 127 0"/>
<feOffset dx="8" dy="8"/>
<feGaussianBlur stdDeviation="2"/>
<feColorMatrix type="matrix" values="0 0 0 0 0 0 0 0 0 0 0 0 0 0 0 0 0 0 0.25 0"/>
<feBlend mode="normal" in2="BackgroundImageFix" result="effect1_dropShadow"/>
<feBlend mode="normal" in="SourceGraphic" in2="effect1_dropShadow" result="shape"/>
</filter>
<filter id="filter1_d" x="50.65" y="69.93" width="195.479" height="186.52" filterUnits="userSpaceOnUse" color-interpolation-filters="sRGB">
<feFlood flood-opacity="0" result="BackgroundImageFix"/>
<feColorMatrix in="SourceAlpha" type="matrix" values="0 0 0 0 0 0 0 0 0 0 0 0 0 0 0 0 0 0 127 0"/>
<feOffset dx="10" dy="10"/>
<feGaussianBlur stdDeviation="2"/>
<feColorMatrix type="matrix" values="0 0 0 0 0 0 0 0 0 0 0 0 0 0 0 0 0 0 0.5 0"/>
<feBlend mode="normal" in2="BackgroundImageFix" result="effect1_dropShadow"/>
<feBlend mode="normal" in="SourceGraphic" in2="effect1_dropShadow" result="shape"/>
</filter>
</defs>
</svg>
