<svg width="64" height="64" viewBox="0 0 64 64" fill="none" xmlns="http://www.w3.org/2000/svg">
<g clip-path="url(#clip0_302_2)">
<path d="M8.44602 20.1747V43.5054H11.1735V26.6387C11.2016 25.5705 11.1581 24.5016 11.0434 23.4392H11.1458C11.341 23.9505 11.5899 24.4398 11.8882 24.8987L23.881 43.5051H27.2327V20.1747H24.5079V36.5816C24.4833 37.7272 24.5384 38.8731 24.673 40.011H24.6106C24.4655 39.7294 24.1492 39.2104 23.6631 38.4509L11.9906 20.1749L8.44602 20.1747ZM33.286 20.1747V43.5054H45.686L45.6988 40.9456H36.0756V32.8573H44.4967V30.4H36.0756V22.6443H45.1114V20.1749L33.286 20.1747ZM47.7858 20.1747V22.644H54.4922V43.5054H57.2164V22.644H64.0002V20.1747H47.7858ZM1.74255 40.1787C1.51318 40.1842 1.28724 40.2358 1.07814 40.3302C0.869038 40.4247 0.681018 40.5601 0.52522 40.7286C0.357294 40.8964 0.2244 41.0959 0.134261 41.3156C0.0441226 41.5352 -0.00146308 41.7706 0.000153324 42.008C-0.00297817 42.2457 0.0418879 42.4815 0.132064 42.7014C0.22224 42.9213 0.355871 43.1207 0.524953 43.2878C0.689524 43.4609 0.88822 43.5981 1.10849 43.6906C1.32876 43.7831 1.56582 43.8289 1.80469 43.8251C2.04323 43.8266 2.2796 43.7797 2.49955 43.6874C2.7195 43.595 2.91845 43.4591 3.08442 43.2878C3.2564 43.1222 3.39277 42.9233 3.48516 42.7032C3.57756 42.4831 3.62404 42.2464 3.62175 42.0078C3.6225 41.7694 3.57532 41.5332 3.48301 41.3135C3.39071 41.0937 3.25516 40.8947 3.08442 40.7283C2.91999 40.5541 2.7216 40.4154 2.5015 40.3208C2.2814 40.2262 2.04425 40.1778 1.80469 40.1784C1.78389 40.178 1.76309 40.178 1.74229 40.1784L1.74255 40.1787Z" fill="black"/>
</g>
<defs>
<clipPath id="clip0_302_2">
<rect width="64" height="64" fill="white"/>
</clipPath>
</defs>
</svg>
