<svg width="627" height="446" viewBox="0 0 627 446" fill="none" xmlns="http://www.w3.org/2000/svg">
<g id="backG">
<path id="Vector" d="M308.128 95.8586L304.479 93.8809L316.955 87.6973L335.35 92.251L332.113 93.8809L316.955 90.3587L308.128 95.8586Z" fill="#6C63FF"/>
<path id="Vector_2" opacity="0.1" d="M308.128 95.8586L304.479 93.8809L316.955 87.6973L335.35 92.251L332.113 93.8809L316.955 90.3587L308.128 95.8586Z" fill="black"/>
<path id="Vector_3" d="M325.114 115.331L323.133 121.936L322.65 123.529H317.674L317.302 122.449L314.956 115.642L318.723 113.298L325.114 115.331Z" fill="#6C63FF"/>
<path id="Vector_4" opacity="0.1" d="M323.133 121.936L322.656 123.529H317.674L317.302 122.449C317.722 122.024 318.223 121.695 318.774 121.485C319.325 121.274 319.912 121.187 320.498 121.228C321.424 121.194 322.34 121.44 323.133 121.936V121.936Z" fill="black"/>
<path id="Vector_5" opacity="0.1" d="M320.964 124.072V126.911C320.81 126.911 320.657 126.911 320.498 126.911C320.057 126.913 319.618 126.86 319.189 126.752V124.072H320.964Z" fill="black"/>
<path id="Vector_6" opacity="0.1" d="M6.77466 163.922C16.6974 192.129 37.6985 216.546 70.8923 228.382C139.874 252.964 295.443 240.285 411.544 225.733C471.606 218.206 524.386 197.44 562.732 168.195L6.77466 163.922Z" fill="#6C63FF"/>
<path id="Vector_7" d="M92.0326 38.1772L87.4751 35.7111L103.052 27.9893L126.016 33.6723L121.972 35.7111L103.052 31.3161L92.0326 38.1772Z" fill="#6C63FF"/>
<path id="Vector_8" d="M112.552 62.0054L110.07 70.2522L109.475 72.2422H103.26L102.795 70.8932L99.8702 62.4022L104.569 59.4722L112.552 62.0054Z" fill="#6C63FF"/>
<path id="Vector_9" opacity="0.1" d="M107.505 19.2515L102.364 27.5105L86.7874 35.2323L107.505 19.2515Z" fill="black"/>
<path id="Vector_10" opacity="0.1" d="M110.799 58.3297L110.21 60.3197H103.984L103.524 58.9706C104.225 58.055 105.741 57.4201 107.509 57.4201C108.668 57.3885 109.81 57.7043 110.799 58.3297V58.3297Z" fill="black"/>
<path id="Vector_11" opacity="0.1" d="M108.087 60.9976V64.538C107.898 64.538 107.704 64.5685 107.498 64.5685C106.947 64.5695 106.399 64.5019 105.864 64.3671V60.9976H108.087Z" fill="black"/>
<path id="Vector_12" opacity="0.1" d="M615.63 31.0324H551.955C548.93 31.0324 546.448 29.3843 546.448 27.3699C546.448 25.3555 548.93 23.7073 551.955 23.7073H562.968C559.938 23.7073 557.461 22.0592 557.461 20.0448C557.461 18.0304 559.938 16.3823 562.968 16.3823H555.103C552.073 16.3823 549.596 14.7341 549.596 12.7197C549.596 10.7054 552.073 9.05722 555.103 9.05722H588.344C580.968 6.76813 572.366 5.14441 562.402 4.29592C471.724 -3.46865 439.349 1.67721 427.929 6.93295C413.113 13.7534 397.426 18.3337 381.351 20.5332C325.388 28.2123 220.777 37.4602 125.96 17.5482C78.834 7.66545 43.8066 24.3666 22.8114 52.2812H626.697C625.907 44.1626 623.548 36.6727 619.215 30.1168C618.113 30.7282 616.88 31.0431 615.63 31.0324V31.0324Z" fill="#6C63FF"/>
<path id="Vector_13" opacity="0.1" d="M1.36813 104.991C-1.07821 121.412 -0.237342 138.177 3.8385 154.246L563.163 167.865C578.645 155.998 591.764 142.74 602.023 128.413L1.36813 104.991ZM222.587 140.127H211.597C214.622 140.127 217.098 141.782 217.098 143.79C217.098 145.798 214.622 147.452 211.597 147.452H147.922C144.892 147.452 142.415 145.804 142.415 143.79C142.415 141.775 144.892 140.127 147.922 140.127H158.93C155.905 140.127 153.423 138.479 153.423 136.465C153.423 134.45 155.905 132.802 158.93 132.802H151.017C147.993 132.802 145.511 131.148 145.511 129.14C145.511 127.131 147.993 125.477 151.017 125.477H214.722C217.753 125.477 220.229 127.125 220.229 129.14C220.229 131.154 217.753 132.802 214.722 132.802H222.587C225.618 132.802 228.094 134.45 228.094 136.465C228.094 138.479 225.618 140.127 222.587 140.127Z" fill="#6C63FF"/>
<path id="Vector_14" opacity="0.1" d="M626.72 52.5562L16.0725 62.445C8.62485 75.3307 3.65941 89.5884 1.45068 104.43H616.019C619.951 95.8911 622.919 86.9115 624.863 77.6689C626.72 68.9155 627.452 60.4428 626.72 52.5562ZM125.435 84.9574H114.422C117.452 84.9574 119.928 86.6116 119.928 88.6199C119.928 90.6282 117.452 92.2824 114.422 92.2824H50.7461C47.7156 92.2824 45.2394 90.6343 45.2394 88.6199C45.2394 86.6055 47.7156 84.9574 50.7461 84.9574H61.7596C58.7291 84.9574 56.2529 83.3092 56.2529 81.2948C56.2529 79.2804 58.7291 77.6323 61.7596 77.6323H53.865C50.8346 77.6323 48.3583 75.978 48.3583 73.9698C48.3583 71.9615 50.8346 70.3072 53.865 70.3072H117.541C120.565 70.3072 123.041 71.9554 123.041 73.9698C123.041 75.9842 120.565 77.6323 117.541 77.6323H125.406C128.43 77.6323 130.906 79.2804 130.906 81.2948C130.906 83.3092 128.466 84.9574 125.435 84.9574Z" fill="#6C63FF"/>
<path id="Vector_15" d="M240.057 381.781C240.057 381.781 187.466 379.492 181.929 272.882C176.393 166.272 231.201 148.215 231.201 148.215C231.201 148.215 248.565 138.174 256.265 137.759C263.965 137.344 289.7 139.853 289.7 139.853L261.329 134.188C261.329 134.188 301.25 118.457 313.213 117.2L270.055 126.637C270.055 126.637 269.466 101.884 279.783 93.7047C279.783 93.7047 270.939 93.021 266.276 110.851C264.948 115.996 262.474 120.747 259.052 124.722C255.63 128.698 251.356 131.787 246.572 133.742C230.565 140.207 208.431 150.413 203.39 159.154C203.39 159.154 194.069 169.226 195.49 143.002C196.911 116.779 203.591 94.3273 206.026 93.6986C206.026 93.6986 225.07 72.7245 251.819 71.467C251.819 71.467 236.219 64.9599 209.876 85.3114C209.876 85.3114 207.647 75.0319 217.576 62.8601C227.505 50.6882 242.928 25.0994 259.72 22.3769C259.72 22.3769 236.219 20.9057 217.576 52.373C217.576 52.373 210.684 56.9878 210.076 45.2433C209.469 33.4988 205.419 18.8059 205.419 18.8059C205.419 18.8059 199.741 45.872 211.698 58.0377C211.698 58.0377 188.798 88.8763 189.812 123.493C189.812 123.493 182.737 139.224 180.09 120.765C180.09 120.765 178.563 95.3406 175.515 73.7622C174.282 65.0706 174.795 56.2092 177.02 47.7321C179.246 39.2549 183.137 31.3443 188.45 24.495C193.515 17.9696 197.041 11.6334 195.083 8.30663L168.552 41.0314C168.552 41.0314 146.236 -12.4477 130.028 -23.9603C113.82 -35.4729 111.792 -38 111.792 -38L137.928 -6.32519L105.106 -18.3261L137.928 -2.59551C137.928 -2.59551 153.128 10.2234 161.842 45.2372C170.556 80.251 171.364 102.086 171.364 102.086C171.364 102.086 124.557 63.6963 115.642 64.9538L145.929 88.6748C154.168 95.1242 160.974 103.33 165.886 112.737C170.798 122.145 173.701 132.534 174.4 143.204V143.204C174.4 143.204 115.843 127.681 101.657 124.745L74.9133 96.4211L95.1775 123.28L53.4347 122.669L29.5269 105.046C29.5269 105.046 48.3937 121.412 46.5424 122.462C44.6911 123.512 17.1632 124.769 17.1632 124.769C17.1632 124.769 87.2711 124.348 94.9888 129.591C102.707 134.835 119.911 136.727 119.911 136.727L70.2674 144.486L129.438 140.085C129.438 140.085 174.218 148.472 176.647 162.951C176.647 162.951 167.526 187.588 161.453 197.354C156.406 205.473 146.253 231.758 144.231 254.838C142.209 277.918 139.367 313.365 147.067 334.974C154.767 356.583 157.603 368.962 153.753 375.463C149.903 381.964 146.253 390.358 158.818 392.036C171.382 393.715 226.496 391.2 226.496 391.2C226.496 391.2 243.306 394.618 240.057 381.781Z" fill="#DEA3A2"/>
<path id="Vector_16" d="M108.785 72.877H104.688V306.84H108.785V72.877Z" fill="#535F89"/>
<path id="Vector_17" d="M87.2947 35.1899L102.872 27.468L125.836 33.151L108.013 19.209L87.2947 35.1899Z" fill="#6C63FF"/>
<path id="Vector_18" opacity="0.2" d="M91.2332 35.837L103.768 72.1937H109.982L121.585 33.5845L102.872 29.0796L91.2332 35.837Z" fill="#6C63FF"/>
<path id="Vector_19" opacity="0.2" d="M102.872 30.7944L105.837 72.1933H103.768L91.8522 37.6556L102.872 30.7944Z" fill="#6C63FF"/>
<path id="Vector_20" d="M526.16 431.146C526.16 431.146 536.549 430.81 539.68 428.503C542.81 426.195 555.663 423.436 556.442 427.142C557.22 430.847 572.054 445.552 560.321 445.65C548.588 445.747 533.07 443.763 529.975 441.792C526.88 439.82 526.16 431.146 526.16 431.146Z" fill="#A8A8A8"/>
<path id="Vector_21" opacity="0.2" d="M560.533 444.362C548.8 444.459 533.277 442.469 530.152 440.504C527.793 439.002 526.827 433.612 526.508 431.128H526.16C526.16 431.128 526.821 439.82 529.975 441.792C533.129 443.764 548.624 445.754 560.351 445.65C563.741 445.65 564.908 444.38 564.843 442.531C564.342 443.623 563.051 444.343 560.533 444.362Z" fill="black"/>
<path id="Vector_22" d="M350.457 296.042C350.457 296.042 380.662 294.723 383.84 233.498C387.018 172.272 355.54 161.895 355.54 161.895C355.54 161.895 345.57 156.127 341.148 155.889C336.726 155.651 321.945 157.11 321.945 157.11L338.235 153.856C338.235 153.856 315.312 144.822 308.443 144.089L333.206 149.51C333.206 149.51 333.554 135.293 327.617 130.587C327.617 130.587 332.675 130.196 335.376 140.433C336.136 143.388 337.555 146.118 339.52 148.402C341.486 150.686 343.941 152.46 346.69 153.581C355.887 157.299 368.599 163.159 371.494 168.176C371.494 168.176 376.847 173.963 376.028 158.898C375.208 143.833 371.376 130.941 369.979 130.581C369.979 130.581 359.042 118.537 343.677 117.811C343.677 117.811 352.639 114.081 367.768 125.746C367.768 125.746 369.047 119.843 363.346 112.854C357.644 105.865 348.801 91.1656 339.137 89.6029C339.137 89.6029 352.639 88.7544 363.346 106.829C363.346 106.829 367.302 109.478 367.65 102.733C367.997 95.9879 370.326 87.5519 370.326 87.5519C370.326 87.5519 373.587 103.093 366.718 110.083C366.718 110.083 379.872 127.785 379.288 147.678C379.288 147.678 383.362 156.713 384.877 146.11C384.877 146.11 385.75 131.508 387.501 119.123C388.208 114.131 387.913 109.041 386.635 104.172C385.357 99.3027 383.123 94.7588 380.072 90.8237C377.166 87.0819 375.137 83.4376 376.263 81.527L391.51 100.322C391.51 100.322 404.31 69.5994 413.62 62.9702C422.929 56.341 424.097 54.9004 424.097 54.9004L409.109 73.0971L427.976 66.2298L409.109 75.2702C409.109 75.2702 400.384 82.5953 395.378 102.739C390.372 122.883 389.907 135.391 389.907 135.391C389.907 135.391 416.774 113.385 421.915 114.081L404.517 127.699C399.784 131.404 395.875 136.118 393.054 141.521C390.232 146.924 388.564 152.892 388.161 159.02V159.02C388.161 159.02 421.768 150.102 429.945 148.417L445.275 132.149L433.666 147.569L457.638 147.208L471.376 137.088C471.376 137.088 460.551 146.488 461.583 147.092C462.615 147.697 478.463 148.417 478.463 148.417C478.463 148.417 438.194 148.179 433.772 151.188C429.35 154.198 419.457 155.284 419.457 155.284L447.981 159.777L413.997 157.244C413.997 157.244 388.279 162.066 386.876 170.38C386.876 170.38 392.118 184.53 395.608 190.139C398.503 194.797 404.334 209.899 405.495 223.151C406.657 236.403 408.29 256.767 403.868 269.177C399.446 281.587 397.819 288.71 400.03 292.434C402.241 296.158 404.334 300.98 397.117 301.951C389.901 302.921 358.246 301.468 358.246 301.468C358.246 301.468 348.588 303.416 350.457 296.042Z" fill="#DEA3A2"/>
<path id="Vector_23" d="M322.281 122.907H318.997V310.337H322.281V122.907Z" fill="#535F89"/>
<path id="Vector_24" d="M305.065 92.7158L317.541 86.5323L335.936 91.086L321.662 79.9153L305.065 92.7158Z" fill="#6C63FF"/>
<path id="Vector_25" opacity="0.2" d="M308.219 93.2348L318.26 122.364H323.236L332.534 91.4279L317.541 87.8203L308.219 93.2348Z" fill="#6C63FF"/>
<path id="Vector_26" opacity="0.2" d="M317.54 89.1936L319.917 122.364H318.26L308.714 94.6935L317.54 89.1936Z" fill="#6C63FF"/>
<path id="Vector_27" opacity="0.1" d="M321.662 79.9153L317.541 86.5323L305.065 92.7158L321.662 79.9153Z" fill="black"/>
<path id="Vector_28" d="M321.078 125.086C323.035 125.086 324.621 124.111 324.621 122.907C324.621 121.704 323.035 120.728 321.078 120.728C319.121 120.728 317.535 121.704 317.535 122.907C317.535 124.111 319.121 125.086 321.078 125.086Z" fill="#DCE2ED"/>
<path id="Vector_29" d="M449.903 214.068H447.733V337.984H449.903V214.068Z" fill="#535F89"/>
<path id="Vector_30" d="M438.524 194.107L446.772 190.017L458.935 193.033L449.496 185.646L438.524 194.107Z" fill="#6C63FF"/>
<path id="Vector_31" opacity="0.2" d="M440.605 194.449L447.244 213.708H450.54L456.683 193.259L446.772 190.872L440.605 194.449Z" fill="#6C63FF"/>
<path id="Vector_32" opacity="0.2" d="M446.772 191.781L448.346 213.708H447.244L440.935 195.413L446.772 191.781Z" fill="#6C63FF"/>
<path id="Vector_33" opacity="0.1" d="M449.496 185.646L446.772 190.017L438.524 194.107L449.496 185.646Z" fill="black"/>
<path id="Vector_34" d="M449.113 215.508C450.406 215.508 451.454 214.863 451.454 214.068C451.454 213.272 450.406 212.627 449.113 212.627C447.82 212.627 446.772 213.272 446.772 214.068C446.772 214.863 447.82 215.508 449.113 215.508Z" fill="#DCE2ED"/>
</g>
</svg>
