<svg width="867" height="637" viewBox="0 0 867 637" fill="none" xmlns="http://www.w3.org/2000/svg">
<g id="backG">
<path id="Vector" d="M426.046 155.835L421 153.119L438.25 144.626L463.685 150.88L459.209 153.119L438.25 148.282L426.046 155.835Z" fill="#6C63FF"/>
<path id="Vector_2" opacity="0.1" d="M426.046 155.835L421 153.119L438.25 144.626L463.685 150.88L459.209 153.119L438.25 148.282L426.046 155.835Z" fill="black"/>
<path id="Vector_3" d="M449.533 182.577L446.793 191.648L446.125 193.836H439.245L438.731 192.352L435.486 183.005L440.696 179.786L449.533 182.577Z" fill="#6C63FF"/>
<path id="Vector_4" opacity="0.1" d="M446.793 191.648L446.133 193.836H439.244L438.731 192.352C439.311 191.769 440.005 191.318 440.766 191.029C441.527 190.74 442.34 190.619 443.149 190.676C444.43 190.63 445.696 190.968 446.793 191.648Z" fill="black"/>
<path id="Vector_5" opacity="0.1" d="M443.793 194.582V198.48C443.581 198.48 443.37 198.48 443.149 198.48C442.54 198.483 441.932 198.41 441.34 198.262V194.582H443.793Z" fill="black"/>
<path id="Vector_6" opacity="0.1" d="M9.36731 249.309C23.0874 288.048 52.1255 321.581 98.0222 337.836C193.403 371.595 408.506 354.183 569.039 334.198C652.085 323.861 725.063 295.341 778.085 255.177L9.36731 249.309Z" fill="#6C63FF"/>
<path id="Vector_7" d="M127.253 76.6181L120.951 73.2312L142.489 62.6265L174.242 70.4312L168.649 73.2312L142.489 67.1953L127.253 76.6181Z" fill="#6C63FF"/>
<path id="Vector_8" d="M155.625 109.343L152.193 120.668L151.369 123.401H142.777L142.133 121.549L138.09 109.887L144.587 105.864L155.625 109.343Z" fill="#6C63FF"/>
<path id="Vector_9" opacity="0.1" d="M148.647 50.6265L141.538 61.969L120 72.5738L148.647 50.6265Z" fill="black"/>
<path id="Vector_10" opacity="0.1" d="M153.201 104.295L152.386 107.028H143.777L143.141 105.175C144.111 103.917 146.206 103.045 148.652 103.045C150.254 103.002 151.834 103.436 153.201 104.295Z" fill="black"/>
<path id="Vector_11" opacity="0.1" d="M149.451 107.958V112.82C149.19 112.82 148.921 112.862 148.636 112.862C147.875 112.864 147.117 112.771 146.378 112.586V107.958H149.451Z" fill="black"/>
<path id="Vector_12" opacity="0.1" d="M851.226 66.8058H763.182C759 66.8058 755.568 64.5423 755.568 61.7759C755.568 59.0094 759 56.7459 763.182 56.7459H778.411C774.22 56.7459 770.797 54.4824 770.797 51.716C770.797 48.9495 774.22 46.686 778.411 46.686H767.536C763.345 46.686 759.922 44.4226 759.922 41.6561C759.922 38.8896 763.345 36.6262 767.536 36.6262H813.498C803.299 33.4824 791.405 31.2525 777.628 30.0872C652.248 19.4238 607.484 26.4908 591.693 33.7088C571.207 43.0757 549.518 49.366 527.291 52.3866C449.911 62.9328 305.267 75.6333 174.163 48.2872C109.003 34.7148 60.571 57.6513 31.5411 95.9878H866.527C865.435 84.8381 862.174 74.5519 856.182 65.5483C854.659 66.388 852.954 66.8204 851.226 66.8058Z" fill="#6C63FF"/>
<path id="Vector_13" opacity="0.1" d="M1.89169 168.377C-1.49083 190.928 -0.32817 213.953 5.30746 236.022L778.68 254.725C800.088 238.427 818.226 220.219 832.411 200.544L1.89169 168.377ZM307.769 216.631H292.574C296.756 216.631 300.18 218.903 300.18 221.661C300.18 224.419 296.756 226.691 292.574 226.691H204.53C200.34 226.691 196.916 224.427 196.916 221.661C196.916 218.895 200.34 216.631 204.53 216.631H219.75C215.568 216.631 212.136 214.368 212.136 211.601C212.136 208.835 215.568 206.571 219.75 206.571H208.81C204.628 206.571 201.196 204.299 201.196 201.541C201.196 198.783 204.628 196.511 208.81 196.511H296.894C301.085 196.511 304.509 198.775 304.509 201.541C304.509 204.308 301.085 206.571 296.894 206.571H307.769C311.96 206.571 315.384 208.835 315.384 211.601C315.384 214.368 311.96 216.631 307.769 216.631Z" fill="#6C63FF"/>
<path id="Vector_14" opacity="0.1" d="M866.56 96.3652L22.2233 109.946C11.9255 127.643 5.05985 147.223 2.00586 167.606H851.764C857.2 155.879 861.303 143.547 863.992 130.854C866.56 118.832 867.571 107.196 866.56 96.3652ZM173.438 140.863H158.21C162.4 140.863 165.824 143.135 165.824 145.893C165.824 148.651 162.4 150.923 158.21 150.923H70.1662C65.976 150.923 62.5521 148.66 62.5521 145.893C62.5521 143.127 65.976 140.863 70.1662 140.863H85.3944C81.2042 140.863 77.7803 138.6 77.7803 135.833C77.7803 133.067 81.2042 130.804 85.3944 130.804H74.4787C70.2885 130.804 66.8646 128.532 66.8646 125.774C66.8646 123.016 70.2885 120.744 74.4787 120.744H162.522C166.704 120.744 170.128 123.007 170.128 125.774C170.128 128.54 166.704 130.804 162.522 130.804H173.397C177.579 130.804 181.003 133.067 181.003 135.833C181.003 138.6 177.628 140.863 173.438 140.863Z" fill="#6C63FF"/>
<path id="Vector_15" d="M331.924 548.507C331.924 548.507 259.207 545.363 251.552 398.95C243.897 252.536 319.68 227.739 319.68 227.739C319.68 227.739 343.688 213.949 354.335 213.378C364.981 212.808 400.566 216.254 400.566 216.254L361.337 208.474C361.337 208.474 416.536 186.871 433.077 185.144L373.403 198.104C373.403 198.104 372.587 164.11 386.854 152.877C386.854 152.877 374.625 151.938 368.177 176.425C366.342 183.491 362.921 190.015 358.189 195.475C353.458 200.934 347.547 205.177 340.933 207.862C318.799 216.74 288.196 230.757 281.226 242.762C281.226 242.762 268.337 256.594 270.302 220.58C272.267 184.565 281.503 153.732 284.87 152.868C284.87 152.868 311.202 124.063 348.188 122.337C348.188 122.337 326.617 113.4 290.193 141.35C290.193 141.35 287.112 127.232 300.84 110.516C314.568 93.8 335.894 58.6575 359.112 54.9186C359.112 54.9186 326.617 52.8982 300.84 96.1138C300.84 96.1138 291.31 102.451 290.471 86.3222C289.631 70.1928 284.03 50.0144 284.03 50.0144C284.03 50.0144 276.18 87.1856 292.712 103.893C292.712 103.893 261.049 146.246 262.452 193.787C262.452 193.787 252.669 215.39 249.009 190.04C249.009 190.04 246.897 155.123 242.683 125.489C240.978 113.552 241.687 101.382 244.764 89.7401C247.842 78.098 253.222 67.2341 260.568 57.8276C267.571 48.8659 272.446 40.1641 269.74 35.5952L233.055 80.5377C233.055 80.5377 202.199 7.09222 179.788 -8.71856C157.378 -24.5293 154.574 -28 154.574 -28L190.712 15.5006L145.329 -0.980835L190.712 20.6228C190.712 20.6228 211.729 38.2275 223.778 86.3138C235.827 134.4 236.943 164.387 236.943 164.387C236.943 164.387 172.223 111.665 159.897 113.392L201.775 145.969C213.167 154.826 222.577 166.096 229.369 179.015C236.16 191.935 240.175 206.203 241.142 220.856C241.142 220.856 160.174 199.538 140.56 195.505L103.582 156.607L131.601 193.493L73.8836 192.655L40.8266 168.453C40.8266 168.453 66.9135 190.928 64.3537 192.37C61.7939 193.812 23.7314 195.539 23.7314 195.539C23.7314 195.539 120.669 194.96 131.34 202.162C142.011 209.363 165.799 211.962 165.799 211.962L97.1581 222.617L178.973 216.572C178.973 216.572 240.889 228.091 244.248 247.976C244.248 247.976 231.636 281.811 223.24 295.224C216.261 306.374 202.223 342.472 199.427 374.169C196.631 405.866 192.702 454.547 203.348 484.224C213.995 513.901 217.916 530.902 212.593 539.83C207.27 548.758 202.223 560.285 219.596 562.59C236.968 564.896 313.174 561.442 313.174 561.442C313.174 561.442 336.416 566.137 331.924 548.507Z" fill="#DEA3A2"/>
<path id="Vector_16" d="M150.416 124.273H144.75V445.586H150.416V124.273Z" fill="#535F89"/>
<path id="Vector_17" d="M120.702 72.5152L142.24 61.9104L173.992 69.7152L149.348 50.5679L120.702 72.5152Z" fill="#6C63FF"/>
<path id="Vector_18" opacity="0.2" d="M126.147 73.4038L143.479 123.334H152.071L168.115 70.3104L142.24 64.1235L126.147 73.4038Z" fill="#6C63FF"/>
<path id="Vector_19" opacity="0.2" d="M142.24 66.479L146.34 123.334H143.479L127.003 75.9018L142.24 66.479Z" fill="#6C63FF"/>
<path id="Vector_20" d="M727.517 616.302C727.517 616.302 741.881 615.841 746.21 612.672C750.538 609.503 768.31 605.714 769.386 610.802C770.462 615.891 790.973 636.086 774.75 636.22C758.528 636.354 737.071 633.63 732.791 630.922C728.511 628.214 727.517 616.302 727.517 616.302Z" fill="#A8A8A8"/>
<path id="Vector_21" opacity="0.2" d="M775.044 634.452C758.821 634.586 737.356 631.853 733.036 629.153C729.775 627.091 728.438 619.689 727.998 616.277H727.517C727.517 616.277 728.43 628.214 732.791 630.922C737.153 633.63 758.577 636.363 774.791 636.22C779.479 636.22 781.093 634.477 781.003 631.937C780.31 633.437 778.525 634.426 775.044 634.452Z" fill="black"/>
<path id="Vector_22" d="M484.574 430.756C484.574 430.756 526.337 428.945 530.731 344.861C535.125 260.777 491.601 246.526 491.601 246.526C491.601 246.526 477.816 238.604 471.702 238.277C465.587 237.95 445.15 239.953 445.15 239.953L467.674 235.485C467.674 235.485 435.979 223.078 426.481 222.072L460.721 229.516C460.721 229.516 461.202 209.992 452.992 203.528C452.992 203.528 459.987 202.992 463.721 217.05C464.771 221.11 466.734 224.858 469.452 227.995C472.169 231.131 475.564 233.568 479.365 235.108C492.082 240.213 509.658 248.261 513.661 255.152C513.661 255.152 521.063 263.099 519.93 242.41C518.797 221.72 513.498 204.014 511.566 203.52C511.566 203.52 496.443 186.98 475.199 185.982C475.199 185.982 487.59 180.86 508.509 196.88C508.509 196.88 510.278 188.774 502.394 179.175C494.511 169.576 482.283 149.389 468.922 147.243C468.922 147.243 487.59 146.078 502.394 170.901C502.394 170.901 507.865 174.539 508.346 165.275C508.827 156.012 512.047 144.426 512.047 144.426C512.047 144.426 516.555 165.77 507.057 175.369C507.057 175.369 525.245 199.68 524.438 227.001C524.438 227.001 530.071 239.408 532.166 224.847C532.166 224.847 533.373 204.794 535.794 187.784C536.771 180.928 536.364 173.938 534.596 167.251C532.829 160.564 529.74 154.324 525.522 148.92C521.503 143.781 518.699 138.776 520.256 136.152L541.337 161.964C541.337 161.964 559.036 119.771 571.908 110.667C584.78 101.563 586.394 99.5845 586.394 99.5845L565.672 124.575L591.759 115.144L565.672 127.559C565.672 127.559 553.606 137.619 546.685 165.284C539.764 192.949 539.12 210.126 539.12 210.126C539.12 210.126 576.269 179.904 583.378 180.86L559.321 199.563C552.778 204.651 547.373 211.124 543.472 218.545C539.571 225.966 537.264 234.161 536.707 242.577C536.707 242.577 583.174 230.329 594.481 228.016L615.677 205.674L599.625 226.85L632.772 226.356L651.767 212.456C651.767 212.456 636.799 225.367 638.226 226.196C639.653 227.026 661.566 228.016 661.566 228.016C661.566 228.016 605.886 227.689 599.772 231.822C593.658 235.955 579.979 237.447 579.979 237.447L619.419 243.617L572.43 240.138C572.43 240.138 536.87 246.761 534.93 258.178C534.93 258.178 542.177 277.611 547.003 285.315C551.006 291.711 559.068 312.452 560.674 330.652C562.28 348.852 564.538 376.818 558.424 393.861C552.31 410.904 550.06 420.688 553.117 425.801C556.174 430.915 559.068 437.538 549.09 438.871C539.112 440.204 495.343 438.208 495.343 438.208C495.343 438.208 481.99 440.883 484.574 430.756Z" fill="#DEA3A2"/>
<path id="Vector_23" opacity="0.1" d="M646.949 529.183C645.571 542.647 636.269 540.518 636.269 540.518L634.533 540.358C632.668 537.341 631.715 533.822 631.794 530.248C631.794 525.562 633.245 521.42 635.471 518.931C641.927 520.306 647.56 523.206 646.949 529.183Z" fill="black"/>
<path id="Vector_24" d="M445.615 192.982H441.074V450.389H445.615V192.982Z" fill="#535F89"/>
<path id="Vector_25" d="M421.81 151.519L439.06 143.026L464.495 149.28L444.759 133.939L421.81 151.519Z" fill="#6C63FF"/>
<path id="Vector_26" opacity="0.2" d="M426.172 152.231L440.055 192.236H446.935L459.791 149.75L439.06 144.795L426.172 152.231Z" fill="#6C63FF"/>
<path id="Vector_27" opacity="0.2" d="M439.06 146.681L442.345 192.236H440.055L426.856 154.235L439.06 146.681Z" fill="#6C63FF"/>
<path id="Vector_28" opacity="0.1" d="M444.759 133.939L439.06 143.026L421.81 151.519L444.759 133.939Z" fill="black"/>
<path id="Vector_29" d="M443.951 195.975C446.657 195.975 448.851 194.635 448.851 192.982C448.851 191.329 446.657 189.989 443.951 189.989C441.246 189.989 439.052 191.329 439.052 192.982C439.052 194.635 441.246 195.975 443.951 195.975Z" fill="#DCE2ED"/>
<path id="Vector_30" d="M622.076 318.177H619.076V488.357H622.076V318.177Z" fill="#535F89"/>
<path id="Vector_31" d="M606.343 290.764L617.748 285.147L634.566 289.289L621.514 279.145L606.343 290.764Z" fill="#6C63FF"/>
<path id="Vector_32" opacity="0.2" d="M609.221 291.234L618.4 317.683H622.957L631.452 289.599L617.748 286.321L609.221 291.234Z" fill="#6C63FF"/>
<path id="Vector_33" opacity="0.2" d="M617.748 287.57L619.924 317.683H618.4L609.677 292.558L617.748 287.57Z" fill="#6C63FF"/>
<path id="Vector_34" opacity="0.1" d="M621.514 279.145L617.748 285.147L606.343 290.764L621.514 279.145Z" fill="black"/>
<path id="Vector_35" d="M620.984 320.156C622.771 320.156 624.221 319.27 624.221 318.177C624.221 317.085 622.771 316.199 620.984 316.199C619.197 316.199 617.748 317.085 617.748 318.177C617.748 319.27 619.197 320.156 620.984 320.156Z" fill="#DCE2ED"/>
</g>
</svg>
