<svg width="627" height="397" viewBox="0 0 627 397" fill="none" xmlns="http://www.w3.org/2000/svg">
<g id="backG">
<path id="Vector" d="M308.128 99.8586L304.479 97.8809L316.955 91.6973L335.35 96.251L332.113 97.8809L316.955 94.3587L308.128 99.8586Z" fill="#6C63FF"/>
<path id="Vector_2" opacity="0.1" d="M308.128 99.8586L304.479 97.8809L316.955 91.6973L335.35 96.251L332.113 97.8809L316.955 94.3587L308.128 99.8586Z" fill="black"/>
<path id="Vector_3" d="M325.114 119.331L323.133 125.936L322.65 127.529H317.674L317.302 126.449L314.956 119.642L318.723 117.298L325.114 119.331Z" fill="#6C63FF"/>
<path id="Vector_4" opacity="0.1" d="M323.133 125.936L322.656 127.529H317.674L317.302 126.449C317.722 126.024 318.223 125.695 318.774 125.485C319.325 125.274 319.912 125.187 320.498 125.228C321.424 125.194 322.34 125.44 323.133 125.936Z" fill="black"/>
<path id="Vector_5" opacity="0.1" d="M320.964 128.072V130.911C320.81 130.911 320.657 130.911 320.498 130.911C320.057 130.913 319.618 130.86 319.189 130.752V128.072H320.964Z" fill="black"/>
<path id="Vector_6" opacity="0.1" d="M6.77466 167.922C16.6974 196.129 37.6985 220.546 70.8923 232.382C139.874 256.964 295.443 244.285 411.544 229.733C471.606 222.206 524.386 201.44 562.732 172.195L6.77466 167.922Z" fill="#6C63FF"/>
<path id="Vector_7" d="M92.0326 42.1772L87.4751 39.7111L103.052 31.9893L126.016 37.6723L121.972 39.7111L103.052 35.3161L92.0326 42.1772Z" fill="#6C63FF"/>
<path id="Vector_8" d="M112.552 66.0054L110.07 74.2522L109.475 76.2422H103.26L102.795 74.8932L99.8702 66.4022L104.569 63.4722L112.552 66.0054Z" fill="#6C63FF"/>
<path id="Vector_9" opacity="0.1" d="M107.505 23.2515L102.364 31.5105L86.7874 39.2323L107.505 23.2515Z" fill="black"/>
<path id="Vector_10" opacity="0.1" d="M110.799 62.3297L110.21 64.3197H103.984L103.524 62.9706C104.225 62.055 105.741 61.4201 107.509 61.4201C108.668 61.3885 109.81 61.7043 110.799 62.3297Z" fill="black"/>
<path id="Vector_11" opacity="0.1" d="M108.087 64.9976V68.538C107.898 68.538 107.704 68.5685 107.498 68.5685C106.947 68.5695 106.399 68.5019 105.864 68.3671V64.9976H108.087Z" fill="black"/>
<path id="Vector_12" opacity="0.1" d="M615.63 35.0324H551.955C548.93 35.0324 546.448 33.3843 546.448 31.3699C546.448 29.3555 548.93 27.7073 551.955 27.7073H562.968C559.938 27.7073 557.461 26.0592 557.461 24.0448C557.461 22.0304 559.938 20.3823 562.968 20.3823H555.103C552.073 20.3823 549.596 18.7341 549.596 16.7197C549.596 14.7054 552.073 13.0572 555.103 13.0572H588.344C580.968 10.7681 572.366 9.14441 562.402 8.29592C471.724 0.531354 439.349 5.67721 427.929 10.9329C413.113 17.7534 397.427 22.3337 381.352 24.5332C325.388 32.2123 220.777 41.4602 125.96 21.5482C78.834 11.6655 43.8066 28.3666 22.8114 56.2812H626.697C625.907 48.1626 623.548 40.6727 619.215 34.1168C618.113 34.7282 616.88 35.0431 615.63 35.0324Z" fill="#6C63FF"/>
<path id="Vector_13" opacity="0.1" d="M1.36813 108.991C-1.07821 125.412 -0.237342 142.177 3.8385 158.246L563.163 171.865C578.646 159.998 591.764 146.74 602.023 132.413L1.36813 108.991ZM222.587 144.127H211.597C214.622 144.127 217.098 145.782 217.098 147.79C217.098 149.798 214.622 151.452 211.597 151.452H147.922C144.892 151.452 142.415 149.804 142.415 147.79C142.415 145.775 144.892 144.127 147.922 144.127H158.93C155.905 144.127 153.423 142.479 153.423 140.465C153.423 138.45 155.905 136.802 158.93 136.802H151.017C147.993 136.802 145.511 135.148 145.511 133.14C145.511 131.131 147.993 129.477 151.017 129.477H214.722C217.753 129.477 220.229 131.125 220.229 133.14C220.229 135.154 217.753 136.802 214.722 136.802H222.587C225.618 136.802 228.094 138.45 228.094 140.465C228.094 142.479 225.618 144.127 222.587 144.127Z" fill="#6C63FF"/>
<path id="Vector_14" opacity="0.1" d="M626.72 56.5562L16.0725 66.445C8.62485 79.3307 3.65941 93.5884 1.45068 108.43H616.019C619.951 99.8911 622.919 90.9115 624.863 81.6689C626.72 72.9155 627.452 64.4428 626.72 56.5562ZM125.435 88.9574H114.422C117.452 88.9574 119.928 90.6116 119.928 92.6199C119.928 94.6282 117.452 96.2824 114.422 96.2824H50.7461C47.7156 96.2824 45.2394 94.6343 45.2394 92.6199C45.2394 90.6055 47.7156 88.9574 50.7461 88.9574H61.7596C58.7291 88.9574 56.2529 87.3092 56.2529 85.2948C56.2529 83.2804 58.7291 81.6323 61.7596 81.6323H53.865C50.8346 81.6323 48.3583 79.978 48.3583 77.9698C48.3583 75.9615 50.8346 74.3072 53.865 74.3072H117.541C120.565 74.3072 123.041 75.9554 123.041 77.9698C123.041 79.9842 120.565 81.6323 117.541 81.6323H125.406C128.43 81.6323 130.906 83.2804 130.906 85.2948C130.906 87.3092 128.466 88.9574 125.435 88.9574Z" fill="#6C63FF"/>
<path id="Vector_15" d="M240.057 385.781C240.057 385.781 187.466 383.492 181.929 276.882C176.393 170.272 231.201 152.215 231.201 152.215C231.201 152.215 248.565 142.174 256.265 141.759C263.965 141.344 289.7 143.853 289.7 143.853L261.329 138.188C261.329 138.188 301.25 122.457 313.213 121.2L270.055 130.637C270.055 130.637 269.466 105.884 279.783 97.7047C279.783 97.7047 270.939 97.021 266.276 114.851C264.948 119.996 262.474 124.747 259.052 128.722C255.63 132.698 251.356 135.787 246.572 137.742C230.565 144.207 208.431 154.413 203.39 163.154C203.39 163.154 194.069 173.226 195.49 147.002C196.911 120.779 203.591 98.3273 206.026 97.6986C206.026 97.6986 225.07 76.7245 251.819 75.467C251.819 75.467 236.219 68.9599 209.876 89.3114C209.876 89.3114 207.647 79.0319 217.576 66.8601C227.505 54.6882 242.928 29.0993 259.72 26.3769C259.72 26.3769 236.219 24.9058 217.576 56.373C217.576 56.373 210.684 60.9878 210.076 49.2433C209.469 37.4988 205.419 22.8059 205.419 22.8059C205.419 22.8059 199.741 49.872 211.698 62.0377C211.698 62.0377 188.798 92.8763 189.812 127.493C189.812 127.493 182.737 143.224 180.09 124.765C180.09 124.765 178.563 99.3406 175.515 77.7622C174.282 69.0706 174.795 60.2092 177.02 51.7321C179.246 43.2549 183.137 35.3443 188.45 28.495C193.515 21.9696 197.041 15.6334 195.083 12.3066L168.552 45.0314C168.552 45.0314 146.236 -8.44772 130.028 -19.9603C113.82 -31.4729 111.792 -34 111.792 -34L137.928 -2.32519L105.106 -14.3261L137.928 1.40449C137.928 1.40449 153.128 14.2234 161.842 49.2372C170.556 84.251 171.364 106.086 171.364 106.086C171.364 106.086 124.557 67.6964 115.642 68.9538L145.929 92.6748C154.168 99.1242 160.974 107.33 165.886 116.737C170.798 126.145 173.701 136.534 174.4 147.204C174.4 147.204 115.843 131.681 101.657 128.745L74.9133 100.421L95.1775 127.28L53.4347 126.669L29.5269 109.046C29.5269 109.046 48.3937 125.412 46.5424 126.462C44.6911 127.512 17.1632 128.769 17.1632 128.769C17.1632 128.769 87.2711 128.348 94.9888 133.591C102.707 138.835 119.911 140.727 119.911 140.727L70.2674 148.486L129.438 144.085C129.438 144.085 174.218 152.472 176.647 166.951C176.647 166.951 167.526 191.588 161.453 201.354C156.406 209.473 146.253 235.758 144.231 258.838C142.209 281.918 139.367 317.365 147.067 338.974C154.767 360.583 157.603 372.962 153.753 379.463C149.903 385.964 146.253 394.358 158.818 396.036C171.382 397.715 226.496 395.2 226.496 395.2C226.496 395.2 243.305 398.618 240.057 385.781Z" fill="#DEA3A2"/>
<path id="Vector_16" d="M108.785 76.877H104.688V310.84H108.785V76.877Z" fill="#535F89"/>
<path id="Vector_17" d="M87.2947 39.1898L102.872 31.468L125.836 37.151L108.013 23.209L87.2947 39.1898Z" fill="#6C63FF"/>
<path id="Vector_18" opacity="0.2" d="M91.2332 39.837L103.768 76.1937H109.982L121.585 37.5845L102.872 33.0796L91.2332 39.837Z" fill="#6C63FF"/>
<path id="Vector_19" opacity="0.2" d="M102.872 34.7944L105.837 76.1933H103.768L91.8522 41.6556L102.872 34.7944Z" fill="#6C63FF"/>
<path id="Vector_20" d="M350.457 300.042C350.457 300.042 380.662 298.723 383.84 237.498C387.018 176.272 355.54 165.895 355.54 165.895C355.54 165.895 345.57 160.127 341.148 159.889C336.726 159.651 321.945 161.11 321.945 161.11L338.235 157.856C338.235 157.856 315.312 148.822 308.443 148.089L333.206 153.51C333.206 153.51 333.554 139.293 327.617 134.587C327.617 134.587 332.675 134.196 335.376 144.433C336.136 147.388 337.555 150.118 339.52 152.402C341.486 154.686 343.941 156.46 346.69 157.581C355.887 161.299 368.599 167.159 371.494 172.176C371.494 172.176 376.847 177.963 376.028 162.898C375.208 147.833 371.376 134.941 369.979 134.581C369.979 134.581 359.042 122.537 343.677 121.811C343.677 121.811 352.639 118.081 367.768 129.746C367.768 129.746 369.047 123.843 363.346 116.854C357.644 109.865 348.801 95.1656 339.137 93.6029C339.137 93.6029 352.639 92.7544 363.346 110.829C363.346 110.829 367.302 113.478 367.65 106.733C367.997 99.9879 370.326 91.5519 370.326 91.5519C370.326 91.5519 373.587 107.093 366.718 114.083C366.718 114.083 379.872 131.785 379.288 151.678C379.288 151.678 383.362 160.713 384.877 150.11C384.877 150.11 385.75 135.508 387.501 123.123C388.208 118.131 387.913 113.041 386.635 108.172C385.357 103.303 383.123 98.7588 380.072 94.8237C377.166 91.0819 375.137 87.4376 376.263 85.527L391.51 104.322C391.51 104.322 404.31 73.5994 413.62 66.9702C422.929 60.341 424.097 58.9004 424.097 58.9004L409.109 77.0971L427.976 70.2298L409.109 79.2702C409.109 79.2702 400.384 86.5953 395.378 106.739C390.372 126.883 389.907 139.391 389.907 139.391C389.907 139.391 416.774 117.385 421.915 118.081L404.517 131.699C399.784 135.404 395.875 140.118 393.054 145.521C390.232 150.924 388.564 156.892 388.161 163.02C388.161 163.02 421.768 154.102 429.945 152.417L445.275 136.149L433.666 151.569L457.638 151.208L471.376 141.088C471.376 141.088 460.551 150.488 461.583 151.092C462.615 151.697 478.463 152.417 478.463 152.417C478.463 152.417 438.194 152.179 433.772 155.188C429.35 158.198 419.457 159.284 419.457 159.284L447.981 163.777L413.997 161.244C413.997 161.244 388.279 166.066 386.876 174.38C386.876 174.38 392.118 188.53 395.608 194.139C398.503 198.797 404.334 213.899 405.495 227.151C406.657 240.403 408.29 260.767 403.868 273.177C399.446 285.587 397.819 292.71 400.03 296.434C402.241 300.158 404.334 304.98 397.117 305.951C389.901 306.921 358.246 305.468 358.246 305.468C358.246 305.468 348.588 307.416 350.457 300.042Z" fill="#DEA3A2"/>
<path id="Vector_21" d="M322.281 126.907H318.997V314.337H322.281V126.907Z" fill="#535F89"/>
<path id="Vector_22" d="M305.065 96.7158L317.541 90.5323L335.936 95.086L321.662 83.9153L305.065 96.7158Z" fill="#6C63FF"/>
<path id="Vector_23" opacity="0.2" d="M308.219 97.2348L318.26 126.364H323.236L332.534 95.4279L317.541 91.8203L308.219 97.2348Z" fill="#6C63FF"/>
<path id="Vector_24" opacity="0.2" d="M317.54 93.1936L319.917 126.364H318.26L308.714 98.6935L317.54 93.1936Z" fill="#6C63FF"/>
<path id="Vector_25" opacity="0.1" d="M321.662 83.9153L317.541 90.5323L305.065 96.7158L321.662 83.9153Z" fill="black"/>
<path id="Vector_26" d="M321.078 129.086C323.035 129.086 324.621 128.111 324.621 126.907C324.621 125.704 323.035 124.728 321.078 124.728C319.121 124.728 317.535 125.704 317.535 126.907C317.535 128.111 319.121 129.086 321.078 129.086Z" fill="#DCE2ED"/>
<path id="Vector_27" d="M449.903 218.068H447.733V341.984H449.903V218.068Z" fill="#535F89"/>
<path id="Vector_28" d="M438.524 198.107L446.772 194.017L458.935 197.033L449.496 189.646L438.524 198.107Z" fill="#6C63FF"/>
<path id="Vector_29" opacity="0.2" d="M440.605 198.449L447.244 217.708H450.54L456.683 197.259L446.772 194.872L440.605 198.449Z" fill="#6C63FF"/>
<path id="Vector_30" opacity="0.2" d="M446.772 195.781L448.346 217.708H447.244L440.935 199.413L446.772 195.781Z" fill="#6C63FF"/>
<path id="Vector_31" opacity="0.1" d="M449.496 189.646L446.772 194.017L438.524 198.107L449.496 189.646Z" fill="black"/>
<path id="Vector_32" d="M449.113 219.508C450.406 219.508 451.454 218.863 451.454 218.068C451.454 217.272 450.406 216.627 449.113 216.627C447.82 216.627 446.772 217.272 446.772 218.068C446.772 218.863 447.82 219.508 449.113 219.508Z" fill="#DCE2ED"/>
</g>
</svg>
