<svg width="355" height="237" viewBox="0 0 355 237" fill="none" xmlns="http://www.w3.org/2000/svg">
<g id="bg">
<path id="Vector" opacity="0.1" d="M355 152.226C355.006 158.647 354.292 165.045 352.875 171.279C352.398 173.379 351.844 175.436 351.213 177.449C350.441 179.934 349.546 182.371 348.532 184.751C348.021 185.955 347.481 187.135 346.912 188.291C346.921 194.876 345.675 201.391 343.254 207.426C338.876 218.252 331.07 227.007 321.258 232.093C315.124 235.278 308.419 236.954 301.622 237H68.1898C57.8039 237.024 47.5974 234.054 38.608 228.393L38.4697 228.307C37.1893 227.492 35.9409 226.628 34.7246 225.716C31.988 223.659 29.417 221.352 27.0391 218.82C23.8208 215.397 20.9849 211.572 18.5902 207.426C12.966 197.705 9.98655 186.45 9.99699 174.963C4.30125 164.085 0.97998 151.054 0.97998 137.052C0.97998 119.386 6.25794 103.271 14.9293 91.0716C16.7371 88.5229 18.7174 86.1247 20.8535 83.8972C22.9612 81.6929 25.2266 79.6746 27.6283 77.8613C29.5498 76.4089 31.558 75.0974 33.6396 73.9355C34.5082 73.4546 35.3799 72.9998 36.2666 72.5778C37.045 72.2016 37.8325 71.8515 38.629 71.5211C39.5848 71.1264 40.5527 70.7632 41.5325 70.4317C42.5123 70.1002 43.4792 69.8101 44.433 69.5615C45.8356 69.1885 47.2623 68.8854 48.713 68.652C49.9153 68.459 51.1176 68.3249 52.3198 68.2234C53.2756 68.1449 54.2405 68.1024 55.2113 68.0893H55.7373C56.8073 68.0893 57.8713 68.1351 58.9263 68.2136C59.0375 67.9715 59.1577 67.7262 59.269 67.4874C59.6898 66.6139 60.1256 65.7437 60.5644 64.8931C60.5634 64.8855 60.5634 64.8778 60.5644 64.8702C60.6395 64.7197 60.7147 64.5725 60.7928 64.4285C61.1475 63.7317 61.5172 63.0414 61.8959 62.3577C62.0702 62.0305 62.2416 61.723 62.4189 61.4155C62.4564 61.339 62.4976 61.2648 62.5421 61.193C62.7225 60.8659 62.9058 60.5387 63.0922 60.2116C64.0199 58.5976 64.9847 57.012 65.9866 55.4548L66.2421 55.0557C66.3984 54.8136 66.5427 54.578 66.717 54.336C67.1318 53.7046 67.5586 53.0699 67.9884 52.4483C68.289 52.0034 68.5895 51.5617 68.9142 51.1397C69.6956 50.0492 70.4971 48.9587 71.3187 47.8682C72.1402 46.7777 72.9939 45.7014 73.8795 44.6392C73.9998 44.492 74.12 44.3481 74.2462 44.2041L75.5296 42.6796C75.5928 42.6076 75.6469 42.5422 75.707 42.4768C75.8603 42.2969 76.0075 42.1169 76.1728 41.9435C76.8611 41.1486 77.5675 40.3699 78.2768 39.5946C81.8868 35.6811 85.7326 32.034 89.7885 28.6776C89.9478 28.5402 90.1102 28.4094 90.2695 28.2785C91.0329 27.6536 91.8083 27.0353 92.5838 26.4268C96.8492 23.0963 101.308 20.0693 105.932 17.3648C106.251 17.1652 106.575 16.9788 106.903 16.7956C111.048 14.4084 115.312 12.2721 119.674 10.3965C122.051 9.37254 124.483 8.41072 126.93 7.53068C128.559 6.94836 130.194 6.39548 131.85 5.87531C134.439 5.06398 137.046 4.33662 139.671 3.69322C147.404 1.80454 155.271 0.637833 163.187 0.205809C165.592 0.0727685 168.023 0.00406806 170.482 -0.000293931C182.345 -0.0173888 194.162 1.60963 205.648 4.84152C205.767 5.03685 205.929 5.1961 206.12 5.30427C206.311 5.41243 206.524 5.46597 206.739 5.45983H207.749C208.188 5.59069 208.624 5.72155 209.063 5.85895C211.513 6.62666 213.929 7.46526 216.309 8.37473L216.91 8.61028C222.786 10.8843 228.502 13.6176 234.016 16.789C238.985 19.6409 243.771 22.8589 248.338 26.4203C249.041 26.9699 249.734 27.5239 250.418 28.0822C251.247 27.5042 252.091 26.9503 252.948 26.4203C256.26 24.3672 259.778 22.735 263.432 21.5556C271.072 19.0948 279.156 18.7507 286.949 20.5545C296.942 22.8609 305.989 28.586 313.296 36.7288C316.271 40.0604 318.92 43.7202 321.198 47.649C321.363 47.9304 321.529 48.215 321.688 48.5029C323.646 51.9801 325.33 55.6323 326.72 59.4199C326.771 59.5605 326.822 59.6914 326.867 59.8288C328.15 63.3755 329.185 67.0227 329.963 70.7392C329.999 70.929 330.041 71.1154 330.077 71.3052C330.804 74.902 331.299 78.5499 331.556 82.2222C331.556 82.353 331.556 82.4872 331.58 82.6246C331.706 84.5242 331.77 86.4435 331.772 88.3824C331.772 90.1163 331.718 91.8371 331.619 93.5448C331.619 93.7313 331.595 93.9243 331.58 94.1173C331.553 94.6113 331.514 95.0988 331.475 95.596C333.77 97.6115 335.919 99.8176 337.901 102.195C338.776 103.235 339.624 104.315 340.443 105.433C342.94 108.839 345.134 112.494 346.996 116.35C352.078 126.793 355 139.077 355 152.226Z" fill="#6C63FF"/>
<g id="tree2" opacity="0.2">
<path id="Vector_2" opacity="0.2" d="M205.456 217.237C205.446 217.59 205.409 217.941 205.345 218.287C203.253 217.925 201.149 217.598 199.033 217.305C199.033 217.214 199.033 217.119 199.033 217.024C199.052 216.043 199.312 215.086 199.784 214.25C200.403 213.183 201.344 212.516 202.381 212.552C203.418 212.588 204.317 213.317 204.873 214.42C205.293 215.286 205.495 216.258 205.456 217.237V217.237Z" fill="#3F3D56"/>
<path id="Vector_3" opacity="0.2" d="M205.629 211.646C205.702 209.116 204.323 207.016 202.547 206.955C200.772 206.894 199.273 208.895 199.2 211.425C199.126 213.955 200.506 216.056 202.281 216.117C204.057 216.178 205.555 214.176 205.629 211.646Z" fill="#3F3D56"/>
<path id="Vector_4" opacity="0.2" d="M205.792 206.045C205.866 203.515 204.486 201.415 202.711 201.354C200.936 201.293 199.437 203.294 199.363 205.824C199.29 208.354 200.67 210.455 202.445 210.516C204.22 210.577 205.719 208.575 205.792 206.045Z" fill="#3F3D56"/>
<path id="Vector_5" opacity="0.2" d="M205.954 200.444C206.027 197.914 204.647 195.814 202.872 195.753C201.097 195.692 199.598 197.693 199.525 200.223C199.451 202.753 200.831 204.854 202.606 204.915C204.381 204.976 205.88 202.975 205.954 200.444Z" fill="#3F3D56"/>
<path id="Vector_6" opacity="0.2" d="M206.115 194.843C206.188 192.313 204.808 190.213 203.033 190.152C201.258 190.091 199.759 192.092 199.686 194.622C199.612 197.152 200.992 199.253 202.767 199.314C204.542 199.375 206.041 197.374 206.115 194.843Z" fill="#3F3D56"/>
<path id="Vector_7" opacity="0.2" d="M191.96 155.981C191.537 155.357 191.155 154.702 190.818 154.018L199.312 152.798L190.169 152.559C189.353 150.453 188.941 148.187 188.957 145.901C188.973 143.615 189.417 141.357 190.262 139.264L202.321 146.608L191.275 137.173C192.389 135.212 193.863 133.521 195.605 132.208C197.346 130.894 199.318 129.985 201.397 129.538C203.475 129.091 205.617 129.115 207.686 129.609C209.756 130.103 211.71 131.056 213.426 132.409C215.142 133.762 216.583 135.485 217.66 137.472C218.737 139.458 219.425 141.665 219.683 143.954C219.941 146.243 219.763 148.566 219.159 150.776C218.555 152.987 217.539 155.038 216.174 156.802C216.832 157.773 217.392 158.818 217.842 159.92L206.694 165.743L218.515 161.873C219.26 164.547 219.38 167.38 218.865 170.117C218.349 172.854 217.215 175.408 215.564 177.547C217.28 180.081 218.307 183.091 218.526 186.23C218.745 189.37 218.147 192.513 216.802 195.3C215.457 198.088 213.419 200.407 210.92 201.993C208.421 203.579 205.562 204.367 202.671 204.268C199.78 204.169 196.972 203.186 194.57 201.432C192.168 199.678 190.268 197.224 189.087 194.349C187.906 191.475 187.492 188.297 187.892 185.179C188.292 182.061 189.491 179.128 191.35 176.716C189.3 173.687 188.244 169.996 188.353 166.235C188.462 162.475 189.73 158.863 191.951 155.981H191.96Z" fill="#6C63FF"/>
<path id="Vector_8" opacity="0.1" d="M219.171 167.294C219.066 171.057 217.794 174.67 215.564 177.547C217.28 180.081 218.307 183.091 218.526 186.23C218.745 189.37 218.147 192.513 216.802 195.3C215.457 198.088 213.419 200.407 210.92 201.993C208.421 203.579 205.562 204.367 202.671 204.268C199.78 204.169 196.972 203.186 194.57 201.432C192.168 199.678 190.268 197.224 189.087 194.349C187.906 191.475 187.492 188.297 187.892 185.179C188.292 182.061 189.491 179.128 191.35 176.716C189.376 173.795 219.225 165.413 219.171 167.294Z" fill="black"/>
</g>
<g id="tree1" opacity="0.2">
<path id="Vector_9" opacity="0.2" d="M159.77 217.237C159.76 217.59 159.723 217.941 159.659 218.287C157.567 217.925 155.463 217.598 153.347 217.305C153.347 217.214 153.347 217.119 153.347 217.024C153.366 216.043 153.626 215.086 154.098 214.25C154.717 213.183 155.658 212.516 156.695 212.552C157.732 212.588 158.631 213.317 159.187 214.42C159.607 215.286 159.809 216.258 159.77 217.237V217.237Z" fill="#3F3D56"/>
<path id="Vector_10" opacity="0.2" d="M159.939 211.648C160.012 209.118 158.633 207.017 156.857 206.956C155.082 206.895 153.583 208.897 153.51 211.427C153.437 213.957 154.816 216.057 156.591 216.118C158.367 216.179 159.865 214.178 159.939 211.648Z" fill="#3F3D56"/>
<path id="Vector_11" opacity="0.2" d="M160.103 206.047C160.177 203.517 158.797 201.416 157.022 201.355C155.247 201.294 153.748 203.296 153.675 205.826C153.601 208.356 154.981 210.456 156.756 210.517C158.531 210.578 160.03 208.577 160.103 206.047Z" fill="#3F3D56"/>
<path id="Vector_12" opacity="0.2" d="M160.264 200.446C160.338 197.916 158.958 195.815 157.183 195.754C155.407 195.693 153.909 197.695 153.835 200.225C153.762 202.755 155.141 204.855 156.917 204.916C158.692 204.977 160.191 202.976 160.264 200.446Z" fill="#3F3D56"/>
<path id="Vector_13" opacity="0.2" d="M160.425 194.845C160.499 192.315 159.119 190.214 157.344 190.153C155.568 190.092 154.07 192.094 153.996 194.624C153.923 197.154 155.302 199.254 157.078 199.315C158.853 199.376 160.352 197.375 160.425 194.845Z" fill="#3F3D56"/>
<path id="Vector_14" opacity="0.2" d="M146.274 155.981C145.851 155.357 145.469 154.702 145.132 154.018L153.626 152.798L144.483 152.559C143.667 150.453 143.254 148.187 143.27 145.901C143.286 143.615 143.73 141.357 144.576 139.264L156.634 146.608L145.589 137.173C146.703 135.212 148.177 133.521 149.918 132.208C151.66 130.894 153.632 129.985 155.71 129.538C157.789 129.091 159.93 129.115 162 129.609C164.069 130.103 166.023 131.056 167.739 132.409C169.456 133.762 170.897 135.485 171.974 137.472C173.05 139.458 173.739 141.665 173.997 143.954C174.255 146.243 174.076 148.566 173.472 150.776C172.869 152.987 171.853 155.038 170.488 156.802C171.146 157.773 171.705 158.818 172.156 159.92L161.008 165.743L172.829 161.873C173.573 164.547 173.693 167.38 173.178 170.117C172.663 172.854 171.528 175.408 169.877 177.547C171.594 180.081 172.62 183.091 172.839 186.23C173.058 189.37 172.461 192.513 171.116 195.3C169.771 198.088 167.732 200.407 165.233 201.993C162.734 203.579 159.876 204.367 156.984 204.268C154.093 204.169 151.286 203.186 148.884 201.432C146.481 199.678 144.581 197.224 143.4 194.349C142.219 191.475 141.805 188.297 142.205 185.179C142.606 182.061 143.804 179.128 145.664 176.716C143.613 173.687 142.558 169.996 142.667 166.235C142.776 162.475 144.043 158.863 146.265 155.981H146.274Z" fill="#6C63FF"/>
<path id="Vector_15" opacity="0.1" d="M173.485 167.294C173.38 171.057 172.108 174.67 169.878 177.547C171.594 180.081 172.621 183.091 172.84 186.23C173.059 189.37 172.461 192.513 171.116 195.3C169.771 198.088 167.733 200.407 165.234 201.993C162.735 203.579 159.876 204.367 156.985 204.268C154.094 204.169 151.286 203.186 148.884 201.432C146.482 199.678 144.582 197.224 143.401 194.349C142.22 191.475 141.806 188.297 142.206 185.179C142.606 182.061 143.805 179.128 145.664 176.716C143.689 173.795 173.539 165.413 173.485 167.294Z" fill="black"/>
</g>
<g id="tree3" opacity="0.2">
<path id="Vector_16" opacity="0.2" d="M284.565 220.816C284.542 221.484 284.468 222.149 284.345 222.805C280.318 222.105 276.261 221.479 272.175 220.927C272.175 220.75 272.175 220.57 272.175 220.387C272.213 218.498 272.714 216.654 273.624 215.045C274.826 212.994 276.63 211.708 278.622 211.773C280.615 211.839 282.349 213.249 283.432 215.372C284.248 217.045 284.639 218.924 284.565 220.816V220.816Z" fill="#3F3D56"/>
<path id="Vector_17" opacity="0.2" d="M284.892 210.045C285.033 205.173 282.376 201.127 278.956 201.01C275.537 200.892 272.65 204.747 272.509 209.619C272.367 214.491 275.025 218.536 278.444 218.654C281.864 218.772 284.75 214.917 284.892 210.045Z" fill="#3F3D56"/>
<path id="Vector_18" opacity="0.2" d="M285.204 199.262C285.346 194.39 282.688 190.344 279.269 190.227C275.849 190.109 272.963 193.964 272.821 198.836C272.68 203.708 275.337 207.753 278.757 207.871C282.176 207.989 285.063 204.134 285.204 199.262Z" fill="#3F3D56"/>
<path id="Vector_19" opacity="0.2" d="M285.52 188.479C285.661 183.607 283.004 179.562 279.584 179.444C276.165 179.326 273.278 183.181 273.137 188.053C272.995 192.925 275.652 196.97 279.072 197.088C282.491 197.206 285.378 193.351 285.52 188.479Z" fill="#3F3D56"/>
<path id="Vector_20" opacity="0.2" d="M285.48 177.205C285.614 172.331 282.95 168.288 279.528 168.177C276.107 168.065 273.225 171.926 273.09 176.801C272.956 181.675 275.621 185.718 279.042 185.829C282.463 185.941 285.345 182.08 285.48 177.205Z" fill="#3F3D56"/>
<path id="Vector_21" opacity="0.2" d="M258.581 102.891C257.77 101.691 257.036 100.43 256.384 99.1195L272.735 96.7705L255.137 96.3092C253.565 92.2542 252.769 87.8927 252.799 83.4916C252.829 79.0905 253.684 74.7423 255.311 70.7131L278.53 84.8492L257.268 66.6859C259.418 62.9184 262.257 59.6733 265.61 57.1527C268.962 54.6321 272.756 52.8902 276.754 52.0353C280.752 51.1805 284.87 51.2311 288.849 52.1841C292.829 53.137 296.585 54.9719 299.884 57.5742C303.184 60.1766 305.956 63.4907 308.027 67.3101C310.098 71.1295 311.424 75.3722 311.922 79.7739C312.421 84.1755 312.081 88.6418 310.925 92.8943C309.768 97.1469 307.819 101.095 305.199 104.491C306.465 106.361 307.543 108.373 308.412 110.494L286.949 121.712L309.705 114.253C311.139 119.394 311.372 124.843 310.384 130.107C309.396 135.371 307.217 140.284 304.045 144.4C307.348 149.28 309.324 155.072 309.745 161.116C310.166 167.16 309.016 173.211 306.427 178.577C303.837 183.943 299.913 188.407 295.102 191.46C290.292 194.513 284.789 196.03 279.223 195.839C273.657 195.648 268.253 193.756 263.628 190.38C259.004 187.003 255.346 182.278 253.072 176.746C250.798 171.213 250.001 165.095 250.771 159.092C251.541 153.089 253.848 147.444 257.427 142.8C253.482 136.97 251.451 129.865 251.66 122.627C251.869 115.389 254.307 108.438 258.581 102.888V102.891Z" fill="#6C63FF"/>
<path id="Vector_22" opacity="0.1" d="M310.97 124.667C310.773 131.906 308.337 138.861 304.057 144.407C307.361 149.286 309.336 155.079 309.757 161.123C310.178 167.166 309.028 173.217 306.439 178.583C303.85 183.949 299.925 188.414 295.115 191.466C290.304 194.519 284.801 196.037 279.235 195.846C273.669 195.655 268.265 193.763 263.641 190.386C259.016 187.01 255.358 182.285 253.084 176.752C250.81 171.219 250.013 165.102 250.783 159.099C251.553 153.096 253.86 147.45 257.439 142.807C253.61 137.177 311.075 121.045 310.97 124.667Z" fill="black"/>
</g>
</g>
</svg>
