<svg width="545" height="367" viewBox="0 0 545 367" fill="none" xmlns="http://www.w3.org/2000/svg">
<g id="bg">
<path id="Vector" opacity="0.1" d="M545 235.725C545.009 245.669 543.913 255.577 541.734 265.229C541.002 268.482 540.15 271.666 539.18 274.784C537.994 278.631 536.618 282.406 535.06 286.091C534.275 287.955 533.445 289.782 532.571 291.572C532.585 301.769 530.671 311.859 526.95 321.203C520.223 337.969 508.227 351.525 493.149 359.401C483.722 364.334 473.42 366.929 462.975 367H104.261C88.3009 367.037 72.6167 362.438 58.8026 353.671L58.5902 353.539C56.6226 352.276 54.7042 350.939 52.8352 349.527C48.6298 346.341 44.6789 342.768 41.0249 338.848C36.0793 333.547 31.7213 327.625 28.0415 321.203C19.3988 306.151 14.8203 288.722 14.8364 270.934C6.08375 254.089 0.97998 233.911 0.97998 212.229C0.97998 184.873 9.09058 159.918 22.4158 141.027C25.1939 137.08 28.2369 133.366 31.5194 129.917C34.7583 126.504 38.2395 123.378 41.9302 120.57C44.883 118.321 47.969 116.29 51.1678 114.491C52.5026 113.746 53.8421 113.042 55.2046 112.389C56.4009 111.806 57.611 111.264 58.835 110.752C60.3038 110.141 61.791 109.579 63.2967 109.065C64.8025 108.552 66.2882 108.103 67.7539 107.718C69.9093 107.14 72.1017 106.671 74.331 106.309C76.1785 106.011 78.0261 105.803 79.8736 105.646C81.3424 105.524 82.825 105.458 84.3169 105.438H85.1251C86.7694 105.438 88.4045 105.509 90.0257 105.631C90.1966 105.256 90.3813 104.876 90.5522 104.506C91.1989 103.153 91.8686 101.806 92.5429 100.489C92.5414 100.477 92.5414 100.465 92.5429 100.453C92.6584 100.22 92.7739 99.9921 92.894 99.7692C93.439 98.6902 94.0071 97.6212 94.5891 96.5625C94.857 96.0559 95.1202 95.5797 95.3927 95.1035C95.4504 94.9851 95.5136 94.8701 95.5821 94.759C95.8592 94.2524 96.141 93.7458 96.4273 93.2392C97.853 90.74 99.3356 88.2846 100.875 85.8732L101.268 85.2552C101.508 84.8803 101.73 84.5156 101.998 84.1407C102.635 83.1629 103.291 82.1801 103.951 81.2176C104.413 80.5286 104.875 79.8447 105.374 79.1912C106.575 77.5025 107.806 75.8139 109.069 74.1252C110.331 72.4366 111.643 70.7699 113.004 69.1251C113.189 68.8971 113.374 68.6742 113.568 68.4513L115.54 66.0906C115.637 65.9791 115.72 65.8778 115.812 65.7765C116.048 65.4979 116.274 65.2192 116.528 64.9507C117.586 63.7197 118.671 62.514 119.761 61.3134C125.309 55.2532 131.219 49.6056 137.451 44.4082C137.696 44.1954 137.946 43.9928 138.19 43.7901C139.364 42.8225 140.555 41.865 141.747 40.9228C148.301 35.7653 155.153 31.078 162.259 26.89C162.749 26.581 163.247 26.2922 163.751 26.0085C170.121 22.3119 176.673 19.0039 183.376 16.0995C187.03 14.5138 190.766 13.0244 194.526 11.6617C197.029 10.7599 199.542 9.90377 202.087 9.09828C206.065 7.84192 210.071 6.71558 214.105 5.71927C225.989 2.79461 238.078 0.987933 250.242 0.318935C253.937 0.112918 257.674 0.00653384 261.452 -0.000220805C279.683 -0.0266925 297.842 2.49278 315.492 7.49743C315.675 7.79992 315.924 8.04651 316.217 8.21401C316.511 8.38151 316.838 8.46441 317.169 8.4549H318.721C319.395 8.65754 320.065 8.86018 320.739 9.07295C324.505 10.2618 328.217 11.5603 331.875 12.9687L332.799 13.3334C341.827 16.8548 350.612 21.0875 359.084 25.9984C366.721 30.4147 374.075 35.3977 381.093 40.9127C382.174 41.7637 383.239 42.6216 384.289 43.4862C385.564 42.5912 386.86 41.7333 388.178 40.9127C393.267 37.7334 398.673 35.2058 404.288 33.3795C416.028 29.569 428.45 29.0361 440.426 31.8293C455.783 35.4009 469.686 44.2663 480.914 56.8756C485.486 62.0347 489.556 67.702 493.057 73.7858C493.311 74.2215 493.565 74.6622 493.81 75.108C496.819 80.4926 499.406 86.1481 501.542 92.0132C501.62 92.2311 501.699 92.4337 501.768 92.6465C503.74 98.1386 505.33 103.786 506.525 109.541C506.581 109.835 506.645 110.124 506.701 110.418C507.819 115.988 508.578 121.637 508.973 127.323C508.973 127.526 508.973 127.733 509.01 127.946C509.204 130.888 509.303 133.86 509.306 136.862C509.306 139.547 509.223 142.212 509.07 144.856C509.07 145.145 509.033 145.444 509.01 145.743C508.969 146.508 508.909 147.263 508.849 148.033C512.376 151.154 515.678 154.57 518.724 158.251C520.069 159.862 521.372 161.534 522.631 163.266C526.467 168.54 529.839 174.2 532.7 180.171C540.51 196.342 545 215.365 545 235.725Z" fill="#6C63FF"/>
<g id="tree2" opacity="0.2">
<path id="Vector_2" opacity="0.2" d="M315.197 336.396C315.182 336.943 315.125 337.487 315.026 338.022C311.811 337.462 308.578 336.955 305.326 336.503C305.326 336.361 305.326 336.214 305.326 336.067C305.356 334.548 305.755 333.065 306.481 331.771C307.432 330.119 308.878 329.086 310.472 329.142C312.065 329.197 313.446 330.327 314.3 332.034C314.947 333.375 315.256 334.881 315.197 336.396V336.396Z" fill="#3F3D56"/>
<path id="Vector_3" opacity="0.2" d="M315.462 327.739C315.575 323.821 313.455 320.569 310.727 320.474C307.999 320.38 305.696 323.479 305.583 327.397C305.47 331.315 307.59 334.567 310.318 334.662C313.046 334.757 315.349 331.657 315.462 327.739Z" fill="#3F3D56"/>
<path id="Vector_4" opacity="0.2" d="M315.714 319.066C315.827 315.148 313.707 311.896 310.979 311.801C308.251 311.706 305.948 314.806 305.835 318.724C305.722 322.642 307.842 325.894 310.57 325.989C313.298 326.083 315.601 322.984 315.714 319.066Z" fill="#3F3D56"/>
<path id="Vector_5" opacity="0.2" d="M315.962 310.393C316.074 306.475 313.954 303.222 311.226 303.128C308.498 303.033 306.195 306.133 306.082 310.051C305.969 313.968 308.089 317.221 310.818 317.316C313.546 317.41 315.849 314.311 315.962 310.393Z" fill="#3F3D56"/>
<path id="Vector_6" opacity="0.2" d="M316.209 301.72C316.322 297.802 314.202 294.549 311.474 294.455C308.746 294.36 306.443 297.459 306.33 301.377C306.217 305.295 308.337 308.548 311.065 308.642C313.793 308.737 316.096 305.638 316.209 301.72Z" fill="#3F3D56"/>
<path id="Vector_7" opacity="0.2" d="M294.458 241.541C293.808 240.575 293.221 239.559 292.703 238.501L305.756 236.612L291.706 236.242C290.452 232.98 289.818 229.471 289.842 225.931C289.867 222.391 290.55 218.894 291.849 215.654L310.379 227.027L293.405 212.416C295.118 209.379 297.383 206.761 300.059 204.727C302.735 202.692 305.765 201.285 308.959 200.592C312.153 199.9 315.444 199.938 318.624 200.703C321.805 201.468 324.807 202.944 327.444 205.039C330.081 207.133 332.296 209.802 333.951 212.878C335.605 215.954 336.664 219.371 337.06 222.916C337.456 226.461 337.182 230.057 336.254 233.481C335.326 236.904 333.765 240.081 331.667 242.812C332.679 244.315 333.539 245.934 334.231 247.64L317.1 256.658L335.265 250.665C336.409 254.805 336.594 259.193 335.802 263.431C335.01 267.669 333.266 271.623 330.73 274.936C333.367 278.86 334.944 283.52 335.281 288.382C335.617 293.243 334.7 298.111 332.633 302.427C330.566 306.744 327.434 310.336 323.593 312.791C319.753 315.247 315.36 316.468 310.917 316.314C306.474 316.161 302.16 314.639 298.469 311.922C294.777 309.206 291.857 305.405 290.042 300.955C288.227 296.504 287.591 291.583 288.206 286.754C288.822 281.925 290.663 277.384 293.521 273.649C290.37 268.959 288.748 263.243 288.915 257.419C289.083 251.596 291.03 246.004 294.445 241.541H294.458Z" fill="#6C63FF"/>
<path id="Vector_8" opacity="0.1" d="M336.272 259.059C336.111 264.885 334.157 270.481 330.73 274.936C333.367 278.86 334.944 283.52 335.281 288.382C335.617 293.243 334.7 298.111 332.633 302.427C330.566 306.744 327.434 310.335 323.593 312.791C319.753 315.247 315.36 316.468 310.917 316.314C306.474 316.161 302.16 314.639 298.469 311.922C294.777 309.206 291.857 305.405 290.042 300.954C288.227 296.504 287.591 291.583 288.206 286.754C288.822 281.925 290.663 277.384 293.521 273.649C290.486 269.125 336.355 256.146 336.272 259.059Z" fill="black"/>
</g>
<g id="tree1" opacity="0.2">
<path id="Vector_9" opacity="0.2" d="M244.991 336.396C244.977 336.943 244.92 337.487 244.821 338.022C241.606 337.462 238.373 336.955 235.121 336.503C235.121 336.361 235.121 336.214 235.121 336.067C235.151 334.548 235.55 333.065 236.276 331.771C237.227 330.119 238.673 329.086 240.266 329.142C241.86 329.197 243.241 330.327 244.095 332.034C244.742 333.375 245.051 334.881 244.991 336.396V336.396Z" fill="#3F3D56"/>
<path id="Vector_10" opacity="0.2" d="M245.251 327.741C245.364 323.824 243.244 320.571 240.516 320.476C237.788 320.382 235.485 323.481 235.372 327.399C235.259 331.317 237.379 334.57 240.107 334.664C242.835 334.759 245.138 331.659 245.251 327.741Z" fill="#3F3D56"/>
<path id="Vector_11" opacity="0.2" d="M245.504 319.068C245.616 315.15 243.496 311.898 240.768 311.803C238.04 311.709 235.737 314.808 235.624 318.726C235.511 322.644 237.631 325.896 240.36 325.991C243.088 326.085 245.391 322.986 245.504 319.068Z" fill="#3F3D56"/>
<path id="Vector_12" opacity="0.2" d="M245.751 310.395C245.864 306.477 243.744 303.225 241.015 303.13C238.287 303.035 235.984 306.135 235.871 310.053C235.758 313.97 237.879 317.223 240.607 317.318C243.335 317.412 245.638 314.313 245.751 310.395Z" fill="#3F3D56"/>
<path id="Vector_13" opacity="0.2" d="M245.998 301.722C246.111 297.804 243.991 294.551 241.263 294.457C238.535 294.362 236.232 297.462 236.119 301.379C236.006 305.297 238.126 308.55 240.854 308.645C243.582 308.739 245.885 305.64 245.998 301.722Z" fill="#3F3D56"/>
<path id="Vector_14" opacity="0.2" d="M224.252 241.541C223.602 240.575 223.015 239.559 222.497 238.501L235.55 236.612L221.5 236.242C220.246 232.98 219.612 229.471 219.636 225.931C219.661 222.391 220.344 218.894 221.643 215.654L240.173 227.027L223.199 212.416C224.912 209.379 227.177 206.761 229.853 204.727C232.529 202.692 235.559 201.285 238.753 200.592C241.947 199.9 245.238 199.938 248.418 200.703C251.599 201.468 254.601 202.944 257.238 205.039C259.875 207.133 262.09 209.802 263.745 212.878C265.399 215.954 266.458 219.371 266.854 222.916C267.25 226.461 266.976 230.057 266.048 233.481C265.12 236.904 263.559 240.081 261.461 242.812C262.473 244.315 263.333 245.934 264.025 247.64L246.894 256.658L265.059 250.665C266.203 254.805 266.388 259.193 265.596 263.431C264.804 267.669 263.06 271.623 260.524 274.936C263.161 278.86 264.738 283.52 265.075 288.382C265.411 293.243 264.494 298.111 262.427 302.427C260.36 306.744 257.228 310.336 253.387 312.791C249.547 315.247 245.154 316.468 240.711 316.314C236.268 316.161 231.954 314.639 228.263 311.922C224.571 309.206 221.651 305.405 219.836 300.955C218.021 296.504 217.385 291.583 218 286.754C218.615 281.925 220.457 277.384 223.315 273.649C220.164 268.959 218.542 263.243 218.709 257.419C218.877 251.596 220.824 246.004 224.238 241.541H224.252Z" fill="#6C63FF"/>
<path id="Vector_15" opacity="0.1" d="M266.067 259.059C265.905 264.885 263.952 270.481 260.524 274.936C263.162 278.86 264.739 283.52 265.075 288.382C265.412 293.243 264.494 298.111 262.427 302.427C260.361 306.744 257.228 310.335 253.388 312.791C249.548 315.247 245.155 316.468 240.712 316.314C236.269 316.161 231.955 314.639 228.263 311.922C224.572 309.206 221.651 305.405 219.837 300.954C218.022 296.504 217.386 291.583 218.001 286.754C218.616 281.925 220.458 277.384 223.315 273.649C220.281 269.125 266.15 256.146 266.067 259.059Z" fill="black"/>
</g>
<g id="tree3" opacity="0.2">
<path id="Vector_16" opacity="0.2" d="M436.763 341.938C436.728 342.973 436.615 344.004 436.426 345.018C430.236 343.934 424.003 342.965 417.724 342.111C417.724 341.837 417.724 341.558 417.724 341.275C417.783 338.349 418.551 335.494 419.95 333.002C421.798 329.826 424.569 327.835 427.631 327.936C430.694 328.037 433.359 330.221 435.022 333.509C436.275 336.099 436.877 339.009 436.763 341.938V341.938Z" fill="#3F3D56"/>
<path id="Vector_17" opacity="0.2" d="M437.266 325.259C437.483 317.715 433.399 311.451 428.145 311.268C422.89 311.086 418.454 317.055 418.236 324.6C418.019 332.145 422.103 338.409 427.357 338.591C432.612 338.773 437.048 332.804 437.266 325.259Z" fill="#3F3D56"/>
<path id="Vector_18" opacity="0.2" d="M437.746 308.562C437.963 301.017 433.879 294.753 428.625 294.571C423.37 294.389 418.934 300.357 418.716 307.902C418.499 315.447 422.583 321.711 427.837 321.893C433.092 322.075 437.528 316.107 437.746 308.562Z" fill="#3F3D56"/>
<path id="Vector_19" opacity="0.2" d="M438.23 291.864C438.448 284.319 434.364 278.055 429.109 277.873C423.855 277.691 419.419 283.66 419.201 291.205C418.984 298.749 423.067 305.013 428.322 305.196C433.577 305.378 438.013 299.409 438.23 291.864Z" fill="#3F3D56"/>
<path id="Vector_20" opacity="0.2" d="M438.169 274.407C438.375 266.858 434.281 260.598 429.023 260.425C423.766 260.252 419.337 266.231 419.13 273.78C418.924 281.329 423.018 287.588 428.276 287.761C433.533 287.934 437.962 281.955 438.169 274.407Z" fill="#3F3D56"/>
<path id="Vector_21" opacity="0.2" d="M396.834 159.33C395.587 157.47 394.459 155.519 393.457 153.489L418.583 149.852L391.54 149.137C389.125 142.858 387.903 136.104 387.949 129.289C387.995 122.474 389.308 115.74 391.808 109.501L427.488 131.391L394.815 103.265C398.119 97.4308 402.483 92.4056 407.634 88.5025C412.786 84.5993 418.616 81.9018 424.76 80.5781C430.904 79.2544 437.231 79.3328 443.346 80.8084C449.461 82.2841 455.234 85.1254 460.304 89.1552C465.374 93.185 469.633 98.3171 472.816 104.231C475.999 110.146 478.037 116.716 478.803 123.532C479.569 130.348 479.047 137.264 477.269 143.849C475.492 150.434 472.497 156.547 468.471 161.807C470.417 164.702 472.072 167.819 473.409 171.103L440.426 188.475L475.395 176.924C477.598 184.885 477.957 193.323 476.439 201.474C474.92 209.626 471.572 217.233 466.697 223.607C471.774 231.163 474.809 240.133 475.456 249.492C476.104 258.851 474.337 268.221 470.358 276.53C466.379 284.839 460.348 291.753 452.955 296.48C445.563 301.207 437.106 303.557 428.553 303.262C420 302.966 411.696 300.036 404.589 294.808C397.483 289.579 391.861 282.263 388.367 273.695C384.874 265.127 383.648 255.654 384.832 246.358C386.015 237.063 389.56 228.32 395.06 221.13C388.997 212.101 385.876 201.099 386.198 189.891C386.52 178.683 390.265 167.918 396.834 159.325V159.33Z" fill="#6C63FF"/>
<path id="Vector_22" opacity="0.1" d="M477.34 193.049C477.037 204.26 473.294 215.03 466.717 223.617C471.793 231.173 474.828 240.143 475.475 249.502C476.123 258.861 474.356 268.231 470.377 276.54C466.398 284.85 460.367 291.763 452.974 296.49C445.582 301.217 437.125 303.567 428.573 303.272C420.02 302.976 411.715 300.046 404.609 294.818C397.502 289.589 391.88 282.273 388.387 273.705C384.893 265.137 383.667 255.664 384.851 246.368C386.034 237.073 389.579 228.33 395.079 221.14C389.195 212.422 477.501 187.441 477.34 193.049Z" fill="black"/>
</g>
</g>
</svg>
