<svg width="64" height="64" viewBox="0 0 64 64" fill="none" xmlns="http://www.w3.org/2000/svg">
<g clip-path="url(#clip0_302_25)">
<path d="M63.5574 21.6027C62.1738 30.2755 57.7582 38.1762 51.0963 43.8991C44.4345 49.622 35.9583 52.7958 27.176 52.856C25.3974 52.9252 23.6162 52.818 21.8587 52.536C18.1833 51.9117 14.8331 50.0461 12.3669 47.2504C9.90065 44.4547 8.46757 40.8979 8.3067 37.1733C8.32255 33.0064 9.98136 29.0139 12.923 26.0626C15.8647 23.1113 19.8517 21.4394 24.0186 21.4099C28.1854 21.3804 32.1957 22.9957 35.1789 25.9051C38.162 28.8144 39.8772 32.783 39.952 36.9493C40.0187 39.5707 38.8827 41.872 36.5467 41.9387C34.0507 41.9387 32.8827 40.1573 32.8827 37.76V31.0933C32.8841 30.0147 32.4586 28.9793 31.6992 28.2133C30.9397 27.4474 29.908 27.0131 28.8294 27.0053H23.24C21.6147 26.9946 20.0126 27.3914 18.58 28.1593C17.1475 28.9272 15.9302 30.0419 15.0393 31.4014C14.1485 32.7609 13.6125 34.3219 13.4803 35.9419C13.3481 37.5619 13.6239 39.1893 14.2826 40.6752C14.9412 42.1612 15.9617 43.4584 17.2508 44.4484C18.5399 45.4384 20.0565 46.0896 21.6621 46.3426C23.2677 46.5955 24.9111 46.4422 26.4421 45.8965C27.9732 45.3508 29.3431 44.4301 30.4267 43.2187L30.6214 42.9253L30.8187 43.248C31.4906 44.1611 32.3778 44.8941 33.4013 45.3816C34.4248 45.8692 35.5529 46.0963 36.6854 46.0427C38.7041 45.8961 40.5856 44.9663 41.9283 43.4517C43.2709 41.9371 43.9685 39.9577 43.872 37.936C43.8919 36.2005 43.6975 34.4692 43.2934 32.7813C42.2599 28.0115 39.4964 23.7936 35.5361 20.9413C31.5759 18.089 26.6996 16.8045 21.8481 17.3357C16.9966 17.8669 12.5138 20.1761 9.26466 23.8178C6.01548 27.4595 4.23023 32.1756 4.25336 37.056C4.31522 42.2294 6.38032 47.1775 10.0146 50.86C13.6488 54.5424 18.5692 56.6726 23.7414 56.8027C23.7414 56.8027 25.2054 56.936 26.8534 56.896C34.8748 56.8456 42.7152 54.5069 49.4534 50.1547C49.5494 50.088 49.6454 50.2213 49.5814 50.3173C46.301 53.8508 42.2898 56.6268 37.8272 58.4519C33.3645 60.277 28.5577 61.1074 23.7414 60.8853C20.5926 60.9426 17.4649 60.3614 14.5469 59.1769C11.6289 57.9923 8.98108 56.229 6.7632 53.9931C4.54532 51.7573 2.80334 49.0954 1.64234 46.1679C0.481341 43.2405 -0.0746084 40.1082 0.0080296 36.96C0.00957458 33.2068 0.886559 29.5058 2.56928 26.151C4.252 22.7962 6.69406 19.8802 9.70136 17.6347C13.7428 14.6588 18.6266 13.0468 23.6454 13.032H31.1467C34.0771 13.0298 36.975 12.4174 39.6557 11.2338C42.3365 10.0502 44.7414 8.32134 46.7174 6.15732C46.7589 6.11122 46.814 6.07948 46.8747 6.06666C46.9361 6.05358 47.0001 6.0602 47.0576 6.08557C47.115 6.11094 47.163 6.15378 47.1947 6.20799C47.2262 6.26196 47.2402 6.32439 47.2347 6.38666C46.917 9.7577 45.7949 13.0033 43.9627 15.8507C43.9348 15.8992 43.9218 15.9548 43.9254 16.0107C43.9299 16.0672 43.9506 16.1212 43.9852 16.1662C44.0197 16.2111 44.0666 16.2451 44.12 16.264C44.1729 16.2835 44.2304 16.2872 44.2854 16.2747C47.7478 15.4925 50.9783 13.9085 53.717 11.6501C56.4557 9.39174 58.626 6.52208 60.0534 3.27199C60.0897 3.21338 60.1401 3.1648 60.2 3.13066C60.2599 3.09702 60.3274 3.07935 60.396 3.07935C60.4647 3.07935 60.5322 3.09702 60.592 3.13066C60.6511 3.16497 60.7006 3.21357 60.736 3.27199C63.6754 8.90187 64.6675 15.3467 63.5574 21.6V21.6027ZM23.72 31.008C22.566 31.008 21.438 31.3502 20.4785 31.9913C19.519 32.6324 18.7711 33.5437 18.3295 34.6098C17.8879 35.676 17.7723 36.8491 17.9975 37.9809C18.2226 39.1128 18.7783 40.1524 19.5943 40.9684C20.4103 41.7844 21.4499 42.3401 22.5817 42.5652C23.7136 42.7903 24.8867 42.6748 25.9529 42.2332C27.019 41.7916 27.9303 41.0437 28.5714 40.0842C29.2125 39.1247 29.5547 37.9966 29.5547 36.8427V31.3973C29.5495 31.2929 29.5057 31.1941 29.4318 31.1202C29.3579 31.0463 29.2591 31.0025 29.1547 30.9973L23.72 31.008Z" fill="black"/>
</g>
<defs>
<clipPath id="clip0_302_25">
<rect width="64" height="64" fill="white"/>
</clipPath>
</defs>
</svg>
