<svg width="64" height="64" viewBox="0 0 64 64" fill="none" xmlns="http://www.w3.org/2000/svg">
<path d="M32.9961 64C16.309 64 3.6582 52.2839 3.6582 32.5145C3.6582 11.9939 15.9038 0 33.7361 0C57.0565 0 59.7251 19.5964 60.2317 20.3594L44.4287 23.994C43.9337 21.9087 42.6928 13.8883 33.1193 13.8883C23.2047 13.8883 19.9475 21.6925 19.9475 31.6439C19.9475 41.7395 22.8127 50.1119 32.8727 50.1119C43.4646 50.1119 44.4112 38.2785 44.8736 37.3025L60.342 42.024C59.6551 43.186 57.0341 64 32.9961 64V64ZM33.7361 3.75C17.4965 3.75 7.4082 14.7719 7.4082 32.5145C7.4082 49.3632 17.4521 60.25 32.9961 60.25C44.6417 60.25 52.0798 55.1003 55.6815 44.5223L47.531 42.0344C45.251 49.3316 40.3647 53.8619 32.8727 53.8619C20.5491 53.8619 16.1975 43.9818 16.1975 31.6439C16.1975 16.1751 23.6527 10.1383 33.1193 10.1383C39.7882 10.1383 44.9998 13.6888 47.1147 19.5284L55.4383 17.614C51.1757 6.21563 41.3935 3.75 33.7361 3.75V3.75Z" fill="white"/>
</svg>
