<svg width="64" height="64" viewBox="0 0 64 64" fill="none" xmlns="http://www.w3.org/2000/svg">
<path d="M32 0C14.355 0 0 14.355 0 32C0 49.645 14.355 64 32 64C49.645 64 64 49.645 64 32C64 14.355 49.645 0 32 0Z" fill="#93C7EF"/>
<path d="M32 64C49.645 64 64 49.645 64 32C64 14.355 49.645 0 32 0" fill="#78B9EB"/>
<path d="M27.1097 33.9744C26.996 34.2779 26.8395 34.5371 26.6448 34.7442C26.447 34.9546 26.2215 35.1286 25.9743 35.2614C25.7248 35.3958 25.4623 35.4931 25.1938 35.5507C24.409 35.7189 23.669 35.6431 23.0751 35.3409C22.6841 35.1424 22.3496 34.8728 22.081 34.5398C21.81 34.2046 21.6007 33.8118 21.4586 33.3722C21.3155 32.9307 21.2428 32.4623 21.2428 31.9797C21.2428 31.5497 21.3057 31.1099 21.4297 30.6727C21.5522 30.2402 21.7421 29.8472 21.9938 29.5051C22.2431 29.1667 22.5671 28.8881 22.9571 28.6773C23.53 28.3673 24.2986 28.2789 25.1675 28.4399C25.4418 28.4912 25.7115 28.5819 25.9683 28.7102C26.222 28.8373 26.457 29.0113 26.6668 29.2273C26.8741 29.4412 27.0437 29.7169 27.1708 30.0473L27.2431 30.2351L30.5421 27.8882L30.4781 27.7673C29.9656 26.7981 29.1768 26.0087 28.1337 25.4213C27.093 24.8358 25.8486 24.5389 24.435 24.5389C23.2543 24.5389 22.1878 24.7554 21.2646 25.1823C20.3442 25.6083 19.5496 26.1731 18.903 26.8608C18.2562 27.5489 17.7573 28.3373 17.4202 29.2042C17.0833 30.0697 16.9126 30.9628 16.9126 31.8582C16.9126 32.7942 17.0938 33.7282 17.451 34.6347C17.808 35.5414 18.3198 36.3632 18.9725 37.0773C19.6251 37.7922 20.4126 38.3742 21.3131 38.8072C22.216 39.2414 23.2253 39.4617 24.313 39.4617C24.9303 39.4617 25.5737 39.3852 26.2253 39.2344C26.8766 39.0837 27.4961 38.8609 28.0667 38.5723C28.6395 38.2824 29.1572 37.9186 29.6057 37.4908C30.0588 37.0584 30.4025 36.5624 30.6266 36.0167L30.6776 35.8923L27.1751 33.7997L27.1097 33.9744Z" fill="white"/>
<path d="M47.0865 31.2834V28.3331H44.5534L45.4869 24.6196H42.1001L41.1868 28.3331H39.2459L40.1794 24.6196H36.7925L35.8794 28.3331H32.8625V31.2834H35.1563L34.8223 32.7366H31.8276V35.8898H34.0571L33.2049 39.3395H36.5914L37.4234 35.8898H39.3645L38.5123 39.3395H41.8988L42.7308 35.8898H46.0513V32.7366H43.4938L43.8278 31.2834H47.0865ZM40.4638 31.2834L40.1298 32.7366H38.1866L38.5206 31.2834H40.4638Z" fill="white"/>
</svg>
