<svg width="120" height="60" viewBox="0 0 120 60" fill="none" xmlns="http://www.w3.org/2000/svg">
<g clip-path="url(#clip0)">
<path fill-rule="evenodd" clip-rule="evenodd" d="M62.3999 47.7811C59.3034 47.7811 56.3608 47.3029 53.5722 46.3382C50.7836 45.3736 48.3193 43.9306 46.1793 42.0095L51.5213 35.6136C54.9827 38.386 58.7278 39.764 62.7486 39.764C64.0374 39.764 65.0183 39.5614 65.6912 39.148C66.3639 38.7345 66.7044 38.1509 66.7044 37.3969V37.2997C66.7044 36.9349 66.6234 36.6188 66.4612 36.3351C66.2991 36.0513 65.9911 35.7839 65.5452 35.5244C65.0994 35.265 64.5076 35.0057 63.7618 34.7625C63.0242 34.5193 62.0595 34.2598 60.8679 34.0005C59.0196 33.5708 57.3092 33.1007 55.7285 32.5981C54.1477 32.0874 52.7697 31.4308 51.6023 30.6202C50.435 29.8176 49.5109 28.8124 48.83 27.6127C48.1571 26.413 47.8166 24.9214 47.8166 23.1462V23.0489C47.8166 21.4357 48.1247 19.9522 48.7327 18.6067C49.3407 17.261 50.2324 16.0856 51.3997 15.1047C52.567 14.1157 53.9775 13.3537 55.6312 12.8106C57.2768 12.2675 59.1412 12 61.2164 12C64.1833 12 66.826 12.3891 69.1525 13.1673C71.479 13.9455 73.5786 15.0966 75.4593 16.6287L70.6603 23.4055C69.0796 22.2869 67.4502 21.4357 65.7884 20.8602C64.1266 20.2846 62.5135 19.9928 60.9652 19.9928C59.8141 19.9928 58.9467 20.2036 58.3712 20.6332C57.7956 21.0628 57.5037 21.5897 57.5037 22.2139V22.3112C57.5037 22.7084 57.5929 23.0489 57.7794 23.3488C57.9577 23.6487 58.2739 23.9162 58.7197 24.1675C59.1655 24.4189 59.7735 24.662 60.5517 24.9052C61.3218 25.1484 62.3108 25.4078 63.4943 25.6672C65.4723 26.0968 67.2638 26.5994 68.8607 27.1749C70.4577 27.7505 71.8195 28.4476 72.9382 29.2745C74.0569 30.1014 74.9162 31.0903 75.5079 32.2576C76.0997 33.4249 76.3996 34.8192 76.3996 36.4243V36.5215C76.3996 38.2968 76.0591 39.8775 75.3863 41.2637C74.7134 42.6499 73.7651 43.8253 72.541 44.7899C71.325 45.7627 69.8578 46.5004 68.1393 47.0111C66.4207 47.5299 64.5076 47.7811 62.3999 47.7811V47.7811ZM92.6203 47.7811C89.5237 47.7811 86.5811 47.3029 83.7925 46.3382C81.0039 45.3736 78.5397 43.9306 76.3996 42.0095L81.7417 35.6136C85.2031 38.386 88.9482 39.764 92.9689 39.764C94.2578 39.764 95.2387 39.5614 95.9115 39.148C96.5843 38.7345 96.9248 38.1509 96.9248 37.3969V37.2997C96.9248 36.9349 96.8438 36.6188 96.6816 36.3351C96.5194 36.0513 96.2115 35.7839 95.7656 35.5244C95.3197 35.265 94.728 35.0057 93.9822 34.7625C93.2445 34.5193 92.2799 34.2598 91.0882 34.0005C89.24 33.5708 87.5296 33.1007 85.9488 32.5981C84.3681 32.0874 82.99 31.4308 81.8227 30.6202C80.6554 29.8176 79.7312 28.8124 79.0504 27.6127C78.3775 26.413 78.037 24.9214 78.037 23.1462V23.0489C78.037 21.4357 78.3451 19.9522 78.9531 18.6067C79.561 17.261 80.4528 16.0856 81.6201 15.1047C82.7873 14.1157 84.1979 13.3537 85.8515 12.8106C87.4972 12.2675 89.3616 12 91.4369 12C94.4037 12 97.0464 12.3891 99.3729 13.1673C101.699 13.9455 103.799 15.0966 105.68 16.6287L100.881 23.4055C99.3 22.2869 97.6705 21.4357 96.0087 20.8602C94.347 20.2846 92.7339 19.9928 91.1855 19.9928C90.0344 19.9928 89.1671 20.2036 88.5915 20.6332C88.016 21.0628 87.7241 21.5897 87.7241 22.2139V22.3112C87.7241 22.7084 87.8133 23.0489 87.9997 23.3488C88.178 23.6487 88.4942 23.9162 88.9401 24.1675C89.3859 24.4189 89.9939 24.662 90.772 24.9052C91.5422 25.1484 92.5311 25.4078 93.7147 25.6672C95.6927 26.0968 97.4842 26.5994 99.0811 27.1749C100.678 27.7505 102.04 28.4476 103.159 29.2745C104.277 30.1014 105.137 31.0903 105.728 32.2576C106.32 33.4249 106.62 34.8192 106.62 36.4243V36.5215C106.62 38.2968 106.28 39.8775 105.607 41.2637C104.934 42.6499 103.985 43.8253 102.761 44.7899C101.545 45.7627 100.078 46.5004 98.3596 47.0111C96.641 47.5299 94.728 47.7811 92.6203 47.7811V47.7811ZM30.8501 48C28.3777 48 26.0512 47.5542 23.8787 46.6624C21.7063 45.7708 19.8175 44.5305 18.2205 42.9255C16.6236 41.3286 15.3509 39.4316 14.4106 37.243C13.4702 35.0543 13 32.671 13 30.1014V30.0041C13 27.4992 13.4621 25.1484 14.3863 22.9597C15.3103 20.771 16.5749 18.8579 18.1962 17.2204C19.8093 15.5911 21.7306 14.3103 23.9598 13.3862C26.189 12.4621 28.6128 12 31.2555 12C33.0389 12 34.6521 12.1702 36.1031 12.5188C37.5541 12.8673 38.8835 13.3619 40.0833 14.0023C41.283 14.6427 42.3773 15.4127 43.3501 16.3045C44.3229 17.1961 45.1902 18.1689 45.9441 19.2227L38.7133 24.816C37.7243 23.5596 36.6381 22.5706 35.4464 21.8491C34.263 21.1276 32.8281 20.7629 31.142 20.7629C29.9261 20.7629 28.8074 21.0061 27.8022 21.4763C26.797 21.9545 25.9296 22.6031 25.2082 23.4298C24.4867 24.2567 23.9112 25.2295 23.5058 26.3481C23.0924 27.4668 22.8897 28.6584 22.8897 29.9068V30.0041C22.8897 31.2929 23.0924 32.5008 23.5058 33.6357C23.9192 34.7705 24.4867 35.7514 25.2082 36.5783C25.9296 37.4051 26.797 38.0536 27.8022 38.5319C28.8074 39.0101 29.9179 39.2452 31.142 39.2452C32.0337 39.2452 32.8443 39.148 33.5901 38.9453C34.3277 38.7508 35.0087 38.4589 35.6167 38.0779C36.2247 37.697 36.8002 37.251 37.3514 36.7404C37.8945 36.2297 38.4296 35.6623 38.9565 35.038L46.1793 40.1775C45.3524 41.2961 44.4526 42.3337 43.488 43.2903C42.5152 44.2468 41.4127 45.0737 40.1724 45.7627C38.9322 46.4517 37.5541 46.9948 36.022 47.392C34.4899 47.7892 32.7632 48 30.8501 48V48Z" fill="#F6F6F6"/>
</g>
<defs>
<clipPath id="clip0">
<rect width="120" height="60" fill="white"/>
</clipPath>
</defs>
</svg>
