<svg width="339" height="182" viewBox="0 0 339 182" fill="none" xmlns="http://www.w3.org/2000/svg">
<g id="treeAndDB">
<path id="Vector" d="M2.78516 179.588H336.577V2.06372H2.78516V179.588Z" fill="white"/>
<path id="Vector_2" d="M96.717 61.8019H62.7144V64.7786H96.717V61.8019Z" fill="#6C63FF"/>
<path id="Vector_3" d="M338.541 181.652H0.820801V0H338.541V181.652ZM2.78514 179.588H336.577V2.06369H2.78514V179.588Z" fill="#3F3D56"/>
<path id="Vector_4" d="M207.934 89.3375H173.932V92.3143H207.934V89.3375Z" fill="#6C63FF"/>
<path id="Vector_5" d="M253.979 89.3375H219.977V92.3143H253.979V89.3375Z" fill="#6C63FF"/>
<path id="Vector_6" d="M253.979 61.8019H154.097V64.7786H253.979V61.8019Z" fill="#6C63FF"/>
<path id="Vector_7" d="M162.597 89.3375H62.7144V92.3143H162.597V89.3375Z" fill="#6C63FF"/>
<path id="Vector_8" d="M162.597 116.873H62.7144V119.85H162.597V116.873Z" fill="#6C63FF"/>
<path id="Vector_9" d="M253.979 116.873H184.557V119.85H253.979V116.873Z" fill="#6C63FF"/>
</g>
</svg>
