<svg width="85" height="64" viewBox="0 0 85 64" fill="none" xmlns="http://www.w3.org/2000/svg">
<path d="M85 62.3403C81.9081 63.3605 79.9956 62.385 78.2801 59.0417L66.077 37.131L64.3131 34.0971L50.0624 59.1145C48.4342 62.1244 46.7263 63.4333 43.6873 62.3685L61.9358 30.5775L44.9464 1.86098C47.8681 1.12381 49.8871 1.4986 51.6797 4.89488L64.3367 27.0786L77.0867 5.01567C78.72 2.00577 80.4763 0.862367 83.4088 1.97102L76.8215 13.3057L67.8965 28.3875C66.8338 30.1109 66.9797 31.2907 67.9577 32.9545L85 62.3403ZM0.0216751 30.0463L1.51407 20.5177C5.57814 1.66076 22.2329 -6.17508 33.7187 5.4765C40.431 12.3295 42.0993 22.0235 41.7672 32.8825H3.93147C3.36346 52.4287 14.2035 64.225 28.0233 58.2069C32.8709 56.0938 35.7262 51.167 37.1555 45.004C37.881 41.9155 39.0808 41.4324 41.3178 42.3151C40.176 50.0236 37.5992 56.4628 32.1537 60.4929C24.0179 66.5251 12.4039 64.5742 6.29533 56.1906C2.65583 51.3258 1.1526 45.1629 0.478126 38.5714C0.371663 37.4818 0.159375 36.4443 0 35.4001C0.014025 33.6164 0.0216751 31.8334 0.0216751 30.0497V30.0463ZM4.00032 28.7366H38.1914C37.9683 14.603 31.1872 4.56393 21.9192 4.47872C11.746 4.3753 4.44147 14.1753 4.00032 28.7366Z" fill="white"/>
</svg>
