<svg width="64" height="64" viewBox="0 0 64 64" fill="none" xmlns="http://www.w3.org/2000/svg">
<g clip-path="url(#clip0)">
<path d="M62.792 29.1606L34.85 1.20849C34.4674 0.825556 34.0131 0.521787 33.5131 0.314535C33.0131 0.107283 32.4772 0.000610352 31.936 0.000610352C31.3948 0.000610352 30.8589 0.107283 30.3589 0.314535C29.8589 0.521787 29.4046 0.825556 29.022 1.20849L23.222 7.01058L30.582 14.3732C32.294 13.773 34.254 14.1832 35.618 15.5477C36.2673 16.1984 36.7206 17.0186 36.926 17.9148C37.1315 18.8109 37.0809 19.7468 36.78 20.6155L43.874 27.7121C45.59 27.1198 47.57 27.502 48.94 28.8765C49.3954 29.3322 49.7567 29.8732 50.0031 30.4686C50.2495 31.064 50.3763 31.702 50.3762 32.3464C50.3761 32.9908 50.2491 33.6289 50.0025 34.2242C49.7559 34.8195 49.3946 35.3604 48.939 35.816C48.4834 36.2716 47.9426 36.6329 47.3475 36.8795C46.7523 37.126 46.1145 37.2528 45.4703 37.2527C44.8261 37.2526 44.1883 37.1256 43.5932 36.8789C42.9981 36.6322 42.4574 36.2707 42.002 35.815C40.562 34.3745 40.206 32.2537 40.934 30.4791L34.318 23.8607V41.277C34.7983 41.5147 35.2372 41.8282 35.618 42.2053C36.0734 42.6609 36.4347 43.2017 36.6812 43.797C36.9276 44.3923 37.0545 45.0303 37.0545 45.6746C37.0545 46.3189 36.9276 46.9568 36.6812 47.5521C36.4347 48.1474 36.0734 48.6882 35.618 49.1438C35.1626 49.5994 34.6219 49.9608 34.0269 50.2073C33.4318 50.4539 32.7941 50.5808 32.15 50.5808C31.5059 50.5808 30.8682 50.4539 30.2731 50.2073C29.6781 49.9608 29.1374 49.5994 28.682 49.1438C28.226 48.6885 27.8643 48.1478 27.6175 47.5525C27.3707 46.9572 27.2436 46.319 27.2436 45.6746C27.2436 45.0301 27.3707 44.3919 27.6175 43.7967C27.8643 43.2014 28.226 42.6606 28.682 42.2053C29.156 41.7331 29.682 41.375 30.288 41.1349V23.5566C29.704 23.3165 29.156 22.9623 28.682 22.4862C27.9933 21.7981 27.5251 20.9205 27.3371 19.9652C27.149 19.0098 27.2496 18.0201 27.626 17.1222L20.366 9.86361L1.206 29.0105C0.822907 29.3933 0.518994 29.8479 0.311641 30.3482C0.104287 30.8486 -0.00244141 31.3849 -0.00244141 31.9266C-0.00244141 32.4682 0.104287 33.0046 0.311641 33.5049C0.518994 34.0053 0.822907 34.4599 1.206 34.8426L29.15 62.7927C29.5326 63.1757 29.9869 63.4794 30.4869 63.6867C30.9869 63.8939 31.5228 64.0006 32.064 64.0006C32.6052 64.0006 33.1411 63.8939 33.6411 63.6867C34.1411 63.4794 34.5954 63.1757 34.978 62.7927L62.792 35.0127C63.1751 34.6299 63.479 34.1754 63.6864 33.675C63.8937 33.1746 64.0004 32.6383 64.0004 32.0966C64.0004 31.555 63.8937 31.0187 63.6864 30.5183C63.479 30.0179 63.1751 29.5634 62.792 29.1806" fill="#F03C2E"/>
</g>
<defs>
<clipPath id="clip0">
<rect width="64" height="64" fill="white"/>
</clipPath>
</defs>
</svg>
