<svg width="66" height="66" viewBox="0 0 66 66" fill="none" xmlns="http://www.w3.org/2000/svg">
<path d="M64.9813 1H1.01875C1.00839 1 1 1.00839 1 1.01875V64.9813C1 64.9916 1.00839 65 1.01875 65H64.9813C64.9916 65 65 64.9916 65 64.9813V1.01875C65 1.00839 64.9916 1 64.9813 1Z" fill="#171515"/>
<path d="M15.875 32.8748C18 36.6248 22 38.8748 28.625 39.4998C27.625 40.2498 26.5 41.6248 26.375 43.2498C25.125 43.9998 22.75 44.2498 20.875 43.6248C18.25 42.7498 17.25 37.6248 13.25 38.3748C12.375 38.4998 12.5 39.1248 13.25 39.6248C14.5 40.3748 15.875 41.6248 16.5 43.3748C18 47.2498 21.125 48.2498 26.125 47.4998V53.1248C26.125 54.8748 23.625 55.3748 23.625 56.2498C23.625 56.6248 24.5 56.6248 25.125 56.6248C26.375 56.6248 29.125 55.4998 29.125 53.7498C29.125 52.2498 29.125 47.2498 29.25 46.3748C29.25 44.4998 30.25 43.8748 30.25 43.8748C30.25 43.8748 30.375 54.1248 30 55.3748C29.5 56.9998 28.75 56.7498 28.75 57.4998C28.75 58.6248 32 57.7498 33.125 55.3748C34 53.4998 33.625 43.4998 33.5 43.6248H34.375C34.375 43.6248 34.375 48.2498 34.5 50.2498C34.5 52.3748 34.375 55.1248 35.625 56.4998C36.5 57.3748 39.25 58.8748 39.25 57.4998C39.25 56.7498 37.75 55.9998 37.75 53.8748V43.9998C39 43.9998 38.75 47.2498 38.75 47.2498L38.875 53.2498C38.875 53.2498 38.625 55.4998 41.25 56.3748C42.25 56.7498 44.25 56.7498 44.375 56.2498C44.5 55.7498 41.875 54.8748 41.875 53.1248V46.9998C41.875 42.4998 41.25 40.8748 39.125 39.4998C45.75 38.8748 49.875 37.2498 51.875 32.8748C53.125 30.3748 53.375 27.3748 53.375 25.1248C53.375 18.8748 50.375 16.7498 49.75 15.6248C50.625 10.8748 49.625 8.74979 49.125 8.12479C47.375 7.49979 43.125 9.62479 40.875 11.1248C37.125 9.99979 29.125 10.1248 26.125 11.3748C20.625 7.49979 17.75 8.12479 17.75 8.12479C17.75 8.12479 15.875 11.4998 17.25 16.3748C15.375 18.6248 14.125 20.2498 14 24.4998C14 27.8748 14.375 29.9998 15.875 32.8748Z" fill="white"/>
<rect x="0.5" y="0.5" width="65" height="65" rx="6.5" stroke="black" stroke-linejoin="round"/>
</svg>
