<svg width="64" height="64" viewBox="0 0 64 64" fill="none" xmlns="http://www.w3.org/2000/svg">
<g clip-path="url(#clip0)">
<path d="M8.92018 57.604L3.78418 0.00195312H60.2162L55.0762 57.596L31.9642 64L8.92018 57.604Z" fill="#E44D26"/>
<path d="M50.674 53.928L55.068 4.71204H32V59.106L50.674 53.928Z" fill="#F16529"/>
<path d="M31.9762 11.776H14.2842L16.1902 33.14H32.0002V26.076H22.6522L22.0062 18.842H32.0002V11.776H31.9762ZM32.0002 44.4L31.9702 44.408L24.1022 42.284L23.6022 36.65H16.5062L17.4962 47.742L31.9682 51.742L32.0002 51.732V44.4Z" fill="#EBEBEB"/>
<path d="M31.9762 33.14H40.6762L39.8762 42.3L31.9962 44.426V51.776L46.4802 47.762L48.4202 26.072H32.0002L31.9762 33.14ZM49.5042 13.672L49.6722 11.776H31.9722V18.84H49.0362L49.1762 17.252L49.5042 13.672Z" fill="white"/>
</g>
<defs>
<clipPath id="clip0">
<rect width="64" height="64" fill="white"/>
</clipPath>
</defs>
</svg>
