<svg width="20" height="20" viewBox="0 0 69 69" fill="none" xmlns="http://www.w3.org/2000/svg">
<path d="M34.5002 24.0226C36.4164 24.0226 37.9755 22.4655 37.9755 20.5515C37.9755 18.6307 36.4164 17.0679 34.5002 17.0679C32.5839 17.0679 31.0248 18.6307 31.0248 20.5515C31.0248 22.4655 32.5836 24.0226 34.5002 24.0226Z" fill="black"/>
<path d="M40.6682 46.9533H36.9726V33.1006C36.9726 31.735 35.8658 30.6278 34.4998 30.6278H28.3321C26.9665 30.6278 25.8594 31.735 25.8594 33.1006C25.8594 34.4662 26.9665 35.5733 28.3321 35.5733H32.0274V49.426C32.0274 50.7917 33.1345 51.8988 34.5002 51.8988H40.6685C42.0345 51.8988 43.1413 50.7917 43.1413 49.426C43.1409 48.0604 42.0341 46.9533 40.6682 46.9533Z" fill="black"/>
<path d="M34.5002 0.00100708C15.4765 0.00100708 0 15.4775 0 34.5005C0 53.5235 15.4765 69.0003 34.5002 69.0003C53.5235 69.0003 69 53.5239 69 34.5005C69 15.4771 53.5232 0.00100708 34.5002 0.00100708ZM34.5002 64.0548C18.2034 64.0548 4.9455 50.7969 4.9455 34.5005C4.9455 18.2041 18.2034 4.94618 34.5002 4.94618C50.7969 4.94618 64.0545 18.2041 64.0545 34.5005C64.0545 50.7969 50.7966 64.0548 34.5002 64.0548Z" fill="black"/>
</svg>
