<svg width="25" height="25" viewBox="0 0 25 25" fill="none" xmlns="http://www.w3.org/2000/svg">
<g clip-path="url(#clip0)">
<path d="M12.5 8.70378C13.1943 8.70378 13.7592 8.13961 13.7592 7.44613C13.7592 6.75019 13.1943 6.18396 12.5 6.18396C11.8057 6.18396 11.2408 6.75019 11.2408 7.44613C11.2408 8.13961 11.8056 8.70378 12.5 8.70378Z" fill="black"/>
<path d="M14.7349 17.0121H13.3959V11.993C13.3959 11.4982 12.9949 11.097 12.5 11.097H10.2653C9.77051 11.097 9.36938 11.4982 9.36938 11.993C9.36938 12.4878 9.77051 12.8889 10.2653 12.8889H11.6042V17.908C11.6042 18.4028 12.0053 18.8039 12.5001 18.8039H14.735C15.2299 18.8039 15.6309 18.4028 15.6309 17.908C15.6308 17.4132 15.2298 17.0121 14.7349 17.0121Z" fill="black"/>
<path d="M12.5001 0.000976562C5.60743 0.000976562 0 5.6084 0 12.5008C0 19.3932 5.60743 25.0007 12.5001 25.0007C19.3926 25.0007 25 19.3933 25 12.5008C25 5.60826 19.3925 0.000976562 12.5001 0.000976562ZM12.5001 23.2089C6.59543 23.2089 1.79185 18.4053 1.79185 12.5008C1.79185 6.5963 6.59543 1.79271 12.5001 1.79271C18.4047 1.79271 23.2082 6.5963 23.2082 12.5008C23.2082 18.4053 18.4046 23.2089 12.5001 23.2089Z" fill="black"/>
</g>
<defs>
<clipPath id="clip0">
<rect width="25" height="25" fill="white"/>
</clipPath>
</defs>
</svg>
