<svg width="64" height="64" viewBox="0 0 64 64" fill="none" xmlns="http://www.w3.org/2000/svg">
<g clip-path="url(#clip0)">
<path d="M31.683 11.8583C28.7258 13.9382 25.3741 16.2956 23.5782 20.1958C20.459 27.0002 29.961 34.4223 30.3671 34.7349C30.4615 34.8076 30.5745 34.8438 30.6871 34.8438C30.8068 34.8438 30.9265 34.8029 31.0238 34.7214C31.2124 34.5637 31.2659 34.2957 31.1526 34.0774C31.1183 34.0112 27.7075 27.3862 27.8343 22.6334C27.8791 20.978 30.1958 19.1001 32.6483 17.112C34.8945 15.291 37.4408 13.2271 38.9306 10.8127C42.2011 5.4982 38.5661 0.27243 38.5289 0.220179C38.3846 0.0174286 38.1181 -0.0559467 37.8902 0.0439287C37.6625 0.144429 37.5364 0.390555 37.5884 0.633931C37.5958 0.668556 38.3027 4.12432 36.3357 7.68471C35.5254 9.15596 33.7449 10.4082 31.683 11.8583Z" fill="#DB380E"/>
<path d="M44.1423 14.2022C44.3509 14.0451 44.4122 13.7585 44.2861 13.5297C44.1597 13.301 43.8847 13.2001 43.6404 13.2928C43.1381 13.4838 31.3384 18.0322 31.3384 23.5279C31.3384 27.3163 32.9566 29.3175 34.1383 30.779C34.6018 31.3523 35.0019 31.8473 35.1338 32.2699C35.505 33.4878 34.6255 35.689 34.2556 36.4345C34.149 36.6488 34.2013 36.9085 34.3826 37.0651C34.4806 37.1497 34.603 37.1927 34.7255 37.1927C34.8298 37.1927 34.9345 37.1617 35.025 37.0987C35.2279 36.9577 39.9834 33.5954 39.1305 29.5445C38.8128 28.0048 38.0562 26.8798 37.3885 25.887C36.3543 24.3489 35.6073 23.2379 36.7405 21.1859C38.0683 18.7924 44.0814 14.2477 44.1423 14.2022Z" fill="#DB380E"/>
<path d="M13.4277 37.2796C13.2254 37.8853 13.3209 38.486 13.7036 39.0175C14.9827 40.7934 19.5136 41.7711 26.4621 41.7711C26.4625 41.7711 26.4627 41.7711 26.463 41.7711C27.4045 41.7711 28.3985 41.7526 29.4166 41.7161C40.526 41.3185 44.6465 37.8575 44.8165 37.7104C45.0018 37.55 45.0513 37.283 44.9362 37.067C44.8209 36.8511 44.5725 36.7426 44.3352 36.808C40.4225 37.8763 33.1166 38.2555 28.0491 38.2555C22.3787 38.2555 19.4909 37.847 18.7839 37.5454C19.1467 37.0473 21.3842 36.1578 24.1568 35.6124C24.4218 35.5604 24.604 35.3156 24.5777 35.0469C24.5515 34.7781 24.3257 34.5731 24.0556 34.5731C22.4303 34.5731 14.2797 34.7036 13.4277 37.2796Z" fill="#73A1FB"/>
<path d="M50.602 33.7148C48.3106 33.7148 46.1377 34.8634 46.0462 34.912C45.8344 35.0255 45.7269 35.2685 45.785 35.502C45.8434 35.7351 46.053 35.899 46.2934 35.8992C46.342 35.8992 51.1811 35.9389 51.6194 38.7037C52.0076 41.089 47.0407 44.9538 45.0941 46.2418C44.8838 46.3809 44.8022 46.6496 44.8999 46.8821C44.983 47.08 45.1756 47.2038 45.3834 47.2038C45.4196 47.2038 45.4564 47.2 45.4929 47.1923C45.9549 47.0934 56.7936 44.7049 55.6476 38.3942C54.9485 34.5267 52.5178 33.7148 50.602 33.7148Z" fill="#73A1FB"/>
<path d="M43.1687 45.4695C43.2064 45.2674 43.1223 45.0617 42.9541 44.9436L40.3552 43.1232C40.2284 43.0345 40.0683 43.0066 39.9196 43.046C39.8924 43.0528 37.1747 43.7674 33.2289 44.2055C31.6629 44.3811 29.9089 44.4739 28.1561 44.4739C24.2114 44.4739 21.6321 44.0104 21.2565 43.6704C21.2067 43.5749 21.2225 43.5315 21.2314 43.5074C21.2996 43.3176 21.6654 43.0921 21.9011 43.0028C22.1615 42.9065 22.3019 42.6237 22.2209 42.3582C22.1401 42.0923 21.8662 41.936 21.596 42.0008C18.989 42.63 17.7142 43.5097 17.807 44.6156C17.9717 46.5764 22.5132 47.5827 26.3526 47.8487C26.9048 47.8865 27.5019 47.9056 28.127 47.9056C28.1274 47.9056 28.1276 47.9056 28.128 47.9056C34.5123 47.9056 42.6968 45.9025 42.7786 45.8821C42.9784 45.8334 43.1308 45.672 43.1687 45.4695Z" fill="#73A1FB"/>
<path d="M23.5756 49.6775C23.7725 49.5495 23.8597 49.3062 23.7899 49.082C23.7202 48.8579 23.5106 48.7107 23.2751 48.7138C22.9257 48.723 19.8565 48.8615 19.6416 50.8157C19.5766 51.3997 19.7438 51.9333 20.139 52.4014C21.241 53.7074 24.2157 54.4837 29.2316 54.7744C29.825 54.8101 30.4278 54.8279 31.0234 54.8279C37.4003 54.8279 41.695 52.8313 41.8749 52.7463C42.0493 52.6638 42.1643 52.4924 42.1746 52.2999C42.1848 52.1074 42.0887 51.9248 41.9242 51.8242L38.6398 49.8192C38.5258 49.7497 38.3894 49.7267 38.2594 49.7533C38.2387 49.7577 36.1533 50.1902 33.0061 50.6174C32.4106 50.6984 31.6649 50.7396 30.7899 50.7396C27.6461 50.7396 24.1494 50.2259 23.4787 49.8895C23.469 49.8268 23.4814 49.747 23.5756 49.6775Z" fill="#73A1FB"/>
<path d="M28.0514 60.8564C42.6582 60.8441 50.4978 58.2464 52.0081 56.6118C52.5427 56.0335 52.6005 55.486 52.5551 55.1284C52.4428 54.2484 51.6412 53.7097 51.5503 53.6512C51.3311 53.5102 51.0368 53.547 50.8658 53.7443C50.6952 53.9415 50.6912 54.2298 50.8625 54.4269C50.9546 54.5454 51.0078 54.7438 50.7385 55.0134C50.1347 55.5773 44.0453 57.2889 33.9064 57.8032C32.5175 57.8753 31.0608 57.912 29.5769 57.9123C20.499 57.9123 13.8553 56.6688 12.9832 55.9443C13.3193 55.4613 15.6693 54.6897 18.1685 54.2532C18.4501 54.204 18.6403 53.9387 18.5967 53.6562C18.5531 53.3738 18.2927 53.1794 18.0081 53.2163C17.9376 53.2259 17.6983 53.2402 17.4213 53.2572C13.2978 53.5089 8.53267 54.07 8.28404 56.1947C8.20854 56.842 8.40092 57.4298 8.85604 57.9413C9.96967 59.1925 13.1706 60.8562 28.0509 60.8562C28.0511 60.8564 28.0511 60.8564 28.0514 60.8564Z" fill="#73A1FB"/>
<path d="M54.877 57.0725C54.6705 56.977 54.4265 57.0252 54.2725 57.1915C54.2511 57.2146 52.055 59.511 45.452 60.8595C42.9241 61.366 38.179 61.6229 31.3486 61.6229C24.5055 61.6229 17.9938 61.3536 17.929 61.3509C17.657 61.3376 17.4243 61.5354 17.3873 61.8031C17.3502 62.0706 17.5227 62.3229 17.7853 62.3854C17.8531 62.4014 24.6772 64.0001 34.0078 64.0001C38.4829 64.0001 42.8377 63.6368 46.9513 62.9195C54.6215 61.5749 55.1585 57.7716 55.1776 57.6104C55.2044 57.385 55.0831 57.168 54.877 57.0725Z" fill="#73A1FB"/>
</g>
<defs>
<clipPath id="clip0">
<rect width="64" height="64" fill="white"/>
</clipPath>
</defs>
</svg>
