<svg width="64" height="64" viewBox="0 0 64 64" fill="none" xmlns="http://www.w3.org/2000/svg">
<path d="M61.0665 0.533375C60.7998 0.266625 60.5331 0 59.9999 0H3.99975C3.73313 0 3.19988 0.266625 2.93313 0.533375C2.66638 0.800125 2.6665 1.06675 2.6665 1.6L7.99988 54.9334C7.99988 55.4668 8.53325 56 8.79975 56L32.7998 64H33.3331H33.8665L55.1998 56C55.7331 55.7334 55.9996 55.4666 55.9996 54.9334L61.333 1.6C61.3333 1.3335 61.3333 0.8 61.0665 0.533375V0.533375ZM31.9999 48.2668C31.9999 48.5334 31.7331 49.0667 31.4665 49.3334C31.1999 49.6 30.9174 49.6354 30.6509 49.6354L30.4 49.6L21.0666 46.9334C20.5333 46.6668 20.2668 46.4 20 45.8667L18.6666 39.2C18.4 38.4001 18.9333 37.8666 19.7333 37.6C20.5331 37.3334 21.0666 37.8666 21.3334 38.6666L22.4 44.5332L29.3334 46.4V16.2668H14.6665C13.8666 16.2668 13.3331 15.7334 13.3331 14.9334C13.3331 14.1335 13.8665 13.6 14.6665 13.6H30.6665C31.4664 13.6 31.9999 14.1334 31.9999 14.9334V48.2668ZM50.6665 15.2L49.3331 20.5334C49.0665 21.3332 48.5229 21.7283 47.7331 21.6C46.9009 21.465 46.5821 20.7956 46.6665 19.9999C46.767 19.0506 47.4664 16.2666 47.4664 16.2666H37.0664V29.6H46.3998C46.6664 29.6 47.1996 29.8666 47.4664 30.1334C47.733 30.4 47.733 30.9333 47.733 31.2L45.0664 45.8666C45.0664 46.4 44.533 46.6665 44.2665 46.9333L36.2665 49.5999C35.9999 49.5999 35.031 49.9686 34.3998 48.8C34.1331 48.0001 34.6664 47.4666 35.1996 47.1999L42.3996 44.7999L44.533 32.5331H35.4663C34.6664 32.5331 34.1329 31.9998 34.1329 31.1998V15.1997C34.1329 14.3999 34.6663 13.8664 35.4663 13.8664H48.7996C49.333 13.8664 49.698 13.9804 50.0465 14.1248C50.7859 14.4311 50.6665 14.9334 50.6665 15.2V15.2Z" fill="#FEFEFE"/>
</svg>
