<svg width="141" height="362" viewBox="0 0 141 362" fill="none" xmlns="http://www.w3.org/2000/svg">
<g id="lady">
<path id="Vector" d="M126.26 46.9799L132.526 41.9373C127.658 41.397 125.658 44.0682 124.839 46.1825C121.037 44.5936 116.897 46.6759 116.897 46.6759L129.434 51.2555C128.801 49.5557 127.7 48.0725 126.26 46.9799V46.9799Z" fill="white"/>
<path id="Vector_2" d="M9.86775 86.0175L16.1336 80.9749C11.2659 80.4345 9.26589 83.1058 8.44735 85.2201C4.6445 83.6312 0.504654 85.7135 0.504654 85.7135L13.0416 90.2931C12.4091 88.5933 11.3081 87.1101 9.86775 86.0175V86.0175Z" fill="white"/>
<path id="Vector_3" d="M40.4972 5.20212L46.7631 0.159486C41.8954 -0.380882 39.8953 2.29033 39.0768 4.40463C35.2739 2.81574 31.1341 4.89806 31.1341 4.89806L43.671 9.47765C43.0385 7.77785 41.9376 6.29471 40.4972 5.20212Z" fill="white"/>
<path id="Vector_4" d="M108.613 229.725C108.613 229.725 103.186 229.725 102.583 233.062C101.98 236.399 101.076 272.805 101.679 277.356C102.282 281.907 102.282 280.997 102.282 280.997C102.282 280.997 101.079 289.645 103.791 290.023C106.503 290.402 106.503 280.087 106.503 280.087L108.613 243.074V229.725Z" fill="#9E616A"/>
<path id="Vector_5" d="M132.131 229.725C132.131 229.725 137.558 229.725 138.161 233.062C138.765 236.399 139.669 272.805 139.066 277.356C138.463 281.907 138.463 280.997 138.463 280.997C138.463 280.997 139.665 289.645 136.953 290.023C134.242 290.402 134.242 280.087 134.242 280.087L132.131 243.074V229.725Z" fill="#9E616A"/>
<path id="Vector_6" d="M107.709 356.539H105.297C104.584 356.539 103.878 356.68 103.22 356.955C102.561 357.229 101.963 357.631 101.459 358.138C100.955 358.645 100.555 359.247 100.283 359.91C100.01 360.572 99.8694 361.283 99.8694 362L114.643 362V355.022H107.709V356.539Z" fill="#C4C4C4"/>
<path id="Vector_7" d="M130.925 356.539H133.337C134.777 356.539 136.157 357.114 137.175 358.138C138.193 359.162 138.765 360.551 138.765 362V362H123.991V355.022H130.925V356.539Z" fill="#C4C4C4"/>
<path id="Vector_8" d="M117.96 222.747C122.29 222.747 125.8 219.216 125.8 214.859C125.8 210.503 122.29 206.971 117.96 206.971C113.631 206.971 110.121 210.503 110.121 214.859C110.121 219.216 113.631 222.747 117.96 222.747Z" fill="#9E616A"/>
<path id="Vector_9" d="M116.151 219.106C116.151 219.106 115.247 229.118 114.041 230.028C112.834 230.938 126.704 229.421 126.704 229.421C126.704 229.421 121.88 222.14 122.784 219.713C123.689 217.286 116.151 219.106 116.151 219.106Z" fill="#9E616A"/>
<path id="Vector_10" d="M133.94 229.725C133.94 229.725 117.357 222.747 106.503 229.725C106.503 229.725 103.789 236.703 105.9 240.647C108.01 244.591 111.327 253.996 108.01 260.367C104.694 266.738 108.312 264.007 108.312 264.007C108.312 264.007 104.091 280.997 103.488 294.346C102.885 307.695 105.297 355.629 107.106 355.932C108.915 356.236 114.644 356.843 115.247 355.932C115.85 355.022 120.071 291.615 120.071 291.615C120.071 291.615 121.88 356.539 123.689 356.539C125.498 356.539 130.322 356.539 131.227 355.022C132.131 353.505 139.669 294.953 136.955 282.817C134.242 270.682 132.433 264.614 132.433 264.614C132.433 264.614 135.749 262.491 134.845 261.277C133.94 260.064 129.418 247.018 131.528 244.894C133.639 242.771 133.94 229.725 133.94 229.725Z" fill="#F95576"/>
<path id="Vector_11" d="M122.935 222.847C129.929 222.847 135.599 217.143 135.599 210.105C135.599 203.068 129.929 197.363 122.935 197.363C115.941 197.363 110.272 203.068 110.272 210.105C110.272 217.143 115.941 222.847 122.935 222.847Z" fill="#2F2E41"/>
<path id="Vector_12" d="M130.843 203.727C128.709 203.222 126.85 201.91 125.652 200.063C124.453 198.217 124.007 195.976 124.407 193.808C124.37 193.938 124.335 194.07 124.304 194.203C123.788 196.419 124.167 198.75 125.359 200.684C126.55 202.618 128.457 203.997 130.658 204.517C132.86 205.038 135.177 204.658 137.1 203.46C139.023 202.262 140.394 200.345 140.913 198.13C140.944 197.997 140.971 197.863 140.996 197.73C140.393 199.85 139.003 201.656 137.112 202.773C135.222 203.89 132.977 204.231 130.843 203.727V203.727Z" fill="#2F2E41"/>
<path id="Vector_13" d="M131.358 205.387C134.781 205.387 137.555 202.595 137.555 199.151C137.555 195.708 134.781 192.916 131.358 192.916C127.936 192.916 125.161 195.708 125.161 199.151C125.161 202.595 127.936 205.387 131.358 205.387Z" fill="#2F2E41"/>
</g>
</svg>
