<svg width="64px" height="64px" viewBox="0 0 64 64" fill="none" xmlns="http://www.w3.org/2000/svg">
<g clip-path="url(#clip0)">
<path d="M59.26 0.00195312H4.724C2.12 0.00195312 0 2.06795 0 4.61195V59.38C0 61.93 2.12 64 4.724 64H59.264C61.874 64 64 61.93 64 59.38V4.61195C64 2.06795 61.874 0.00195312 59.26 0.00195312Z" fill="#0177B5"/>
<path d="M9.48999 23.9939H19V54.534H9.48999V23.9939ZM14.238 8.79395C17.272 8.79395 19.738 11.2599 19.738 14.2939C19.738 17.3279 17.272 19.7999 14.24 19.7999C12.7805 19.7968 11.3817 19.2157 10.3495 18.1839C9.31725 17.1521 8.73569 15.7534 8.73199 14.2939C8.73199 13.5712 8.87445 12.8555 9.15123 12.1878C9.42801 11.5201 9.83367 10.9135 10.345 10.4027C10.8564 9.89194 11.4634 9.48694 12.1314 9.21089C12.7994 8.93484 13.5152 8.79316 14.238 8.79395ZM24.938 23.9939H34.042V28.1679H34.168C35.436 25.7679 38.532 23.2359 43.168 23.2359C52.78 23.2359 54.554 29.5619 54.554 37.7839V54.5359H45.068V39.6799C45.068 36.1399 45.004 31.5799 40.136 31.5799C35.196 31.5799 34.436 35.4399 34.436 39.4199V54.528H24.952V23.9879L24.938 23.9939Z" fill="white"/>
</g>
<defs>
<clipPath id="clip0">
<rect width="64" height="64" fill="white"/>
</clipPath>
</defs>
</svg>
