<svg width="316" height="316" viewBox="0 0 316 316" fill="none" xmlns="http://www.w3.org/2000/svg">
<g style="mix-blend-mode:multiply">
<g filter="url(#filter0_d)">
<circle cx="152" cy="152" r="152" fill="#010101"/>
<circle cx="152" cy="152" r="147.5" stroke="#FEE314" stroke-width="9"/>
</g>
<path d="M79.36 232.52C62.7867 232.52 50.6133 228.34 42.84 219.98C35.0667 211.62 31.18 197.76 31.18 178.4C31.18 163 33.7467 146.427 38.88 128.68C44.16 110.933 52.52 95.7533 63.96 83.14C75.5467 70.38 90.2133 64 107.96 64C118.96 64 127.833 66.42 134.58 71.26C141.327 76.1 144.7 83.5067 144.7 93.48C144.7 99.7867 143.453 104.773 140.96 108.44C138.467 111.96 134.58 113.72 129.3 113.72C124.02 113.72 119.84 111.813 116.76 108C119.4 106.68 121.747 104.04 123.8 100.08C125.853 96.12 126.88 92.0133 126.88 87.76C126.88 83.8 125.78 80.5733 123.58 78.08C121.527 75.5867 118.153 74.34 113.46 74.34C105.687 74.34 98.28 79.6933 91.24 90.4C84.2 100.96 78.48 114.307 74.08 130.44C69.8267 146.573 67.7 162.12 67.7 177.08C67.7 188.227 69.6067 196.733 73.42 202.6C77.2333 208.467 84.1267 211.4 94.1 211.4C102.753 211.4 110.747 209.493 118.08 205.68C125.413 201.867 131.72 196.44 137 189.4L142.06 191.6C138.393 200.84 132.967 208.54 125.78 214.7C118.593 220.86 110.893 225.407 102.68 228.34C94.4667 231.127 86.6933 232.52 79.36 232.52ZM172.655 274.54C162.242 274.54 154.175 271.68 148.455 265.96C142.882 260.387 140.095 252.907 140.095 243.52C140.095 235.6 142.515 228.707 147.355 222.84C152.195 216.973 158.722 214.04 166.935 214.04C173.242 214.04 178.375 214.993 182.335 216.9C186.442 218.66 188.495 222.62 188.495 228.78C188.495 231.42 188.055 234.353 187.175 237.58C184.535 235.38 182.262 233.84 180.355 232.96C178.449 232.227 176.322 231.86 173.975 231.86C169.135 231.86 165.322 233.473 162.535 236.7C159.895 239.927 158.575 243.74 158.575 248.14C158.575 253.273 160.115 257.087 163.195 259.58C166.275 262.22 169.722 263.54 173.535 263.54C177.055 263.54 179.989 262.807 182.335 261.34C184.829 260.02 187.029 257.38 188.935 253.42C190.842 249.607 192.675 243.96 194.435 236.48L228.975 79.4C219.149 83.36 211.522 89.4467 206.095 97.66C200.669 105.873 197.955 115.847 197.955 127.58C197.955 133.007 198.469 136.82 199.495 139.02C200.522 141.073 201.035 142.247 201.035 142.54C193.115 142.54 187.175 140.927 183.215 137.7C179.402 134.327 177.495 128.827 177.495 121.2C177.495 111.813 181.309 102.72 188.935 93.92C196.709 84.9733 206.609 77.7867 218.635 72.36C230.662 66.7867 242.689 64 254.715 64H263.515L230.515 220.2C226.702 238.24 220.395 251.807 211.595 260.9C202.795 269.993 189.815 274.54 172.655 274.54Z" fill="#FEE314" style="mix-blend-mode:difference"/>
</g>
<defs>
<filter id="filter0_d" x="0" y="0" width="316" height="316" filterUnits="userSpaceOnUse" color-interpolation-filters="sRGB">
<feFlood flood-opacity="0" result="BackgroundImageFix"/>
<feColorMatrix in="SourceAlpha" type="matrix" values="0 0 0 0 0 0 0 0 0 0 0 0 0 0 0 0 0 0 127 0"/>
<feOffset dx="8" dy="8"/>
<feGaussianBlur stdDeviation="2"/>
<feColorMatrix type="matrix" values="0 0 0 0 0 0 0 0 0 0 0 0 0 0 0 0 0 0 0.25 0"/>
<feBlend mode="normal" in2="BackgroundImageFix" result="effect1_dropShadow"/>
<feBlend mode="normal" in="SourceGraphic" in2="effect1_dropShadow" result="shape"/>
</filter>
</defs>
</svg>
