<svg width="352" height="402" viewBox="0 0 352 402" fill="none" xmlns="http://www.w3.org/2000/svg">
<g id="man">
<path id="Vector" d="M350.611 401.272H0.917831C0.674407 401.272 0.440938 401.171 0.268812 400.99C0.0966851 400.809 0 400.564 0 400.308C0 400.052 0.0966851 399.807 0.268812 399.626C0.440938 399.446 0.674407 399.344 0.917831 399.344H350.611C350.855 399.344 351.088 399.446 351.26 399.626C351.433 399.807 351.529 400.052 351.529 400.308C351.529 400.564 351.433 400.809 351.26 400.99C351.088 401.171 350.855 401.272 350.611 401.272Z" fill="#CCCCCC"/>
<path id="Vector_2" d="M227.535 388.807L239.228 388.806L244.79 341.425L227.533 341.426L227.535 388.807Z" fill="#FFB8B8"/>
<path id="Vector_3" d="M224.553 384.796L247.58 384.795H247.581C251.473 384.795 255.205 386.42 257.957 389.311C260.709 392.202 262.255 396.123 262.256 400.212V400.713L224.553 400.714L224.553 384.796Z" fill="#2F2E41"/>
<path id="Vector_4" d="M145.646 380.393L156.996 383.344L173.232 338.755L156.48 334.4L145.646 380.393Z" fill="#FFB8B8"/>
<path id="Vector_5" d="M208.975 50.1845L232.002 50.1836C235.894 50.1838 239.627 51.8081 242.379 54.6992C245.131 57.5903 246.677 61.5113 246.677 65.6V66.101L208.975 66.1025L208.975 50.1845Z" fill="#6C63FF"/>
<path id="Vector_6" d="M143.668 375.747L166.02 381.558L166.021 381.559C169.799 382.541 173.051 385.06 175.061 388.561C177.071 392.062 177.675 396.259 176.74 400.228L176.626 400.714L140.028 391.199L143.668 375.747Z" fill="#2F2E41"/>
<path id="Vector_7" d="M188.9 187.781L178.619 249.267C178.619 249.267 174.664 256.745 176.246 260.068C177.828 263.392 178.619 263.392 176.246 265.053C173.873 266.715 170.71 265.053 171.501 269.208C171.975 271.671 172.239 274.173 172.292 276.686L150.147 356.45C150.147 356.45 135.911 363.097 146.192 367.252C156.474 371.406 166.755 374.73 169.128 370.575C171.501 366.421 169.128 361.436 169.128 361.436L205.509 270.039C205.509 270.039 211.045 261.73 211.045 256.745C211.045 251.759 229.236 216.031 229.236 216.031C229.236 216.031 230.027 251.759 230.817 254.252C231.608 256.745 229.236 261.73 229.236 265.053C229.236 268.377 227.654 268.377 229.236 270.039C230.818 271.7 230.817 290.811 230.817 290.811C230.817 290.811 221.327 364.759 226.863 365.59C232.399 366.421 248.217 364.759 248.217 361.435C248.286 360.569 248.094 359.702 247.669 358.956C247.243 358.211 246.605 357.625 245.844 357.281L256.126 294.134C256.126 294.134 255.335 289.98 256.917 286.656C258.499 283.333 258.499 283.333 258.499 281.671C258.499 280.009 257.708 279.178 258.499 278.347C259.015 277.63 259.293 276.754 259.29 275.855C259.29 275.855 257.708 270.869 258.499 270.039C259.29 269.208 276.689 206.892 271.153 199.414C265.617 191.936 188.9 187.781 188.9 187.781Z" fill="#2F2E41"/>
<path id="Vector_8" d="M224.272 55.0993C235.629 55.0993 244.835 45.4274 244.835 33.4965C244.835 21.5655 235.629 11.8936 224.272 11.8936C212.915 11.8936 203.709 21.5655 203.709 33.4965C203.709 45.4274 212.915 55.0993 224.272 55.0993Z" fill="#FFB8B8"/>
<path id="Vector_9" d="M209.743 49.1405C210.801 48.3956 210.842 46.6911 210.487 45.3081C210.133 43.925 209.489 42.5651 209.544 41.1583C209.695 37.3035 214.749 35.7572 215.038 31.9213C215.215 29.5622 213.473 26.9535 214.478 24.9108C215.113 23.6209 216.59 23.1908 217.935 22.9431C223.155 21.996 228.496 22.0714 233.689 23.1654L234.447 21.0745L238.296 23.7424C238.506 22.4448 240.216 22.3146 241.333 22.9374C242.45 23.5602 243.418 24.6356 244.637 24.8433C246.58 25.1742 248.117 22.9632 248.014 20.8358C247.911 18.7084 246.676 16.7812 245.382 15.1008C242.145 10.889 238.219 7.31812 233.787 4.55619L234.855 2.5344L232.568 3.49938L232.317 1.08137L230.089 2.39707L230.057 0.219238C227.672 3.09717 223.517 2.99802 219.87 3.25755C213.773 3.55406 207.915 5.84181 203.115 9.80186C200.718 11.8574 198.756 14.4148 197.352 17.3111C195.948 20.2074 195.134 23.3792 194.961 26.6244C194.754 31.7067 196.422 37.8924 199.994 41.6612C203.24 45.0868 208.051 43.008 209.743 49.1405Z" fill="#2F2E41"/>
<path id="Vector_10" d="M274.729 243.094C273.685 242.065 272.868 240.808 272.337 239.412C271.805 238.016 271.571 236.514 271.651 235.013C271.732 233.511 272.125 232.047 272.802 230.722C273.48 229.397 274.426 228.245 275.573 227.346L270.088 204.556L282.458 197.677L289.773 229.974C291.083 232.099 291.606 234.656 291.242 237.158C290.878 239.661 289.652 241.937 287.798 243.554C285.944 245.171 283.589 246.018 281.18 245.933C278.772 245.848 276.476 244.838 274.729 243.094Z" fill="#FFB8B8"/>
<path id="Vector_11" d="M241.669 213.601C216.673 213.603 193.665 201.718 193.355 201.555L193.097 201.419L190.999 148.534C190.391 146.666 178.413 109.79 176.385 98.0686C174.329 86.1935 204.117 75.7716 207.734 74.5529L208.555 64.9999L241.936 61.2211L246.167 73.4445L258.142 78.162C259.5 78.6972 260.623 79.7371 261.3 81.0845C261.977 82.4319 262.159 83.9932 261.813 85.4726L255.157 113.908L268.25 207.986L267.914 208.146C259.633 211.9 250.687 213.76 241.669 213.601Z" fill="#0E0689"/>
<path id="Vector_12" d="M271.512 219.504L259.927 169.403L247.372 108.946L253.745 78.8136H259.194C259.294 78.8136 269.196 78.9692 271.328 92.4069C273.393 105.422 279.619 146.845 279.682 147.261L290.206 218.021L271.512 219.504Z" fill="#6C63FF"/>
<path id="Vector_13" d="M221.943 211.037C221.875 209.535 221.494 208.067 220.828 206.736C220.162 205.405 219.226 204.243 218.086 203.334C216.946 202.424 215.631 201.788 214.231 201.47C212.832 201.152 211.384 201.16 209.988 201.494L197.04 182.323L184.031 187.749L202.679 214.551C203.368 216.978 204.881 219.054 206.93 220.387C208.979 221.72 211.422 222.216 213.797 221.783C216.171 221.35 218.312 220.017 219.813 218.036C221.315 216.056 222.072 213.565 221.943 211.037V211.037Z" fill="#FFB8B8"/>
<path id="Vector_14" d="M196.706 209.616L157.526 156.218L172.207 107.747C173.283 95.5609 180.541 92.158 180.85 92.019L181.321 91.8066L194.096 127.596L184.716 153.873L207.738 194.55L196.706 209.616Z" fill="#6C63FF"/>
<path id="Vector_15" d="M245.232 93.3217L246.994 69.3316L246.994 69.3306C247.292 65.276 246.173 61.3447 243.885 58.4015C241.597 55.4583 238.327 53.7442 234.793 53.6362L234.36 53.6231L231.476 92.9018L245.232 93.3217Z" fill="#6C63FF"/>
<path id="Vector_16" d="M226.354 114.117L230.512 91.0038L230.512 91.0028C231.215 87.0965 233.182 83.6968 235.981 81.5515C238.779 79.4062 242.18 78.691 245.435 79.5633L245.834 79.6703L239.026 117.513L226.354 114.117Z" fill="#6C63FF"/>
</g>
</svg>
