<svg width="470" height="329" viewBox="0 0 470 329" fill="none" xmlns="http://www.w3.org/2000/svg">
<g id="manAndCar">
<path id="Vector" d="M340.765 207.123C339.262 208.332 337.412 208.989 335.509 208.989C333.605 208.989 331.756 208.332 330.253 207.123C328.784 197.094 332.511 177.383 333.389 172.939L333.572 172.048H337.817C338.099 172.339 338.322 172.685 338.471 173.067C341.355 179.495 340.765 207.123 340.765 207.123Z" fill="#535F89"/>
<path id="Vector_2" opacity="0.1" d="M336.927 168.007V172.054H335.158V168.007C335.442 167.958 335.73 167.933 336.019 167.934C336.323 167.934 336.626 167.958 336.927 168.007V168.007Z" fill="black"/>
<path id="Vector_3" opacity="0.1" d="M338.442 173.086C337.695 173.498 336.859 173.708 336.013 173.696C335.094 173.72 334.187 173.47 333.401 172.976L333.584 172.085H337.817C338.087 172.373 338.299 172.713 338.442 173.086V173.086Z" fill="black"/>
<path id="Vector_4" d="M336.013 172.988C337.97 172.988 339.556 172.013 339.556 170.809C339.556 169.606 337.97 168.63 336.013 168.63C334.056 168.63 332.469 169.606 332.469 170.809C332.469 172.013 334.056 172.988 336.013 172.988Z" fill="#DCE2ED"/>
<path id="Vector_5" d="M467.344 222.89C466.35 223.689 465.129 224.123 463.871 224.123C462.613 224.123 461.391 223.689 460.398 222.89C459.425 216.261 461.89 203.223 462.468 200.305C462.544 199.92 462.591 199.694 462.591 199.694H465.368C465.556 199.886 465.704 200.114 465.805 200.366C467.727 204.633 467.344 222.89 467.344 222.89Z" fill="#535F89"/>
<path id="Vector_6" opacity="0.1" d="M464.797 197.033V199.712H463.617V197.033C463.812 196.996 464.009 196.98 464.207 196.984C464.404 196.985 464.601 197.001 464.797 197.033V197.033Z" fill="black"/>
<path id="Vector_7" opacity="0.1" d="M465.805 200.359C465.308 200.626 464.755 200.76 464.195 200.75C463.588 200.764 462.99 200.601 462.468 200.28C462.544 199.896 462.591 199.67 462.591 199.67H465.368C465.558 199.866 465.706 200.101 465.805 200.359V200.359Z" fill="black"/>
<path id="Vector_8" d="M464.195 200.323C465.488 200.323 466.536 199.678 466.536 198.882C466.536 198.087 465.488 197.442 464.195 197.442C462.902 197.442 461.854 198.087 461.854 198.882C461.854 199.678 462.902 200.323 464.195 200.323Z" fill="#DCE2ED"/>
<path id="Vector_9" opacity="0.1" d="M225.978 232.065C220.465 229.155 214.143 228.337 208.108 229.752C197.79 232.065 181.983 230.838 180.544 230.582" fill="black"/>
<path id="Vector_10" opacity="0.1" d="M192.967 106.44C192.967 106.44 190.455 147.448 194.919 155.536L192.967 106.44Z" fill="black"/>
<path id="Vector_11" opacity="0.1" d="M183.699 155.536C183.699 155.536 186.918 193.944 189.147 201.452C191.375 208.96 183.699 155.536 183.699 155.536Z" fill="black"/>
<path id="Vector_12" opacity="0.1" d="M180.562 61.0979C178.28 61.9647 168.517 82.4627 170.474 88.5364C172.432 94.6101 180.562 61.0979 180.562 61.0979Z" fill="black"/>
<path id="Vector_13" opacity="0.1" d="M205.313 39.8184C204.258 40.3128 199.712 52.1245 200.596 55.6161C201.481 59.1077 205.313 39.8184 205.313 39.8184Z" fill="black"/>
<path id="Vector_14" opacity="0.1" d="M163.04 108.68C164.172 120.59 164.808 128.385 164.065 137.919C163.459 145.324 163.562 152.773 164.372 160.157" fill="black"/>
<path id="Vector_15" opacity="0.1" d="M189.553 13.3749C188.401 12.3951 187.175 11.5132 185.886 10.7379C184.711 9.9923 183.444 9.41528 182.119 9.02258C180.096 8.46709 177.991 8.55256 175.893 8.3267C173.794 8.10085 171.636 7.50263 170.221 5.88501" fill="black"/>
<path id="Vector_16" d="M128.053 212.33C126.178 213.84 123.87 214.66 121.494 214.66C119.118 214.66 116.81 213.84 114.935 212.33C113.107 199.81 117.753 175.204 118.85 169.686L119.08 168.569H124.327C124.676 168.934 124.954 169.365 125.147 169.839C128.779 177.847 128.053 212.33 128.053 212.33Z" fill="#535F89"/>
<path id="Vector_17" opacity="0.1" d="M123.248 163.515V168.569H121.037V163.509C121.394 163.449 121.755 163.42 122.116 163.423C122.495 163.422 122.874 163.453 123.248 163.515V163.515Z" fill="black"/>
<path id="Vector_18" opacity="0.1" d="M125.147 169.839C124.213 170.344 123.17 170.598 122.116 170.577C120.968 170.607 119.835 170.298 118.85 169.686L119.08 168.569H124.327C124.676 168.934 124.954 169.365 125.147 169.839Z" fill="black"/>
<path id="Vector_19" d="M122.116 169.716C124.558 169.716 126.538 168.5 126.538 167C126.538 165.5 124.558 164.283 122.116 164.283C119.674 164.283 117.694 165.5 117.694 167C117.694 168.5 119.674 169.716 122.116 169.716Z" fill="#DCE2ED"/>
<path id="Vector_20" opacity="0.1" d="M382.75 151.196C385.913 149.528 389.54 149.059 393.002 149.872C398.898 151.196 408.007 150.482 408.833 150.348" fill="black"/>
<path id="Vector_21" opacity="0.1" d="M401.711 79.0442C401.711 79.0442 403.149 102.6 400.59 107.24L401.711 79.0442Z" fill="black"/>
<path id="Vector_22" opacity="0.1" d="M407.029 107.24C407.029 107.24 405.183 129.3 403.904 133.616C402.624 137.932 407.029 107.24 407.029 107.24Z" fill="black"/>
<path id="Vector_23" opacity="0.1" d="M408.833 53.0037C410.142 53.5042 415.749 65.2793 414.629 68.7587C413.508 72.2381 408.833 53.0037 408.833 53.0037Z" fill="black"/>
<path id="Vector_24" opacity="0.1" d="M394.618 40.783C395.208 41.0638 397.837 47.8517 397.312 49.8539C396.788 51.856 394.618 40.783 394.618 40.783Z" fill="black"/>
<path id="Vector_25" opacity="0.1" d="M418.897 80.3323C418.249 87.1751 417.895 91.6495 418.308 97.125C418.658 101.377 418.598 105.655 418.131 109.895" fill="black"/>
<path id="Vector_26" opacity="0.1" d="M348.683 0.696533C349.419 1.68919 349.806 2.91241 349.78 4.16373C349.821 5.38458 349.662 6.64205 349.738 7.88121C349.815 9.12037 350.422 10.7075 351.672 10.8845" fill="black"/>
<path id="Vector_27" d="M216.668 51.2456C206.987 64.7603 199.016 104.517 196.782 116.5L179.919 115.81C180.981 105.5 201.369 63.8691 207.04 52.4481C210.077 52.0269 213.325 51.5997 216.668 51.2456Z" fill="#6C63FF"/>
<path id="Vector_28" d="M427.34 46.4478H419.864V57.3499H427.34V46.4478Z" fill="#DCE0ED"/>
<path id="Vector_29" opacity="0.1" d="M427.34 46.4478V49.9943C426.813 50.1492 426.267 50.2252 425.719 50.2202L419.87 50.1713V46.4478H427.34Z" fill="black"/>
<path id="Vector_30" d="M416.71 18.6733H423.785C425.473 18.6756 427.121 19.1998 428.519 20.1786C429.918 21.1574 431.001 22.5463 431.632 24.1671C433.696 29.4351 435.447 37.8101 430.848 46.1423C430.336 47.0762 429.592 47.8515 428.693 48.3881C427.794 48.9247 426.774 49.203 425.736 49.1944L416.727 49.1151L416.71 18.6733Z" fill="black"/>
<path id="Vector_31" d="M416.71 49.1153C420.884 49.1153 424.268 42.3021 424.268 33.8975C424.268 25.4929 420.884 18.6797 416.71 18.6797C412.535 18.6797 409.151 25.4929 409.151 33.8975C409.151 42.3021 412.535 49.1153 416.71 49.1153Z" fill="white"/>
<path id="Vector_32" d="M360.952 46.5759H353.476V56.1168H360.952V46.5759Z" fill="#DCE0ED"/>
<path id="Vector_33" opacity="0.1" d="M360.952 46.5759V49.628C360.423 49.7833 359.875 49.8593 359.325 49.8539L353.476 49.7989V46.5942L360.952 46.5759Z" fill="black"/>
<path id="Vector_34" d="M350.322 18.8079H357.397C359.085 18.8089 360.733 19.3327 362.13 20.3117C363.528 21.2908 364.61 22.6804 365.239 24.3017C367.308 29.5696 369.059 37.9446 364.46 46.2769C363.947 47.2108 363.202 47.986 362.302 48.5225C361.402 49.059 360.381 49.3374 359.343 49.329L350.34 49.2435L350.322 18.8079Z" fill="black"/>
<path id="Vector_35" d="M350.322 49.2436C354.497 49.2436 357.881 42.4303 357.881 34.0257C357.881 25.6211 354.497 18.8079 350.322 18.8079C346.148 18.8079 342.764 25.6211 342.764 34.0257C342.764 42.4303 346.148 49.2436 350.322 49.2436Z" fill="white"/>
<path id="Vector_36" d="M352.209 24.3687C352.209 24.3687 349.42 24.8326 350.87 28.6416C351.64 30.4912 352.2 32.4269 352.539 34.4101C352.539 34.4101 355.328 35.9117 355.216 30.949C355.104 25.9863 352.209 24.3687 352.209 24.3687Z" fill="#DCE0ED"/>
<path id="Vector_37" d="M68.9826 291.862C93.3358 291.862 113.078 269.46 113.078 241.825C113.078 214.191 93.3358 191.789 68.9826 191.789C44.6295 191.789 24.8873 214.191 24.8873 241.825C24.8873 269.46 44.6295 291.862 68.9826 291.862Z" fill="#636780"/>
<path id="Vector_38" opacity="0.1" d="M85.5028 194.908C62.4322 196.514 44.155 218.257 44.155 244.847C44.155 266.279 56.0293 284.561 72.7206 291.685C95.797 290.079 114.074 268.336 114.074 241.746C114.074 220.314 102.194 202.032 85.5028 194.908Z" fill="black"/>
<path id="Vector_39" d="M414.092 180.777C433.857 180.777 449.88 159.146 449.88 132.462C449.88 105.779 433.857 84.1475 414.092 84.1475C394.327 84.1475 378.304 105.779 378.304 132.462C378.304 159.146 394.327 180.777 414.092 180.777Z" fill="#636780"/>
<path id="Vector_40" opacity="0.1" d="M404.093 86.1677C389.247 92.0583 378.41 110.585 378.41 132.529C378.41 155.982 390.792 175.527 407.206 179.923C422.046 174.032 432.888 155.506 432.888 133.561C432.888 110.108 420.507 90.5628 404.093 86.1677Z" fill="black"/>
<path id="Vector_41" d="M279.654 122.146L280.32 104.609C280.32 104.609 276.995 97.0393 273.676 96.3556C270.356 95.6719 262.715 95.2385 262.715 95.2385C262.715 95.2385 256.737 120.425 260.722 127.994C264.708 135.563 279.654 122.146 279.654 122.146Z" fill="#6C63FF"/>
<path id="Vector_42" opacity="0.1" d="M279.654 122.146L280.32 104.609C280.32 104.609 276.995 97.0393 273.676 96.3556C270.356 95.6719 262.715 95.2385 262.715 95.2385C262.715 95.2385 256.737 120.425 260.722 127.994C264.708 135.563 279.654 122.146 279.654 122.146Z" fill="black"/>
<path id="Vector_43" d="M218.372 120.254C218.372 120.254 216.315 95.9345 229.221 95.495C230.883 95.44 232.546 95.3973 234.203 95.2325C243.147 94.3352 267.55 92.3879 264.625 98.1564C264.625 98.1564 258.812 119.308 262.798 124.637L218.372 120.254Z" fill="#6C63FF"/>
<path id="Vector_44" d="M401.31 165.346L418.62 165.864C418.62 165.864 421.609 132.847 422.606 130.271C423.602 127.695 424.103 115.309 420.866 113.509C417.629 111.708 406.799 109.51 406.799 109.51L398.816 128.33L398.197 145.354L401.31 165.346Z" fill="#6C63FF"/>
<path id="Vector_45" opacity="0.1" d="M401.31 165.346L418.62 165.864C418.62 165.864 421.609 132.847 422.606 130.271C423.602 127.695 424.103 115.309 420.866 113.509C417.629 111.708 406.799 109.51 406.799 109.51L398.816 128.33L398.197 145.354L401.31 165.346Z" fill="black"/>
<path id="Vector_46" d="M359.455 110.542L359.378 106.879C359.372 106.59 359.424 106.302 359.53 106.034C359.635 105.766 359.793 105.523 359.993 105.32C360.193 105.118 360.431 104.96 360.693 104.856C360.954 104.753 361.233 104.706 361.513 104.719C370.097 105.091 401.321 106.641 406.787 109.529C406.787 109.529 400.809 155.567 407.412 166.53L405.171 203.412L328.69 197.478L359.455 110.542Z" fill="#6C63FF"/>
<path id="Vector_47" opacity="0.1" d="M353.476 52.3992C355.599 52.1795 358.128 51.9475 360.952 51.7156V56.1167H353.476V52.3992Z" fill="black"/>
<path id="Vector_48" opacity="0.1" d="M427.34 56.7881V57.3436H419.87V53.9985C422.462 54.6028 424.972 55.5399 427.34 56.7881V56.7881Z" fill="black"/>
<path id="Vector_49" d="M216.633 110.737C216.666 110.552 216.768 110.388 216.916 110.279C217.08 110.217 217.257 110.2 217.429 110.231V110.231C217.429 110.426 217.429 110.542 217.429 110.542C217.05 110.894 216.693 111.271 216.362 111.671C216.468 111.36 216.545 111.049 216.633 110.737ZM243.689 102.521C243.692 102.478 243.692 102.435 243.689 102.393C244.066 101.415 244.497 100.461 244.981 99.536C244.509 100.476 244.073 101.471 243.689 102.521V102.521ZM247.722 94.6221C247.085 95.6049 246.313 96.8745 245.552 98.3457C246.122 97.0149 246.851 95.7638 247.722 94.6221V94.6221ZM142.38 180.045C145.381 180.167 147.881 180.112 147.881 180.112C147.339 180.368 144.928 180.252 142.38 180.045ZM147.887 180.106C147.999 180.032 149.108 179.361 151.696 179.629C151.696 179.605 149.149 179.514 147.887 180.106V180.106ZM248.595 133.152L249.691 113.618C249.691 113.618 249.285 123.593 249.42 127.908C249.471 129.697 249.19 131.479 248.595 133.158V133.152Z" fill="url(#paint0_linear)"/>
<path id="Vector_50" d="M185.851 170.559C185.851 170.559 185.538 171.56 185.126 172.83C184.453 174.899 183.504 177.713 183.18 177.975C182.856 178.238 180.344 178.409 177.608 178.586C173.367 178.841 169.185 177.465 165.864 174.722C165.864 174.722 167.296 173.654 168.812 172.414C170.327 171.175 171.919 169.771 172.243 169.082C172.697 168.135 175.291 166.506 176.854 165.59C177.555 165.175 178.033 164.906 178.033 164.906L185.851 170.559Z" fill="#F899A5"/>
<path id="Vector_51" d="M182.537 179.184C182.537 179.184 154.968 177.872 153.323 177.493C151.678 177.115 151.342 175.112 151.342 175.112C150.794 173.782 153.701 174.069 153.701 174.069C153.995 174.117 157.238 174.679 160.292 175.082C162.739 175.405 165.056 175.625 165.598 175.387C166.831 174.856 169.289 175.082 169.289 175.082C167.892 170.296 163.659 169.155 161.849 168.886L161.961 168.77C162.442 168.306 162.97 167.897 163.535 167.549C169.154 167.787 172.125 175.808 172.125 175.808H172.172C172.809 176.016 179.583 178.189 180.928 178.39C182.331 178.616 182.537 179.184 182.537 179.184Z" fill="#F3B4B4"/>
<path id="Vector_52" d="M168.122 181.729C168.016 182.089 167.532 182.34 166.742 182.407C166.314 182.439 165.885 182.439 165.457 182.407C162.836 182.173 160.258 181.573 157.792 180.624C157.368 180.472 156.967 180.338 156.578 180.222H156.531C155.594 179.932 154.636 179.728 153.665 179.611C151.165 179.343 150.098 180.014 149.992 180.087C149.992 180.087 147.575 180.142 144.686 180.02C142.464 179.957 140.25 179.716 138.065 179.3V179.3C137.752 179.233 137.475 179.153 137.186 179.074C136.669 178.938 136.172 178.733 135.706 178.464C132.664 176.571 142.911 175.296 142.911 175.296C144.082 175.147 145.172 174.602 146.012 173.745L146.118 173.623L146.378 173.354C146.774 172.997 147.189 172.663 147.622 172.353L147.999 172.091C150.039 170.662 152.787 169.136 152.787 169.136C154.698 168.599 156.445 167.565 157.863 166.133C158.124 165.867 158.361 165.577 158.571 165.266V165.266L164.236 163.752L168.14 173.458C168.14 173.458 168.169 173.983 168.198 174.771C168.263 176.883 168.375 180.875 168.122 181.729Z" fill="#F899A5"/>
<path id="Vector_53" opacity="0.1" d="M166.742 182.407C166.314 182.439 165.885 182.439 165.457 182.407C162.836 182.173 160.258 181.573 157.792 180.625C157.368 180.472 156.967 180.338 156.578 180.222H156.531C155.594 179.932 154.636 179.728 153.665 179.611C151.165 179.343 150.098 180.014 149.992 180.087C149.992 180.087 147.575 180.142 144.686 180.02C142.464 179.957 140.25 179.716 138.065 179.3V179.3C137.752 179.233 137.475 179.153 137.186 179.074C137.564 179.026 137.944 179.01 138.324 179.025V179.025C138.613 179.062 141.891 179.477 144.945 179.739C147.41 179.953 149.733 180.069 150.251 179.807C151.46 179.196 153.925 179.33 153.925 179.33C152.333 174.612 148.029 173.666 146.23 173.476C146.266 173.434 146.307 173.397 146.337 173.354C146.796 172.88 147.299 172.455 147.84 172.085H147.958C153.506 172.176 156.772 179.941 156.772 179.941H156.819C157.462 180.118 164.325 181.992 165.663 182.132C166.035 182.162 166.4 182.254 166.742 182.407Z" fill="black"/>
<path id="Vector_54" d="M167.067 183.133C167.067 183.133 139.468 183.06 137.811 182.761C136.154 182.462 135.73 180.466 135.73 180.466C135.14 179.166 138.023 179.324 138.023 179.324C138.312 179.361 141.561 179.776 144.644 180.045C147.103 180.252 149.432 180.368 149.951 180.112C151.13 179.501 153.624 179.636 153.624 179.636C152.026 174.917 147.728 173.971 145.93 173.782L146.036 173.66C146.501 173.18 147.011 172.749 147.557 172.372C153.182 172.372 156.489 180.234 156.489 180.234H156.536C157.179 180.405 164.042 182.279 165.38 182.419C166.837 182.572 167.067 183.133 167.067 183.133Z" fill="#F3B4B4"/>
<path id="Vector_55" opacity="0.1" d="M185.851 170.559C185.851 170.559 185.538 171.56 185.126 172.83C184.96 172.714 179.53 168.972 177.461 166.518C177.218 166.242 177.008 165.936 176.836 165.608C177.538 165.193 178.015 164.925 178.015 164.925L185.851 170.559Z" fill="black"/>
<path id="Vector_56" d="M201.734 158.179L200.755 161.457L191.381 166.744C191.381 166.744 188.846 168.605 188.433 169.484C188.098 170.07 187.564 170.506 186.936 170.705C186.471 171.304 186.038 171.927 185.638 172.573C185.638 172.573 180.073 168.752 177.974 166.261C177.325 165.492 177.013 164.845 177.308 164.485C178.534 162.959 185.892 157.477 185.892 157.477C185.892 157.477 190.385 151.373 190.579 151.483C190.774 151.593 193.032 149.341 194.358 148.065L195.266 147.186L201.734 158.179Z" fill="#BDD3E8"/>
<path id="Vector_57" d="M215.772 149.646V151.263C215.772 151.263 221.668 157.105 220.89 161.866C220.112 166.627 221.757 172.561 221.757 172.561L227.688 172.121L226.792 150.366L215.772 149.646Z" fill="#BDD3E8"/>
<path id="Vector_58" opacity="0.05" d="M227.688 172.121L221.757 172.561C221.757 172.561 220.112 166.634 220.89 161.866C221.668 157.099 215.772 151.263 215.772 151.263V149.646L226.792 150.366L226.851 151.782L227.688 172.121Z" fill="black"/>
<path id="Vector_59" opacity="0.05" d="M194.848 149.017C192.971 150.822 191.233 152.775 189.648 154.858C187.561 157.734 184.005 161.866 184.005 161.866L179.754 164.473L177.986 166.249C177.337 165.48 177.025 164.833 177.319 164.473C178.546 162.947 185.904 157.465 185.904 157.465C185.904 157.465 190.396 151.361 190.591 151.471C190.786 151.58 193.044 149.328 194.37 148.052L194.848 149.017Z" fill="black"/>
<path id="Vector_60" opacity="0.1" d="M168.181 174.771C168.008 174.923 167.845 175.086 167.691 175.259C167.691 175.259 167.603 178.128 165.433 171.389C163.264 164.65 157.881 166.267 157.881 166.267C157.861 166.255 157.847 166.236 157.839 166.214C157.832 166.192 157.832 166.167 157.839 166.145C157.839 165.962 158.152 165.645 158.547 165.279L164.213 163.765L168.116 173.47C168.116 173.47 168.151 173.983 168.181 174.771Z" fill="black"/>
<path id="Vector_61" d="M188.174 136.436L184.872 136.528L182.614 139.854C182.614 139.854 178.882 143.987 177.756 145.019C176.63 146.05 169.336 153.149 167.255 156.836C167.255 156.836 165.345 157.825 165.345 158.814C165.345 159.803 161.701 162.678 161.701 162.678C161.701 162.678 157.881 165.37 158.4 165.73C158.4 165.73 163.783 164.113 165.952 170.852C168.122 177.591 168.21 174.716 168.21 174.716C168.585 174.29 169.026 173.931 169.513 173.653C170.032 173.458 172.503 169.777 173.263 169.686C173.824 169.571 174.353 169.324 174.808 168.965L179.23 164.473L183.487 161.866C183.487 161.866 187.024 157.734 189.123 154.859C190.711 152.776 192.452 150.823 194.329 149.017L188.174 136.436Z" fill="#BDD3E8"/>
<path id="Vector_62" opacity="0.1" d="M171.683 158.186C171.683 158.186 177.579 161.146 177.325 161.775C177.072 162.404 171.683 158.186 171.683 158.186Z" fill="black"/>
<path id="Vector_63" opacity="0.1" d="M176.341 157.465C176.341 157.465 176.801 160.133 179.147 160.011C181.494 159.889 176.341 157.465 176.341 157.465Z" fill="black"/>
<path id="Vector_64" opacity="0.1" d="M168.122 164.955C168.122 164.955 168.47 166.481 170.639 166.75C172.809 167.018 168.122 164.955 168.122 164.955Z" fill="black"/>
<path id="Vector_65" opacity="0.1" d="M190.214 158.186C190.214 158.186 193.073 159.406 193.333 161.103C193.592 162.8 190.214 158.186 190.214 158.186Z" fill="black"/>
<path id="Vector_66" opacity="0.1" d="M183.18 164.473C184.288 164.967 187.478 168.673 187.413 169.075C187.348 169.478 183.18 164.473 183.18 164.473Z" fill="black"/>
<path id="Vector_67" opacity="0.1" d="M188.256 161.842C188.589 161.72 188.948 161.695 189.293 161.77C189.638 161.846 189.957 162.018 190.214 162.269C191.01 163.124 188.256 161.842 188.256 161.842Z" fill="black"/>
<path id="Vector_68" d="M209.287 132.487C209.287 132.487 198.22 128.775 199.069 132.487C199.918 136.198 209.287 138.28 209.287 138.28V132.487Z" fill="#F899A5"/>
<path id="Vector_69" opacity="0.1" d="M226.851 151.782L223.449 151.538L215.766 150.873V149.652L226.792 150.366L226.851 151.782Z" fill="black"/>
<path id="Vector_70" opacity="0.1" d="M237.988 126.016C237.988 126.016 241.007 128.305 244.238 128.397C247.469 128.489 237.988 126.016 237.988 126.016Z" fill="black"/>
<path id="Vector_71" opacity="0.1" d="M241.891 118.758C241.891 118.758 244.279 117.537 245.623 118.557C246.967 119.576 241.891 118.758 241.891 118.758Z" fill="black"/>
<path id="Vector_72" opacity="0.1" d="M240.765 122.836C240.765 122.836 240.918 124.277 244.456 124.454C247.993 124.631 240.765 122.836 240.765 122.836Z" fill="black"/>
<path id="Vector_73" d="M221.757 172.561C221.757 172.561 216.244 174.447 214.092 173.458C211.94 172.469 207.259 168.697 207.259 168.697C207.259 168.697 204.252 165.645 201.392 162.232L201.027 161.793C198.55 158.808 196.31 155.689 196.31 154.144C196.324 153.503 196.247 152.863 196.08 152.246C195.831 151.353 195.432 150.512 194.901 149.761C194.605 149.33 194.265 148.933 193.887 148.577L184.86 136.534C184.86 136.534 187.466 133.658 187.466 132.871C187.466 132.084 190.591 127.664 194.583 130.002C196.263 130.979 200.278 134.623 204.37 138.511C210 143.859 215.761 149.676 215.761 149.676C215.761 149.676 216.167 150.128 216.763 150.83C218.29 152.661 221.049 156.11 221.267 157.856C221.586 160.248 221.757 172.561 221.757 172.561Z" fill="#BDD3E8"/>
<path id="Vector_74" opacity="0.05" d="M216.775 150.799C212.5 155.207 206.068 161.115 201.398 162.232L201.274 162.263L201.033 161.793L196.104 152.246L194.854 149.804L194.919 149.737L204.387 138.463C210.018 143.81 215.778 149.627 215.778 149.627C215.778 149.627 216.179 150.097 216.775 150.799Z" fill="black"/>
<path id="Vector_75" d="M251.33 159.058V161.103C251.33 161.103 254.066 171.102 249.119 173.922C246.619 175.356 241.296 175.698 236.638 175.686C233.531 175.695 230.521 174.572 228.135 172.512C225.749 170.453 224.14 167.589 223.59 164.424C223.406 163.468 223.388 162.486 223.537 161.524C223.537 161.524 221.326 145.147 220.801 145.043C220.801 145.043 208.367 159.785 200.755 161.482L194.329 149.041L204.594 136.833C204.594 136.833 212.211 124.301 214.422 123.153C216.633 122.006 218.85 118.795 218.85 118.795C218.85 118.795 227.77 111.091 233.69 124.099C239.609 137.107 243.453 147.613 244.892 151.513C244.892 151.513 246.979 155.933 248.276 155.921H248.318C249.117 155.929 249.882 156.262 250.446 156.85C251.009 157.437 251.327 158.23 251.33 159.058V159.058Z" fill="#BDD3E8"/>
<path id="Vector_76" opacity="0.1" d="M220.542 144.347C221.736 142.982 222.643 141.375 223.207 139.629C224.192 136.662 222.912 142.638 220.801 145.019L220.542 144.347Z" fill="black"/>
<path id="Vector_77" d="M464.832 166.511L453.535 166.682L430.199 122.775L426.302 115.444L429.291 96.8745L431.591 101.367L464.832 166.511Z" fill="black"/>
<path id="Vector_78" d="M362.692 112.52L358.046 119.741L344.143 100.281L337.782 91.3688L341.602 86.0398L344.527 89.7145L362.692 112.52Z" fill="#DCE0ED"/>
<path id="Vector_79" opacity="0.1" d="M344.526 89.7084C344.526 90.0808 344.568 90.4654 344.591 90.8499L344.143 100.281L337.782 91.3688L341.602 86.0398L344.526 89.7084Z" fill="black"/>
<path id="Vector_80" opacity="0.1" d="M431.591 101.367L430.199 122.775L426.302 115.444L429.291 96.8745L431.591 101.367Z" fill="black"/>
<path id="Vector_81" d="M331.332 103.406C331.332 103.406 325.754 60.2799 346.071 53.8277C346.332 53.7491 346.598 53.692 346.867 53.6568C351.543 53.0769 395.095 47.8761 417.706 54.0536C417.706 54.0536 433.153 56.4647 432.988 65.0412L426.137 170.119H415.012L418.661 100.653C418.661 100.653 423.968 70.3885 415.177 68.3008C406.386 66.2132 366.347 62.807 352.232 66.9274C352.232 66.9274 341.932 64.5162 343.595 90.8254L342.929 104.926L331.332 103.406Z" fill="black"/>
<path id="Vector_82" d="M365.186 116.213C365.279 115.074 365.087 113.93 364.629 112.89C364.17 111.851 363.46 110.952 362.568 110.279C359.455 107.838 349.862 102.545 349.862 102.545L346.749 102.802L337.41 126.791L338.029 177.731L354.844 199.267L365.186 116.213Z" fill="#6C63FF"/>
<path id="Vector_83" opacity="0.1" d="M365.186 116.213C365.279 115.074 365.087 113.93 364.629 112.89C364.17 111.851 363.46 110.952 362.568 110.279C359.455 107.838 349.862 102.545 349.862 102.545L346.749 102.802L337.41 126.791L338.029 177.731L354.844 199.267L365.186 116.213Z" fill="black"/>
<path id="Vector_84" d="M298.091 169.606L298.421 117.33C298.421 117.33 296.929 97.0393 308.638 96.6975C308.638 96.6975 336.249 96.9051 348.247 100.94C348.625 101.066 348.972 101.278 349.262 101.56C349.551 101.842 349.776 102.187 349.921 102.571C350.065 102.954 350.126 103.366 350.097 103.777C350.069 104.187 349.952 104.586 349.756 104.944C347.398 109.248 343.341 120.644 341.396 149.871V181.21L298.091 169.606Z" fill="#6C63FF"/>
<path id="Vector_85" d="M356.342 203.009L306.097 201.794H306.05L281.358 201.202L284.218 167.024L297.92 167.543L341.52 177.603L354.844 199.267L356.342 203.009Z" fill="#6C63FF"/>
<path id="Vector_86" opacity="0.1" d="M356.342 203.009L306.097 201.794H306.05L281.358 201.202L284.218 167.024L297.92 167.543L341.52 177.603L354.844 199.267L356.342 203.009Z" fill="black"/>
<path id="Vector_87" d="M356.342 203.009L306.097 201.794L305.272 178.891L341.52 177.603L354.844 199.267L356.342 203.009Z" fill="#6C63FF"/>
<path id="Vector_88" opacity="0.1" d="M306.05 201.794L281.358 201.184L284.223 167C284.223 167 291.947 179.77 305.272 178.867L306.05 201.794Z" fill="white"/>
<path id="Vector_89" d="M310.378 80.8816C310.378 80.8816 287.46 91.7044 285.798 94.8053C284.135 97.9063 272.827 111.287 272.827 111.287L277.726 119.833L300.396 101.172L310.378 80.8816Z" fill="#575A89"/>
<path id="Vector_90" d="M292.914 136.217L282.301 134.574L274.495 144.109C274.495 144.109 263.617 149.695 262.35 152.136C261.082 154.578 257.126 161.732 255.381 161.787C253.636 161.842 252.003 164.479 251.991 165.523C251.979 166.567 245.346 178.555 243.701 179.245C242.056 179.935 239.203 183.829 239.273 184.599C239.344 185.368 233.083 193.035 233.083 193.035C233.083 193.035 222.47 210.23 220.89 210.78C219.31 211.329 213.196 222.433 211.645 223.751C210.095 225.07 205.749 226.254 206.28 227.322C206.811 228.39 217.482 243.492 216.834 247.771C216.834 247.771 224.775 241.264 225.088 239.262C225.4 237.26 235.229 226.699 235.229 226.699L286.706 171.346L296.628 136.461L292.914 136.217Z" fill="#CEDDF9"/>
<path id="Vector_91" opacity="0.1" d="M321.415 153.998C321.415 153.998 323.531 179.16 316.515 182.969C309.499 186.778 304.724 186.338 303.373 188.017C302.023 189.695 293.798 191.179 292.926 192.705C292.053 194.231 269.006 207.569 269.006 207.569C269.006 207.569 253.241 217.189 250.77 219.283C248.3 221.376 234.851 227.499 232.558 230.38C230.264 233.261 215.867 242.704 215.867 242.704C215.867 242.704 211.651 229.275 206.805 228.097C206.805 228.097 218.455 225.723 219.145 223.824C219.835 221.926 223.313 219.887 223.313 219.887C223.313 219.887 239.898 209.925 240.411 207.678C240.924 205.432 245.01 202.233 245.01 202.233C245.01 202.233 251.596 192.912 254.019 192.015C256.442 191.118 270.81 175.845 270.81 175.845C270.81 175.845 280.58 170.498 281.665 168.74C282.75 166.982 301.263 157.02 301.263 157.02L280.161 129.874L286.835 127.75L306.604 133.244L310.142 139.879L321.415 153.998Z" fill="black"/>
<path id="Vector_92" d="M322.606 154.364C322.606 154.364 324.728 179.526 317.712 183.335C310.696 187.144 305.92 186.71 304.564 188.383C303.208 190.055 294.989 191.551 294.117 193.071C293.244 194.591 270.203 207.941 270.203 207.941C270.203 207.941 254.438 217.555 251.961 219.63C249.485 221.706 236.042 227.853 233.749 230.734C231.455 233.615 217.058 243.052 217.058 243.052C217.058 243.052 212.824 229.66 207.996 228.439C207.996 228.439 219.652 226.07 220.336 224.166C221.02 222.261 224.504 220.223 224.504 220.223C224.504 220.223 241.089 210.26 241.602 208.014C242.115 205.768 246.207 202.563 246.207 202.563C246.207 202.563 252.793 193.242 255.216 192.351C257.639 191.459 272.001 176.175 272.001 176.175C272.001 176.175 281.771 170.827 282.856 169.069C283.941 167.311 274.484 144.042 274.484 144.042L281.37 130.185L288.044 128.067L307.813 133.561L311.35 140.196L322.606 154.364Z" fill="#CEDDF9"/>
<path id="Vector_93" d="M346.071 88.5118L329.946 100.11C329.946 100.11 310.46 92.626 318.154 89.6228C323.201 87.6511 325.017 77.4754 325.666 70.6997C326.008 67.1714 326.025 64.5955 326.025 64.5955C326.025 64.5955 348.011 64.5588 343.966 71.8229C342.893 73.8236 342.425 76.1117 342.622 78.391C342.929 83.7688 346.071 88.5118 346.071 88.5118Z" fill="#FEC2BE"/>
<path id="Vector_94" opacity="0.1" d="M342.587 78.3971C339.339 79.1831 335.933 78.8605 332.877 77.4776C329.821 76.0947 327.279 73.7257 325.63 70.7241C325.972 67.1959 325.99 64.6199 325.99 64.6199C325.99 64.6199 347.976 64.5832 343.931 71.8473C342.862 73.8427 342.394 76.1239 342.587 78.3971V78.3971Z" fill="black"/>
<path id="Vector_95" d="M353.989 66.9824C352.843 70.9997 350.224 74.3933 346.693 76.4379C343.161 78.4824 338.998 79.0158 335.091 77.9239C331.185 76.832 327.847 74.2015 325.789 70.5946C323.731 66.9878 323.118 62.6907 324.08 58.6219C325.042 54.553 327.504 51.0352 330.938 48.8204C334.372 46.6055 338.507 45.8692 342.458 46.769C346.41 47.6688 349.865 50.1332 352.084 53.6354C354.304 57.1377 355.113 61.4 354.337 65.5113C354.243 65.9996 354.131 66.4941 353.989 66.9824Z" fill="#FEC2BE"/>
<path id="Vector_96" opacity="0.1" d="M323.024 82.0046C323.024 82.0046 320.318 82.0047 320.147 85.9907C319.976 89.9768 317.24 89.6838 317.24 89.6838L304.529 103.351C304.529 103.351 298.822 117.501 298.869 118.075C298.916 118.648 297.583 121.041 297.884 122.25C298.185 123.458 297.766 127.133 296.705 126.81C295.644 126.486 293.875 127.615 293.899 129.416C293.922 131.217 284.966 136.741 285.332 138.084C285.697 139.427 310.832 153.253 310.832 153.253L321.291 161.646L331.054 142.815L339.191 116.866L343.713 101.801L347.457 97.4666L345.735 87.297C345.735 87.297 344.19 82.8959 342.929 83.5124C341.667 84.1289 337.033 89.3114 332.682 89.7631C328.33 90.2148 325.789 90.7642 324.775 89.7631C323.761 88.762 317.6 88.0417 323.024 82.0046Z" fill="black"/>
<path id="Vector_97" opacity="0.1" d="M323.897 80.6802C323.897 80.6802 320.678 80.7778 320.501 84.7578C320.324 88.7377 317.594 88.4509 317.594 88.4509L304.883 102.118C304.883 102.118 299.175 116.262 299.229 116.842C299.282 117.421 297.937 119.802 298.238 121.017C298.539 122.232 298.126 125.9 297.059 125.577C295.992 125.253 294.223 126.382 294.246 128.183C294.27 129.984 285.314 135.508 285.686 136.851C286.057 138.194 311.179 152.02 311.179 152.02L321.645 160.414L331.408 141.576L339.545 115.627L344.108 100.568L347.846 96.2337L346.124 86.0641C346.124 86.0641 344.58 81.663 343.318 82.2795C342.056 82.896 337.422 88.0785 333.077 88.5241C328.732 88.9697 326.184 89.5313 325.17 88.5241C324.156 87.5169 324.764 86.3815 323.897 80.6802Z" fill="black"/>
<path id="Vector_98" d="M323.779 81.0891C323.779 81.0891 320.554 81.1868 320.383 85.1667C320.212 89.1467 317.476 88.8659 317.476 88.8659L304.765 102.527C304.765 102.527 299.057 116.677 299.111 117.251C299.164 117.824 297.819 120.217 298.12 121.426C298.421 122.634 298.008 126.309 296.941 125.986C295.874 125.662 294.111 126.791 294.134 128.592C294.158 130.393 285.202 135.917 285.574 137.26C285.945 138.603 311.067 152.435 311.067 152.435L321.527 160.822L331.29 141.991L339.432 116.042L343.99 100.977L347.734 96.6427L346.012 86.473C346.012 86.473 344.468 82.0719 343.206 82.6945C341.944 83.3172 337.31 88.4874 332.965 88.9391C328.619 89.3909 326.066 89.9463 325.052 88.9391C324.038 87.932 324.646 86.821 323.779 81.0891Z" fill="white"/>
<path id="Vector_99" opacity="0.1" d="M323.891 81.071C322.383 80.9166 320.892 80.6141 319.44 80.1675C317.883 79.5571 312.123 80.0332 312.123 80.0332C312.123 80.0332 305.508 80.4544 304.287 82.4322C303.067 84.41 297.802 95.1107 295.998 95.7821C294.193 96.4536 283.528 114.229 281.346 115.792C279.165 117.354 269.767 136.418 269.767 136.418C269.767 136.418 276.712 133.024 279.89 137.993C279.973 138.121 280.055 138.249 280.132 138.39C283.186 143.932 286.028 139.659 286.028 139.659C286.028 139.659 296.139 130.124 296.947 128.464C297.755 126.804 303.733 114.315 305.272 110.866C306.811 107.417 319.841 90.3799 320.277 89.623C320.713 88.866 323.891 81.071 323.891 81.071Z" fill="black"/>
<path id="Vector_100" d="M323.891 81.0707C322.12 80.8188 320.368 80.4353 318.65 79.9232C317.087 79.3127 311.327 79.7889 311.327 79.7889C311.327 79.7889 304.712 80.21 303.491 82.1817C302.271 84.1534 297.006 94.8663 295.202 95.5316C293.397 96.197 282.732 113.979 280.55 115.547C278.369 117.116 268.971 136.174 268.971 136.174C268.971 136.174 275.916 132.78 279.1 137.748C279.177 137.871 279.259 138.005 279.336 138.145C282.39 143.682 285.232 139.415 285.232 139.415C285.232 139.415 295.349 129.874 296.151 128.22C296.953 126.566 302.937 114.07 304.476 110.621C306.015 107.172 319.045 90.1355 319.481 89.3725C319.917 88.6095 323.891 81.0707 323.891 81.0707Z" fill="#575A89"/>
<path id="Vector_101" opacity="0.1" d="M343.247 81.7056C343.247 81.7056 351.608 87.9868 352.681 89.8913C353.754 91.7958 364.702 97.7536 364.702 97.7536C364.702 97.7536 368.829 105.64 368.21 108.479C367.591 111.317 366.937 114.021 367.473 115.535C368.01 117.049 368.34 117.037 367.544 119.033C366.748 121.029 367.025 121.224 368.134 123.019C369.242 124.814 351.625 130.344 351.625 130.344C351.625 130.344 349.267 130.722 349.013 131.888C348.76 133.054 335.252 163.826 333.301 168.715C331.349 173.605 325.182 193.132 320.006 193.407C314.829 193.681 318.826 193.48 318.826 193.48C318.826 193.48 319.622 177.609 316.439 172.115C313.255 166.621 319.54 145.421 319.54 145.421C319.54 145.421 340.464 83.0851 343.247 81.7056Z" fill="black"/>
<path id="Vector_102" d="M343.247 81.7056C343.247 81.7056 352.403 88.2371 353.476 90.1355C354.549 92.0339 365.528 97.9977 365.528 97.9977C365.528 97.9977 369.655 105.884 369.036 108.723C368.417 111.561 367.762 114.272 368.299 115.779C368.835 117.287 369.165 117.281 368.369 119.277C367.573 121.273 367.845 121.468 368.959 123.269C370.073 125.07 352.451 130.594 352.451 130.594C352.451 130.594 350.092 130.979 349.839 132.139C349.585 133.298 336.048 164.088 334.085 168.972C332.122 173.855 325.966 193.358 320.79 193.645C315.613 193.932 319.61 193.718 319.61 193.718C319.61 193.718 320.406 177.847 317.223 172.353C314.039 166.859 320.377 145.647 320.377 145.647C320.377 145.647 340.464 83.0851 343.247 81.7056Z" fill="#575A89"/>
<path id="Vector_103" d="M353.871 144.536C353.871 144.536 335.323 148.809 334.745 150.03C334.167 151.251 318.826 160.719 326.874 165.291C334.922 169.863 347.569 158.851 347.569 158.851L357.592 152.228L353.871 144.536Z" fill="#FEC2BE"/>
<path id="Vector_104" d="M362.161 118.935C362.462 119.027 368.924 123.269 368.924 123.269C368.924 123.269 371.966 133.732 372.632 136.296C373.298 138.859 374.991 143.419 374.879 144.274C374.766 145.129 376.718 149.884 373.605 152.057C370.492 154.23 367.226 153.888 365.728 155.341C364.231 156.794 353.907 161.445 352.604 161.811C351.301 162.178 359.042 145.873 349.485 143.364C349.485 143.364 356.33 144.03 356.684 142.791C357.038 141.551 357.433 138.316 356.153 137.138C354.874 135.96 349.349 130.326 349.349 130.326L362.161 118.935Z" fill="#575A89"/>
<path id="Vector_105" opacity="0.1" d="M354.326 65.5111C353.519 65.0662 352.872 64.3641 352.48 63.5089C351.849 62.2392 351.218 60.6888 349.874 60.3652C349.119 60.176 348.206 60.408 347.645 59.8525C347.209 59.413 347.221 58.6988 347.215 58.07C347.235 56.6354 346.843 55.2269 346.089 54.0229C345.707 53.4291 345.186 52.9449 344.575 52.6151C343.964 52.2854 343.282 52.1208 342.593 52.1367C340.677 52.271 339.008 54.0779 337.121 53.7177C336.29 53.559 335.494 52.9791 334.68 53.205C334.363 53.3083 334.07 53.4787 333.82 53.7055C332.058 55.1401 330.7 57.0372 329.887 59.1993C329.109 61.2504 328.849 63.4723 327.918 65.4806C327.546 66.2619 326.833 67.0982 326.031 66.854C324.781 66.4695 325.442 64.8396 324.746 64.1254C324.462 63.8953 324.12 63.7535 323.761 63.7165C323.582 61.4373 323.877 59.1449 324.626 56.9938C325.375 54.8426 326.561 52.8827 328.104 51.2462C329.646 49.6096 331.51 48.3344 333.568 47.5064C335.627 46.6785 337.833 46.3171 340.039 46.4466C342.244 46.576 344.396 47.1934 346.351 48.257C348.307 49.3206 350.019 50.8058 351.373 52.6125C352.727 54.4191 353.691 56.5052 354.2 58.7303C354.709 60.9553 354.752 63.2675 354.326 65.5111V65.5111Z" fill="black"/>
<path id="Vector_106" d="M326.161 66.4391C326.963 66.6833 327.676 65.8287 328.047 65.0718C328.979 63.0879 329.227 60.8416 330.017 58.7905C330.83 56.6271 332.191 54.7297 333.955 53.2968C334.203 53.0683 334.494 52.8958 334.81 52.7901C335.624 52.5704 336.425 53.1442 337.251 53.3029C339.138 53.6691 340.788 51.8562 342.722 51.7219C343.412 51.7066 344.094 51.8721 344.705 52.203C345.317 52.5338 345.837 53.0192 346.219 53.6142C346.976 54.8143 347.368 56.2219 347.345 57.6552C347.345 58.2656 347.345 58.9981 347.781 59.4376C348.335 59.9992 349.249 59.7672 350.01 59.9504C351.354 60.28 351.979 61.8244 352.616 63.094C353.252 64.3637 354.532 65.6944 355.811 65.145C356.194 64.9802 356.507 64.6567 356.902 64.5346C357.627 64.2844 358.494 64.6933 359.142 64.2783C359.968 63.7533 359.732 62.447 359.195 61.5741C358.659 60.7012 358.016 59.7428 358.352 58.8089C358.569 58.356 358.872 57.9532 359.243 57.6247C360.19 56.4914 360.682 55.0257 360.618 53.5285C360.555 52.0313 359.94 50.616 358.901 49.5732C358.376 49.0849 357.763 48.7064 357.25 48.2058C356.218 47.2047 355.67 45.8008 354.891 44.5433C353.944 43.0257 352.656 41.7688 351.136 40.8808C350.472 40.4574 349.728 40.1887 348.954 40.0933C347.887 40.0079 346.838 40.423 345.77 40.5328C342.198 40.9052 339.126 37.9813 335.63 37.1511C335.233 37.0169 334.813 36.9736 334.399 37.0242C333.984 37.0748 333.585 37.218 333.23 37.4441C332.534 38.0057 332.387 39.0129 332.051 39.8858C331.349 41.7537 329.651 43.06 327.847 43.7803C325.766 44.6043 323.13 45.05 322.264 47.1681C321.509 48.9994 322.488 51.0992 322.093 53.0282C321.786 54.5359 320.695 55.714 319.852 56.9837C319.009 58.2534 318.39 59.9626 319.121 61.3055C319.573 62.0269 320.246 62.5707 321.031 62.8499C322.01 63.265 324.192 63.0452 324.852 63.7167C325.512 64.3881 324.911 66.0668 326.161 66.4391Z" fill="#9A5E7F"/>
<path id="Vector_107" opacity="0.1" d="M361.088 137.278C361.442 137.315 367.886 138.499 369.401 140.746C370.916 142.992 361.088 137.278 361.088 137.278Z" fill="black"/>
<path id="Vector_108" opacity="0.1" d="M357.863 130.161C357.863 130.161 364.891 131.809 365.704 132.511C366.518 133.213 357.863 130.161 357.863 130.161Z" fill="black"/>
<path id="Vector_109" opacity="0.1" d="M360.174 112.196C360.174 112.196 365.345 114.54 365.934 115.993C366.524 117.446 360.174 112.196 360.174 112.196Z" fill="black"/>
<path id="Vector_110" opacity="0.1" d="M294.093 172.891C294.63 173.281 307.33 183.036 306.292 183.39C305.254 183.744 294.093 172.891 294.093 172.891Z" fill="black"/>
<path id="Vector_111" opacity="0.1" d="M293.999 178.995C293.999 178.995 301.439 182.718 300.195 184.275C298.951 185.831 293.999 178.995 293.999 178.995Z" fill="black"/>
<g id="Group" opacity="0.1">
<path id="Vector_112" opacity="0.1" d="M322.364 52.204C322.7 50.5497 322.028 48.7612 322.305 47.1375C322.305 47.1375 322.305 47.1375 322.305 47.168C321.562 48.9504 322.5 51.0319 322.152 52.9364C322.24 52.6981 322.311 52.4533 322.364 52.204V52.204Z" fill="black"/>
<path id="Vector_113" opacity="0.1" d="M358.588 57.9725C358.535 58.1336 358.507 58.3026 358.506 58.473C358.727 58.165 358.974 57.877 359.243 57.6123C359.871 56.9019 360.3 56.0286 360.487 55.0852C360.261 55.7153 359.918 56.2938 359.479 56.7883C359.108 57.1168 358.805 57.5196 358.588 57.9725V57.9725Z" fill="black"/>
<path id="Vector_114" opacity="0.1" d="M359.384 63.4418C358.736 63.8569 357.863 63.4418 357.138 63.6982C356.743 63.8386 356.43 64.156 356.047 64.3086C354.768 64.858 353.482 63.5334 352.852 62.2637C352.221 60.994 351.59 59.4436 350.246 59.1139C349.491 58.9308 348.571 59.1628 348.017 58.6012C347.581 58.1678 347.592 57.4536 347.581 56.8249C347.603 55.3907 347.213 53.982 346.46 52.7778C346.076 52.1843 345.554 51.7002 344.942 51.3696C344.33 51.039 343.648 50.8726 342.958 50.8855C341.048 51.0198 339.379 52.8327 337.493 52.4726C336.661 52.3077 335.86 51.7339 335.046 51.9537C334.731 52.0618 334.441 52.234 334.191 52.4603C332.427 53.8933 331.066 55.7907 330.253 57.9541C330.027 58.5396 329.83 59.1365 329.663 59.7427C329.763 59.4192 329.869 59.0956 329.993 58.7782C330.807 56.6147 332.167 54.7174 333.932 53.2844C334.18 53.056 334.471 52.8835 334.787 52.7778C335.6 52.558 336.402 53.1318 337.227 53.2905C339.114 53.6568 340.765 51.8438 342.699 51.7095C343.388 51.6943 344.071 51.8598 344.682 52.1906C345.293 52.5214 345.814 53.0069 346.195 53.6018C346.952 54.8019 347.345 56.2095 347.321 57.6428C347.321 58.2533 347.321 58.9858 347.758 59.4253C348.312 59.9868 349.226 59.7549 349.986 59.938C351.33 60.2676 351.955 61.812 352.592 63.0817C353.229 64.3514 354.508 65.6821 355.788 65.1327C356.171 64.9679 356.483 64.6444 356.878 64.5223C357.604 64.272 358.47 64.681 359.119 64.2659C359.293 64.1476 359.434 63.9837 359.527 63.7907C359.621 63.5977 359.663 63.3825 359.649 63.1671C359.578 63.2746 359.488 63.3676 359.384 63.4418V63.4418Z" fill="black"/>
<path id="Vector_115" opacity="0.1" d="M328.283 64.2353C327.918 65.0167 327.199 65.8468 326.397 65.6027C325.147 65.2242 325.807 63.5944 325.117 62.8802C324.427 62.166 322.275 62.4285 321.297 62.0134C320.512 61.7325 319.84 61.1892 319.386 60.469C319.061 59.8342 318.973 59.0975 319.139 58.3997C318.929 58.8511 318.82 59.3455 318.82 59.8464C318.82 60.3472 318.929 60.8417 319.139 61.2931C319.591 62.0145 320.264 62.5583 321.049 62.8374C322.028 63.2525 324.209 63.0328 324.87 63.7043C325.53 64.3757 324.899 66.0483 326.149 66.4267C326.951 66.6709 327.664 65.8163 328.036 65.0594C328.414 64.2098 328.72 63.3274 328.95 62.4224C328.771 63.0429 328.548 63.6489 328.283 64.2353Z" fill="black"/>
</g>
<path id="Vector_116" opacity="0.1" d="M301.976 94.9397C301.976 94.9397 296.9 102.784 297.507 104.426C298.114 106.068 301.976 94.9397 301.976 94.9397Z" fill="black"/>
<path id="Vector_117" opacity="0.1" d="M302.719 120.498C302.719 120.498 305.413 121.664 306.398 122.757C307.382 123.849 302.719 120.498 302.719 120.498Z" fill="black"/>
<path id="Vector_118" opacity="0.1" d="M308.638 128.494C308.638 128.494 314.393 129.935 314.882 130.869C315.371 131.803 308.638 128.494 308.638 128.494Z" fill="black"/>
<path id="Vector_119" opacity="0.1" d="M309.641 136.65C309.641 136.65 314.847 137.358 315.436 139.446C316.026 141.533 309.641 136.65 309.641 136.65Z" fill="black"/>
<path id="Vector_120" d="M290.78 100.995C279.407 100.995 270.191 113.893 270.191 129.801C270.191 145.708 279.407 158.6 290.78 158.6C302.153 158.6 311.374 145.702 311.374 129.801C311.374 113.899 302.159 100.995 290.78 100.995ZM287.873 152.582C279.206 152.582 272.184 143.23 272.184 131.687C272.184 120.144 279.206 110.798 287.873 110.798C296.54 110.798 303.568 120.15 303.568 131.687C303.568 143.224 296.546 152.582 287.873 152.582V152.582Z" fill="#636780"/>
<path id="Vector_121" d="M291.776 138.658L301.41 148.455L304.894 139.684L290.945 131.26L291.776 138.658Z" fill="#636780"/>
<path id="Vector_122" d="M305.979 41.6499L314.363 42.7059L317.476 46.5333L312.759 68.5085L302.736 103.913L296.157 128.22L291.534 142.98L288.586 162.514L285.638 175.943L276.795 185.099L258.812 163.124L255.864 155.799L248.789 140.844L267.066 131.992L287.112 130.161L296.546 105.134L304.21 76.1388L305.979 41.6499Z" fill="#6C63FF"/>
<path id="Vector_123" d="M136.325 146.392L125.365 241.654L263.376 235.636L247.433 188.865L220.86 170.98L281.647 172.011L281.977 145.879L257.397 140.373L207.907 136.247L170.704 134.531L135.164 146.563" fill="#2C24AB"/>
<path id="Vector_124" d="M324.881 241.325C324.881 264.997 317.282 286.545 296.204 284.189C269.619 283.578 267.532 264.997 267.532 241.325C267.532 217.653 280.368 200.036 296.204 200.036C312.04 200.036 324.881 217.653 324.881 241.325Z" fill="#636780"/>
<path id="Vector_125" opacity="0.1" d="M325.047 241.368C325.047 223.055 317.352 208.344 306.528 202.643C292.625 205.377 281.942 221.932 281.942 243.541C281.942 262.94 283.345 278.945 298.486 284.396C317.96 285.111 325.047 264.228 325.047 241.368Z" fill="black"/>
<path id="Vector_126" d="M351.967 204.175L343.86 213.789L358.453 211.195L369.36 200.817L379.088 180.673L392.796 171.975L426.403 176.706L457.503 177.926L468.983 167.372L456.177 165.565L443.206 165.26L410.631 164.497L371.866 163.429L363.906 185.404L357.863 200.512L351.967 204.175Z" fill="#6C63FF"/>
<path id="Vector_127" d="M463.505 243.37C462.839 244.402 441.101 247.844 441.101 247.844L380.963 259.192L277.679 260.736L265.557 250.072L259.19 251.244L258.93 251.293L173.864 266.926L172.479 266.725L149.296 263.3L28.2126 245.433L29.5687 227.237L30.3705 216.493L32.0273 194.194L33.2065 188.346L43.99 187.321L49.0251 186.845L127.611 179.379L137.888 178.403L143.648 177.859L199.783 169.924L281.659 171.987L281.989 145.849L314.375 42.6875C321.515 43.9083 321.35 48.8772 321.35 48.8772L293.775 146.032L293.439 205.701C350.776 211.695 352.627 198.76 361.695 203.119L372.662 166.841L468.983 167.36C472.833 172.183 463.505 243.37 463.505 243.37Z" fill="#2C24AB"/>
<path id="Vector_128" d="M224.516 189.207L255.074 257.129L265.368 260.566L267.862 249.56L256.401 211.903L244.609 190.068L224.516 189.207Z" fill="#6C63FF"/>
<path id="Vector_129" opacity="0.15" d="M224.516 189.207L255.074 257.129L265.368 260.566L267.862 249.56L256.401 211.903L244.609 190.068L224.516 189.207Z" fill="black"/>
<path id="Vector_130" d="M204.623 329C235.189 329 259.968 299.899 259.968 264.002C259.968 228.105 235.189 199.004 204.623 199.004C174.057 199.004 149.279 228.105 149.279 264.002C149.279 299.899 174.057 329 204.623 329Z" fill="#636780"/>
<path id="Vector_131" opacity="0.1" d="M224.369 203.064C195.408 205.151 172.485 233.39 172.485 267.927C172.485 295.769 187.39 319.52 208.338 328.774C237.298 326.686 260.221 298.448 260.221 263.911C260.221 236.069 245.317 212.318 224.369 203.064Z" fill="black"/>
<path id="Vector_132" d="M56.2771 150.348L53.5355 163.734L45.1515 204.7L9.11004 201.086C9.11004 201.086 6.95214 194.213 12.6004 191.631C12.6004 191.631 14.4517 168.355 21.114 161.024C21.826 160.187 22.7218 159.541 23.7259 159.138L56.2771 150.348Z" fill="#6C63FF"/>
<path id="Vector_133" opacity="0.1" d="M53.5355 163.734L45.1515 204.7L9.11004 201.086C9.11004 201.086 6.95214 194.213 12.6004 191.631C12.6004 191.631 14.4517 168.355 21.114 161.024L53.5355 163.734Z" fill="white"/>
<path id="Vector_134" d="M137.493 153.967C142.139 162.037 130.872 236.49 130.872 236.49L42.3274 221.358L45.4817 156.189C47.3094 144.5 53.9541 143.126 53.9541 143.126C85.2022 126.791 156.92 123.349 156.92 123.349C222.364 125.925 281.977 145.873 281.977 145.873C207.577 134.013 137.493 153.967 137.493 153.967Z" fill="#2C24AB"/>
<path id="Vector_135" opacity="0.1" d="M130.872 236.49L42.3274 221.358L45.4817 156.189C47.3094 144.5 53.9541 143.126 53.9541 143.126C53.9541 143.126 118.555 136.76 137.493 153.967C142.139 162.037 130.872 236.49 130.872 236.49Z" fill="black"/>
<path id="Vector_136" d="M121.491 232.193L47.4745 219.283L50.0982 163.679C51.6252 153.705 57.1732 152.533 57.1732 152.533C57.1732 152.533 111.191 147.1 127.022 161.775C130.931 168.666 121.491 232.193 121.491 232.193Z" fill="#2C24AB"/>
<path id="Vector_137" opacity="0.1" d="M115.401 205.542C120.995 205.542 125.53 196.996 125.53 186.454C125.53 175.912 120.995 167.366 115.401 167.366C109.807 167.366 105.272 175.912 105.272 186.454C105.272 196.996 109.807 205.542 115.401 205.542Z" fill="black"/>
<path id="Vector_138" d="M115.401 205.029C120.995 205.029 125.53 196.483 125.53 185.941C125.53 175.399 120.995 166.853 115.401 166.853C109.807 166.853 105.272 175.399 105.272 185.941C105.272 196.483 109.807 205.029 115.401 205.029Z" fill="#DCE0ED"/>
<path id="Vector_139" d="M116.722 171.841C116.722 171.841 112.594 172.524 114.729 178.201C116.863 183.878 117.217 186.796 117.217 186.796C117.217 186.796 121.344 189.036 121.202 181.638C121.061 174.24 116.722 171.841 116.722 171.841Z" fill="#F0F0F4"/>
<path id="Vector_140" opacity="0.1" d="M61.0939 196.728C66.3234 196.728 70.5627 188.742 70.5627 178.891C70.5627 169.04 66.3234 161.054 61.0939 161.054C55.8644 161.054 51.6251 169.04 51.6251 178.891C51.6251 188.742 55.8644 196.728 61.0939 196.728Z" fill="black"/>
<path id="Vector_141" d="M61.0939 196.209C66.3234 196.209 70.5627 188.223 70.5627 178.372C70.5627 168.521 66.3234 160.536 61.0939 160.536C55.8644 160.536 51.6251 168.521 51.6251 178.372C51.6251 188.223 55.8644 196.209 61.0939 196.209Z" fill="#DCE0ED"/>
<path id="Vector_142" d="M62.4204 164.271C62.4204 164.271 58.2933 164.961 60.4276 170.638C62.5619 176.315 62.9216 179.233 62.9216 179.233C62.9216 179.233 67.0487 181.467 66.9072 174.075C66.7657 166.683 62.4204 164.271 62.4204 164.271Z" fill="#F0F0F4"/>
<path id="Vector_143" opacity="0.1" d="M103.751 170.29C103.09 177.341 99.765 229.611 99.765 229.611L94.1286 228.634L90.9979 228.103L86.8236 227.377L86.3165 227.291L69.8729 224.453L73.1216 169.008C73.2305 167.227 73.9985 165.558 75.2658 164.349C76.533 163.139 78.202 162.482 79.9254 162.513C80.0923 162.504 80.2596 162.504 80.4265 162.513C81.5645 162.617 82.7849 162.739 84.0643 162.886C84.6008 162.947 85.1491 163.008 85.6975 163.081C87.2776 163.276 88.9107 163.515 90.5085 163.783C91.3221 163.93 92.124 164.082 92.9199 164.241C94.2583 164.516 95.5554 164.821 96.7522 165.169C97.56 165.401 98.3323 165.651 99.0398 165.926C102.011 167.037 103.951 168.471 103.751 170.29Z" fill="black"/>
<path id="Vector_144" d="M79.9254 162.514L76.7063 224.777L74.8785 224.606L78.0682 162.703C78.6756 162.55 79.3008 162.486 79.9254 162.514V162.514Z" fill="#6C63FF"/>
<path id="Vector_145" d="M85.6975 163.075L82.6847 225.997H79.8606L84.0644 162.874C84.6009 162.941 85.1492 163.002 85.6975 163.075Z" fill="#6C63FF"/>
<path id="Vector_146" d="M92.9199 164.235L88.1678 227.377H86.3342V227.291L90.5026 163.807C91.3221 163.923 92.124 164.076 92.9199 164.235Z" fill="#6C63FF"/>
<path id="Vector_147" d="M99.0339 165.92L94.1462 228.634V228.756L90.9919 228.408V228.103L96.7227 165.163C97.56 165.395 98.3323 165.645 99.0339 165.92Z" fill="#6C63FF"/>
<path id="Vector_148" opacity="0.1" d="M31.4907 214.485C31.4907 214.485 25.3885 181.858 39.3382 180.179C53.2878 178.5 99.1283 182.01 97.7545 195.397C96.3808 208.783 94.9068 229.184 94.9068 229.184L85.4439 226.992C85.4439 226.992 92.519 196.3 81.4583 195.14C70.3976 193.981 43.2176 190.751 43.2176 190.751C43.2176 190.751 35.8655 189.463 40.1046 216.389L31.4907 214.485Z" fill="black"/>
<path id="Vector_149" d="M31.4907 217.58C31.4907 217.58 25.3885 182.889 39.3382 181.211C53.2878 179.532 99.1283 183.042 97.7545 196.428C96.3808 209.815 94.9068 230.215 94.9068 230.215L85.4439 228.024C85.4439 228.024 92.519 197.332 81.4583 196.172C70.3976 195.012 43.2 191.814 43.2 191.814C43.2 191.814 35.8478 192.589 40.0869 219.545L31.4907 217.58Z" fill="black"/>
<path id="Vector_150" d="M277.679 260.736L265.392 260.566C256.424 219.667 241.638 194.194 241.638 194.194C236.638 191.441 182.166 191.814 182.166 191.814C176.518 192.845 175.026 211.42 175.026 211.42C175.026 211.42 179.843 215.693 175.191 218.471C173.116 219.692 166.276 219.93 158.4 219.509C148.624 218.984 137.233 217.445 131.349 215.547C120.737 212.104 129.185 205.744 129.185 205.744C129.185 205.744 130.683 203.68 131.679 192.314C132.363 185.688 134.432 179.296 137.74 173.58C138.2 172.793 138.489 172.36 138.489 172.36C139.047 171.809 139.707 171.381 140.429 171.102C154.508 164.998 223.52 170.809 223.52 170.809L249.096 179.239C249.803 179.532 250.894 181.4 252.238 184.385C260.322 202.325 277.679 260.736 277.679 260.736Z" fill="#6C63FF"/>
<path id="Vector_151" opacity="0.1" d="M277.679 260.736L265.392 260.566C256.424 219.667 241.638 194.194 241.638 194.194C236.638 191.441 182.166 191.814 182.166 191.814C176.518 192.845 175.026 211.42 175.026 211.42C175.026 211.42 179.843 215.693 175.191 218.471C173.116 219.692 166.276 219.93 158.4 219.509C148.624 218.984 137.233 217.445 131.349 215.547C120.737 212.104 129.185 205.744 129.185 205.744C129.185 205.744 130.683 203.68 131.679 192.314C132.363 185.688 134.432 179.296 137.74 173.58C138.2 172.793 138.489 172.36 138.489 172.36C139.047 171.809 139.707 171.381 140.429 171.102C154.508 164.998 223.52 170.809 223.52 170.809L249.096 179.239C249.803 179.532 250.894 181.4 252.238 184.385C260.322 202.325 277.679 260.736 277.679 260.736Z" fill="black"/>
<path id="Vector_152" d="M252.238 184.379C228.655 174.88 163.564 179.922 163.564 179.922C156.654 173.818 143.654 173.403 137.74 173.568C138.2 172.781 138.489 172.347 138.489 172.347C139.047 171.796 139.707 171.368 140.429 171.09C154.508 164.985 223.519 170.797 223.519 170.797L249.096 179.227C249.803 179.526 250.894 181.394 252.238 184.379Z" fill="#6C63FF"/>
<path id="Vector_153" d="M167.385 182.498C165.893 187.827 159.761 209.156 159.761 209.156C159.12 212.566 158.669 216.013 158.411 219.478C148.636 218.953 137.245 217.415 131.361 215.516C120.748 212.073 129.197 205.713 129.197 205.713C129.197 205.713 130.695 203.65 131.691 192.283C132.423 185.174 134.755 178.341 138.501 172.335C139.059 171.784 139.718 171.356 140.441 171.077C149.662 173.348 168.517 178.463 167.385 182.498Z" fill="#6C63FF"/>
<path id="Vector_154" opacity="0.1" d="M167.385 182.498C165.893 187.827 159.761 209.156 159.761 209.156C159.12 212.566 158.669 216.013 158.411 219.478C148.636 218.953 137.245 217.415 131.361 215.516C120.748 212.073 129.197 205.713 129.197 205.713C129.197 205.713 130.695 203.65 131.691 192.283C132.423 185.174 134.755 178.341 138.501 172.335C139.059 171.784 139.718 171.356 140.441 171.077C149.662 173.348 168.517 178.463 167.385 182.498Z" fill="white"/>
<path id="Vector_155" d="M182.584 47.0888C175.981 48.1204 173.116 62.3066 173.116 62.3066L155.18 124.338L281.977 145.873L314.363 42.712C284.595 28.7761 182.584 47.0888 182.584 47.0888ZM284.583 113.375C284.583 113.375 283.834 119.308 278.976 119.827L196.77 116.5L179.908 115.81L174.254 115.584H173.853C173.853 115.584 167.621 116.744 168.617 111.311C168.617 111.311 175.468 59.7306 187.555 55.8605C187.555 55.8605 188.811 55.5858 191.01 55.1585C194.465 54.481 200.231 53.4188 207.023 52.4483C210.065 52.0149 213.314 51.5998 216.657 51.2274C225.789 50.263 235.606 49.7441 243.731 50.556C243.731 50.556 304.264 44.7508 299.907 58.6807C299.918 58.699 287.213 109.12 284.595 113.375H284.583Z" fill="#2C24AB"/>
<path id="Vector_156" d="M174.265 115.584H173.864C173.864 115.584 167.633 116.744 168.629 111.311C168.629 111.311 175.48 59.7305 187.566 55.8604C187.566 55.8604 188.822 55.5857 191.021 55.1584C186.635 64.0218 172.556 94.3659 174.265 115.584Z" fill="#6C63FF"/>
<path id="Vector_157" opacity="0.1" d="M174.265 115.584H173.864C173.864 115.584 167.633 116.744 168.629 111.311C168.629 111.311 175.48 59.7305 187.566 55.8604C187.566 55.8604 188.822 55.5857 191.021 55.1584C186.635 64.0218 172.556 94.3659 174.265 115.584Z" fill="black"/>
<path id="Vector_158" opacity="0.1" d="M185.426 242.814C184.705 244.204 183.615 245.352 182.286 246.124C180.957 246.896 179.443 247.26 177.921 247.173L175.38 247.057L151.437 245.988L142.805 245.604L134.834 244.92L29.5687 227.218L30.3706 216.475L42.4748 218.269L47.4863 219.014L121.804 230.002L131.585 231.491L136.331 232.193L156.43 232.04L178.186 231.876C179.284 231.854 180.375 232.062 181.394 232.486C183.262 233.254 184.772 234.738 185.609 236.631C186.054 237.603 186.27 238.67 186.238 239.745C186.207 240.82 185.928 241.872 185.426 242.814V242.814Z" fill="black"/>
<path id="Vector_159" d="M185.426 243.846C184.705 245.236 183.615 246.384 182.286 247.156C180.957 247.928 179.443 248.292 177.921 248.204L142.805 246.636L134.834 245.946L22.5762 227.09L13.7324 225.607L8.94494 224.776C-0.517942 222.713 2.30619 212.91 2.30619 212.91C2.96652 208.435 19.245 204.309 24.5572 204.486C28.1301 204.602 28.6254 210.297 28.5664 214.027C28.5664 215.858 28.3778 217.207 28.3778 217.207L33.631 217.989L136.331 233.2L178.192 232.883C179.743 232.854 181.27 233.291 182.587 234.14C183.904 234.989 184.955 236.214 185.615 237.669C186.058 238.64 186.273 239.707 186.24 240.781C186.207 241.855 185.928 242.905 185.426 243.846V243.846Z" fill="black"/>
<path id="Vector_160" opacity="0.1" d="M16.9161 210.7C16.9161 210.7 21.4029 216.371 28.3777 217.231C28.3777 217.231 25.5536 210.871 16.9161 210.7Z" fill="black"/>
<path id="Vector_161" opacity="0.1" d="M15.7546 226.693C15.7546 226.693 0.973633 226.345 0.973633 234.629C0.973633 242.912 10.2773 244.261 10.2773 244.261L142.31 270.558L179.843 271.242C179.843 271.242 192.961 260.413 179.342 255.597L141.484 256.61L15.5895 232.712C15.5895 232.712 18.9089 228.067 15.7546 226.693Z" fill="black"/>
<path id="Vector_162" d="M179.843 272.255L142.31 271.571L24.9109 248.18L16.3206 246.465L10.2773 245.244C10.2773 245.244 0.973633 243.864 0.973633 235.611C0.973633 229.69 8.59111 228.195 12.8892 227.822C14.5813 227.682 15.7546 227.706 15.7546 227.706C18.9089 229.08 15.5895 233.719 15.5895 233.719L20.1706 234.592L141.484 257.642L179.348 256.61C192.961 261.402 179.843 272.255 179.843 272.255Z" fill="black"/>
<path id="Vector_163" d="M26.8802 219.985L34.6863 216.371L38.6719 216.2L38.3418 250.933L26.0548 248.357L20.9018 244.92L18.4137 230.478C18.4137 230.478 19.4101 224.459 19.9054 223.946C20.4006 223.433 26.8802 219.985 26.8802 219.985Z" fill="#DCE0ED"/>
<path id="Vector_164" opacity="0.1" d="M26.8802 219.985L34.6863 216.371L38.6719 216.2L38.3418 250.933L26.0548 248.357L20.9018 244.92L18.4137 230.478C18.4137 230.478 19.4101 224.459 19.9054 223.946C20.4006 223.433 26.8802 219.985 26.8802 219.985Z" fill="black"/>
<path id="Vector_165" opacity="0.1" d="M24.911 248.18L25.0525 248.357L16.4209 246.636L16.3207 246.465C11.775 238.865 11.3799 232.712 12.8893 227.829C14.5814 227.688 15.7547 227.713 15.7547 227.713C18.909 229.086 15.5896 233.725 15.5896 233.725L20.1707 234.598C19.8641 241.411 24.0679 247.106 24.911 248.18Z" fill="black"/>
<path id="Vector_166" opacity="0.1" d="M37.6814 216.23C36.2192 216.808 34.869 217.419 33.6309 218.062C28.0416 220.845 24.5925 223.97 22.5761 227.139L13.7323 225.655C17.5587 217.427 26.7032 213.667 26.7032 213.667L28.5545 214.1L37.6814 216.23Z" fill="black"/>
<path id="Vector_167" d="M27.6938 213.624C27.6938 213.624 3.44999 223.598 17.3996 246.636L26.0371 248.357C26.0371 248.357 8.93904 228.067 38.6543 216.2L27.6938 213.624Z" fill="black"/>
<path id="Vector_168" d="M85.5088 224.801L94.4764 224.459L92.9789 261.768L78.5281 259.021L72.3846 255.926L69.5604 248.528L67.5676 241.136L72.3846 234.427L77.8677 230.649L85.5088 224.801Z" fill="#DCE0ED"/>
<path id="Vector_169" opacity="0.1" d="M85.5088 224.801L94.4764 224.459L92.9789 261.768L78.5281 259.021L72.3846 255.926L69.5604 248.528L67.5676 241.136L72.3846 234.427L77.8677 230.649L85.5088 224.801Z" fill="black"/>
<path id="Vector_170" d="M84.5123 251.623C86.8959 251.623 88.8281 248.237 88.8281 244.06C88.8281 239.883 86.8959 236.497 84.5123 236.497C82.1288 236.497 80.1965 239.883 80.1965 244.06C80.1965 248.237 82.1288 251.623 84.5123 251.623Z" fill="#DCE0ED"/>
<path id="Vector_171" d="M53.1639 265.162C51.9199 258.588 47.0617 257.165 47.0617 257.165C47.0617 257.165 37.7167 254.333 37.4691 265.064C37.4691 265.064 37.5929 271.645 41.832 273.708L42.0796 281.033C42.0796 281.033 42.4511 287.87 38.7131 287.223C34.9751 286.576 35.4763 280.508 35.4763 280.508C35.4763 280.508 33.4835 274.062 28.6253 277.413C28.6253 277.413 27.505 281.027 29.999 282.834C31.4494 283.884 31.5024 286.032 31.2961 287.644C31.151 288.639 31.2149 289.655 31.4835 290.622C31.7522 291.589 32.2191 292.484 32.8526 293.248C33.5694 294.137 34.5026 294.812 35.5557 295.202C36.6089 295.593 37.7437 295.685 38.8428 295.47C40.854 295.061 42.6781 293.975 44.0312 292.381C46.3108 289.818 47.5921 286.471 47.6277 282.986L47.8104 273.549C47.8104 273.549 54.4079 271.742 53.1639 265.162ZM45.4993 271.803C44.4498 271.803 43.4239 271.481 42.5512 270.878C41.6786 270.274 40.9985 269.416 40.5969 268.412C40.1953 267.408 40.0902 266.304 40.2949 265.238C40.4997 264.172 41.005 263.193 41.7471 262.425C42.4892 261.657 43.4347 261.133 44.464 260.921C45.4934 260.709 46.5603 260.818 47.5299 261.234C48.4995 261.65 49.3282 262.354 49.9113 263.257C50.4943 264.161 50.8055 265.223 50.8055 266.31C50.7993 267.761 50.2383 269.152 49.2451 270.176C48.252 271.201 46.9074 271.777 45.5052 271.779L45.4993 271.803Z" fill="black"/>
<path id="Vector_172" d="M43.3297 254.327C43.0279 254.457 42.7556 254.652 42.5301 254.897C42.3046 255.142 42.1309 255.434 42.02 255.752C41.9091 256.071 41.8635 256.41 41.8859 256.748C41.9084 257.086 41.9985 257.415 42.1506 257.715C43.1293 259.613 44.3026 262.067 44.1905 262.714C44.0019 263.807 46.372 262.91 46.6786 262.647C46.9852 262.385 51.2892 262.647 51.5368 259.595C51.7844 256.543 49.2374 254.95 49.2374 254.95L50.2338 248.308L44.3379 247.795L44.4028 253.857L43.3297 254.327Z" fill="#636780"/>
<path id="Vector_173" opacity="0.1" d="M43.3297 254.327C43.0279 254.457 42.7556 254.652 42.5301 254.897C42.3046 255.142 42.1309 255.434 42.02 255.752C41.9091 256.071 41.8635 256.41 41.8859 256.748C41.9084 257.086 41.9985 257.415 42.1506 257.715C43.1293 259.613 44.3026 262.067 44.1905 262.714C44.0019 263.807 46.372 262.91 46.6786 262.647C46.9852 262.385 51.2892 262.647 51.5368 259.595C51.7844 256.543 49.2374 254.95 49.2374 254.95L50.2338 248.308L44.3379 247.795L44.4028 253.857L43.3297 254.327Z" fill="black"/>
<path id="Vector_174" opacity="0.1" d="M44.9451 254.205C44.9451 254.205 46.9379 261.298 46.0653 261.53C45.1927 261.762 44.9451 254.205 44.9451 254.205Z" fill="black"/>
<path id="Vector_175" opacity="0.1" d="M47.1855 252.526C47.1855 252.526 49.1784 259.619 48.3058 259.851C47.4332 260.083 47.1855 252.526 47.1855 252.526Z" fill="black"/>
<path id="Vector_176" d="M71.0638 231.161L67.7386 252.483C67.7386 252.483 63.6115 251.904 61.3592 251.397C60.8627 251.326 60.3808 251.171 59.9324 250.939C59.8145 250.817 59.5728 250.829 59.2485 250.896C58.1401 251.128 56.1709 252.074 55.7876 251.275C55.7601 251.213 55.7222 251.158 55.6756 251.11C55.2865 250.671 54.5318 250.988 53.8007 251.11C53.4026 251.217 52.98 251.16 52.6215 250.951C52.032 250.524 50.7643 251.208 49.7503 251.434C49.1076 251.58 48.5711 251.55 48.2999 250.951C48.2024 250.757 48.0619 250.589 47.8897 250.462C47.7175 250.334 47.5186 250.251 47.3094 250.219V250.219C46.3542 249.969 45.0159 250.139 44.2435 249.969C43.9369 249.908 43.7306 249.785 43.6539 249.572C43.5006 249.108 42.6457 248.888 41.7319 248.705C40.6175 248.485 39.4207 248.32 39.3322 247.856C39.3322 247.698 39.1966 247.631 39.0315 247.625C38.4139 247.722 37.8061 247.877 37.2156 248.088V248.088C36.7204 248.223 36.3018 248.223 36.1838 247.856C36.0659 247.49 35.4822 247.49 34.8278 247.655C34.3031 247.789 33.7194 248.003 33.2713 248.113C32.8232 248.223 32.5756 248.223 32.5284 248.021C32.3633 247.338 30.2054 248.888 29.7102 247.509C29.2149 246.129 22.3875 236.985 31.2313 225.143C31.2313 225.143 33.5897 225.314 35.4292 225.655C36.039 225.74 36.6344 225.913 37.1979 226.168V226.168C37.8288 226.54 39.1789 226.461 40.3994 226.553C41.0132 226.561 41.6175 226.711 42.1682 226.992C42.3871 227.116 42.5626 227.308 42.6693 227.542C42.9464 228.195 43.5832 228.329 44.2789 228.292C45.2222 228.231 46.2717 227.865 46.6372 228.06H46.6726C47.3683 228.372 49.9743 228.06 50.4165 228.518L50.4519 228.561C50.6405 228.848 51.631 228.561 52.7041 228.402C53.5118 228.292 54.3255 228.28 54.7676 228.738C55.2241 229.113 55.8031 229.29 56.3831 229.232C57.0895 229.179 57.7995 229.208 58.4997 229.318C58.6613 229.367 58.8063 229.462 58.9183 229.593C59.337 230.136 60.351 230.063 61.2767 230.111C61.7395 230.091 62.1981 230.21 62.5974 230.453C62.7406 230.557 62.9034 230.627 63.0749 230.661C64.3484 230.966 67.0782 230.453 67.0782 230.453L71.0638 231.161Z" fill="#636780"/>
<path id="Vector_177" opacity="0.1" d="M34.8278 247.643C34.303 247.777 33.7193 247.991 33.2712 248.101C26.5264 237.266 32.2041 229.037 35.3997 225.656C36.0095 225.74 36.6049 225.913 37.1684 226.168C30.3823 234.262 33.5307 244.371 34.8278 247.643Z" fill="black"/>
<path id="Vector_178" opacity="0.1" d="M39.0374 247.612C38.4197 247.71 37.8119 247.865 37.2215 248.076C31.4494 237.51 37.3865 229.605 40.3875 226.559C41.0014 226.567 41.6056 226.717 42.1563 226.998C35.7003 234.311 37.6165 243.413 39.0374 247.612Z" fill="black"/>
<path id="Vector_179" opacity="0.1" d="M44.2435 249.956C43.9369 249.895 43.7305 249.773 43.6539 249.56C43.5006 249.096 42.6457 248.876 41.7318 248.693C36.6672 239.121 41.1953 231.766 44.267 228.299C45.2104 228.237 46.2598 227.871 46.6254 228.067H46.6608C39.5385 236.374 42.9876 246.874 44.2435 249.956Z" fill="black"/>
<path id="Vector_180" opacity="0.1" d="M49.7562 251.421C49.1135 251.568 48.577 251.537 48.3058 250.939C48.2084 250.745 48.0678 250.577 47.8956 250.45C47.7234 250.322 47.5245 250.239 47.3153 250.207V250.207C41.4194 239.543 47.4332 231.57 50.4342 228.537L50.4696 228.579C50.6582 228.866 51.6487 228.579 52.7218 228.421C44.3261 237.192 48.6418 248.839 49.7562 251.421Z" fill="black"/>
<path id="Vector_181" opacity="0.1" d="M55.6638 251.104C55.2747 250.664 54.52 250.982 53.7889 251.104C47.6336 240.519 53.2878 232.523 56.4008 229.257C57.1072 229.204 57.8171 229.232 58.5174 229.342C51.3303 237.345 54.296 247.545 55.6638 251.104Z" fill="black"/>
<path id="Vector_182" opacity="0.1" d="M61.3592 251.397C60.8627 251.326 60.3807 251.171 59.9324 250.939C59.8145 250.817 59.5727 250.829 59.2485 250.896C53.7948 241.227 58.1459 233.762 61.2766 230.142C61.7395 230.122 62.1981 230.241 62.5973 230.484C62.7406 230.587 62.9033 230.658 63.0749 230.691C57.1083 238.651 60.1211 248.247 61.3592 251.397Z" fill="black"/>
<path id="Vector_183" d="M222.358 308.368C237.307 308.368 249.426 289.893 249.426 267.103C249.426 244.313 237.307 225.839 222.358 225.839C207.409 225.839 195.29 244.313 195.29 267.103C195.29 289.893 207.409 308.368 222.358 308.368Z" fill="#636780"/>
<path id="Vector_184" opacity="0.1" d="M221.444 301.146C232.313 301.146 241.125 286.173 241.125 267.701C241.125 249.23 232.313 234.256 221.444 234.256C210.575 234.256 201.764 249.23 201.764 267.701C201.764 286.173 210.575 301.146 221.444 301.146Z" fill="black"/>
<path id="Vector_185" d="M221.444 300.115C232.313 300.115 241.125 285.141 241.125 266.67C241.125 248.198 232.313 233.225 221.444 233.225C210.575 233.225 201.764 248.198 201.764 266.67C201.764 285.141 210.575 300.115 221.444 300.115Z" fill="#F0F0F4"/>
<path id="Vector_186" d="M225.011 248.357C226.294 248.357 227.334 246.509 227.334 244.23C227.334 241.951 226.294 240.104 225.011 240.104C223.728 240.104 222.688 241.951 222.688 244.23C222.688 246.509 223.728 248.357 225.011 248.357Z" fill="#636780"/>
<path id="Vector_187" d="M234.315 284.47C235.598 284.47 236.638 282.622 236.638 280.343C236.638 278.064 235.598 276.217 234.315 276.217C233.032 276.217 231.992 278.064 231.992 280.343C231.992 282.622 233.032 284.47 234.315 284.47Z" fill="#636780"/>
<path id="Vector_188" d="M209.234 267.274C210.517 267.274 211.557 265.426 211.557 263.147C211.557 260.868 210.517 259.021 209.234 259.021C207.951 259.021 206.911 260.868 206.911 263.147C206.911 265.426 207.951 267.274 209.234 267.274Z" fill="#636780"/>
<path id="Vector_189" d="M216.044 291.343C217.327 291.343 218.367 289.496 218.367 287.217C218.367 284.938 217.327 283.09 216.044 283.09C214.761 283.09 213.721 284.938 213.721 287.217C213.721 289.496 214.761 291.343 216.044 291.343Z" fill="#636780"/>
<path id="Vector_190" d="M420.489 190.751C420.489 190.751 439.945 244.402 438.925 247.753C438.925 247.753 447.144 252.911 449.137 251.623C451.13 250.335 449.391 226.595 449.391 226.595L445.653 205.707L441.414 193.327L420.489 190.751Z" fill="#6C63FF"/>
<path id="Vector_191" opacity="0.15" d="M420.489 190.751C420.489 190.751 439.945 244.402 438.925 247.753C438.925 247.753 447.144 252.911 449.137 251.623C451.13 250.335 449.391 226.595 449.391 226.595L445.653 205.707L441.414 193.327L420.489 190.751Z" fill="black"/>
<path id="Vector_192" d="M237.634 262.116C238.917 262.116 239.957 260.268 239.957 257.99C239.957 255.711 238.917 253.863 237.634 253.863C236.351 253.863 235.311 255.711 235.311 257.99C235.311 260.268 236.351 262.116 237.634 262.116Z" fill="#636780"/>
<path id="Vector_193" d="M225.011 277.761C228.772 277.761 231.821 273.372 231.821 267.958C231.821 262.543 228.772 258.154 225.011 258.154C221.25 258.154 218.201 262.543 218.201 267.958C218.201 273.372 221.25 277.761 225.011 277.761Z" fill="#636780"/>
<path id="Vector_194" d="M442.174 262.458C442.174 293.51 432.21 321.779 404.558 318.684C369.684 317.909 366.943 293.51 366.943 262.458C366.943 231.406 383.769 208.295 404.546 208.295C425.324 208.295 442.174 231.4 442.174 262.458Z" fill="#636780"/>
<path id="Vector_195" opacity="0.1" d="M442.38 262.507C442.38 238.468 432.287 219.167 418.083 211.707C399.848 215.297 385.833 237.015 385.833 265.345C385.833 290.794 387.678 311.737 407.536 318.94C433.083 319.892 442.38 292.533 442.38 262.507Z" fill="black"/>
<path id="Vector_196" opacity="0.1" d="M456.861 249.303C456.861 249.303 451.879 253.686 449.137 250.591C449.137 250.591 442.41 194.878 433.943 194.622L404.794 194.365C404.794 194.365 401.31 195.91 399.812 202.618L380.945 258.167L277.679 259.705L269.79 242.613L355.239 242.869V242.833C355.699 241.117 369.979 188.334 379.572 181.791C379.897 181.562 380.253 181.384 380.627 181.26C380.627 181.26 416.25 176.376 427.959 179.709C427.959 179.709 440.164 182.547 443.153 186.424C443.554 186.857 448.176 192.247 449.609 207.788L456.861 249.303Z" fill="black"/>
<path id="Vector_197" d="M456.861 250.335C456.861 250.335 451.879 254.717 449.137 251.623C449.137 251.623 442.41 195.909 433.943 195.653L404.794 195.397C404.794 195.397 401.31 196.941 399.812 203.65L380.945 259.198L277.679 260.736L269.79 243.644L355.239 243.901V243.864C355.699 242.149 369.979 189.366 379.572 182.822C379.897 182.594 380.253 182.415 380.627 182.291C380.627 182.291 416.25 177.408 427.959 180.741C427.959 180.741 440.164 183.579 443.153 187.455V187.486C443.554 187.919 448.176 193.309 449.609 208.85L456.861 250.335Z" fill="#6C63FF"/>
<path id="Vector_198" opacity="0.1" d="M456.861 250.335C456.861 250.335 451.879 254.717 449.137 251.623C449.137 251.623 442.41 195.909 433.943 195.653L404.794 195.397C404.794 195.397 401.31 196.941 399.812 203.65L380.945 259.198L277.679 260.736L269.79 243.644L355.239 243.901V243.864C355.699 242.149 369.979 189.366 379.572 182.822C379.897 182.594 380.253 182.415 380.627 182.291C380.627 182.291 416.25 177.408 427.959 180.741C427.959 180.741 440.164 183.579 443.153 187.455V187.486C443.554 187.919 448.176 193.309 449.609 208.85L456.861 250.335Z" fill="black"/>
<path id="Vector_199" d="M393.586 189.463C391.092 194.347 369.672 254.718 369.672 254.718L355.222 243.883V243.846C355.682 242.131 369.961 189.293 379.566 182.804C385.815 183.878 395.278 186.137 393.586 189.463Z" fill="#6C63FF"/>
<path id="Vector_200" d="M365.687 161.866L353.978 201.58L292.943 199.749L293.439 205.682C293.439 205.682 341.272 212.904 361.695 203.1L372.662 166.823L468.983 167.336L450.635 162.867L365.687 161.866Z" fill="#6C63FF"/>
<path id="Vector_201" opacity="0.1" d="M365.687 161.866L353.978 201.58L292.943 199.749L293.439 205.682C293.439 205.682 341.272 212.904 361.695 203.1L372.662 166.823L468.983 167.336L450.635 162.867L365.687 161.866Z" fill="white"/>
<path id="Vector_202" opacity="0.1" d="M79.5304 224.453C79.5304 224.453 46.8142 241.478 71.058 257.471L77.5435 259.015C77.5435 259.015 53.7949 241.313 93.4623 224.453H79.5304Z" fill="black"/>
<path id="Vector_203" d="M80.5268 224.453C80.5268 224.453 47.8106 241.478 72.0545 257.471L78.5399 259.015C78.5399 259.015 54.7913 241.313 94.4588 224.453H80.5268Z" fill="black"/>
<path id="Vector_204" d="M418.991 299.083C429.034 299.083 437.174 284.647 437.174 266.84C437.174 249.033 429.034 234.598 418.991 234.598C408.949 234.598 400.809 249.033 400.809 266.84C400.809 284.647 408.949 299.083 418.991 299.083Z" fill="#636780"/>
<path id="Vector_205" opacity="0.1" d="M418.378 293.663C425.679 293.663 431.597 281.966 431.597 267.536C431.597 253.107 425.679 241.41 418.378 241.41C411.078 241.41 405.16 253.107 405.16 267.536C405.16 281.966 411.078 293.663 418.378 293.663Z" fill="black"/>
<path id="Vector_206" d="M418.378 292.631C425.679 292.631 431.597 280.934 431.597 266.505C431.597 252.076 425.679 240.379 418.378 240.379C411.078 240.379 405.16 252.076 405.16 266.505C405.16 280.934 411.078 292.631 418.378 292.631Z" fill="#F0F0F4"/>
<path id="Vector_207" d="M420.778 252.197C421.641 252.197 422.34 250.754 422.34 248.974C422.34 247.194 421.641 245.75 420.778 245.75C419.915 245.75 419.216 247.194 419.216 248.974C419.216 250.754 419.915 252.197 420.778 252.197Z" fill="#636780"/>
<path id="Vector_208" d="M427.028 280.41C427.89 280.41 428.59 278.967 428.59 277.187C428.59 275.407 427.89 273.964 427.028 273.964C426.165 273.964 425.465 275.407 425.465 277.187C425.465 278.967 426.165 280.41 427.028 280.41Z" fill="#636780"/>
<path id="Vector_209" d="M410.177 266.975C411.04 266.975 411.74 265.532 411.74 263.752C411.74 261.972 411.04 260.529 410.177 260.529C409.314 260.529 408.615 261.972 408.615 263.752C408.615 265.532 409.314 266.975 410.177 266.975Z" fill="#636780"/>
<path id="Vector_210" d="M414.752 285.782C415.615 285.782 416.315 284.339 416.315 282.559C416.315 280.779 415.615 279.336 414.752 279.336C413.889 279.336 413.19 280.779 413.19 282.559C413.19 284.339 413.889 285.782 414.752 285.782Z" fill="#636780"/>
<path id="Vector_211" d="M429.256 262.946C430.119 262.946 430.819 261.503 430.819 259.723C430.819 257.943 430.119 256.5 429.256 256.5C428.393 256.5 427.694 257.943 427.694 259.723C427.694 261.503 428.393 262.946 429.256 262.946Z" fill="#636780"/>
<path id="Vector_212" d="M420.778 275.167C423.305 275.167 425.353 271.74 425.353 267.512C425.353 263.285 423.305 259.857 420.778 259.857C418.251 259.857 416.203 263.285 416.203 267.512C416.203 271.74 418.251 275.167 420.778 275.167Z" fill="#636780"/>
<path id="Vector_213" opacity="0.1" d="M154.927 123.446C154.927 123.446 210.236 125.51 281.977 145.885L154.927 123.446Z" fill="black"/>
<path id="Vector_214" d="M418.797 23.1965C418.797 23.1965 415.796 23.6971 417.358 27.7991C418.921 31.9012 419.18 34.0194 419.18 34.0194C419.18 34.0194 422.187 35.637 422.063 30.2836C421.939 24.9301 418.797 23.1965 418.797 23.1965Z" fill="#DCE0ED"/>
<path id="Vector_215" d="M271.689 106.354L271.654 106.403C271.025 107.215 270.617 108.187 270.474 109.217C269.991 112.477 269.531 119.155 274.112 118.05C276.689 117.455 279.054 116.125 280.94 114.211C281.458 113.641 281.859 112.969 282.119 112.235C282.38 111.5 282.494 110.719 282.455 109.938V109.938C282.46 109.204 282.29 108.48 281.96 107.83C281.63 107.18 281.149 106.625 280.562 106.214L278.858 105.201C278.378 104.905 277.825 104.757 277.266 104.774L274.318 104.883C273.805 104.924 273.306 105.077 272.853 105.33C272.4 105.583 272.003 105.932 271.689 106.354Z" fill="#FEC2BE"/>
<path id="Vector_216" d="M304.8 50.5007L295.998 95.7819L289.766 109.407L293.893 117.342L303.031 95.0616C303.031 95.0616 313.054 62.404 313.054 61.4883C313.054 60.5727 304.8 50.5007 304.8 50.5007Z" fill="#2C24AB"/>
</g>
<defs>
<linearGradient id="paint0_linear" x1="196.033" y1="180.258" x2="196.033" y2="94.6221" gradientUnits="userSpaceOnUse">
<stop stop-color="#808080" stop-opacity="0.25"/>
<stop offset="0.54" stop-color="#808080" stop-opacity="0.12"/>
<stop offset="1" stop-color="#808080" stop-opacity="0.1"/>
</linearGradient>
</defs>
</svg>
