<?xml version="1.0" encoding="utf-8"?>
<svg viewBox="0 0 951 301" version="1.1" xmlns:xlink="http://www.w3.org/1999/xlink" xmlns="http://www.w3.org/2000/svg">
  <g id="manAndFloor">
    <path d="M947.52 5.05823C947.52 22.0832 735.41 81.0952 473.76 81.0952C212.109 81.0952 0 22.0832 0 5.05823C0 -11.9668 212.109 19.4432 473.76 19.4432C735.41 19.4432 947.52 -11.9668 947.52 5.05823L947.52 5.05823Z" transform="translate(0 218.90509)" id="Vector_6" fill="#3F3D56" fill-rule="evenodd" stroke="none" />
    <path d="M473.757 61.652C735.407 61.652 947.517 47.851 947.517 30.826C947.517 13.801 735.407 0 473.757 0C212.109 0 0 13.801 0 30.826C0 47.851 212.109 61.652 473.757 61.652L473.757 61.652Z" transform="translate(3.4829712 189.1333)" id="Vector_7" fill="#3B3A41" fill-rule="evenodd" stroke="none" />
    <path d="M57.48 98.643C57.48 132.692 44.62 123.303 28.74 123.303C12.87 123.303 0 132.692 0 98.643C0 64.593 28.74 0 28.74 0C28.74 0 57.48 64.593 57.48 98.643L57.48 98.643Z" transform="translate(440.66003 78.16028)" id="Vector_8" fill="#FF6584" fill-rule="evenodd" stroke="none" />
    <path d="M26.13 44.838C26.13 60.315 20.28 56.047 13.0601 56.047C5.84998 56.047 0 60.315 0 44.838C0 29.361 13.0601 0 13.0601 0C13.0601 0 26.13 29.361 26.13 44.838L26.13 44.838Z" transform="translate(456.33997 144.99231)" id="Vector_9" fill="#000000" fill-opacity="0.1" fill-rule="evenodd" stroke="none" />
    <path d="M72.29 0L7.84009 0C3.51001 0 0 4.14099 0 9.24799C0 14.355 3.51001 18.496 7.84009 18.496L72.29 18.496C76.62 18.496 80.12 14.355 80.12 9.24799C80.12 4.14099 76.62 0 72.29 0L72.29 0Z" transform="translate(429.33997 210.7113)" id="Vector_10" fill="#2F2E41" fill-rule="evenodd" stroke="none" />
    <path d="M72.29 0L7.84009 0C3.51001 0 0 4.14001 0 9.24701C0 14.355 3.51001 18.495 7.84009 18.495L72.29 18.495C76.62 18.495 80.12 14.355 80.12 9.24701C80.12 4.14001 76.62 0 72.29 0L72.29 0Z" transform="translate(429.33997 192.21631)" id="Vector_11" fill="#2F2E41" fill-rule="evenodd" stroke="none" />
    <path d="M0 0C0 56.867 30.236 102.883 67.603 102.883L0 0L0 0Z" transform="translate(122.79401 93.12628)" id="Vector_12" fill="#3F3D56" fill-rule="evenodd" stroke="none" />
    <path d="M0 104.039C0 46.533 33.742 0 75.441 0L0 104.039L0 104.039Z" transform="translate(190.39697 91.970276)" id="Vector_13" fill="#6C63FF" fill-rule="evenodd" stroke="none" />
    <path d="M0 0C0 54.017 19.281 97.728 43.109 97.728L0 0L0 0Z" transform="translate(140 95.000305)" id="Vector_14" fill="#6C63FF" fill-rule="evenodd" stroke="none" />
    <path d="M0 132.938C0 59.458 39 0 87.198 0L0 132.938L0 132.938Z" transform="translate(190.39697 63.07129)" id="Vector_15" fill="#0C0C0D" fill-rule="evenodd" stroke="none" />
    <path d="M0 0C0 39.076 20.78 70.696 46.45 70.696L0 0L0 0Z" transform="translate(631.76 130.66632)" id="Vector_16" fill="#3F3D56" fill-rule="evenodd" stroke="none" />
    <path d="M0 71.4901C0 31.975 23.1901 0 51.8401 0L0 71.4901L0 71.4901Z" transform="translate(678.20996 129.87128)" id="Vector_17" fill="#6C63FF" fill-rule="evenodd" stroke="none" />
    <path d="M0 0C0 37.118 13.25 67.154 29.62 67.154L0 0L0 0Z" transform="translate(648.58997 134.20831)" id="Vector_18" fill="#6C63FF" fill-rule="evenodd" stroke="none" />
    <path d="M0 91.349C0 40.857 26.8 0 59.92 0L0 91.349L0 91.349Z" transform="translate(678.20996 110.013306)" id="Vector_19" fill="#0B0B0B" fill-rule="evenodd" stroke="none" />
    <path d="M0 4.19995C0 4.19995 6.59009 3.96094 8.57007 2.29199C10.5601 0.623962 18.7101 -1.367 19.2001 1.30798C19.6901 3.98297 29.1001 14.613 21.66 14.684C14.2301 14.7549 4.38 13.317 2.40002 11.8929C0.420044 10.469 0 4.19995 0 4.19995L0 4.19995Z" transform="translate(668.43994 197.66034)" id="Vector_20" fill="#A8A8A8" fill-rule="evenodd" stroke="none" />
    <path d="M0 9.97345C0 9.97345 9.89001 8.19745 12.62 5.25647C15.36 2.31549 27.33 -2.43756 28.49 1.48846C29.64 5.41547 45.47 19.4164 34.27 21.1215C23.0699 22.8265 8.01001 22.7745 4.79993 21.0535C1.58997 19.3334 0 9.97345 0 9.97345L0 9.97345Z" transform="translate(781.89 214.85284)" id="Vector_21" fill="#A8A8A8" fill-rule="evenodd" stroke="none" />
    <path d="M0 8.41748C0 8.41748 8.3501 6.91846 10.65 4.43646C12.9601 1.95447 23.0701 -2.05756 24.04 1.25647C25.02 4.57043 38.37 16.3865 28.92 17.8254C19.4701 19.2645 6.76001 19.2214 4.05005 17.7684C1.34009 16.3165 0 8.41748 0 8.41748L0 8.41748Z" transform="translate(534.94995 209.29285)" id="Vector_22" fill="#A8A8A8" fill-rule="evenodd" stroke="none" />
    <path d="M0 6.55322C0 6.55322 6.49896 5.38623 8.29602 3.45325C10.093 1.52124 17.961 -1.60175 18.72 0.97821C19.479 3.55823 29.874 12.7573 22.515 13.8773C15.157 14.9973 5.26196 14.9633 3.15497 13.8333C1.04901 12.7022 0 6.55322 0 6.55322L0 6.55322Z" transform="translate(110.07001 212.51007)" id="Vector_23" fill="#A8A8A8" fill-rule="evenodd" stroke="none" />
    <path d="M162.661 37.805C162.661 68.858 125.972 59.253 81.056 59.253C36.139 59.253 0 68.858 0 37.805C0 6.75299 36.679 0 81.596 0C126.512 0 162.661 6.75299 162.661 37.805L162.661 37.805Z" transform="translate(167.20898 158.2403)" id="Vector_24" fill="#111111" fill-rule="evenodd" stroke="none" />
    <path d="M18.471 22.105C16.311 23.41 14.251 24.948 12.321 26.7C10.391 28.465 8.91101 30.829 8.05103 33.527C6.97101 30.536 6.08099 27.451 5.41101 24.299C3.88098 18.642 2.07098 13.096 0 7.68903C3.41101 6.15698 6.36102 3.48499 8.50098 0C12.681 4.90997 16.971 10.031 19.051 16.543C19.411 17.665 20.451 18.861 20.701 19.865C21.041 21.286 19.381 21.512 18.471 22.105L18.471 22.105Z" transform="translate(326.159 34.948303)" id="Vector_25" fill="#FFBFC5" fill-rule="evenodd" stroke="none" />
    <path d="M18.1322 8.14728C18.9323 8.77026 19.7323 9.39429 20.5322 10.0193C21.2722 10.4833 21.8822 11.1893 22.2822 12.0533C22.8022 13.4983 22.1023 15.1343 21.3123 16.4043C18.9623 20.1993 15.7522 23.1363 12.0522 24.8773C10.7622 25.5073 9.41223 25.9063 8.02222 26.0613C7.70227 26.1183 7.3822 26.0703 7.09229 25.9213C6.35229 25.4653 6.46228 24.2293 6.45227 23.2513C6.42224 20.4143 4.6123 18.1103 2.9823 16.0253C1.34229 13.9413 -0.317749 11.3753 0.0522461 8.57227C0.392212 6.9223 1.1123 5.41327 2.1322 4.2113C3.03223 2.87231 4.09229 1.69128 5.28223 0.704285C6.97229 -0.606689 7.57227 0.0993042 9.17224 1.30029C12.1722 3.55627 15.1622 5.83929 18.1322 8.14728L18.1322 8.14728Z" transform="translate(379.44775 175.79602)" id="Vector_26" fill="#F1F1F1" fill-rule="evenodd" stroke="none" />
    <path d="M18.1322 8.14722C18.9323 8.77026 19.7322 9.39423 20.5322 10.0203C21.2722 10.4832 21.8822 11.1902 22.2822 12.0532C22.8022 13.4993 22.1022 15.1342 21.3123 16.4042C18.9622 20.1992 15.7522 23.1362 12.0522 24.8773C10.7622 25.5073 9.41223 25.9063 8.02222 26.0612C7.70215 26.1193 7.3822 26.0712 7.09216 25.9222C6.35217 25.4662 6.46216 24.2292 6.45215 23.2512C6.42224 20.4142 4.61218 18.1102 2.98218 16.0262C1.34216 13.9423 -0.317749 11.3762 0.0522461 8.57227C0.392212 6.92224 1.11218 5.41327 2.12219 4.21124C3.03223 2.87323 4.09216 1.69226 5.28223 0.704224C6.97217 -0.60675 7.57214 0.0992432 9.17224 1.30127C12.1722 3.55725 15.1622 5.83923 18.1322 8.14722L18.1322 8.14722Z" transform="translate(389.9978 209.00006)" id="Vector_27" fill="#F1F1F1" fill-rule="evenodd" stroke="none" />
    <path d="M7.91809 13.6921C8.56799 13.8871 9.25806 13.897 9.91809 13.722C10.568 13.5471 11.188 13.191 11.708 12.6841C12.738 11.657 13.578 10.3871 14.1681 8.95404C14.748 7.67908 15.2581 6.35706 15.688 4.99908C16.188 3.40808 16.6581 1.64905 17.838 0.684082C19.2781 -0.485962 21.2981 -0.0279541 22.7581 1.10107C24.1381 2.36707 25.3981 3.79504 26.5281 5.36206C29.5581 8.69806 33.238 11.1111 37.238 12.3921C41.218 13.6611 45.2581 14.6801 49.338 15.4431C50.1481 15.5721 50.938 15.871 51.6581 16.3271C53.2981 17.506 53.848 20.1381 53.3881 22.337C52.8081 24.5071 51.7781 26.4681 50.3781 28.0331C49.2781 29.574 47.9081 30.8221 46.368 31.6931C45.068 32.2541 43.698 32.561 42.3081 32.6C35.598 33.1381 28.858 32.5161 22.2981 30.751C19.8881 29.9791 17.438 29.402 14.958 29.0231C13.448 28.8661 11.9281 28.9161 10.4181 28.795C7.41809 28.5521 4.47803 27.6371 1.75806 26.0991C1.09802 25.813 0.538086 25.2671 0.178101 24.553C-0.0119629 23.8961 -0.052002 23.1891 0.0679932 22.506L1.06799 12.1481C1.15808 11.246 1.40808 10.126 2.16809 9.98505C2.88806 9.85107 3.41809 10.725 3.86804 11.402C4.75806 12.649 5.96802 13.514 7.30811 13.8611C8.65808 14.2081 10.0581 14.0171 11.2981 13.3181" transform="translate(391.00195 218.00024)" id="Vector_28" fill="#575A89" fill-rule="evenodd" stroke="none" />
    <path d="M40.1604 0.301758C44.5704 -0.284241 49.6704 -0.382202 52.6504 3.49176C54.4803 5.86676 55.0304 9.19379 55.6704 12.3138C56.6504 17.5518 58.2604 22.5998 60.4404 27.3108C61.8405 30.2298 63.5404 32.9688 64.6104 36.0738C65.7104 39.2558 66.1204 42.7007 66.7604 46.0528C69.3503 59.3008 75.6504 71.1298 84.6504 79.6178C83.0604 84.7168 78.4604 87.6288 73.9904 88.9318C73.0504 89.4068 71.9904 89.4908 71.0004 89.1718C70.0004 88.8518 69.1304 88.1478 68.5204 87.1718C66.4304 84.5088 64.4803 81.6927 62.6904 78.7418C56.2404 68.5887 49.7004 58.2228 46.1904 46.2338C44.9604 42.0268 43.7304 37.1168 40.2604 35.3588C38.2904 34.3558 36.0304 34.6688 33.9004 35.0928C29.1604 36.0417 24.5004 37.4548 19.9594 39.3177C15.1184 41.3048 9.57538 43.7498 5.14337 40.7098C2.49237 38.8907 0.914429 35.3968 0.332397 31.8428C-0.106628 28.2558 -0.110596 24.6138 0.319397 21.0248C0.349426 19.4018 0.679382 17.8048 1.28741 16.3478C1.90039 15.2578 2.68738 14.3188 3.60339 13.5828C7.56042 10.0358 11.9614 7.23877 16.6474 5.29077C21.1254 3.42877 25.9404 2.79675 30.6104 1.87677C33.7804 1.25177 36.9604 0.726746 40.1604 0.301758L40.1604 0.301758Z" transform="translate(304.5896 98.94653)" id="Vector_29" fill="#575A89" fill-rule="evenodd" stroke="none" />
    <path d="M8.58582 2.77808C10.6259 3.99408 12.5059 5.56708 14.1459 7.44312C15.8458 9.80511 17.1359 12.5371 17.9458 15.4851C18.3058 16.4681 18.5359 17.5161 18.6058 18.5851C18.6359 19.1201 18.5658 19.6571 18.3959 20.1551C18.2258 20.6541 17.9658 21.1001 17.6359 21.4611C16.8158 22.0791 15.8458 22.3581 14.8859 22.2541C13.6058 22.2661 12.3258 22.2271 11.0558 22.1361C10.2759 22.1291 9.50586 21.9571 8.78589 21.6291C8.12585 21.2291 7.52588 20.6951 7.01587 20.0501C4.77588 17.5911 2.93579 14.6611 1.59583 11.4101C0.665894 9.00409 -0.854126 3.46008 0.605835 0.956116C2.10583 -1.62292 6.99585 1.71613 8.58582 2.77808L8.58582 2.77808Z" transform="translate(361.38416 133.9472)" id="Vector_30" fill="#FFBFC5" fill-rule="evenodd" stroke="none" />
    <path d="M48.6132 0C55.1271 2.46198 62.0612 2.74396 68.8721 3.49396C80.3322 4.758 91.6422 7.39795 102.652 11.3719C104.942 12.032 107.112 13.2209 109.012 14.87C110.492 16.476 111.732 18.347 112.712 20.414C114.502 23.632 116.122 26.976 117.562 30.428C118.802 33.547 119.742 36.817 120.892 39.982C124.762 50.5779 130.872 59.8199 138.652 66.817C140.072 68.092 141.652 69.48 142.022 71.541C142.182 72.868 142.002 74.223 141.492 75.423C139.812 80.038 136.322 83.395 132.672 85.965C131.092 87.0699 129.362 88.191 128.592 90.149C123.032 87.44 118.902 81.667 115.462 75.845C112.022 70.024 108.972 63.7679 104.562 58.94C102.612 56.813 100.412 54.961 98.8821 52.407C96.5522 48.508 95.9222 43.173 92.7822 40.164C89.6221 37.133 85.0822 37.546 81.0322 38.015C60.2682 40.414 39.3452 40.146 18.6302 37.218C14.3242 36.6089 9.89917 35.8329 6.16919 33.222C2.43817 30.611 -0.46582 25.713 0.0621338 20.634C0.558167 15.879 3.91418 12.1089 7.65515 10.248C11.3962 8.38696 15.5312 8.05298 19.5652 7.51697C29.4662 6.37799 39.2172 3.85394 48.6132 0L48.6132 0Z" transform="translate(259.59784 135.86633)" id="Vector_31" fill="#575A89" fill-rule="evenodd" stroke="none" />
    <path d="M0.190063 106.725C0.70105 102.694 2.02808 98.876 2.86108 94.92C3.27808 92.43 3.80707 89.969 4.44409 87.545C4.46509 87.477 4.48804 87.41 4.51007 87.342C4.72205 87.321 4.92706 87.246 5.11108 87.122C5.29608 86.997 5.45508 86.827 5.57709 86.622C5.69006 86.269 5.72205 85.886 5.66705 85.514C5.65106 85.119 5.66107 84.724 5.69708 84.331C7.05908 81.635 8.5481 79.031 10.1561 76.531C12.9771 71.816 15.4211 66.804 17.86 61.801C19.8591 57.699 21.8621 53.59 23.5171 49.28C24.7581 46.048 25.8021 42.709 27.1741 39.552C32.058 28.314 40.8361 20.037 50.2791 14.089C59.3361 8.383 69.1271 4.53601 78.6501 0C78.8951 0.283997 79.1171 0.593018 79.3151 0.924011C84.4641 9.22198 85.014 20.127 87.1341 30.101C87.9841 34.127 89.1341 38.14 89.1241 42.292C89.1241 48.419 86.644 54.12 84.1741 59.512C81.9741 64.665 79.368 69.567 76.3991 74.155C74.9421 76.283 73.3371 78.265 71.8721 80.385C65.8691 89.07 62.4031 99.748 59.0331 110.226C57.0821 116.292 53.894 121.673 51.7491 127.647C50.9251 129.943 50.4491 132.419 49.4141 134.593C48.3791 136.767 46.5771 138.679 44.4641 138.69C43.8451 138.67 43.2321 138.557 42.6381 138.353C34.988 136.031 28.5811 130.059 22.2241 124.528C21.0891 123.54 19.9481 122.562 18.7571 121.671C17.5551 120.772 16.3061 119.965 15.058 119.158C14.1121 118.546 13.1661 117.935 12.2201 117.323C9.12109 115.319 6.01709 113.312 2.78705 111.617C1.81604 111.157 0.883057 110.592 0.0010376 109.929C-0.00891113 108.857 0.0540772 107.786 0.190063 106.725L0.190063 106.725Z" transform="translate(248.45593 39.013306)" id="Vector_32" fill="#0E0689" fill-rule="evenodd" stroke="none" />
    <path d="M17.62 41.593C27.36 41.593 35.2501 32.282 35.2501 20.797C35.2501 9.31097 27.36 0 17.62 0C7.89001 0 0 9.31097 0 20.797C0 32.282 7.89001 41.593 17.62 41.593L17.62 41.593Z" transform="translate(331.03998 14.771301)" id="Vector_33" fill="#FFBFC5" fill-rule="evenodd" stroke="none" />
    <path d="M38.5668 25.8373C38.9967 26.7163 39.6367 27.4183 40.4167 27.8493C41.1968 28.2803 42.0668 28.4183 42.9067 28.2443C43.7467 28.0453 44.5468 27.6383 45.2467 27.0513C45.9368 26.4633 46.5267 25.7083 46.9568 24.8353C47.8168 23.0793 48.3268 21.1193 48.4568 19.0993C48.5968 18.3233 48.6068 17.5233 48.4768 16.7453C48.3468 15.9673 48.0968 15.2253 47.7268 14.5643C47.0668 13.8133 46.3168 13.1903 45.4867 12.7193C44.3568 11.8823 43.3967 10.7433 42.7068 9.39331C42.2168 8.43231 41.8568 7.38129 41.4167 6.38733C39.8168 2.79333 36.6968 -0.127686 33.2567 0.0043335C31.5968 0.0682983 30.0267 0.809326 28.3967 1.1463C22.9368 2.27728 16.9968 -1.1347 11.9268 1.52631C10.6768 2.24231 9.51672 3.1543 8.47675 4.23828C7.04675 5.62732 5.67877 7.09033 4.36273 8.62732C3.21875 9.77631 2.35376 11.2623 1.85474 12.9343C1.16577 15.9853 2.80377 19.3953 1.76178 22.3033C1.40472 23.1353 0.97876 23.9243 0.490723 24.6583C-0.659241 26.6483 0.589783 34.4173 0.462769 36.8213C0.316772 37.9983 0.569763 39.1963 1.16876 40.1533C1.99976 41.2463 3.39874 41.3423 4.64276 41.3603L6.92676 41.3923C7.27673 41.4203 7.61676 41.3783 7.94678 41.2693C8.39673 41.0333 8.78674 40.6743 9.09674 40.2213C10.9968 37.8553 11.4167 30.1183 14.1768 30.1463C14.5967 30.1193 15.0167 30.2463 15.3668 30.5113C15.8768 30.9443 16.0167 31.7403 16.3768 32.3413C16.7767 32.9073 17.3268 33.3033 17.9368 33.4713C18.5568 33.6403 19.1968 33.5713 19.7667 33.2773C20.9067 32.6543 21.9067 31.7073 22.6567 30.5213C23.4167 29.3373 24.3268 28.3073 25.3668 27.4743C26.8367 26.4603 28.5068 26.0193 29.9368 24.8733C31.1367 23.9163 31.8168 22.5263 32.8867 21.4693C33.3168 21.0313 33.8568 20.7743 34.4268 20.7363C34.9967 20.6993 35.5568 20.8843 36.0267 21.2623C37.7168 22.3063 37.7968 24.0183 38.5668 25.8373L38.5668 25.8373Z" transform="translate(321.95325 0)" id="Vector_34" fill="#2F2E41" fill-rule="evenodd" stroke="none" />
    <path d="M18.4063 0.329346C22.5223 -0.360657 26.7173 0.0363159 30.6873 1.49335C32.0173 1.85034 33.2073 2.68829 34.1074 3.88934C34.6273 4.79932 34.9573 5.83234 35.0873 6.91431C35.8973 11.8873 35.3773 17.0343 33.5973 21.6443C33.4774 21.8753 33.3873 22.1343 33.3574 22.4063C33.3173 22.6773 33.3373 22.9553 33.3973 23.2193C33.5773 23.5403 33.8073 23.8133 34.0773 24.0213C34.3273 24.3023 34.5273 24.6413 34.6473 25.0173C34.7773 25.3933 34.8373 25.7963 34.8273 26.2013C34.8073 26.6063 34.7274 27.0023 34.5673 27.3643C34.4174 27.7273 34.1973 28.0473 33.9373 28.3033C33.6074 28.5863 33.1774 28.8323 33.1074 29.3063C33.0373 29.8233 33.4473 30.2283 33.7673 30.5903C34.2374 31.1323 34.5873 31.8053 34.7773 32.5473C34.9673 33.2883 34.9973 34.0753 34.8673 34.8333C34.6873 35.4443 34.5773 36.0743 34.5073 36.7143C34.5773 37.4963 34.7773 38.2563 35.0873 38.9503C35.6173 40.5153 35.8073 42.2183 35.6173 43.8923C35.4473 44.6833 35.4274 45.5093 35.5673 46.3093C35.7573 46.8383 36.0273 47.3283 36.3474 47.7613C37.6173 49.7773 37.8873 53.1493 36.0573 54.4143C36.8373 54.8903 37.4774 55.6443 37.8873 56.5703C38.2974 57.4973 38.4473 58.5503 38.3173 59.5823C39.4174 58.8913 40.7473 59.7753 41.6573 60.7703C42.5773 61.7663 43.5073 62.9843 44.7473 63.0573C45.6173 63.1083 46.5273 62.5783 47.3173 62.9993C48.5273 63.6393 48.4774 65.9383 49.6674 66.6283C50.6974 67.2323 52.1473 66.2453 53.0273 67.1263C53.3373 67.4334 53.4873 67.9073 53.7873 68.2283C54.4574 68.9523 55.5073 68.6444 56.4174 68.6013C57.4973 68.6373 58.5474 69.0053 59.4673 69.6673C60.3873 70.3303 61.1373 71.2653 61.6573 72.3793C62.6774 74.6243 63.2874 77.0903 63.4574 79.6264C63.6874 81.0043 63.6674 82.4253 63.3873 83.7913C63.2473 84.4713 62.9274 85.0844 62.4873 85.5543C62.0474 86.0243 61.4973 86.3303 60.9073 86.4343C50.0873 87.2603 39.4174 84.2003 28.8773 81.1743C25.7874 80.2863 22.6414 79.2453 20.0613 77.0443C17.7163 75.0443 15.9933 72.2153 14.3113 69.4373C11.2123 64.3153 8.09235 59.1543 5.87433 53.4313C3.01935 46.0653 1.74634 38.0073 0.497314 30.0423C0.0683594 27.9073 -0.0846558 25.7073 0.0443115 23.5173C0.419311 20.9563 1.24835 18.5183 2.47931 16.3633C3.96735 13.5063 5.61432 10.7673 7.40735 8.16535C10.1334 4.0473 14.0483 1.2583 18.4063 0.329346L18.4063 0.329346Z" transform="translate(302.10266 61.307983)" id="Vector_35" fill="#6C63FF" fill-rule="evenodd" stroke="none" />
    <path d="M947.517 5.05823C947.517 22.0822 735.407 81.0952 473.757 81.0952C212.109 81.0952 0 22.0822 0 5.05823C0 -11.9667 212.109 19.4432 473.757 19.4432C735.407 19.4432 947.517 -11.9667 947.517 5.05823L947.517 5.05823Z" transform="translate(3.4829712 214.90106)" id="Vector_36" fill="#3B3A41" fill-opacity="0.1" fill-rule="evenodd" stroke="none" />
    <path d="M17.0435 1.48041C18.0334 2.67346 18.4634 4.38745 19.4335 5.60144C20.0934 6.33643 20.8334 6.94843 21.6534 7.41345L27.3734 11.1304C28.2534 11.7434 29.1735 12.2604 30.1434 12.6724C31.2134 13.0275 32.3135 13.2974 33.4235 13.4814C35.0134 13.8314 36.5635 14.3724 38.0535 15.0934C39.1735 15.6354 40.4235 16.5714 40.4235 18.0015C40.3734 18.7004 40.1334 19.3624 39.7334 19.8814C37.4834 23.2354 33.4834 23.9785 29.8734 24.4284C22.0635 25.4034 14.0635 26.1345 6.43347 23.9614C4.94348 23.6375 3.53345 22.9174 2.31348 21.8564C0.00341797 19.6035 -0.456543 15.4995 0.403442 12.1165C0.653442 10.8195 1.30347 9.67944 2.22339 8.92346C3.43347 8.10541 4.94348 8.48541 6.33337 8.35846C7.81348 8.12042 9.24341 7.58246 10.5635 6.76746C11.4435 6.30243 12.4435 5.70343 12.6334 4.47742C12.8035 3.34045 11.6735 2.20245 11.9135 1.18646C12.4435 -1.06458 16.1334 0.382446 17.0435 1.48041L17.0435 1.48041Z" transform="translate(380.36658 176.52887)" id="Vector_37" fill="#575A89" fill-rule="evenodd" stroke="none" />
  </g>
</svg>