<svg width="667" height="451" viewBox="0 0 667 451" fill="none" xmlns="http://www.w3.org/2000/svg">
<g id="manAndCar">
<path id="Vector" d="M469.826 283.496C467.748 285.157 465.191 286.058 462.558 286.058C459.926 286.058 457.369 285.157 455.291 283.496C453.261 269.722 458.413 242.653 459.628 236.55L459.88 235.326H465.75C466.14 235.725 466.448 236.201 466.655 236.726C470.641 245.553 469.826 283.496 469.826 283.496Z" fill="#535F89"/>
<path id="Vector_2" opacity="0.1" d="M464.519 229.776V235.334H462.073V229.776C462.467 229.708 462.865 229.674 463.264 229.675C463.684 229.675 464.104 229.709 464.519 229.776Z" fill="black"/>
<path id="Vector_3" opacity="0.1" d="M466.614 236.751C465.581 237.318 464.426 237.606 463.255 237.589C461.984 237.622 460.731 237.278 459.644 236.6L459.897 235.376H465.75C466.123 235.771 466.417 236.239 466.614 236.751Z" fill="black"/>
<path id="Vector_4" d="M463.255 236.617C465.961 236.617 468.155 235.277 468.155 233.624C468.155 231.971 465.961 230.631 463.255 230.631C460.55 230.631 458.356 231.971 458.356 233.624C458.356 235.277 460.55 236.617 463.255 236.617Z" fill="#DCE2ED"/>
<path id="Vector_5" d="M644.845 305.15C643.472 306.247 641.783 306.843 640.044 306.843C638.305 306.843 636.615 306.247 635.242 305.15C633.897 296.046 637.304 278.139 638.103 274.132C638.209 273.604 638.275 273.293 638.275 273.293H642.114C642.373 273.556 642.578 273.87 642.717 274.216C645.375 280.076 644.845 305.15 644.845 305.15Z" fill="#535F89"/>
<path id="Vector_6" opacity="0.1" d="M641.323 269.638V273.318H639.693V269.638C639.962 269.588 640.235 269.565 640.508 269.571C640.781 269.573 641.054 269.595 641.323 269.638Z" fill="black"/>
<path id="Vector_7" opacity="0.1" d="M642.717 274.207C642.031 274.573 641.266 274.758 640.492 274.744C639.653 274.763 638.825 274.539 638.103 274.098C638.209 273.57 638.274 273.26 638.274 273.26H642.114C642.376 273.53 642.581 273.852 642.717 274.207Z" fill="black"/>
<path id="Vector_8" d="M640.492 274.157C642.279 274.157 643.728 273.271 643.728 272.178C643.728 271.086 642.279 270.2 640.492 270.2C638.704 270.2 637.255 271.086 637.255 272.178C637.255 273.271 638.704 274.157 640.492 274.157Z" fill="#DCE2ED"/>
<path id="Vector_9" opacity="0.1" d="M311.112 317.75C303.489 313.754 294.747 312.629 286.402 314.573C272.136 317.75 250.28 316.065 248.291 315.713" fill="black"/>
<path id="Vector_10" opacity="0.1" d="M265.467 145.223C265.467 145.223 261.995 201.541 268.166 212.649L265.467 145.223Z" fill="black"/>
<path id="Vector_11" opacity="0.1" d="M252.652 212.649C252.652 212.649 257.103 265.396 260.185 275.708C263.266 286.019 252.652 212.649 252.652 212.649Z" fill="black"/>
<path id="Vector_12" opacity="0.1" d="M248.315 82.9521C245.16 84.1426 231.66 112.294 234.367 120.635C237.073 128.976 248.315 82.9521 248.315 82.9521Z" fill="black"/>
<path id="Vector_13" opacity="0.1" d="M282.538 53.728C281.079 54.4071 274.793 70.6286 276.016 75.4238C277.239 80.219 282.538 53.728 282.538 53.728Z" fill="black"/>
<path id="Vector_14" opacity="0.1" d="M224.087 148.299C225.652 164.655 226.533 175.36 225.505 188.455C224.668 198.625 224.81 208.854 225.929 218.995" fill="black"/>
<path id="Vector_15" opacity="0.1" d="M260.747 17.412C259.155 16.0663 257.459 14.8552 255.677 13.7904C254.052 12.7665 252.299 11.974 250.467 11.4347C247.671 10.6718 244.761 10.7892 241.859 10.479C238.957 10.1689 235.973 9.34729 234.016 7.12573" fill="black"/>
<path id="Vector_16" d="M175.712 290.647C173.119 292.721 169.928 293.847 166.643 293.847C163.358 293.847 160.166 292.721 157.573 290.647C155.046 273.453 161.47 239.66 162.987 232.082L163.304 230.547H170.56C171.042 231.049 171.427 231.641 171.693 232.291C176.715 243.29 175.712 290.647 175.712 290.647Z" fill="#535F89"/>
<path id="Vector_17" opacity="0.1" d="M169.068 223.606V230.547H166.011V223.598C166.504 223.515 167.003 223.476 167.503 223.48C168.027 223.479 168.55 223.521 169.068 223.606Z" fill="black"/>
<path id="Vector_18" opacity="0.1" d="M171.693 232.291C170.401 232.986 168.96 233.335 167.503 233.305C165.915 233.347 164.348 232.922 162.986 232.081L163.304 230.547H170.56C171.042 231.049 171.427 231.641 171.693 232.291Z" fill="black"/>
<path id="Vector_19" d="M167.503 232.123C170.88 232.123 173.617 230.453 173.617 228.393C173.617 226.332 170.88 224.662 167.503 224.662C164.126 224.662 161.389 226.332 161.389 228.393C161.389 230.453 164.126 232.123 167.503 232.123Z" fill="#DCE2ED"/>
<path id="Vector_20" opacity="0.1" d="M527.878 206.689C532.251 204.397 537.267 203.753 542.054 204.869C550.207 206.689 562.802 205.708 563.943 205.523" fill="black"/>
<path id="Vector_21" opacity="0.1" d="M554.095 107.599C554.095 107.599 556.084 139.95 552.546 146.321L554.095 107.599Z" fill="black"/>
<path id="Vector_22" opacity="0.1" d="M561.448 146.321C561.448 146.321 558.897 176.618 557.128 182.545C555.359 188.472 561.448 146.321 561.448 146.321Z" fill="black"/>
<path id="Vector_23" opacity="0.1" d="M563.943 71.8359C565.753 72.5234 573.506 88.6946 571.957 93.4731C570.408 98.2515 563.943 71.8359 563.943 71.8359Z" fill="black"/>
<path id="Vector_24" opacity="0.1" d="M544.288 55.0527C545.103 55.4384 548.739 64.7605 548.014 67.5102C547.288 70.26 544.288 55.0527 544.288 55.0527Z" fill="black"/>
<path id="Vector_25" opacity="0.1" d="M577.859 109.368C576.962 118.765 576.473 124.91 577.044 132.43C577.528 138.27 577.446 144.145 576.799 149.968" fill="black"/>
<path id="Vector_26" opacity="0.1" d="M480.775 0C481.793 1.36326 482.328 3.04317 482.291 4.76168C482.348 6.43833 482.128 8.16527 482.234 9.86707C482.34 11.5689 483.179 13.7485 484.908 13.9916" fill="black"/>
<path id="Vector_27" d="M298.239 69.4216C284.853 87.9821 273.832 142.582 270.742 159.038L247.427 158.091C248.894 143.932 277.084 86.7582 284.927 71.0731C289.125 70.4947 293.617 69.9079 298.239 69.4216Z" fill="#6C63FF"/>
<path id="Vector_28" d="M589.533 62.8323H579.196V77.8047H589.533V62.8323Z" fill="#DCE0ED"/>
<path id="Vector_29" opacity="0.1" d="M589.533 62.8323V67.7029C588.804 67.9156 588.049 68.02 587.291 68.0131L579.204 67.946V62.8323H589.533Z" fill="black"/>
<path id="Vector_30" d="M574.834 24.6885H584.617C586.951 24.6916 589.23 25.4115 591.163 26.7558C593.097 28.1 594.595 30.0074 595.467 32.2334C598.321 39.4681 600.742 50.9699 594.383 62.413C593.675 63.6956 592.646 64.7604 591.404 65.4973C590.161 66.2342 588.75 66.6164 587.315 66.6046L574.859 66.4957L574.834 24.6885Z" fill="black"/>
<path id="Vector_31" d="M574.834 66.4958C580.606 66.4958 585.285 57.1388 585.285 45.5964C585.285 34.054 580.606 24.697 574.834 24.697C569.062 24.697 564.383 34.054 564.383 45.5964C564.383 57.1388 569.062 66.4958 574.834 66.4958Z" fill="white"/>
<path id="Vector_32" d="M497.739 63.0083H487.402V76.1113H497.739V63.0083Z" fill="#DCE0ED"/>
<path id="Vector_33" opacity="0.1" d="M497.739 63.0083V67.1999C497.007 67.4131 496.25 67.5176 495.489 67.5101L487.402 67.4346V63.0334L497.739 63.0083Z" fill="black"/>
<path id="Vector_34" d="M483.041 24.873H492.823C495.156 24.8745 497.436 25.5938 499.368 26.9384C501.3 28.283 502.797 30.1913 503.666 32.418C506.527 39.6527 508.948 51.1545 502.59 62.5976C501.879 63.8803 500.849 64.9449 499.605 65.6817C498.361 66.4185 496.949 66.8008 495.514 66.7892L483.065 66.6719L483.041 24.873Z" fill="black"/>
<path id="Vector_35" d="M483.041 66.6719C488.813 66.6719 493.492 57.3149 493.492 45.7725C493.492 34.23 488.813 24.873 483.041 24.873C477.269 24.873 472.59 34.23 472.59 45.7725C472.59 57.3149 477.269 66.6719 483.041 66.6719Z" fill="white"/>
<path id="Vector_36" d="M485.649 32.5103C485.649 32.5103 481.793 33.1474 483.799 38.3785C484.863 40.9186 485.637 43.5771 486.106 46.3007C486.106 46.3007 489.962 48.363 489.807 41.5474C489.652 34.7318 485.649 32.5103 485.649 32.5103Z" fill="#DCE0ED"/>
<path id="Vector_37" d="M94.0354 399.872C127.708 399.872 155.006 369.106 155.006 331.154C155.006 293.203 127.708 262.437 94.0354 262.437C60.3626 262.437 33.0653 293.203 33.0653 331.154C33.0653 369.106 60.3626 399.872 94.0354 399.872Z" fill="#636780"/>
<path id="Vector_38" opacity="0.1" d="M116.878 266.721C84.9783 268.926 59.7065 298.787 59.7065 335.304C59.7065 364.738 76.125 389.846 99.2038 399.629C131.111 397.424 156.383 367.563 156.383 331.046C156.383 301.612 139.957 276.504 116.878 266.721Z" fill="black"/>
<path id="Vector_39" d="M571.215 247.314C598.544 247.314 620.698 217.606 620.698 180.96C620.698 144.315 598.544 114.607 571.215 114.607C543.886 114.607 521.731 144.315 521.731 180.96C521.731 217.606 543.886 247.314 571.215 247.314Z" fill="#636780"/>
<path id="Vector_40" opacity="0.1" d="M557.389 117.382C536.861 125.472 521.878 150.915 521.878 181.053C521.878 213.261 538.997 240.104 561.693 246.14C582.212 238.05 597.204 212.607 597.204 182.469C597.204 150.261 580.084 123.418 557.389 117.382Z" fill="black"/>
<path id="Vector_41" d="M385.329 166.793L386.25 142.708C386.25 142.708 381.652 132.312 377.063 131.373C372.473 130.435 361.908 129.839 361.908 129.839C361.908 129.839 353.641 164.429 359.152 174.824C364.663 185.219 385.329 166.793 385.329 166.793Z" fill="#6C63FF"/>
<path id="Vector_42" opacity="0.1" d="M385.329 166.793L386.25 142.708C386.25 142.708 381.652 132.312 377.063 131.373C372.473 130.435 361.908 129.839 361.908 129.839C361.908 129.839 353.641 164.429 359.152 174.824C364.663 185.219 385.329 166.793 385.329 166.793Z" fill="black"/>
<path id="Vector_43" d="M300.595 164.194C300.595 164.194 297.75 130.795 315.595 130.191C317.894 130.116 320.193 130.057 322.484 129.831C334.851 128.599 368.592 125.924 364.549 133.847C364.549 133.847 356.511 162.894 362.022 170.213L300.595 164.194Z" fill="#6C63FF"/>
<path id="Vector_44" d="M553.541 226.121L577.476 226.833C577.476 226.833 581.609 181.489 582.986 177.951C584.364 174.413 585.057 157.404 580.582 154.93C576.106 152.457 561.13 149.439 561.13 149.439L550.092 175.285L549.236 198.666L553.541 226.121Z" fill="#6C63FF"/>
<path id="Vector_45" opacity="0.1" d="M553.541 226.121L577.476 226.833C577.476 226.833 581.609 181.489 582.986 177.951C584.364 174.413 585.057 157.404 580.582 154.93C576.106 152.457 561.13 149.439 561.13 149.439L550.092 175.285L549.236 198.666L553.541 226.121Z" fill="black"/>
<path id="Vector_46" d="M495.669 150.856L495.563 145.826C495.554 145.429 495.626 145.033 495.772 144.665C495.918 144.297 496.136 143.963 496.413 143.685C496.69 143.407 497.019 143.19 497.38 143.048C497.741 142.906 498.127 142.841 498.514 142.859C510.383 143.37 553.557 145.499 561.114 149.465C561.114 149.465 552.848 212.691 561.978 227.747L558.88 278.399L453.13 270.25L495.669 150.856Z" fill="#6C63FF"/>
<path id="Vector_47" opacity="0.1" d="M487.402 71.0058C490.337 70.704 493.834 70.3855 497.739 70.0669V76.1112H487.402V71.0058Z" fill="black"/>
<path id="Vector_48" opacity="0.1" d="M589.533 77.0335V77.7964H579.204V73.2024C582.788 74.0323 586.258 75.3192 589.533 77.0335Z" fill="black"/>
<path id="Vector_49" d="M298.19 151.124C298.236 150.87 298.376 150.645 298.582 150.496C298.808 150.41 299.053 150.387 299.291 150.429C299.291 150.697 299.291 150.856 299.291 150.856C298.766 151.339 298.273 151.857 297.815 152.407C297.962 151.98 298.068 151.552 298.19 151.124ZM335.601 139.841C335.605 139.782 335.605 139.723 335.601 139.665C336.121 138.322 336.717 137.012 337.386 135.741C336.734 137.032 336.131 138.399 335.601 139.841ZM341.177 128.993C340.296 130.342 339.228 132.086 338.177 134.106C338.964 132.279 339.972 130.561 341.177 128.993ZM195.522 246.308C199.671 246.475 203.128 246.4 203.128 246.4C202.378 246.752 199.044 246.593 195.522 246.308ZM203.136 246.392C203.291 246.291 204.823 245.369 208.402 245.738C208.402 245.704 204.881 245.578 203.136 246.392ZM342.383 181.908L343.9 155.081C343.9 155.081 343.337 168.78 343.525 174.706C343.594 177.162 343.207 179.61 342.383 181.916V181.908Z" fill="url(#paint0_linear)"/>
<path id="Vector_50" d="M255.628 233.28C255.628 233.28 255.196 234.655 254.625 236.399C253.696 239.241 252.383 243.105 251.935 243.466C251.487 243.826 248.014 244.061 244.231 244.304C238.367 244.655 232.584 242.765 227.992 238.998C227.992 238.998 229.973 237.531 232.068 235.829C234.163 234.127 236.364 232.199 236.813 231.252C237.44 229.952 241.027 227.714 243.188 226.456C244.158 225.886 244.818 225.517 244.818 225.517L255.628 233.28Z" fill="#F899A5"/>
<path id="Vector_51" d="M251.046 245.126C251.046 245.126 212.927 243.323 210.652 242.803C208.378 242.284 207.913 239.534 207.913 239.534C207.155 237.707 211.174 238.1 211.174 238.1C211.582 238.168 216.065 238.939 220.288 239.492C223.671 239.936 226.875 240.238 227.625 239.911C229.329 239.182 232.728 239.492 232.728 239.492C230.796 232.92 224.943 231.352 222.44 230.983L222.595 230.824C223.261 230.187 223.99 229.625 224.772 229.147C232.541 229.474 236.649 240.49 236.649 240.49H236.715C237.595 240.775 246.962 243.759 248.821 244.036C250.761 244.346 251.046 245.126 251.046 245.126Z" fill="#F3B4B4"/>
<path id="Vector_52" d="M231.114 248.621C230.967 249.116 230.299 249.46 229.207 249.552C228.615 249.596 228.021 249.596 227.429 249.552C223.806 249.231 220.241 248.407 216.832 247.104C216.245 246.894 215.69 246.71 215.152 246.551H215.087C213.793 246.153 212.467 245.872 211.125 245.712C207.669 245.344 206.193 246.266 206.046 246.366C206.046 246.366 202.704 246.442 198.709 246.274C195.637 246.187 192.577 245.857 189.554 245.285C189.122 245.193 188.739 245.084 188.34 244.975C187.625 244.788 186.937 244.506 186.294 244.136C182.087 241.538 196.255 239.786 196.255 239.786C197.874 239.582 199.382 238.833 200.543 237.656L200.69 237.489L201.049 237.12C201.597 236.629 202.171 236.17 202.769 235.745L203.291 235.384C206.111 233.423 209.91 231.327 209.91 231.327C212.553 230.589 214.969 229.169 216.929 227.202C217.29 226.837 217.617 226.438 217.908 226.012L225.742 223.933L231.139 237.262C231.139 237.262 231.179 237.983 231.22 239.065C231.31 241.965 231.465 247.448 231.114 248.621Z" fill="#F899A5"/>
<path id="Vector_53" opacity="0.1" d="M229.207 249.552C228.615 249.596 228.021 249.596 227.429 249.552C223.806 249.231 220.241 248.407 216.832 247.104C216.245 246.895 215.69 246.71 215.152 246.551H215.087C213.793 246.153 212.467 245.872 211.125 245.713C207.669 245.344 206.193 246.266 206.046 246.366C206.046 246.366 202.704 246.442 198.709 246.274C195.637 246.188 192.577 245.857 189.554 245.285C189.122 245.193 188.739 245.084 188.34 244.975C188.862 244.909 189.388 244.886 189.913 244.908C190.313 244.958 194.845 245.528 199.068 245.889C202.476 246.182 205.688 246.341 206.405 245.981C208.076 245.142 211.484 245.327 211.484 245.327C209.283 238.847 203.332 237.547 200.845 237.287C200.894 237.229 200.951 237.178 200.992 237.12C201.627 236.469 202.323 235.885 203.071 235.376H203.234C210.905 235.502 215.421 246.165 215.421 246.165H215.486C216.375 246.408 225.864 248.982 227.715 249.175C228.229 249.215 228.733 249.343 229.207 249.552Z" fill="black"/>
<path id="Vector_54" d="M229.655 250.55C229.655 250.55 191.495 250.449 189.204 250.038C186.913 249.627 186.326 246.886 186.326 246.886C185.511 245.101 189.497 245.318 189.497 245.318C189.897 245.369 194.389 245.939 198.652 246.308C202.052 246.593 205.272 246.752 205.989 246.4C207.62 245.562 211.068 245.746 211.068 245.746C208.859 239.266 202.916 237.966 200.429 237.707L200.576 237.539C201.22 236.88 201.924 236.288 202.679 235.77C210.457 235.77 215.03 246.568 215.03 246.568H215.095C215.984 246.802 225.473 249.376 227.323 249.569C229.337 249.778 229.655 250.55 229.655 250.55Z" fill="#F3B4B4"/>
<path id="Vector_55" opacity="0.1" d="M255.628 233.28C255.628 233.28 255.196 234.655 254.625 236.399C254.397 236.24 246.889 231.101 244.027 227.731C243.691 227.351 243.401 226.932 243.163 226.481C244.133 225.911 244.794 225.542 244.794 225.542L255.628 233.28Z" fill="black"/>
<path id="Vector_56" d="M277.59 216.279L276.236 220.781L263.274 228.041C263.274 228.041 259.769 230.598 259.198 231.805C258.735 232.609 257.997 233.207 257.128 233.481C256.486 234.303 255.887 235.159 255.334 236.047C255.334 236.047 247.639 230.799 244.736 227.378C243.84 226.322 243.408 225.434 243.815 224.939C245.511 222.843 255.685 215.315 255.685 215.315C255.685 215.315 261.897 206.932 262.166 207.083C262.435 207.234 265.557 204.14 267.391 202.388L268.647 201.181L277.59 216.279Z" fill="#BDD3E8"/>
<path id="Vector_57" d="M297 204.559V206.781C297 206.781 305.152 214.803 304.076 221.342C303 227.881 305.275 236.03 305.275 236.03L313.476 235.426L312.237 205.548L297 204.559Z" fill="#BDD3E8"/>
<path id="Vector_58" opacity="0.05" d="M313.476 235.426L305.275 236.03C305.275 236.03 303 227.89 304.076 221.342C305.152 214.795 297 206.781 297 206.781V204.559L312.237 205.548L312.318 207.493L313.476 235.426Z" fill="black"/>
<path id="Vector_59" opacity="0.05" d="M268.068 203.696C265.473 206.175 263.069 208.857 260.878 211.718C257.992 215.667 253.076 221.342 253.076 221.342L247.198 224.922L244.753 227.361C243.856 226.305 243.424 225.417 243.832 224.922C245.527 222.826 255.701 215.298 255.701 215.298C255.701 215.298 261.913 206.915 262.182 207.066C262.451 207.217 265.573 204.123 267.408 202.371L268.068 203.696Z" fill="black"/>
<path id="Vector_60" opacity="0.1" d="M231.196 239.065C230.957 239.274 230.732 239.498 230.519 239.735C230.519 239.735 230.397 243.675 227.397 234.42C224.397 225.165 216.954 227.387 216.954 227.387C216.927 227.37 216.907 227.344 216.897 227.313C216.886 227.283 216.886 227.25 216.897 227.219C216.897 226.968 217.329 226.532 217.875 226.029L225.709 223.95L231.106 237.279C231.106 237.279 231.155 237.983 231.196 239.065Z" fill="black"/>
<path id="Vector_61" d="M258.84 186.418L254.275 186.544L251.152 191.113C251.152 191.113 245.992 196.788 244.435 198.205C242.878 199.622 232.794 209.371 229.916 214.435C229.916 214.435 227.275 215.793 227.275 217.151C227.275 218.509 222.237 222.457 222.237 222.457C222.237 222.457 216.954 226.155 217.671 226.649C217.671 226.649 225.114 224.428 228.114 233.683C231.114 242.938 231.237 238.989 231.237 238.989C231.755 238.404 232.364 237.912 233.038 237.531C233.756 237.262 237.171 232.207 238.223 232.081C238.999 231.924 239.73 231.585 240.359 231.092L246.473 224.922L252.359 221.343C252.359 221.343 257.25 215.667 260.152 211.719C262.348 208.858 264.755 206.176 267.351 203.696L258.84 186.418Z" fill="#BDD3E8"/>
<path id="Vector_62" opacity="0.1" d="M236.038 216.287C236.038 216.287 244.19 220.353 243.84 221.217C243.489 222.08 236.038 216.287 236.038 216.287Z" fill="black"/>
<path id="Vector_63" opacity="0.1" d="M242.478 215.298C242.478 215.298 243.114 218.962 246.359 218.794C249.603 218.626 242.478 215.298 242.478 215.298Z" fill="black"/>
<path id="Vector_64" opacity="0.1" d="M231.114 225.584C231.114 225.584 231.595 227.68 234.595 228.049C237.595 228.418 231.114 225.584 231.114 225.584Z" fill="black"/>
<path id="Vector_65" opacity="0.1" d="M261.66 216.287C261.66 216.287 265.614 217.964 265.973 220.295C266.332 222.625 261.66 216.287 261.66 216.287Z" fill="black"/>
<path id="Vector_66" opacity="0.1" d="M251.935 224.922C253.467 225.601 257.878 230.69 257.788 231.243C257.698 231.796 251.935 224.922 251.935 224.922Z" fill="black"/>
<path id="Vector_67" opacity="0.1" d="M258.954 221.309C259.414 221.141 259.91 221.107 260.388 221.21C260.865 221.314 261.306 221.551 261.66 221.896C262.761 223.07 258.954 221.309 258.954 221.309Z" fill="black"/>
<path id="Vector_68" d="M288.033 180.994C288.033 180.994 272.731 175.897 273.905 180.994C275.079 186.091 288.033 188.949 288.033 188.949V180.994Z" fill="#F899A5"/>
<path id="Vector_69" opacity="0.1" d="M312.318 207.493L307.614 207.158L296.992 206.244V204.568L312.237 205.548L312.318 207.493Z" fill="black"/>
<path id="Vector_70" opacity="0.1" d="M327.717 172.108C327.717 172.108 331.891 175.252 336.359 175.377C340.826 175.503 327.717 172.108 327.717 172.108Z" fill="black"/>
<path id="Vector_71" opacity="0.1" d="M333.114 162.14C333.114 162.14 336.416 160.463 338.274 161.863C340.133 163.264 333.114 162.14 333.114 162.14Z" fill="black"/>
<path id="Vector_72" opacity="0.1" d="M331.557 167.74C331.557 167.74 331.769 169.719 336.66 169.962C341.552 170.205 331.557 167.74 331.557 167.74Z" fill="black"/>
<path id="Vector_73" d="M305.274 236.03C305.274 236.03 297.652 238.62 294.677 237.262C291.701 235.904 285.228 230.723 285.228 230.723C285.228 230.723 281.071 226.532 277.117 221.845L276.611 221.242C273.188 217.142 270.09 212.858 270.09 210.738C270.109 209.857 270.002 208.979 269.772 208.13C269.427 206.904 268.875 205.749 268.141 204.718C267.732 204.126 267.262 203.581 266.739 203.092L254.258 186.552C254.258 186.552 257.861 182.603 257.861 181.522C257.861 180.441 262.182 174.371 267.701 177.582C270.024 178.923 275.576 183.928 281.234 189.268C289.019 196.612 296.984 204.601 296.984 204.601C296.984 204.601 297.546 205.221 298.37 206.185C300.481 208.7 304.296 213.437 304.598 215.835C305.038 219.121 305.274 236.03 305.274 236.03Z" fill="#BDD3E8"/>
<path id="Vector_74" opacity="0.05" d="M298.386 206.144C292.476 212.196 283.582 220.311 277.125 221.845L276.954 221.887L276.62 221.242L269.804 208.131L268.076 204.777L268.166 204.685L281.258 189.201C289.044 196.545 297.008 204.534 297.008 204.534C297.008 204.534 297.563 205.18 298.386 206.144Z" fill="black"/>
<path id="Vector_75" d="M346.166 217.486V220.295C346.166 220.295 349.948 234.026 343.109 237.899C339.652 239.869 332.291 240.339 325.851 240.322C321.555 240.335 317.393 238.791 314.094 235.963C310.795 233.135 308.57 229.202 307.81 224.855C307.555 223.543 307.53 222.194 307.736 220.873C307.736 220.873 304.679 198.381 303.954 198.238C303.954 198.238 286.761 218.484 276.236 220.814L267.351 203.729L281.544 186.963C281.544 186.963 292.076 169.752 295.133 168.176C298.19 166.6 301.255 162.19 301.255 162.19C301.255 162.19 313.59 151.611 321.774 169.475C329.959 187.34 335.274 201.768 337.264 207.124C337.264 207.124 340.149 213.194 341.943 213.177H342C343.106 213.188 344.163 213.647 344.942 214.453C345.722 215.259 346.162 216.349 346.166 217.486Z" fill="#BDD3E8"/>
<path id="Vector_76" opacity="0.1" d="M303.595 197.283C305.246 195.408 306.5 193.201 307.28 190.802C308.641 186.728 306.872 194.935 303.954 198.205L303.595 197.283Z" fill="black"/>
<path id="Vector_77" d="M641.372 227.722L625.753 227.957L593.486 167.656L588.098 157.588L592.231 132.086L595.41 138.256L641.372 227.722Z" fill="black"/>
<path id="Vector_78" d="M500.144 153.573L493.72 163.49L474.497 136.764L465.701 124.525L470.984 117.206L475.027 122.253L500.144 153.573Z" fill="#DCE0ED"/>
<path id="Vector_79" opacity="0.1" d="M475.027 122.244C475.027 122.756 475.084 123.284 475.117 123.812L474.497 136.764L465.701 124.525L470.984 117.206L475.027 122.244Z" fill="black"/>
<path id="Vector_80" opacity="0.1" d="M595.41 138.256L593.486 167.656L588.098 157.588L592.231 132.086L595.41 138.256Z" fill="black"/>
<path id="Vector_81" d="M456.783 141.056C456.783 141.056 449.071 81.8287 477.163 72.9677C477.523 72.8597 477.891 72.7812 478.264 72.7329C484.728 71.9365 544.948 64.794 576.212 73.2778C576.212 73.2778 597.571 76.5892 597.342 88.3677L587.87 232.677H572.486L577.533 137.275C577.533 137.275 584.87 95.7114 572.715 92.8443C560.56 89.9772 505.198 85.2994 485.682 90.9581C485.682 90.9581 471.44 87.6467 473.739 123.778L472.818 143.144L456.783 141.056Z" fill="black"/>
<path id="Vector_82" d="M503.592 158.644C503.722 157.081 503.457 155.509 502.822 154.082C502.188 152.654 501.207 151.419 499.973 150.496C495.668 147.143 482.405 139.874 482.405 139.874L478.101 140.226L465.188 173.172L466.043 243.131L489.294 272.707L503.592 158.644Z" fill="#6C63FF"/>
<path id="Vector_83" opacity="0.1" d="M503.592 158.644C503.722 157.081 503.457 155.509 502.822 154.082C502.188 152.654 501.207 151.419 499.973 150.496C495.668 147.143 482.405 139.874 482.405 139.874L478.101 140.226L465.188 173.172L466.043 243.131L489.294 272.707L503.592 158.644Z" fill="black"/>
<path id="Vector_84" d="M410.821 231.972L411.277 160.178C411.277 160.178 409.215 132.312 425.405 131.843C425.405 131.843 463.582 132.128 480.171 137.669C480.695 137.842 481.174 138.133 481.574 138.521C481.975 138.908 482.286 139.382 482.486 139.909C482.686 140.436 482.769 141.001 482.73 141.565C482.69 142.129 482.529 142.677 482.258 143.169C478.997 149.079 473.389 164.73 470.698 204.869V247.909L410.821 231.972Z" fill="#6C63FF"/>
<path id="Vector_85" d="M491.364 277.845L421.891 276.177H421.826L387.685 275.364L391.639 228.426L410.584 229.139L470.87 242.954L489.294 272.707L491.364 277.845Z" fill="#6C63FF"/>
<path id="Vector_86" opacity="0.1" d="M491.364 277.845L421.891 276.177H421.826L387.685 275.364L391.639 228.426L410.584 229.139L470.87 242.954L489.294 272.707L491.364 277.845Z" fill="black"/>
<path id="Vector_87" d="M491.364 277.846L421.891 276.177L420.75 244.723L470.87 242.955L489.294 272.707L491.364 277.846Z" fill="#6C63FF"/>
<path id="Vector_88" opacity="0.1" d="M421.826 276.177L387.685 275.339L391.647 228.393C391.647 228.393 402.326 245.931 420.75 244.69L421.826 276.177Z" fill="white"/>
<path id="Vector_89" d="M666.864 314.145C665.487 327.608 656.185 325.479 656.185 325.479L654.448 325.32L637.239 323.71L637.932 302.811C637.932 302.811 647.299 302.157 655.386 303.892C661.842 305.267 667.476 308.168 666.864 314.145Z" fill="#DCE0ED"/>
<path id="Vector_90" d="M427.81 110.122C427.81 110.122 396.122 124.986 393.823 129.244C391.525 133.503 375.889 151.879 375.889 151.879L382.663 163.616L414.008 137.988L427.81 110.122Z" fill="#575A89"/>
<path id="Vector_91" d="M403.663 186.116L388.989 183.861L378.196 196.956C378.196 196.956 363.155 204.626 361.402 207.98C359.649 211.333 354.179 221.158 351.766 221.234C349.353 221.309 347.095 224.931 347.079 226.364C347.063 227.798 337.891 244.262 335.617 245.21C333.342 246.157 329.397 251.505 329.495 252.562C329.592 253.618 320.935 264.147 320.935 264.147C320.935 264.147 306.261 287.763 304.076 288.517C301.891 289.272 293.438 304.521 291.294 306.332C289.15 308.143 283.141 309.769 283.875 311.236C284.609 312.703 299.364 333.443 298.467 339.32C298.467 339.32 309.448 330.383 309.88 327.634C310.313 324.884 323.902 310.381 323.902 310.381L395.079 234.362L408.799 186.452L403.663 186.116Z" fill="#CEDDF9"/>
<path id="Vector_92" opacity="0.1" d="M443.071 210.536C443.071 210.536 445.997 245.092 436.296 250.323C426.595 255.554 419.992 254.951 418.125 257.256C416.258 259.562 404.886 261.599 403.679 263.695C402.473 265.79 370.606 284.108 370.606 284.108C370.606 284.108 348.807 297.32 345.391 300.195C341.976 303.071 323.381 311.479 320.209 315.436C317.038 319.393 297.131 332.362 297.131 332.362C297.131 332.362 291.302 313.918 284.601 312.301C284.601 312.301 300.709 309.039 301.663 306.432C302.617 303.825 307.427 301.025 307.427 301.025C307.427 301.025 330.359 287.344 331.068 284.259C331.777 281.174 337.427 276.781 337.427 276.781C337.427 276.781 346.533 263.98 349.883 262.747C353.234 261.515 373.101 240.54 373.101 240.54C373.101 240.54 386.609 233.196 388.109 230.782C389.609 228.368 415.207 214.686 415.207 214.686L386.03 177.406L395.258 174.489L422.592 182.033L427.484 191.146L443.071 210.536Z" fill="black"/>
<path id="Vector_93" d="M444.718 211.04C444.718 211.04 447.652 245.595 437.951 250.826C428.25 256.057 421.647 255.462 419.772 257.759C417.897 260.056 406.533 262.11 405.326 264.198C404.12 266.285 372.261 284.619 372.261 284.619C372.261 284.619 350.462 297.823 347.038 300.673C343.614 303.523 325.027 311.965 321.856 315.922C318.685 319.879 298.777 332.839 298.777 332.839C298.777 332.839 292.924 314.447 286.247 312.77C286.247 312.77 302.364 309.517 303.31 306.902C304.256 304.286 309.074 301.486 309.074 301.486C309.074 301.486 332.006 287.805 332.715 284.72C333.424 281.635 339.082 277.233 339.082 277.233C339.082 277.233 348.188 264.432 351.538 263.208C354.889 261.984 374.747 240.993 374.747 240.993C374.747 240.993 388.256 233.649 389.756 231.235C391.256 228.82 378.179 196.863 378.179 196.863L387.701 177.834L396.929 174.925L424.264 182.469L429.155 191.582L444.718 211.04Z" fill="#CEDDF9"/>
<path id="Vector_94" d="M477.163 120.601L454.867 136.529C454.867 136.529 427.924 126.251 438.563 122.127C445.541 119.419 448.052 105.444 448.948 96.1388C449.421 91.2933 449.446 87.7556 449.446 87.7556C449.446 87.7556 479.845 87.7053 474.253 97.6814C472.769 100.429 472.122 103.571 472.394 106.702C472.818 114.087 477.163 120.601 477.163 120.601Z" fill="#FEC2BE"/>
<path id="Vector_95" opacity="0.1" d="M472.345 106.71C467.855 107.789 463.145 107.346 458.92 105.447C454.694 103.548 451.179 100.295 448.9 96.1723C449.372 91.3268 449.397 87.7891 449.397 87.7891C449.397 87.7891 479.796 87.7388 474.204 97.7148C472.725 100.455 472.078 103.588 472.345 106.71Z" fill="black"/>
<path id="Vector_96" d="M488.111 91.0337C486.526 96.5508 482.905 101.211 478.022 104.019C473.14 106.827 467.382 107.56 461.982 106.06C456.581 104.561 451.964 100.948 449.119 95.9945C446.274 91.041 445.426 85.1396 446.756 79.5517C448.087 73.9637 451.49 69.1326 456.238 66.0908C460.987 63.049 466.704 62.0379 472.167 63.2736C477.631 64.5093 482.408 67.8937 485.478 72.7036C488.547 77.5134 489.665 83.367 488.592 89.0133C488.462 89.684 488.307 90.363 488.111 91.0337Z" fill="#FEC2BE"/>
<path id="Vector_97" opacity="0.1" d="M445.296 111.665C445.296 111.665 441.554 111.665 441.318 117.139C441.082 122.613 437.299 122.211 437.299 122.211L419.723 140.981C419.723 140.981 411.832 160.413 411.897 161.201C411.962 161.989 410.12 165.275 410.535 166.935C410.951 168.595 410.372 173.642 408.905 173.198C407.438 172.753 404.992 174.304 405.025 176.777C405.057 179.25 392.674 186.837 393.179 188.681C393.685 190.526 428.438 209.514 428.438 209.514L442.899 221.041L456.4 195.178L467.65 159.541L473.902 138.851L479.079 132.899L476.698 118.933C476.698 118.933 474.563 112.889 472.818 113.735C471.073 114.582 464.666 121.699 458.65 122.32C452.633 122.94 449.12 123.695 447.717 122.32C446.315 120.945 437.796 119.956 445.296 111.665Z" fill="black"/>
<path id="Vector_98" opacity="0.1" d="M446.503 109.845C446.503 109.845 442.052 109.98 441.807 115.445C441.563 120.911 437.788 120.517 437.788 120.517L420.212 139.287C420.212 139.287 412.321 158.711 412.394 159.508C412.468 160.304 410.609 163.574 411.025 165.242C411.44 166.91 410.87 171.948 409.394 171.504C407.919 171.06 405.473 172.611 405.506 175.084C405.538 177.557 393.155 185.144 393.669 186.988C394.182 188.832 428.919 207.82 428.919 207.82L443.389 219.347L456.889 193.477L468.139 157.839L474.449 137.158L479.617 131.206L477.237 117.239C477.237 117.239 475.101 111.195 473.356 112.042C471.612 112.889 465.204 120.006 459.196 120.618C453.188 121.23 449.666 122.001 448.264 120.618C446.862 119.235 447.701 117.675 446.503 109.845Z" fill="black"/>
<path id="Vector_99" d="M446.34 110.407C446.34 110.407 441.88 110.541 441.644 116.007C441.408 121.473 437.625 121.087 437.625 121.087L420.049 139.849C420.049 139.849 412.158 159.281 412.231 160.069C412.304 160.857 410.446 164.144 410.861 165.804C411.277 167.464 410.707 172.51 409.231 172.066C407.755 171.622 405.318 173.172 405.351 175.646C405.383 178.119 393 185.705 393.514 187.55C394.027 189.394 428.764 208.39 428.764 208.39L443.226 219.909L456.726 194.047L467.984 158.41L474.285 137.72L479.462 131.768L477.082 117.801C477.082 117.801 474.946 111.757 473.201 112.612C471.457 113.467 465.049 120.568 459.041 121.188C453.033 121.808 449.503 122.571 448.101 121.188C446.698 119.805 447.538 118.279 446.34 110.407Z" fill="white"/>
<path id="Vector_100" opacity="0.1" d="M446.495 110.382C444.409 110.17 442.349 109.755 440.34 109.141C438.188 108.303 430.223 108.957 430.223 108.957C430.223 108.957 421.076 109.535 419.389 112.252C417.701 114.968 410.421 129.663 407.927 130.586C405.432 131.508 390.685 155.92 387.669 158.066C384.652 160.212 371.658 186.393 371.658 186.393C371.658 186.393 381.261 181.732 385.655 188.556C385.769 188.732 385.883 188.908 385.989 189.101C390.212 196.712 394.141 190.844 394.141 190.844C394.141 190.844 408.122 177.75 409.239 175.469C410.356 173.189 418.622 156.037 420.75 151.301C422.878 146.564 440.894 123.166 441.497 122.127C442.101 121.087 446.495 110.382 446.495 110.382Z" fill="black"/>
<path id="Vector_101" d="M446.495 110.382C444.045 110.036 441.623 109.509 439.247 108.806C437.087 107.968 429.122 108.621 429.122 108.621C429.122 108.621 419.976 109.2 418.288 111.908C416.601 114.615 409.321 129.328 406.826 130.242C404.332 131.156 389.584 155.576 386.568 157.73C383.552 159.885 370.557 186.057 370.557 186.057C370.557 186.057 380.16 181.396 384.563 188.22C384.669 188.388 384.783 188.572 384.889 188.765C389.112 196.369 393.041 190.509 393.041 190.509C393.041 190.509 407.03 177.406 408.139 175.134C409.247 172.862 417.522 155.702 419.65 150.965C421.777 146.229 439.794 122.831 440.397 121.783C441 120.735 446.495 110.382 446.495 110.382Z" fill="#575A89"/>
<path id="Vector_102" opacity="0.1" d="M473.258 111.254C473.258 111.254 484.818 119.88 486.302 122.496C487.785 125.111 502.924 133.293 502.924 133.293C502.924 133.293 508.63 144.125 507.775 148.023C506.919 151.921 506.014 155.635 506.755 157.714C507.497 159.793 507.954 159.776 506.853 162.517C505.753 165.259 506.136 165.527 507.669 167.992C509.201 170.456 484.842 178.051 484.842 178.051C484.842 178.051 481.582 178.571 481.231 180.172C480.88 181.774 462.204 224.033 459.506 230.748C456.807 237.463 448.28 264.281 441.122 264.659C433.965 265.036 439.492 264.759 439.492 264.759C439.492 264.759 440.592 242.963 436.19 235.418C431.788 227.873 440.478 198.758 440.478 198.758C440.478 198.758 469.41 113.149 473.258 111.254Z" fill="black"/>
<path id="Vector_103" d="M473.258 111.254C473.258 111.254 485.918 120.224 487.402 122.831C488.886 125.438 504.065 133.629 504.065 133.629C504.065 133.629 509.772 144.46 508.916 148.358C508.06 152.256 507.155 155.978 507.897 158.049C508.639 160.12 509.095 160.111 507.995 162.853C506.894 165.594 507.269 165.862 508.81 168.335C510.351 170.808 485.984 178.395 485.984 178.395C485.984 178.395 482.723 178.923 482.372 180.516C482.022 182.109 463.304 224.394 460.59 231.101C457.875 237.807 449.364 264.592 442.207 264.986C435.049 265.38 440.576 265.086 440.576 265.086C440.576 265.086 441.677 243.29 437.274 235.745C432.872 228.2 441.636 199.068 441.636 199.068C441.636 199.068 469.41 113.149 473.258 111.254Z" fill="#575A89"/>
<path id="Vector_104" d="M487.948 197.542C487.948 197.542 462.302 203.411 461.503 205.087C460.704 206.764 439.492 219.766 450.62 226.045C461.747 232.324 479.234 217.201 479.234 217.201L493.092 208.105L487.948 197.542Z" fill="#FEC2BE"/>
<path id="Vector_105" d="M499.41 162.383C499.826 162.509 508.761 168.335 508.761 168.335C508.761 168.335 512.968 182.704 513.889 186.225C514.81 189.746 517.15 196.008 516.995 197.182C516.84 198.356 519.538 204.886 515.234 207.871C510.93 210.855 506.413 210.386 504.343 212.381C502.272 214.376 487.997 220.764 486.196 221.267C484.394 221.77 495.098 199.379 481.883 195.933C481.883 195.933 491.348 196.847 491.837 195.145C492.326 193.443 492.872 189 491.103 187.382C489.334 185.764 481.696 178.026 481.696 178.026L499.41 162.383Z" fill="#575A89"/>
<path id="Vector_106" opacity="0.1" d="M488.576 89.0132C487.461 88.4021 486.566 87.438 486.025 86.2635C485.152 84.5198 484.28 82.3904 482.421 81.9461C481.378 81.6862 480.114 82.0048 479.34 81.2419C478.736 80.6383 478.753 79.6575 478.745 78.794C478.772 76.8237 478.23 74.8894 477.188 73.2359C476.659 72.4204 475.939 71.7554 475.094 71.3025C474.249 70.8497 473.306 70.6237 472.353 70.6455C469.704 70.8299 467.397 73.3114 464.788 72.8168C463.639 72.5988 462.538 71.8024 461.413 72.1126C460.974 72.2544 460.569 72.4885 460.223 72.8C457.787 74.7702 455.91 77.3755 454.785 80.3449C453.709 83.1617 453.351 86.2132 452.063 88.9713C451.549 90.0443 450.563 91.1928 449.454 90.8575C447.726 90.3293 448.639 88.091 447.677 87.1102C447.284 86.7941 446.812 86.5993 446.315 86.5485C446.068 83.4184 446.476 80.2702 447.511 77.3159C448.547 74.3617 450.187 71.67 452.32 69.4224C454.452 67.1748 457.029 65.4235 459.876 64.2865C462.722 63.1494 465.773 62.6531 468.822 62.8309C471.871 63.0087 474.847 63.8565 477.55 65.3173C480.254 66.778 482.621 68.8177 484.493 71.2988C486.365 73.78 487.698 76.645 488.403 79.7007C489.107 82.7565 489.166 85.9319 488.576 89.0132Z" fill="black"/>
<path id="Vector_107" d="M449.633 90.2875C450.742 90.6228 451.728 89.4492 452.242 88.4097C453.53 85.6851 453.872 82.6001 454.965 79.7833C456.09 76.8121 457.971 74.2063 460.41 72.2384C460.753 71.9247 461.156 71.6878 461.592 71.5426C462.717 71.2408 463.826 72.0288 464.967 72.2468C467.576 72.7498 469.859 70.26 472.533 70.0756C473.486 70.0546 474.429 70.2819 475.274 70.7363C476.12 71.1906 476.839 71.8573 477.367 72.6744C478.414 74.3225 478.956 76.2556 478.924 78.2241C478.924 79.0624 478.924 80.0684 479.527 80.672C480.294 81.4432 481.557 81.1247 482.609 81.3762C484.467 81.8289 485.332 83.9498 486.212 85.6935C487.092 87.4372 488.861 89.2648 490.63 88.5103C491.16 88.2839 491.592 87.8396 492.139 87.6719C493.141 87.3282 494.34 87.8899 495.236 87.3199C496.378 86.5989 496.052 84.8049 495.31 83.6061C494.568 82.4073 493.679 81.0911 494.144 79.8085C494.444 79.1866 494.862 78.6334 495.375 78.1821C496.685 76.6257 497.365 74.6129 497.277 72.5567C497.19 70.5005 496.34 68.5569 494.902 67.1247C494.177 66.454 493.329 65.9342 492.62 65.2468C491.193 63.872 490.435 61.9438 489.359 60.2169C488.049 58.1326 486.267 56.4065 484.166 55.1869C483.249 54.6055 482.219 54.2365 481.149 54.1055C479.674 53.9881 478.223 54.5582 476.747 54.7091C471.807 55.2205 467.56 51.2049 462.726 50.0648C462.177 49.8805 461.596 49.821 461.024 49.8905C460.451 49.9599 459.899 50.1567 459.408 50.4672C458.446 51.2384 458.242 52.6217 457.777 53.8205C456.807 56.3857 454.459 58.1797 451.965 59.169C449.087 60.3007 445.443 60.9127 444.245 63.8217C443.201 66.3366 444.554 69.2205 444.008 71.8696C443.584 73.9402 442.076 75.5582 440.91 77.3019C439.745 79.0456 438.889 81.3929 439.899 83.2372C440.525 84.228 441.455 84.9748 442.541 85.3582C443.894 85.9283 446.91 85.6264 447.823 86.5486C448.736 87.4708 447.905 89.7761 449.633 90.2875Z" fill="#9A5E7F"/>
<path id="Vector_108" opacity="0.1" d="M497.927 187.575C498.416 187.625 507.326 189.251 509.421 192.336C511.516 195.421 497.927 187.575 497.927 187.575Z" fill="black"/>
<path id="Vector_109" opacity="0.1" d="M493.467 177.8C493.467 177.8 503.185 180.063 504.31 181.028C505.435 181.992 493.467 177.8 493.467 177.8Z" fill="black"/>
<path id="Vector_110" opacity="0.1" d="M496.663 153.128C496.663 153.128 503.813 156.347 504.628 158.343C505.443 160.338 496.663 153.128 496.663 153.128Z" fill="black"/>
<path id="Vector_111" opacity="0.1" d="M405.294 236.483C406.035 237.019 423.595 250.416 422.16 250.902C420.726 251.388 405.294 236.483 405.294 236.483Z" fill="black"/>
<path id="Vector_112" opacity="0.1" d="M405.163 244.866C405.163 244.866 415.451 249.979 413.731 252.117C412.011 254.255 405.163 244.866 405.163 244.866Z" fill="black"/>
<g id="Group" opacity="0.1">
<path id="Vector_113" opacity="0.1" d="M444.383 70.7376C444.848 68.4658 443.919 66.0095 444.302 63.7795C444.302 63.7795 444.302 63.7796 444.302 63.8215C443.274 66.2694 444.571 69.128 444.09 71.7436C444.212 71.4163 444.31 71.08 444.383 70.7376Z" fill="black"/>
<path id="Vector_114" opacity="0.1" d="M494.47 78.6598C494.396 78.881 494.358 79.1132 494.356 79.3472C494.662 78.9242 495.003 78.5287 495.375 78.1652C496.243 77.1896 496.838 75.9902 497.095 74.6946C496.783 75.56 496.309 76.3544 495.701 77.0335C495.188 77.4847 494.77 78.0379 494.47 78.6598Z" fill="black"/>
<path id="Vector_115" opacity="0.1" d="M495.571 86.171C494.674 86.7411 493.467 86.171 492.465 86.5231C491.918 86.7159 491.486 87.1519 490.957 87.3615C489.187 88.1159 487.41 86.2968 486.538 84.5531C485.666 82.8094 484.793 80.68 482.935 80.2273C481.891 79.9758 480.62 80.2944 479.853 79.5231C479.25 78.9279 479.266 77.9471 479.25 77.0836C479.281 75.114 478.742 73.1793 477.701 71.5255C477.17 70.7106 476.448 70.0456 475.602 69.5916C474.756 69.1376 473.813 68.909 472.859 68.9267C470.217 69.1112 467.91 71.601 465.302 71.1064C464.152 70.88 463.044 70.092 461.919 70.3938C461.483 70.5422 461.081 70.7788 460.736 71.0896C458.297 73.0575 456.416 75.6633 455.291 78.6345C454.979 79.4385 454.707 80.2583 454.476 81.0908C454.614 80.6465 454.761 80.2022 454.932 79.7662C456.057 76.795 457.938 74.1893 460.378 72.2213C460.721 71.9076 461.123 71.6707 461.56 71.5255C462.685 71.2237 463.794 72.0118 464.935 72.2297C467.544 72.7327 469.826 70.2429 472.5 70.0585C473.454 70.0375 474.397 70.2648 475.242 70.7191C476.087 71.1735 476.807 71.8402 477.334 72.6573C478.381 74.3054 478.924 76.2386 478.891 78.207C478.891 79.0453 478.891 80.0513 479.495 80.6549C480.261 81.4261 481.524 81.1076 482.576 81.3591C484.435 81.8117 485.299 83.9327 486.179 85.6764C487.06 87.4201 488.829 89.2477 490.598 88.4932C491.128 88.2668 491.56 87.8225 492.106 87.6549C493.109 87.3112 494.307 87.8728 495.204 87.3028C495.445 87.1404 495.64 86.9152 495.769 86.6501C495.898 86.385 495.956 86.0896 495.938 85.7938C495.838 85.9413 495.714 86.0691 495.571 86.171Z" fill="black"/>
<path id="Vector_116" opacity="0.1" d="M452.568 87.261C452.063 88.334 451.068 89.4742 449.959 89.1388C448.231 88.6191 449.144 86.3807 448.19 85.3999C447.236 84.4191 444.261 84.7795 442.908 84.2095C441.823 83.8238 440.893 83.0775 440.266 82.0885C439.816 81.2166 439.695 80.205 439.924 79.2466C439.634 79.8665 439.484 80.5456 439.484 81.2334C439.484 81.9213 439.634 82.6003 439.924 83.2202C440.549 84.211 441.479 84.9578 442.565 85.3412C443.918 85.9113 446.935 85.6095 447.848 86.5316C448.761 87.4538 447.889 89.7508 449.617 90.2706C450.726 90.6059 451.712 89.4323 452.226 88.3927C452.749 87.226 453.172 86.0141 453.489 84.7712C453.242 85.6234 452.935 86.4556 452.568 87.261Z" fill="black"/>
</g>
<path id="Vector_117" opacity="0.1" d="M416.193 129.429C416.193 129.429 409.174 140.201 410.014 142.456C410.853 144.711 416.193 129.429 416.193 129.429Z" fill="black"/>
<path id="Vector_118" opacity="0.1" d="M417.22 164.529C417.22 164.529 420.946 166.13 422.307 167.631C423.669 169.132 417.22 164.529 417.22 164.529Z" fill="black"/>
<path id="Vector_119" opacity="0.1" d="M425.405 175.511C425.405 175.511 433.361 177.49 434.038 178.772C434.715 180.055 425.405 175.511 425.405 175.511Z" fill="black"/>
<path id="Vector_120" opacity="0.1" d="M426.791 186.711C426.791 186.711 433.989 187.684 434.804 190.551C435.62 193.418 426.791 186.711 426.791 186.711Z" fill="black"/>
<path id="Vector_121" d="M400.712 137.745C384.986 137.745 372.245 155.459 372.245 177.305C372.245 199.152 384.986 216.857 400.712 216.857C416.438 216.857 429.188 199.144 429.188 177.305C429.188 155.467 416.446 137.745 400.712 137.745ZM396.693 208.592C384.709 208.592 375 195.748 375 179.896C375 164.043 384.709 151.208 396.693 151.208C408.677 151.208 418.394 164.051 418.394 179.896C418.394 195.74 408.685 208.592 396.693 208.592Z" fill="#636780"/>
<path id="Vector_122" d="M402.09 189.47L415.41 202.925L420.228 190.878L400.94 179.309L402.09 189.47Z" fill="#636780"/>
<path id="Vector_123" d="M421.728 56.2432L433.321 57.6934L437.625 62.9498L431.103 93.1294L417.245 141.752L408.147 175.134L401.755 195.405L397.679 222.231L393.603 240.674L381.375 253.249L356.511 223.07L352.435 213.01L342.652 192.471L367.924 180.315L395.641 177.8L408.685 143.429L419.283 103.608L421.728 56.2432Z" fill="#6C63FF"/>
<path id="Vector_124" d="M187.15 200.091L171.995 330.92L362.821 322.654L340.777 258.421L304.035 233.859L388.084 235.275L388.541 199.387L354.554 191.825L286.125 186.158L234.685 183.802L185.544 200.326" fill="#2C24AB"/>
<path id="Vector_125" d="M447.864 330.467C447.864 362.977 437.356 392.57 408.212 389.334C371.454 388.496 368.568 362.977 368.568 330.467C368.568 297.957 386.315 273.763 408.212 273.763C430.109 273.763 447.864 297.957 447.864 330.467Z" fill="#636780"/>
<path id="Vector_126" opacity="0.1" d="M448.092 330.526C448.092 305.376 437.454 285.172 422.487 277.343C403.264 281.098 388.492 303.834 388.492 333.51C388.492 360.152 390.432 382.133 411.367 389.619C438.294 390.6 448.092 361.921 448.092 330.526Z" fill="black"/>
<path id="Vector_127" d="M485.315 279.447L474.106 292.65L494.283 289.087L509.364 274.836L522.815 247.171L541.769 235.225L588.237 241.722L631.239 243.399L647.111 228.904L629.405 226.423L611.47 226.003L566.429 224.956L512.829 223.489L501.823 253.668L493.467 274.417L485.315 279.447Z" fill="#6C63FF"/>
<path id="Vector_128" d="M639.538 333.275C638.617 334.692 608.56 339.42 608.56 339.42L525.408 355.005L382.598 357.126L365.837 342.48L357.033 344.09L356.674 344.157L239.054 365.626L237.139 365.35L205.084 360.647L37.6631 336.109L39.5381 311.119L40.6468 296.364L42.9375 265.74L44.568 257.709L59.4783 256.301L66.4403 255.647L175.101 245.394L189.31 244.053L197.275 243.307L274.891 232.408L388.101 235.242L388.557 199.345L433.337 57.6682C443.209 59.3449 442.981 66.1688 442.981 66.1688L404.853 199.596L404.389 281.542C483.669 289.775 486.228 272.011 498.766 277.996L513.929 228.175L647.111 228.887C652.435 235.51 639.538 333.275 639.538 333.275Z" fill="#2C24AB"/>
<path id="Vector_129" d="M309.09 258.891L351.342 352.171L365.576 356.891L369.025 341.776L353.177 290.06L336.872 260.073L309.09 258.891Z" fill="#6C63FF"/>
<path id="Vector_130" opacity="0.15" d="M309.09 258.891L351.342 352.171L365.576 356.891L369.025 341.776L353.177 290.06L336.872 260.073L309.09 258.891Z" fill="black"/>
<path id="Vector_131" d="M281.584 450.875C323.848 450.875 358.109 410.91 358.109 361.611C358.109 312.311 323.848 272.346 281.584 272.346C239.321 272.346 205.06 312.311 205.06 361.611C205.06 410.91 239.321 450.875 281.584 450.875Z" fill="#636780"/>
<path id="Vector_132" opacity="0.1" d="M308.886 277.921C268.843 280.788 237.147 319.569 237.147 367.001C237.147 405.237 257.756 437.856 286.72 450.565C326.764 447.698 358.459 408.917 358.459 361.485C358.459 323.249 337.851 290.63 308.886 277.921Z" fill="black"/>
<path id="Vector_133" d="M76.4675 205.523L72.6767 223.908L61.0843 280.168L11.2501 275.205C11.2501 275.205 8.26637 265.765 16.0762 262.219C16.0762 262.219 18.6359 230.254 27.8479 220.186C28.8323 219.037 30.0709 218.148 31.4593 217.595L76.4675 205.523Z" fill="#6C63FF"/>
<path id="Vector_134" opacity="0.1" d="M72.6767 223.908L61.0843 280.168L11.2501 275.205C11.2501 275.205 8.26637 265.765 16.0762 262.219C16.0762 262.219 18.6359 230.254 27.8479 220.186L72.6767 223.908Z" fill="white"/>
<path id="Vector_135" d="M188.764 210.495C195.188 221.577 179.609 323.828 179.609 323.828L57.1794 303.046L61.5408 213.546C64.068 197.492 73.2555 195.606 73.2555 195.606C116.462 173.172 215.625 168.444 215.625 168.444C306.114 171.982 388.541 199.378 388.541 199.378C285.669 183.09 188.764 210.495 188.764 210.495Z" fill="#2C24AB"/>
<path id="Vector_136" opacity="0.1" d="M179.609 323.827L57.1794 303.045L61.5409 213.546C64.068 197.492 73.2555 195.606 73.2555 195.606C73.2555 195.606 162.579 186.862 188.764 210.494C195.188 221.577 179.609 323.827 179.609 323.827Z" fill="black"/>
<path id="Vector_137" d="M166.639 317.926L64.2963 300.195L67.924 223.832C70.0354 210.134 77.7066 208.524 77.7066 208.524C77.7066 208.524 152.397 201.063 174.285 221.217C179.69 230.681 166.639 317.926 166.639 317.926Z" fill="#2C24AB"/>
<path id="Vector_138" opacity="0.1" d="M158.217 281.324C165.952 281.324 172.223 269.588 172.223 255.11C172.223 240.632 165.952 228.896 158.217 228.896C150.482 228.896 144.212 240.632 144.212 255.11C144.212 269.588 150.482 281.324 158.217 281.324Z" fill="black"/>
<path id="Vector_139" d="M158.217 280.62C165.952 280.62 172.223 268.884 172.223 254.406C172.223 239.928 165.952 228.191 158.217 228.191C150.482 228.191 144.212 239.928 144.212 254.406C144.212 268.884 150.482 280.62 158.217 280.62Z" fill="#DCE0ED"/>
<path id="Vector_140" d="M160.044 235.041C160.044 235.041 154.337 235.98 157.288 243.776C160.239 251.572 160.728 255.58 160.728 255.58C160.728 255.58 166.435 258.656 166.239 248.496C166.044 238.335 160.044 235.041 160.044 235.041Z" fill="#F0F0F4"/>
<path id="Vector_141" opacity="0.1" d="M83.1278 269.219C90.3585 269.219 96.2202 258.252 96.2202 244.723C96.2202 231.195 90.3585 220.228 83.1278 220.228C75.8971 220.228 70.0354 231.195 70.0354 244.723C70.0354 258.252 75.8971 269.219 83.1278 269.219Z" fill="black"/>
<path id="Vector_142" d="M83.1278 268.507C90.3585 268.507 96.2202 257.539 96.2202 244.011C96.2202 230.482 90.3585 219.515 83.1278 219.515C75.8971 219.515 70.0354 230.482 70.0354 244.011C70.0354 257.539 75.8971 268.507 83.1278 268.507Z" fill="#DCE0ED"/>
<path id="Vector_143" d="M84.962 224.646C84.962 224.646 79.2555 225.593 82.2065 233.389C85.1576 241.186 85.6549 245.193 85.6549 245.193C85.6549 245.193 91.3614 248.261 91.1658 238.109C90.9701 227.957 84.962 224.646 84.962 224.646Z" fill="#F0F0F4"/>
<path id="Vector_144" opacity="0.1" d="M142.109 232.911C141.196 242.594 136.598 314.38 136.598 314.38L128.804 313.038L124.476 312.309L118.704 311.311L118.003 311.194L95.2664 307.296L99.7582 231.151C99.9089 228.705 100.971 226.413 102.723 224.751C104.475 223.09 106.783 222.187 109.166 222.231C109.397 222.219 109.628 222.219 109.859 222.231C111.432 222.374 113.12 222.541 114.889 222.742C115.63 222.826 116.389 222.91 117.147 223.011C119.332 223.279 121.59 223.606 123.799 223.975C124.924 224.176 126.033 224.386 127.133 224.604C128.984 224.981 130.777 225.4 132.432 225.878C133.549 226.196 134.617 226.54 135.595 226.917C139.704 228.443 142.386 230.413 142.109 232.911Z" fill="black"/>
<path id="Vector_145" d="M109.166 222.231L104.715 307.74L102.188 307.505L106.598 222.491C107.438 222.281 108.302 222.193 109.166 222.231Z" fill="#6C63FF"/>
<path id="Vector_146" d="M117.147 223.002L112.981 309.417H109.076L114.889 222.726C115.631 222.818 116.389 222.902 117.147 223.002Z" fill="#6C63FF"/>
<path id="Vector_147" d="M127.133 224.595L120.563 311.311H118.027V311.194L123.791 224.008C124.924 224.168 126.033 224.377 127.133 224.595Z" fill="#6C63FF"/>
<path id="Vector_148" d="M135.587 226.909L128.829 313.038V313.206L124.467 312.728V312.309L132.391 225.869C133.549 226.188 134.617 226.532 135.587 226.909Z" fill="#6C63FF"/>
<path id="Vector_149" opacity="0.1" d="M42.1957 293.606C42.1957 293.606 33.7582 248.798 53.0462 246.492C72.3342 244.187 135.717 249.007 133.818 267.392C131.918 285.776 129.88 313.793 129.88 313.793L116.796 310.783C116.796 310.783 126.579 268.632 111.285 267.04C95.9918 265.447 58.4103 261.012 58.4103 261.012C58.4103 261.012 48.2446 259.243 54.106 296.222L42.1957 293.606Z" fill="black"/>
<path id="Vector_150" d="M42.1957 297.856C42.1957 297.856 33.7582 250.214 53.0462 247.909C72.3342 245.604 135.717 250.424 133.818 268.808C131.918 287.193 129.88 315.21 129.88 315.21L116.796 312.2C116.796 312.2 126.579 270.049 111.285 268.456C95.9918 266.864 58.3859 262.471 58.3859 262.471C58.3859 262.471 48.2201 263.535 54.0815 300.556L42.1957 297.856Z" fill="black"/>
<path id="Vector_151" d="M382.598 357.126L365.609 356.891C353.209 300.723 332.764 265.74 332.764 265.74C325.851 261.959 250.533 262.471 250.533 262.471C242.723 263.888 240.66 289.398 240.66 289.398C240.66 289.398 247.321 295.266 240.889 299.08C238.019 300.757 228.563 301.084 217.671 300.505C204.155 299.785 188.405 297.672 180.269 295.065C165.595 290.337 177.277 281.601 177.277 281.601C177.277 281.601 179.348 278.768 180.726 263.158C181.671 254.059 184.531 245.28 189.106 237.43C189.742 236.349 190.141 235.753 190.141 235.753C190.912 234.997 191.825 234.409 192.823 234.026C212.291 225.643 307.712 233.624 307.712 233.624L343.076 245.201C344.054 245.604 345.563 248.169 347.421 252.268C358.598 276.907 382.598 357.126 382.598 357.126Z" fill="#6C63FF"/>
<path id="Vector_152" opacity="0.1" d="M382.598 357.126L365.609 356.891C353.209 300.723 332.764 265.74 332.764 265.74C325.851 261.959 250.533 262.471 250.533 262.471C242.723 263.888 240.66 289.398 240.66 289.398C240.66 289.398 247.321 295.266 240.889 299.08C238.019 300.757 228.563 301.084 217.671 300.505C204.155 299.785 188.405 297.672 180.269 295.065C165.595 290.337 177.277 281.601 177.277 281.601C177.277 281.601 179.348 278.768 180.726 263.158C181.671 254.059 184.531 245.28 189.106 237.43C189.742 236.349 190.141 235.753 190.141 235.753C190.912 234.997 191.825 234.409 192.823 234.026C212.291 225.643 307.712 233.624 307.712 233.624L343.076 245.201C344.054 245.604 345.563 248.169 347.421 252.268C358.598 276.907 382.598 357.126 382.598 357.126Z" fill="black"/>
<path id="Vector_153" d="M347.421 252.26C314.813 239.215 224.813 246.14 224.813 246.14C215.258 237.757 197.283 237.187 189.106 237.413C189.742 236.332 190.141 235.736 190.141 235.736C190.912 234.98 191.825 234.392 192.823 234.009C212.291 225.626 307.712 233.607 307.712 233.607L343.076 245.184C344.054 245.595 345.563 248.16 347.421 252.26Z" fill="#6C63FF"/>
<path id="Vector_154" d="M230.095 249.678C228.033 256.996 219.554 286.287 219.554 286.287C218.667 290.972 218.044 295.705 217.688 300.463C204.171 299.742 188.421 297.63 180.285 295.023C165.611 290.294 177.294 281.559 177.294 281.559C177.294 281.559 179.364 278.726 180.742 263.116C181.753 253.352 184.978 243.969 190.158 235.72C190.929 234.963 191.841 234.376 192.84 233.993C205.59 237.111 231.66 244.136 230.095 249.678Z" fill="#6C63FF"/>
<path id="Vector_155" opacity="0.1" d="M230.095 249.678C228.033 256.996 219.554 286.287 219.554 286.287C218.667 290.972 218.044 295.705 217.688 300.463C204.171 299.742 188.421 297.63 180.285 295.023C165.611 290.294 177.294 281.559 177.294 281.559C177.294 281.559 179.364 278.726 180.742 263.116C181.753 253.352 184.978 243.969 190.158 235.72C190.929 234.963 191.841 234.376 192.84 233.993C205.59 237.111 231.66 244.136 230.095 249.678Z" fill="white"/>
<path id="Vector_156" d="M251.112 63.7127C241.981 65.1294 238.019 84.6121 238.019 84.6121L213.22 169.803L388.541 199.379L433.321 57.7019C392.16 38.5629 251.112 63.7127 251.112 63.7127ZM392.144 154.746C392.144 154.746 391.109 162.895 384.391 163.607L270.726 159.038L247.41 158.091L239.592 157.781H239.038C239.038 157.781 230.421 159.374 231.799 151.913C231.799 151.913 241.272 81.0743 257.984 75.7594C257.984 75.7594 259.72 75.3821 262.761 74.7953C267.538 73.8648 275.511 72.4061 284.902 71.0731C289.109 70.4779 293.601 69.9079 298.223 69.3965C310.851 68.0719 324.424 67.3594 335.658 68.4743C335.658 68.4743 419.356 60.5019 413.332 79.6324C413.348 79.6576 395.78 148.903 392.16 154.746H392.144Z" fill="#2C24AB"/>
<path id="Vector_157" d="M239.609 157.781H239.054C239.054 157.781 230.438 159.374 231.815 151.913C231.815 151.913 241.288 81.0742 258 75.7592C258 75.7592 259.737 75.382 262.777 74.7952C256.712 86.9676 237.245 128.641 239.609 157.781Z" fill="#6C63FF"/>
<path id="Vector_158" opacity="0.1" d="M239.609 157.781H239.054C239.054 157.781 230.438 159.374 231.815 151.913C231.815 151.913 241.288 81.0742 258 75.7592C258 75.7592 259.737 75.382 262.777 74.7952C256.712 86.9676 237.245 128.641 239.609 157.781Z" fill="black"/>
<path id="Vector_159" opacity="0.1" d="M255.041 332.512C254.043 334.421 252.537 335.998 250.699 337.058C248.861 338.118 246.767 338.618 244.663 338.498L241.15 338.339L208.044 336.872L196.109 336.344L185.087 335.405L39.5381 311.093L40.6468 296.339L57.3832 298.804L64.3126 299.826L167.071 314.916L180.595 316.962L187.158 317.926L214.948 317.716L245.03 317.49C246.548 317.46 248.056 317.745 249.465 318.328C252.048 319.382 254.136 321.421 255.294 324.02C255.909 325.355 256.208 326.821 256.164 328.298C256.12 329.774 255.735 331.219 255.041 332.512Z" fill="black"/>
<path id="Vector_160" d="M255.041 333.929C254.043 335.838 252.537 337.415 250.699 338.475C248.861 339.535 246.767 340.035 244.663 339.915L196.109 337.761L185.087 336.813L29.8696 310.917L17.6413 308.88L11.0218 307.74C-2.06246 304.907 1.84244 291.443 1.84244 291.443C2.75548 285.298 25.2636 279.631 32.6087 279.874C37.549 280.034 38.2337 287.855 38.1522 292.977C38.1522 295.492 37.8913 297.345 37.8913 297.345L45.1549 298.418L187.158 319.309L245.038 318.873C247.183 318.834 249.293 319.433 251.114 320.599C252.936 321.766 254.39 323.449 255.302 325.446C255.915 326.78 256.211 328.245 256.166 329.72C256.12 331.195 255.735 332.638 255.041 333.929Z" fill="black"/>
<path id="Vector_161" opacity="0.1" d="M22.0436 288.408C22.0436 288.408 28.2474 296.196 37.8914 297.378C37.8914 297.378 33.9865 288.643 22.0436 288.408Z" fill="black"/>
<path id="Vector_162" opacity="0.1" d="M20.4375 310.372C20.4375 310.372 0 309.895 0 321.271C0 332.647 12.8641 334.499 12.8641 334.499L195.424 370.614L247.321 371.553C247.321 371.553 265.459 356.681 246.628 350.067L194.283 351.459L20.2092 318.638C20.2092 318.638 24.7989 312.259 20.4375 310.372Z" fill="black"/>
<path id="Vector_163" d="M247.321 372.945L195.424 372.006L33.0978 339.881L21.2201 337.526L12.8641 335.849C12.8641 335.849 0 333.954 0 322.62C0 314.489 10.5326 312.435 16.4755 311.923C18.8152 311.73 20.4375 311.764 20.4375 311.764C24.7989 313.65 20.2092 320.021 20.2092 320.021L26.5435 321.22L194.283 352.875L246.636 351.459C265.459 358.039 247.321 372.945 247.321 372.945Z" fill="black"/>
<path id="Vector_164" d="M35.8207 301.159L46.6141 296.196L52.125 295.962L51.6685 343.662L34.6793 340.125L27.5544 335.405L24.1141 315.57C24.1141 315.57 25.4919 307.304 26.1766 306.6C26.8614 305.896 35.8207 301.159 35.8207 301.159Z" fill="#DCE0ED"/>
<path id="Vector_165" opacity="0.1" d="M35.8207 301.159L46.6141 296.196L52.125 295.962L51.6685 343.662L34.6793 340.125L27.5544 335.405L24.1141 315.57C24.1141 315.57 25.4919 307.304 26.1766 306.6C26.8614 305.896 35.8207 301.159 35.8207 301.159Z" fill="black"/>
<path id="Vector_166" opacity="0.1" d="M33.0979 339.881L33.2935 340.124L21.3587 337.76L21.2202 337.526C14.9348 327.088 14.3886 318.638 16.4756 311.932C18.8153 311.739 20.4375 311.772 20.4375 311.772C24.799 313.658 20.2093 320.03 20.2093 320.03L26.5435 321.229C26.1196 330.584 31.9321 338.406 33.0979 339.881Z" fill="black"/>
<path id="Vector_167" opacity="0.1" d="M50.7555 296.003C48.7337 296.797 46.8669 297.635 45.1549 298.518C37.4267 302.341 32.6577 306.633 29.8696 310.984L17.6414 308.947C22.9321 297.647 35.5761 292.482 35.5761 292.482L38.1359 293.078L50.7555 296.003Z" fill="black"/>
<path id="Vector_168" d="M36.9458 292.424C36.9458 292.424 3.42402 306.122 22.7121 337.76L34.655 340.124C34.655 340.124 11.0137 312.259 52.1006 295.962L36.9458 292.424Z" fill="black"/>
<path id="Vector_169" d="M116.886 307.774L129.285 307.304L127.215 358.543L107.234 354.77L98.7392 350.52L94.8343 340.359L92.0789 330.207L98.7392 320.994L106.321 315.805L116.886 307.774Z" fill="#DCE0ED"/>
<path id="Vector_170" opacity="0.1" d="M116.886 307.774L129.285 307.304L127.215 358.543L107.234 354.77L98.7392 350.52L94.8343 340.359L92.0789 330.207L98.7392 320.994L106.321 315.805L116.886 307.774Z" fill="black"/>
<path id="Vector_171" d="M115.508 344.61C118.804 344.61 121.476 339.959 121.476 334.223C121.476 328.486 118.804 323.836 115.508 323.836C112.212 323.836 109.541 328.486 109.541 334.223C109.541 339.959 112.212 344.61 115.508 344.61Z" fill="#DCE0ED"/>
<path id="Vector_172" d="M72.1631 363.204C70.4429 354.175 63.7256 352.222 63.7256 352.222C63.7256 352.222 50.8044 348.332 50.462 363.07C50.462 363.07 50.6332 372.107 56.4946 374.94L56.837 385C56.837 385 57.3506 394.389 52.1821 393.501C47.0136 392.612 47.7065 384.279 47.7065 384.279C47.7065 384.279 44.9511 375.426 38.2337 380.029C38.2337 380.029 36.6848 384.992 40.1332 387.473C42.1386 388.915 42.212 391.866 41.9266 394.079C41.726 395.446 41.8144 396.841 42.1858 398.169C42.5573 399.497 43.2029 400.727 44.0788 401.775C45.0699 402.996 46.3602 403.923 47.8164 404.46C49.2726 404.996 50.8417 405.123 52.3614 404.826C55.1422 404.265 57.6644 402.773 59.5353 400.585C62.6874 397.064 64.459 392.468 64.5082 387.683L64.7609 374.722C64.7609 374.722 73.8832 372.241 72.1631 363.204ZM61.5652 372.325C60.1141 372.325 58.6956 371.882 57.489 371.053C56.2825 370.224 55.3421 369.046 54.7868 367.667C54.2314 366.288 54.0862 364.771 54.3693 363.308C54.6524 361.844 55.3511 360.5 56.3772 359.445C57.4033 358.389 58.7106 357.671 60.1339 357.38C61.5571 357.089 63.0323 357.238 64.373 357.809C65.7136 358.38 66.8595 359.347 67.6657 360.588C68.4719 361.829 68.9022 363.287 68.9022 364.78C68.8936 366.773 68.1179 368.683 66.7446 370.09C65.3714 371.498 63.5122 372.289 61.5734 372.291L61.5652 372.325Z" fill="black"/>
<path id="Vector_173" d="M58.5653 348.323C58.148 348.503 57.7714 348.769 57.4597 349.106C57.1479 349.443 56.9077 349.843 56.7544 350.281C56.6011 350.718 56.5379 351.184 56.569 351.648C56.6001 352.112 56.7247 352.564 56.9349 352.976C58.2881 355.583 59.9104 358.953 59.7555 359.842C59.4946 361.343 62.7718 360.11 63.1957 359.75C63.6196 359.389 69.5707 359.75 69.9131 355.558C70.2555 351.366 66.7338 349.178 66.7338 349.178L68.1115 340.057L59.9593 339.353L60.049 347.678L58.5653 348.323Z" fill="#636780"/>
<path id="Vector_174" opacity="0.1" d="M58.5653 348.323C58.148 348.503 57.7714 348.769 57.4597 349.106C57.1479 349.443 56.9077 349.843 56.7544 350.281C56.6011 350.718 56.5379 351.184 56.569 351.648C56.6001 352.112 56.7247 352.564 56.9349 352.976C58.2881 355.583 59.9104 358.953 59.7555 359.842C59.4946 361.343 62.7718 360.11 63.1957 359.75C63.6196 359.389 69.5707 359.75 69.9131 355.558C70.2555 351.366 66.7338 349.178 66.7338 349.178L68.1115 340.057L59.9593 339.353L60.049 347.678L58.5653 348.323Z" fill="black"/>
<path id="Vector_175" opacity="0.1" d="M60.799 348.156C60.799 348.156 63.5544 357.897 62.3479 358.216C61.1414 358.534 60.799 348.156 60.799 348.156Z" fill="black"/>
<path id="Vector_176" opacity="0.1" d="M63.8969 345.85C63.8969 345.85 66.6523 355.592 65.4458 355.91C64.2392 356.229 63.8969 345.85 63.8969 345.85Z" fill="black"/>
<path id="Vector_177" d="M96.9131 316.509L92.3153 345.792C92.3153 345.792 86.6088 344.995 83.4946 344.299C82.8081 344.202 82.1417 343.989 81.5218 343.671C81.3588 343.503 81.0245 343.52 80.5762 343.612C79.0436 343.93 76.3207 345.23 75.7908 344.132C75.7527 344.047 75.7003 343.971 75.636 343.905C75.0979 343.302 74.0544 343.738 73.0436 343.905C72.4931 344.052 71.9088 343.974 71.4131 343.687C70.5979 343.101 68.8452 344.039 67.443 344.35C66.5544 344.551 65.8126 344.509 65.4376 343.687C65.3029 343.42 65.1085 343.19 64.8704 343.015C64.6324 342.84 64.3574 342.726 64.068 342.681C62.7474 342.338 60.8968 342.572 59.8289 342.338C59.405 342.254 59.1197 342.086 59.0137 341.793C58.8017 341.156 57.6196 340.854 56.3561 340.602C54.8153 340.301 53.1604 340.074 53.0381 339.437C53.0381 339.219 52.8506 339.127 52.6224 339.118C51.7683 339.252 50.9279 339.465 50.1115 339.756C49.4267 339.94 48.8479 339.94 48.6849 339.437C48.5218 338.934 47.7148 338.934 46.8099 339.16C46.0843 339.345 45.2773 339.638 44.6577 339.789C44.0381 339.94 43.6957 339.94 43.6305 339.663C43.4023 338.724 40.4186 340.854 39.7338 338.959C39.049 337.065 29.6088 324.506 41.837 308.243C41.837 308.243 45.0979 308.478 47.6414 308.947C48.4846 309.063 49.3078 309.3 50.087 309.651C50.9593 310.163 52.8262 310.054 54.5137 310.179C55.3624 310.191 56.1979 310.397 56.9593 310.783C57.2621 310.953 57.5047 311.217 57.6523 311.538C58.0354 312.435 58.9158 312.619 59.8778 312.569C61.1821 312.485 62.6332 311.982 63.1387 312.25H63.1876C64.1495 312.678 67.7528 312.25 68.3642 312.879L68.4131 312.938C68.674 313.332 70.0436 312.938 71.5273 312.72C72.6441 312.569 73.7691 312.552 74.3805 313.181C75.0116 313.696 75.8123 313.939 76.6142 313.86C77.591 313.787 78.5726 313.826 79.5408 313.977C79.7642 314.045 79.9647 314.175 80.1196 314.354C80.6985 315.1 82.1006 315 83.3805 315.067C84.0205 315.039 84.6546 315.202 85.2066 315.536C85.4047 315.678 85.6297 315.775 85.8669 315.821C87.6278 316.241 91.4023 315.536 91.4023 315.536L96.9131 316.509Z" fill="#636780"/>
<path id="Vector_178" opacity="0.1" d="M46.8099 339.144C46.0843 339.328 45.2772 339.621 44.6577 339.772C35.3316 324.892 43.1821 313.592 47.6006 308.947C48.4438 309.063 49.267 309.3 50.0463 309.651C40.6631 320.768 45.0164 334.65 46.8099 339.144Z" fill="black"/>
<path id="Vector_179" opacity="0.1" d="M52.6305 339.102C51.7765 339.235 50.936 339.449 50.1196 339.739C42.1386 325.228 50.3479 314.371 54.4973 310.188C55.346 310.2 56.1815 310.406 56.943 310.792C48.0163 320.835 50.6658 333.334 52.6305 339.102Z" fill="black"/>
<path id="Vector_180" opacity="0.1" d="M59.8288 342.321C59.4049 342.237 59.1196 342.069 59.0136 341.776C58.8016 341.139 57.6196 340.837 56.356 340.586C49.3533 327.441 55.6141 317.339 59.8614 312.577C61.1658 312.493 62.6168 311.99 63.1223 312.259H63.1712C53.3234 323.668 58.0924 338.087 59.8288 342.321Z" fill="black"/>
<path id="Vector_181" opacity="0.1" d="M67.4511 344.333C66.5626 344.534 65.8207 344.492 65.4457 343.671C65.311 343.403 65.1166 343.173 64.8786 342.998C64.6405 342.823 64.3655 342.709 64.0761 342.665C55.924 328.019 64.2392 317.071 68.3887 312.904L68.4376 312.963C68.6984 313.357 70.068 312.963 71.5517 312.745C59.943 324.792 65.9104 340.787 67.4511 344.333Z" fill="black"/>
<path id="Vector_182" opacity="0.1" d="M75.6196 343.897C75.0816 343.293 74.0381 343.729 73.0272 343.897C64.5164 329.36 72.3343 318.378 76.6386 313.893C77.6154 313.82 78.597 313.86 79.5653 314.011C69.6278 325.001 73.7283 339.009 75.6196 343.897Z" fill="black"/>
<path id="Vector_183" opacity="0.1" d="M83.4946 344.299C82.8081 344.202 82.1417 343.989 81.5218 343.671C81.3587 343.503 81.0245 343.52 80.5761 343.612C73.0354 330.333 79.0517 320.08 83.3805 315.109C84.0204 315.081 84.6545 315.244 85.2066 315.578C85.4047 315.72 85.6297 315.817 85.8669 315.863C77.6169 326.795 81.7826 339.974 83.4946 344.299Z" fill="black"/>
<path id="Vector_184" d="M306.106 422.54C326.776 422.54 343.533 397.168 343.533 365.869C343.533 334.571 326.776 309.199 306.106 309.199C285.436 309.199 268.679 334.571 268.679 365.869C268.679 397.168 285.436 422.54 306.106 422.54Z" fill="#636780"/>
<path id="Vector_185" opacity="0.1" d="M304.842 412.623C319.871 412.623 332.054 392.058 332.054 366.691C332.054 341.324 319.871 320.759 304.842 320.759C289.814 320.759 277.63 341.324 277.63 366.691C277.63 392.058 289.814 412.623 304.842 412.623Z" fill="black"/>
<path id="Vector_186" d="M304.842 411.206C319.871 411.206 332.054 390.642 332.054 365.274C332.054 339.907 319.871 319.343 304.842 319.343C289.814 319.343 277.63 339.907 277.63 365.274C277.63 390.642 289.814 411.206 304.842 411.206Z" fill="#F0F0F4"/>
<path id="Vector_187" d="M309.774 340.124C311.548 340.124 312.986 337.587 312.986 334.457C312.986 331.328 311.548 328.79 309.774 328.79C308.001 328.79 306.562 331.328 306.562 334.457C306.562 337.587 308.001 340.124 309.774 340.124Z" fill="#636780"/>
<path id="Vector_188" d="M322.639 389.72C324.412 389.72 325.851 387.183 325.851 384.053C325.851 380.923 324.412 378.386 322.639 378.386C320.865 378.386 319.427 380.923 319.427 384.053C319.427 387.183 320.865 389.72 322.639 389.72Z" fill="#636780"/>
<path id="Vector_189" d="M287.959 366.104C289.733 366.104 291.171 363.567 291.171 360.437C291.171 357.307 289.733 354.77 287.959 354.77C286.185 354.77 284.747 357.307 284.747 360.437C284.747 363.567 286.185 366.104 287.959 366.104Z" fill="#636780"/>
<path id="Vector_190" d="M297.375 399.159C299.149 399.159 300.587 396.622 300.587 393.492C300.587 390.362 299.149 387.825 297.375 387.825C295.601 387.825 294.163 390.362 294.163 393.492C294.163 396.622 295.601 399.159 297.375 399.159Z" fill="#636780"/>
<path id="Vector_191" d="M580.06 261.012C580.06 261.012 606.962 334.692 605.552 339.295C605.552 339.295 616.916 346.378 619.671 344.61C622.427 342.841 620.022 310.238 620.022 310.238L614.853 281.551L608.992 264.55L580.06 261.012Z" fill="#6C63FF"/>
<path id="Vector_192" opacity="0.15" d="M580.06 261.012C580.06 261.012 606.962 334.692 605.552 339.295C605.552 339.295 616.916 346.378 619.671 344.61C622.427 342.841 620.022 310.238 620.022 310.238L614.853 281.551L608.992 264.55L580.06 261.012Z" fill="black"/>
<path id="Vector_193" d="M327.228 359.02C329.002 359.02 330.44 356.483 330.44 353.353C330.44 350.223 329.002 347.686 327.228 347.686C325.454 347.686 324.016 350.223 324.016 353.353C324.016 356.483 325.454 359.02 327.228 359.02Z" fill="#636780"/>
<path id="Vector_194" d="M309.775 380.507C314.975 380.507 319.19 374.479 319.19 367.043C319.19 359.607 314.975 353.58 309.775 353.58C304.574 353.58 300.359 359.607 300.359 367.043C300.359 374.479 304.574 380.507 309.775 380.507Z" fill="#636780"/>
<path id="Vector_195" d="M610.044 359.49C610.044 402.135 596.266 440.958 558.033 436.708C509.813 435.643 506.022 402.135 506.022 359.49C506.022 316.844 529.288 285.105 558.016 285.105C586.745 285.105 610.044 316.836 610.044 359.49Z" fill="#636780"/>
<path id="Vector_196" opacity="0.1" d="M610.329 359.557C610.329 326.544 596.372 300.036 576.734 289.792C551.519 294.721 532.141 324.548 532.141 363.455C532.141 398.405 534.693 427.168 562.15 437.06C597.473 438.368 610.329 400.794 610.329 359.557Z" fill="black"/>
<path id="Vector_197" opacity="0.1" d="M630.351 341.424C630.351 341.424 623.462 347.443 619.671 343.193C619.671 343.193 610.37 266.679 598.663 266.327L558.359 265.975C558.359 265.975 553.541 268.096 551.47 277.309L525.383 353.596L382.598 355.709L371.69 332.236L489.84 332.588V332.538C490.476 330.182 510.22 257.692 523.484 248.705C523.934 248.392 524.425 248.147 524.943 247.976C524.943 247.976 574.198 241.27 590.389 245.847C590.389 245.847 607.264 249.745 611.397 255.068C611.951 255.664 618.342 263.066 620.323 284.41L630.351 341.424Z" fill="black"/>
<path id="Vector_198" d="M630.351 342.841C630.351 342.841 623.462 348.86 619.671 344.609C619.671 344.609 610.37 268.096 598.663 267.744L558.359 267.392C558.359 267.392 553.541 269.513 551.47 278.726L525.383 355.013L382.598 357.126L371.69 333.653L489.84 334.005V333.954C490.476 331.599 510.22 259.109 523.484 250.122C523.934 249.809 524.425 249.563 524.943 249.393C524.943 249.393 574.198 242.686 590.389 247.263C590.389 247.263 607.264 251.162 611.397 256.485V256.527C611.951 257.122 618.342 264.525 620.323 285.868L630.351 342.841Z" fill="#6C63FF"/>
<path id="Vector_199" opacity="0.1" d="M630.351 342.841C630.351 342.841 623.462 348.86 619.671 344.609C619.671 344.609 610.37 268.096 598.663 267.744L558.359 267.392C558.359 267.392 553.541 269.513 551.47 278.726L525.383 355.013L382.598 357.126L371.69 333.653L489.84 334.005V333.954C490.476 331.599 510.22 259.109 523.484 250.122C523.934 249.809 524.425 249.563 524.943 249.393C524.943 249.393 574.198 242.686 590.389 247.263C590.389 247.263 607.264 251.162 611.397 256.485V256.527C611.951 257.122 618.342 264.525 620.323 285.868L630.351 342.841Z" fill="black"/>
<path id="Vector_200" d="M542.862 259.243C539.413 265.95 509.796 348.86 509.796 348.86L489.815 333.98V333.929C490.451 331.574 510.196 259.008 523.476 250.097C532.117 251.572 545.201 254.674 542.862 259.243Z" fill="#6C63FF"/>
<path id="Vector_201" d="M504.285 221.342L488.095 275.884L403.704 273.369L404.389 281.517C404.389 281.517 470.527 291.435 498.766 277.971L513.929 228.149L647.111 228.854L621.742 222.717L504.285 221.342Z" fill="#6C63FF"/>
<path id="Vector_202" opacity="0.1" d="M504.285 221.342L488.095 275.884L403.704 273.369L404.389 281.517C404.389 281.517 470.527 291.435 498.766 277.971L513.929 228.149L647.111 228.854L621.742 222.717L504.285 221.342Z" fill="white"/>
<path id="Vector_203" opacity="0.1" d="M108.62 307.296C108.62 307.296 63.3832 330.677 96.9049 352.641L105.872 354.762C105.872 354.762 73.0354 330.45 127.883 307.296H108.62Z" fill="black"/>
<path id="Vector_204" d="M109.997 307.296C109.997 307.296 64.761 330.677 98.2827 352.641L107.25 354.762C107.25 354.762 74.4132 330.45 129.261 307.296H109.997Z" fill="black"/>
<path id="Vector_205" d="M577.989 409.789C591.874 409.789 603.13 389.964 603.13 365.509C603.13 341.053 591.874 321.229 577.989 321.229C564.104 321.229 552.848 341.053 552.848 365.509C552.848 389.964 564.104 409.789 577.989 409.789Z" fill="#636780"/>
<path id="Vector_206" opacity="0.1" d="M577.141 402.345C587.236 402.345 595.419 386.281 595.419 366.465C595.419 346.649 587.236 330.584 577.141 330.584C567.047 330.584 558.864 346.649 558.864 366.465C558.864 386.281 567.047 402.345 577.141 402.345Z" fill="black"/>
<path id="Vector_207" d="M577.141 400.928C587.236 400.928 595.419 384.864 595.419 365.048C595.419 345.232 587.236 329.167 577.141 329.167C567.047 329.167 558.864 345.232 558.864 365.048C558.864 384.864 567.047 400.928 577.141 400.928Z" fill="#F0F0F4"/>
<path id="Vector_208" d="M580.459 345.398C581.652 345.398 582.62 343.416 582.62 340.971C582.62 338.527 581.652 336.545 580.459 336.545C579.266 336.545 578.299 338.527 578.299 340.971C578.299 343.416 579.266 345.398 580.459 345.398Z" fill="#636780"/>
<path id="Vector_209" d="M589.101 384.145C590.294 384.145 591.261 382.163 591.261 379.719C591.261 377.274 590.294 375.292 589.101 375.292C587.907 375.292 586.94 377.274 586.94 379.719C586.94 382.163 587.907 384.145 589.101 384.145Z" fill="#636780"/>
<path id="Vector_210" d="M565.802 365.693C566.995 365.693 567.962 363.712 567.962 361.267C567.962 358.823 566.995 356.841 565.802 356.841C564.609 356.841 563.641 358.823 563.641 361.267C563.641 363.712 564.609 365.693 565.802 365.693Z" fill="#636780"/>
<path id="Vector_211" d="M572.128 391.522C573.321 391.522 574.288 389.54 574.288 387.096C574.288 384.651 573.321 382.669 572.128 382.669C570.935 382.669 569.967 384.651 569.967 387.096C569.967 389.54 570.935 391.522 572.128 391.522Z" fill="#636780"/>
<path id="Vector_212" d="M592.182 360.16C593.375 360.16 594.342 358.179 594.342 355.734C594.342 353.289 593.375 351.308 592.182 351.308C590.989 351.308 590.022 353.289 590.022 355.734C590.022 358.179 590.989 360.16 592.182 360.16Z" fill="#636780"/>
<path id="Vector_213" d="M580.459 376.944C583.953 376.944 586.785 372.237 586.785 366.431C586.785 360.625 583.953 355.918 580.459 355.918C576.965 355.918 574.133 360.625 574.133 366.431C574.133 372.237 576.965 376.944 580.459 376.944Z" fill="#636780"/>
<path id="Vector_214" opacity="0.1" d="M212.87 168.578C212.87 168.578 289.345 171.412 388.541 199.395L212.87 168.578Z" fill="black"/>
<path id="Vector_215" d="M577.72 30.9004C577.72 30.9004 573.571 31.5878 575.731 37.2214C577.891 42.8549 578.25 45.7639 578.25 45.7639C578.25 45.7639 582.408 47.9855 582.236 40.6334C582.065 33.2812 577.72 30.9004 577.72 30.9004Z" fill="#DCE0ED"/>
<path id="Vector_216" d="M374.315 145.105L374.266 145.172C373.397 146.288 372.834 147.622 372.636 149.037C371.967 153.514 371.332 162.685 377.666 161.168C381.229 160.35 384.499 158.524 387.106 155.895C387.823 155.113 388.377 154.19 388.738 153.181C389.098 152.172 389.255 151.099 389.201 150.026C389.208 149.018 388.973 148.024 388.517 147.132C388.06 146.24 387.396 145.477 386.584 144.913L384.228 143.521C383.564 143.115 382.8 142.911 382.027 142.934L377.951 143.085C377.241 143.141 376.551 143.35 375.925 143.698C375.298 144.046 374.75 144.526 374.315 145.105Z" fill="#FEC2BE"/>
<path id="Vector_217" d="M420.098 68.3987L407.927 130.586L399.31 149.297L405.016 160.195L417.652 129.596C417.652 129.596 431.511 84.746 431.511 83.4885C431.511 82.231 420.098 68.3987 420.098 68.3987Z" fill="#2C24AB"/>
</g>
<defs>
<linearGradient id="paint0_linear" x1="269.707" y1="246.601" x2="269.707" y2="128.993" gradientUnits="userSpaceOnUse">
<stop stop-color="#808080" stop-opacity="0.25"/>
<stop offset="0.54" stop-color="#808080" stop-opacity="0.12"/>
<stop offset="1" stop-color="#808080" stop-opacity="0.1"/>
</linearGradient>
</defs>
</svg>
