<svg viewBox="0 0 807 536" fill="none" xmlns="http://www.w3.org/2000/svg">
  <path d="M806.475 420.589c-20.847 41.886-49.21 69.636-81.065 87.295a197.132 197.132 0 01-28.623 12.984c-57.966 20.986-122.842 15.419-173.803 4.338a658.213 658.213 0 00-108.5-14.309 658.463 658.463 0 00-31.239-.729 645.509 645.509 0 00-48.209 1.87C230.622 520.041 70.464 505.046 0 356.227L176.305 0l65.617 175.743 20.941 56.098 57.715-82.619 29.801-42.658 135.716 162.313 38.359-88.371 265.572 226.089 14.812 12.602 1.637 1.392z" fill="#D4D1D1"/>
  <path opacity=".1" d="M160.508 124.783l27.102-61.981 37.525 90.253-32.314-65.243-32.313 36.971zm263.196 396.721a661.136 661.136 0 00-31.239-.729L272.083 242.448l151.621 279.056zm-93.905-361.676l29.8-24.172 135.507 163.108-137.592-139.185-27.715.249zM734.63 518.492a197.18 197.18 0 01-28.623 12.984L495.314 279.485 734.63 518.492z" fill="#000"/>
</svg>
