<svg width="994" height="654" viewBox="0 0 994 654" fill="none" xmlns="http://www.w3.org/2000/svg">
<path d="M8.19362e-05 514.077C25.6795 565.273 60.6163 599.191 99.8543 620.776C111.193 627.001 122.981 632.307 135.112 636.645C206.513 662.296 286.428 655.491 349.201 641.948C393.229 632.441 437.92 626.592 482.849 624.457C495.663 623.859 508.49 623.562 521.329 623.567C541.128 623.593 560.923 624.355 580.713 625.853C709.328 635.635 906.609 617.307 993.405 435.408L776.235 0L695.409 214.807L669.615 283.374L598.521 182.39L561.813 130.25L394.64 328.643L347.39 220.628L20.2611 496.972L2.016 512.376L8.19362e-05 514.077Z" fill="#D4D1D1"/>
<path opacity="0.1" d="M795.694 152.519L762.31 76.7607L716.088 187.075L755.891 107.33L795.694 152.519Z" fill="black"/>
<path opacity="0.1" d="M471.492 637.422C484.306 636.824 497.132 636.528 509.972 636.532L658.257 296.339L471.492 637.422Z" fill="black"/>
<path opacity="0.1" d="M587.163 195.354L550.456 165.81L383.54 365.172L553.024 195.049L587.163 195.354Z" fill="black"/>
<path opacity="0.1" d="M88.4971 633.742C99.8355 639.967 111.623 645.273 123.755 649.611L383.283 341.609L88.4971 633.742Z" fill="black"/>
</svg>
