<svg width="200" height="65" viewBox="0 0 200 65" fill="none" xmlns="http://www.w3.org/2000/svg">
<path fill-rule="evenodd" clip-rule="evenodd" d="M31.6927 40.8322C30.2492 40.79 29.1204 40.9727 28.1761 41.4925C27.9048 41.6331 27.4706 41.6331 27.4381 42.0827C27.5792 42.2653 27.6009 42.5745 27.7311 42.8274C27.9796 43.3721 28.2991 43.857 28.6754 44.2606L29.8367 45.3425C30.5422 45.9045 31.3345 46.2277 32.0292 46.7897C32.4307 47.1129 32.8215 47.5345 33.1145 47.8857C33.3099 48.0684 33.4401 48.3775 33.6898 48.4899V48.4197C33.5595 48.2089 33.527 47.8998 33.3967 47.675L32.854 47.0005C32.3251 46.0939 31.6919 45.2978 30.9764 44.64C30.4011 44.1201 29.1312 43.4175 28.8925 42.5604L28.8599 42.5183C29.2615 42.4761 29.7282 42.2794 30.1081 42.1389C30.7267 41.9281 31.2803 41.9703 31.9206 41.7595L32.7889 41.4363V41.2256C32.4633 40.8041 32.2245 40.242 31.8881 39.8486C30.9655 38.8229 29.9561 37.8112 28.9033 36.9681C28.3389 36.5045 27.6226 36.1953 27.0256 35.8019C26.8086 35.6614 26.4504 35.5912 26.3201 35.3523C25.9945 34.8324 25.81 34.158 25.5821 33.5538L24.0951 29.479C23.7695 28.5657 23.5742 27.6524 23.1726 26.8093C21.4964 23.119 19.0765 20.0882 16.172 18.0415C15.4991 17.5497 14.7067 17.339 13.8602 17.0861L12.5035 16.9877C12.2104 16.8191 11.9282 16.3835 11.6677 16.1728C10.6366 15.3297 7.97749 13.5031 7.32627 15.9198C6.83786 17.4373 8.05347 18.9408 8.4659 19.7136C8.76981 20.2475 9.17139 20.8658 9.38846 21.47C9.51871 21.8634 9.55127 22.2849 9.68151 22.7064L10.6258 25.8398C10.8217 26.3434 11.0467 26.8272 11.2987 27.287C11.4398 27.54 11.7003 27.6664 11.7546 28.088C11.5049 28.5516 11.4832 29.2542 11.3421 29.8443C10.6909 32.4859 10.9405 35.7738 11.8631 37.7128C12.1561 38.303 12.9485 39.5816 13.7625 39.0898C14.5765 38.6683 14.392 37.3335 14.6308 36.1672C14.685 35.8862 14.6525 35.7036 14.761 35.5068V35.549L15.4991 37.488C16.0635 38.6402 17.0403 39.8345 17.8543 40.6214C18.2884 41.0429 18.6358 41.7736 19.1784 42.0265V41.9562H19.1025C18.9939 41.7455 18.8311 41.6471 18.69 41.4925C18.3462 41.0584 18.0303 40.5884 17.7458 40.0875C16.9795 38.7434 16.3006 37.3194 15.7161 35.83C15.4231 35.0994 15.1735 34.3125 14.9347 33.5819C14.8261 33.3009 14.8261 32.8793 14.6416 32.7388C14.3703 33.2587 13.9687 33.6943 13.7733 34.3266C13.426 35.3382 13.3935 36.5747 13.2632 37.8674C12.612 37.7269 12.4166 36.9541 12.1996 36.2937C11.6569 34.6357 11.57 31.9379 12.0368 30.041C12.167 29.5492 12.7097 28.0036 12.4926 27.54C12.3841 27.0903 12.0259 26.8374 11.8197 26.4861C11.5809 26.0365 11.3313 25.4745 11.1685 24.9827C10.8537 23.6619 10.5281 22.2006 10.0614 20.8939C9.84432 20.2897 9.46444 19.6714 9.14968 19.1094C8.81322 18.4631 8.43334 18.0134 8.162 17.2828C8.06432 17.0018 7.94493 16.5802 8.08603 16.2992C8.11859 16.1166 8.19456 16.0463 8.33566 15.9901C8.57444 15.7372 9.23651 16.0603 9.47529 16.2009C10.1482 16.5521 10.7018 16.8753 11.2661 17.3671C11.5158 17.6059 11.7871 18.0415 12.1127 18.168H12.4926C13.0678 18.3366 13.7191 18.2101 14.2617 18.4209C15.2169 18.8143 16.0852 19.4045 16.8666 20.0368C19.2618 22.0135 21.2093 24.7771 22.5105 28.0458C22.7276 28.5797 22.8144 29.0715 23.0206 29.6336L24.2471 33.076C24.627 34.172 24.9851 35.2961 25.5278 36.2094C25.7992 36.7012 26.8845 36.9541 27.3729 37.2211C27.7311 37.4318 28.2955 37.6145 28.6211 37.8815L30.4337 39.4692C30.7267 39.7502 31.519 40.3404 31.6818 40.8041L31.6927 40.8322Z" fill="#00678C"/>
<path fill-rule="evenodd" clip-rule="evenodd" d="M13.2415 20.4724C12.9376 20.4724 12.7205 20.5146 12.5034 20.5848V20.627H12.536C12.6771 21.0063 12.9376 21.2593 13.1112 21.5824L13.5237 22.7065L13.5562 22.6644C13.8059 22.4255 13.9361 22.0602 13.9361 21.4981C13.8276 21.3295 13.8059 21.175 13.719 21.0063C13.6105 20.7675 13.3717 20.6551 13.2306 20.4724H13.2415Z" fill="#00678C"/>
<path fill-rule="evenodd" clip-rule="evenodd" d="M109.231 46.9303H124.796C126.619 46.9303 128.356 46.4525 129.767 45.5954C132.122 44.1903 133.24 42.3216 133.24 39.8626V34.72C133.24 32.7529 131.959 30.856 129.398 29.5774C127.924 28.9001 126.37 28.5578 124.806 28.5657H118.273C116.08 28.5657 115.049 27.7226 114.756 25.8398C114.713 25.629 114.713 25.4183 114.713 25.1935V22.032C114.713 21.8634 114.713 21.6526 114.756 21.4419C115.049 19.9946 115.624 19.6152 117.534 19.3342H133.468V14.6693H118.305C116.113 14.6693 114.94 14.8379 113.92 15.2595C110.729 16.524 109.329 18.5755 109.329 22.1725V26.2473C109.329 29.4087 112.064 32.0925 116.71 32.7107C117.209 32.7669 117.741 32.7669 118.283 32.7669H123.873C124.09 32.7669 124.285 32.7669 124.448 32.8231C126.141 33.0339 126.89 33.4133 127.379 34.2282C127.704 34.6497 127.791 35.0291 127.791 35.5209V39.5957C127.791 40.0734 127.542 40.7198 127.031 41.2537C126.521 41.7876 125.751 42.167 124.709 42.2373C124.492 42.2373 124.383 42.2935 124.166 42.2935H109.231V46.9303ZM166.919 38.8369C166.919 43.6142 169.697 46.2839 175.243 46.8179L176.817 46.9303H190.883V42.2935H176.698C173.442 42.2935 172.356 41.2818 172.356 38.8088V14.6834H166.929V38.851L166.919 38.8369ZM136.669 39.0477V22.4535C136.669 18.2383 138.981 15.6529 143.507 14.866L144.951 14.7536H155.218C155.761 14.7536 156.217 14.8098 156.738 14.866C161.253 15.6669 163.521 18.2383 163.521 22.4535V39.0617C163.521 42.4902 162.566 44.3168 160.33 45.5252L165.627 51.7357H159.375L155.066 46.7054L150.725 47.0286H144.929C143.974 47.0286 142.899 46.8881 141.673 46.4947C138.243 45.2582 136.539 42.8976 136.539 39.0477H136.669ZM142.509 38.6824C142.509 38.8931 142.596 39.1039 142.639 39.3849C142.932 41.3099 144.332 42.3778 146.481 42.3778H151.365L146.894 37.1227H153.145L157.074 41.7314C157.834 41.1975 158.268 40.4387 158.442 39.4833C158.485 39.2725 158.485 39.0055 158.485 38.7807V22.9032C158.485 22.6924 158.485 22.4816 158.442 22.2568C158.149 20.4302 156.749 19.4185 154.643 19.4185H146.503C144.115 19.4185 142.53 20.7534 142.53 22.9032L142.509 38.6824Z" fill="#CE8B2C"/>
<path fill-rule="evenodd" clip-rule="evenodd" d="M37.3906 46.9584H42.774V19.3623L51.1747 43.4175C52.1299 46.312 53.4974 47.3799 56.1457 47.3799C58.794 47.3799 60.0747 46.312 61.0733 43.4175L69.4306 19.3623V46.9584H74.8574V19.3623C74.8574 16.6927 74.0325 15.4 72.2959 14.6974C68.2041 13.0956 65.4581 14.4867 64.2208 18.0696L55.9721 41.8579L48.0272 18.0696C46.8333 14.4867 44.0548 13.0956 39.9195 14.6974C38.2264 15.4 37.3906 16.6646 37.3906 19.3623V46.9584ZM79.3182 24.505H84.745V39.68C84.7016 40.523 84.9621 42.4621 88.0011 42.5183H99.6362V24.3926H105.063V49.1925C105.063 55.3046 99.2238 56.6395 96.4887 56.6957H79.4485V52.0308H96.543C100.016 51.553 99.6037 49.3049 99.6037 48.5461V46.7195H88.1314C82.7914 46.6633 79.3616 43.6283 79.3182 40.1156V24.505Z" fill="#00678C"/>
</svg>
