<svg width="64" height="64" viewBox="0 0 64 64" fill="none" xmlns="http://www.w3.org/2000/svg">
<path fill-rule="evenodd" clip-rule="evenodd" d="M40.1791 45.3538C28.6121 45.3538 26.1872 40.6454 26.1872 36.6921C26.1872 36.3171 26.5277 36.0151 26.9505 36.0151H30.3677C30.7435 36.0151 31.0605 36.2599 31.1193 36.588C31.636 39.6766 33.1684 41.2339 40.1673 41.2339C45.7394 41.2339 48.1057 40.1193 48.1057 37.4942C48.1057 35.9838 47.4305 34.864 38.7758 34.114C31.5361 33.4785 27.062 32.0671 27.062 26.9263C27.062 22.1971 31.5596 19.3793 39.0987 19.3793C47.5655 19.3793 51.7578 21.9835 52.2862 27.5878C52.3039 27.7805 52.2275 27.968 52.0807 28.1086C51.9339 28.2441 51.7284 28.3274 51.5171 28.3274H48.0881C47.7299 28.3274 47.4187 28.1034 47.3483 27.8013C46.5204 24.5565 44.524 23.5148 39.087 23.5148C33.004 23.5148 32.2994 25.395 32.2994 26.8013C32.2994 28.5097 33.1332 29.0097 41.3417 29.9733C49.4679 30.9316 53.3255 32.2806 53.3255 37.3484C53.3255 42.4579 48.5226 45.385 40.1439 45.385L40.1791 45.3538ZM32.0117 64C31.0429 64 30.0859 63.776 29.2404 63.3437L20.4154 58.7082C19.0943 58.052 19.7402 57.8228 20.1747 57.6874C21.9303 57.1405 22.2884 57.0207 24.1673 56.0728C24.367 55.9738 24.6253 56.0103 24.825 56.1144L31.6066 59.6822C31.8532 59.802 32.1996 59.802 32.4286 59.6822L58.8683 46.1455C59.1149 46.0205 59.2734 45.7705 59.2734 45.51V18.4522C59.2734 18.1814 59.1149 17.9418 58.8624 17.8064L32.4286 4.28004C32.182 4.14982 31.8591 4.14982 31.6125 4.28004L5.19046 17.8064C4.93211 17.9366 4.77358 18.1866 4.77358 18.447V45.51C4.77358 45.7705 4.93211 46.0153 5.18459 46.1403L12.4242 49.8487C16.3523 51.5935 18.7596 49.5362 18.7596 47.4736V20.7595C18.7596 20.3793 19.0943 20.0824 19.5288 20.0824H22.8756C23.2925 20.0824 23.6389 20.3741 23.6389 20.7595V47.484C23.6389 52.1352 20.7794 54.8019 15.8121 54.8019C14.2855 54.8019 13.076 54.8019 9.71743 53.3331L2.77138 49.7862C1.05688 48.9059 0 47.2653 0 45.51V18.447C0 16.6865 1.05688 15.0407 2.77138 14.1709L29.2345 0.628919C30.9079 -0.20964 33.1332 -0.20964 34.7949 0.628919L61.2286 14.1761C62.9372 15.0511 64 16.6865 64 18.4522V45.5152C64 47.2705 62.9372 48.9059 61.2286 49.7914L34.7949 63.3333C33.9494 63.7656 32.9864 63.9896 32.0117 63.9896V64Z" fill="#689F63"/>
</svg>
