<svg width="64" height="64" viewBox="0 0 64 64" fill="none" xmlns="http://www.w3.org/2000/svg">
<g clip-path="url(#clip0)">
<path d="M21.9696 29.6725C19.3329 28.0495 17.2721 25.5442 16.107 22.5452C14.9419 19.5462 14.7375 16.2211 15.5255 13.0856C16.3135 9.95017 18.0499 7.17953 20.4653 5.20344C22.8808 3.22736 25.8404 2.15625 28.885 2.15625C31.9296 2.15625 34.8892 3.22736 37.3046 5.20344C39.7201 7.17953 41.4565 9.95017 42.2445 13.0856C43.0325 16.2211 42.8281 19.5462 41.663 22.5452C40.4978 25.5442 38.4371 28.0495 35.8004 29.6725L31.6362 21.9826C32.6851 21.3369 33.505 20.3402 33.9685 19.1471C34.432 17.954 34.5133 16.6312 34.1998 15.3838C33.8863 14.1364 33.1956 13.0342 32.2346 12.2481C31.2737 11.4619 30.0963 11.0358 28.885 11.0358C27.6738 11.0358 26.4964 11.4619 25.5355 12.2481C24.5745 13.0342 23.8837 14.1364 23.5702 15.3838C23.2567 16.6312 23.3381 17.954 23.8016 19.1471C24.2651 20.3402 25.0849 21.3369 26.1339 21.9826L21.9696 29.6725Z" fill="#FF0101"/>
<path d="M51.587 33.2429C54.2238 34.8659 56.2845 37.3712 57.4496 40.3702C58.6148 43.3692 58.8192 46.6943 58.0312 49.8298C57.2432 52.9652 55.5068 55.7359 53.0913 57.712C50.6758 59.6881 47.7163 60.7592 44.6717 60.7592C41.627 60.7592 38.6675 59.6881 36.252 57.712C33.8365 55.7359 32.1002 52.9652 31.3122 49.8298C30.5241 46.6943 30.7286 43.3692 31.8937 40.3702C33.0588 37.3712 35.1195 34.8659 37.7563 33.2429L41.9205 40.9329C40.8715 41.5785 40.0517 42.5752 39.5882 43.7683C39.1246 44.9614 39.0433 46.2842 39.3568 47.5316C39.6703 48.779 40.3611 49.8812 41.322 50.6674C42.283 51.4535 43.4604 51.8796 44.6716 51.8796C45.8828 51.8796 47.0602 51.4535 48.0212 50.6674C48.9821 49.8812 49.6729 48.779 49.9864 47.5316C50.2999 46.2842 50.2186 44.9614 49.7551 43.7683C49.2915 42.5752 48.4717 41.5785 47.4228 40.9329L51.587 33.2429Z" fill="#0101FF"/>
<path d="M27.2269 46.0127C27.2269 49.2588 26.2223 52.4142 24.3688 54.9895C22.5153 57.5648 19.9166 59.4162 16.9757 60.2563C14.0348 61.0965 10.916 60.8785 8.10309 59.6363C5.29018 58.3941 2.94033 56.197 1.41799 53.3858C-0.104343 50.5745 -0.714094 47.3063 -0.31669 44.088C0.0807141 40.8696 1.46307 37.881 3.61597 35.5856C5.76887 33.2903 8.572 31.8165 11.5906 31.3927C14.6092 30.969 17.6746 31.6191 20.3114 33.2422L16.1471 40.9322C15.0981 40.2865 13.8786 40.0278 12.6777 40.1964C11.4768 40.365 10.3616 40.9513 9.50514 41.8645C8.64866 42.7776 8.09872 43.9666 7.94062 45.2469C7.78252 46.5273 8.0251 47.8275 8.63073 48.9459C9.23636 50.0643 10.1712 50.9383 11.2903 51.4325C12.4093 51.9267 13.65 52.0134 14.82 51.6792C15.99 51.3449 17.0239 50.6084 17.7612 49.5839C18.4986 48.5594 18.8983 47.304 18.8983 46.0126L27.2269 46.0127Z" fill="#01FF01"/>
</g>
<defs>
<clipPath id="clip0">
<rect width="64" height="64" fill="white"/>
</clipPath>
</defs>
</svg>
