<svg width="64" height="64" viewBox="0 0 64 64" fill="none" xmlns="http://www.w3.org/2000/svg">
<path d="M16.5616 8.83108C16.5616 4.52379 17.743 2.1806 24.2657 1.06481C28.694 0.30598 34.3719 0.211127 39.6682 1.06481C43.8514 1.73985 47.3723 4.78622 47.3723 8.83108V23.0417C47.3723 27.2096 43.9539 30.6236 39.6682 30.6236H24.2657C19.0382 30.6236 14.6325 34.9812 14.6325 39.9076V46.7256H9.33656C4.85682 46.7256 2.2486 43.5677 1.15292 39.1488C-0.325013 33.2122 -0.262274 29.6751 1.15292 23.9896C2.3799 19.0297 6.30049 16.4127 10.7805 16.4127H31.9697V14.5156H16.5613V8.83078L16.5616 8.83108Z" fill="url(#paint0_linear)"/>
<path d="M47.3727 54.3079C47.3727 58.6152 43.5491 60.7968 39.6686 61.8848C33.8306 63.5251 29.1452 63.2741 24.2661 61.8848C20.1912 60.7244 16.562 58.3531 16.562 54.3079V40.0973C16.562 36.0075 20.0489 32.5153 24.2661 32.5153H39.6686C44.799 32.5153 49.3017 28.1805 49.3017 23.0417V16.4133H55.077C59.5626 16.4133 61.6744 19.6715 62.781 23.9902C64.3217 29.9881 64.3903 34.4737 62.781 39.1494C61.2232 43.691 59.5567 46.7263 55.077 46.7263H31.9701V48.6233H47.3727V54.3082V54.3079Z" fill="url(#paint1_linear)"/>
<path d="M20.4136 7.8882C20.4136 6.3149 21.7033 5.0426 23.3015 5.0426C24.8936 5.0426 26.1895 6.31459 26.1895 7.8882C26.1895 9.45645 24.894 10.7281 23.3015 10.7281C21.7039 10.7281 20.4136 9.45613 20.4136 7.8882ZM37.7446 55.251C37.7446 53.6828 39.0401 52.4111 40.6325 52.4111C42.2301 52.4111 43.5205 53.6831 43.5205 55.251C43.5205 56.8243 42.2308 58.0966 40.6325 58.0966C39.0404 58.0966 37.7446 56.8246 37.7446 55.251Z" fill="white"/>
<defs>
<linearGradient id="paint0_linear" x1="47.3726" y1="18.4454" x2="0.0683777" y2="18.0607" gradientUnits="userSpaceOnUse">
<stop stop-color="#366A96"/>
<stop offset="1" stop-color="#3679B0"/>
</linearGradient>
<linearGradient id="paint1_linear" x1="63.9621" y1="39.7182" x2="-29.6777" y2="39.7182" gradientUnits="userSpaceOnUse">
<stop stop-color="#FFC836"/>
<stop offset="1" stop-color="#FFE873"/>
</linearGradient>
</defs>
</svg>
