<svg width="64" height="64" viewBox="0 0 64 64" fill="none" xmlns="http://www.w3.org/2000/svg">
<path fill-rule="evenodd" clip-rule="evenodd" d="M64 32.0088C64 27.2481 58.6927 22.7389 50.5521 19.9375C52.4323 10.6209 51.5938 3.21082 47.9167 0.836334C47.0677 0.280727 46.0781 0.0175455 44.9948 0.0175455V3.28685C45.5938 3.28685 46.0781 3.42137 46.4844 3.667C48.2604 4.80746 49.026 9.15873 48.4271 14.7557C48.2813 16.1301 48.0469 17.5806 47.7604 19.0602C45.2031 18.3584 42.4115 17.8145 39.4792 17.4636C37.7188 14.7557 35.8906 12.2935 34.0521 10.1413C38.3021 5.69643 42.2917 3.2693 45.0052 3.2693V0C41.4167 0 36.724 2.87161 31.974 7.85452C27.224 2.90085 22.5313 0.0584849 18.9427 0.0584849V3.32779C21.6406 3.32779 25.6458 5.74322 29.901 10.153C28.0729 12.3052 26.25 14.7499 24.5156 17.4636C21.5677 17.8145 18.776 18.3584 16.2188 19.0719C15.9167 17.6098 15.6979 16.1886 15.5417 14.8259C14.9271 9.22891 15.6875 4.87764 17.4479 3.71964C17.8385 3.45646 18.349 3.33949 18.9479 3.33949V0.0760303C17.8542 0.0760303 16.8594 0.339212 16 0.894819C12.3333 3.2693 11.5104 10.6676 13.4063 19.955C5.28125 22.7623 0 27.2598 0 32.0088C0 36.7694 5.30729 41.2786 13.4479 44.0801C11.5677 53.3967 12.4063 60.8067 16.0833 63.1812C16.9323 63.7368 17.9219 64 19.0208 64C22.6094 64 27.3021 61.1284 32.0521 56.1455C36.8021 61.0992 41.4948 63.9415 45.0833 63.9415C46.1771 63.9415 47.1719 63.6783 48.0313 63.1227C51.6979 60.7482 52.5208 53.3499 50.625 44.0625C58.7188 41.2669 64 36.7519 64 32.0088ZM37.9479 32.0088C37.9479 28.3125 35.2813 25.3123 31.9844 25.3123C28.6927 25.3123 26.0208 28.3067 26.0208 32.0088C26.0208 35.7109 28.6875 38.7053 31.9844 38.7053C35.2813 38.6994 37.9479 35.705 37.9479 32.0088ZM47.0156 22.236C46.5313 24.125 45.9323 26.0726 45.2552 28.0201C44.7188 26.8504 44.1615 25.6749 43.5469 24.5052C42.9479 23.3355 42.3073 22.1892 41.6667 21.0779C43.5208 21.3879 45.3073 21.7681 47.0156 22.236ZM41.0417 37.8397C40.026 39.8165 38.9792 41.6939 37.8958 43.4367C35.9531 43.6297 33.9844 43.7291 32 43.7291C30.0313 43.7291 28.0625 43.6239 26.1302 43.4484C25.0469 41.7056 23.9896 39.8457 22.974 37.8807C21.9844 35.9623 21.0833 34.0148 20.2604 32.0497C21.0677 30.0846 21.9844 28.1254 22.9583 26.2071C23.974 24.2303 25.0208 22.3529 26.1042 20.6101C28.0469 20.4171 30.0156 20.3176 32 20.3176C33.9688 20.3176 35.9375 20.4229 37.8698 20.5984C38.9531 22.3412 40.0104 24.201 41.026 26.1661C42.0156 28.0844 42.9167 30.032 43.7396 31.9971C42.9167 33.9563 42.0208 35.9156 41.0417 37.8397ZM45.2552 35.9331C45.9583 37.8982 46.5573 39.8574 47.0573 41.7641C45.349 42.2319 43.5469 42.6296 41.6823 42.9337C42.3229 41.805 42.9583 40.647 43.5625 39.4597C44.1563 38.29 44.7188 37.1028 45.2552 35.9331ZM32.026 51.5603C30.8125 50.1566 29.599 48.5892 28.401 46.8756C29.5729 46.9341 30.776 46.9809 31.9896 46.9809C33.2135 46.9809 34.4271 46.9517 35.6146 46.8756C34.4375 48.5892 33.224 50.1566 32.026 51.5603ZM22.3229 42.9337C20.4688 42.6238 18.6823 42.2436 16.974 41.7757C17.4583 39.8867 18.0573 37.9391 18.7344 35.9916C19.2708 37.1613 19.8281 38.3368 20.4427 39.5065C21.0573 40.6821 21.6823 41.8225 22.3229 42.9337ZM31.9583 12.4514C33.1719 13.8551 34.3854 15.4225 35.5833 17.1361C34.4115 17.0776 33.2083 17.0308 31.9948 17.0308C30.7708 17.0308 29.5573 17.06 28.3698 17.1361C29.5469 15.4225 30.7604 13.8551 31.9583 12.4514ZM22.3073 21.0779C21.6667 22.2067 21.0313 23.3647 20.4271 24.552C19.8281 25.7216 19.2656 26.8972 18.7292 28.0669C18.026 26.1018 17.4271 24.1426 16.9271 22.236C18.6406 21.7798 20.4427 21.3879 22.3073 21.0779ZM10.5 39.4188C5.88021 37.2081 2.89583 34.3072 2.89583 32.0088C2.89583 29.7103 5.88542 26.7919 10.5 24.5987C11.6198 24.0548 12.849 23.5753 14.1146 23.1191C14.8594 25.9907 15.8385 28.9793 17.0521 32.038C15.8542 35.0851 14.8854 38.0561 14.1563 40.916C12.8646 40.4598 11.6354 39.9627 10.5 39.4188ZM17.5208 60.3505C15.7448 59.2101 14.9792 54.8588 15.5781 49.2618C15.724 47.8874 15.9583 46.437 16.2448 44.9573C18.8021 45.6591 21.5938 46.2031 24.526 46.554C26.2865 49.2618 28.1146 51.724 29.9531 53.8763C25.6979 58.3153 21.7083 60.7482 18.9948 60.7482C18.4063 60.7307 17.9115 60.602 17.5208 60.3505ZM48.4635 49.1916C49.0781 54.7886 48.3177 59.1399 46.5573 60.2979C46.1667 60.5611 45.6563 60.6781 45.0573 60.6781C42.3594 60.6781 38.3542 58.2626 34.099 53.8529C35.9271 51.7006 37.75 49.256 39.4844 46.5423C42.4323 46.1914 45.224 45.6474 47.7813 44.9281C48.0833 46.4077 48.3177 47.8289 48.4635 49.1916ZM53.4844 39.4188C52.3646 39.9627 51.1354 40.4423 49.8698 40.8985C49.125 38.0269 48.1458 35.0383 46.9323 31.9795C48.1302 28.9325 49.099 25.9614 49.8281 23.1015C51.1198 23.5577 52.3438 24.0548 53.4948 24.5929C58.1146 26.8036 61.099 29.7045 61.099 32.0029C61.0885 34.3072 58.1042 37.2198 53.4844 39.4188Z" fill="#00D8FF"/>
</svg>
