<svg width="611" height="399" viewBox="0 0 611 399" fill="none" xmlns="http://www.w3.org/2000/svg">
<g id="road">
<path id="Vector" d="M426.599 260.098H425.237C425.237 195.143 372.718 142.298 308.165 142.298C243.61 142.298 191.092 195.143 191.092 260.098H189.731C189.731 194.388 242.86 140.929 308.165 140.929C373.47 140.929 426.599 194.388 426.599 260.098Z" fill="#3F3D56"/>
<path id="Vector_2" d="M381.258 143.848H381.358L383.153 247.406H379.363L381.258 143.848Z" fill="#3F3D56"/>
<path id="Vector_3" d="M516.175 126.057H516.423L520.877 383.012H511.474L516.175 126.057Z" fill="#3F3D56"/>
<path id="Vector_4" d="M106.594 78.5498H106.899L112.402 396.025H100.785L106.594 78.5498Z" fill="#3F3D56"/>
<path id="Vector_5" d="M313.375 209.278H271.175V210.648H277.756V223.66H279.117V210.648H304.751V223.66H306.113V210.648H313.375V209.278Z" fill="#3F3D56"/>
<path id="Vector_6" d="M111.287 223.955C172.749 223.955 222.574 173.821 222.574 111.978C222.574 50.1341 172.749 0 111.287 0C49.8249 0 0 50.1341 0 111.978C0 173.821 49.8249 223.955 111.287 223.955Z" fill="#6C63FF"/>
<path id="Vector_7" opacity="0.2" d="M194.069 37.1851C204.45 61.6178 205.858 88.9685 198.042 114.35C190.227 139.731 173.696 161.489 151.405 175.735C129.113 189.982 102.514 195.789 76.3589 192.118C50.2042 188.448 26.1988 175.539 8.63224 155.699C14.9735 170.626 24.4643 183.988 36.4471 194.858C48.43 205.728 62.6183 213.847 78.0291 218.652C93.4399 223.458 109.705 224.834 125.697 222.686C141.689 220.538 157.025 214.918 170.644 206.214C184.263 197.51 195.838 185.931 204.568 172.279C213.298 158.627 218.974 143.228 221.202 127.15C223.43 111.072 222.158 94.6982 217.473 79.1638C212.788 63.6295 204.802 49.3058 194.069 37.1851V37.1851Z" fill="black"/>
<path id="Vector_8" d="M520.927 250.116C570.673 250.116 611 209.539 611 159.485C611 109.431 570.673 68.8535 520.927 68.8535C471.182 68.8535 430.855 109.431 430.855 159.485C430.855 209.539 471.182 250.116 520.927 250.116Z" fill="#6C63FF"/>
<path id="Vector_9" opacity="0.2" d="M587.929 98.9502C596.331 118.725 597.47 140.862 591.145 161.405C584.819 181.948 571.439 199.558 553.397 211.089C535.355 222.62 513.826 227.32 492.657 224.349C471.489 221.378 452.059 210.93 437.841 194.872C442.974 206.954 450.655 217.768 460.354 226.566C470.053 235.364 481.536 241.936 494.009 245.825C506.482 249.714 519.647 250.828 532.59 249.089C545.533 247.351 557.946 242.802 568.969 235.757C579.992 228.713 589.361 219.341 596.426 208.291C603.492 197.242 608.086 184.779 609.889 171.765C611.693 158.752 610.663 145.5 606.871 132.927C603.079 120.354 596.616 108.76 587.929 98.9502V98.9502Z" fill="black"/>
<path id="Vector_10" d="M386.158 213.803C406.206 213.803 422.458 197.449 422.458 177.277C422.458 157.104 406.206 140.75 386.158 140.75C366.109 140.75 349.857 157.104 349.857 177.277C349.857 197.449 366.109 213.803 386.158 213.803Z" fill="#6C63FF"/>
<path id="Vector_11" opacity="0.2" d="M413.16 152.88C416.546 160.85 417.006 169.772 414.456 178.051C411.907 186.33 406.515 193.427 399.244 198.074C391.972 202.721 383.296 204.615 374.764 203.418C366.233 202.221 358.402 198.01 352.672 191.538C354.741 196.408 357.837 200.766 361.745 204.312C365.654 207.858 370.282 210.506 375.309 212.073C380.336 213.641 385.641 214.09 390.858 213.389C396.074 212.689 401.077 210.855 405.519 208.016C409.962 205.177 413.737 201.4 416.585 196.947C419.433 192.494 421.284 187.471 422.011 182.226C422.738 176.982 422.323 171.641 420.794 166.573C419.266 161.506 416.661 156.834 413.16 152.88V152.88Z" fill="black"/>
<path id="Vector_12" d="M329.03 175.719H318.14V186.676H323.188V223.6H324.55V186.676H329.03V175.719Z" fill="#3F3D56"/>
<path id="Vector_13" d="M313.458 205.18H271.258V206.549H313.458V205.18Z" fill="#3F3D56"/>
<path id="Vector_14" d="M313.458 201.755H271.258V203.125H313.458V201.755Z" fill="#3F3D56"/>
<path id="Vector_15" d="M313.458 198.331H271.258V199.7H313.458V198.331Z" fill="#3F3D56"/>
<path id="Vector_16" d="M126.857 251.476L124.293 246.576L105.897 256.321L108.461 261.221L126.857 251.476Z" fill="#3F3D56"/>
<path id="Vector_17" d="M532.576 266.018L530.501 262.053L515.612 269.94L517.687 273.906L532.576 266.018Z" fill="#3F3D56"/>
<path id="Vector_18" d="M249.944 204.101C257.775 204.101 264.123 197.713 264.123 189.833C264.123 181.954 257.775 175.566 249.944 175.566C242.113 175.566 235.764 181.954 235.764 189.833C235.764 197.713 242.113 204.101 249.944 204.101Z" fill="#6C63FF"/>
<path id="Vector_19" opacity="0.2" d="M260.68 181.242C262.003 184.355 262.182 187.84 261.186 191.074C260.19 194.307 258.084 197.08 255.244 198.895C252.404 200.71 249.014 201.45 245.682 200.982C242.35 200.515 239.291 198.87 237.053 196.342C237.861 198.244 239.07 199.946 240.597 201.331C242.123 202.716 243.931 203.751 245.895 204.363C247.858 204.975 249.931 205.151 251.968 204.877C254.006 204.603 255.96 203.887 257.695 202.778C259.43 201.669 260.905 200.194 262.018 198.455C263.13 196.715 263.853 194.753 264.137 192.704C264.421 190.656 264.259 188.57 263.662 186.59C263.065 184.611 262.047 182.786 260.68 181.242V181.242Z" fill="black"/>
<path id="Vector_20" d="M250.171 189.833H250.21L250.912 230.284H249.431L250.171 189.833Z" fill="#3F3D56"/>
<path id="Vector_21" d="M131.236 381.158C131.236 381.158 131.706 371.248 141.342 372.4Z" fill="#3F3D56"/>
<path id="Vector_22" d="M128.513 371.728C131.177 371.728 133.336 369.555 133.336 366.875C133.336 364.196 131.177 362.023 128.513 362.023C125.85 362.023 123.691 364.196 123.691 366.875C123.691 369.555 125.85 371.728 128.513 371.728Z" fill="#6C63FF"/>
<path id="Vector_23" d="M129.09 375.046H127.729V384.635H129.09V375.046Z" fill="#3F3D56"/>
<path id="Vector_24" d="M165.269 358.557C165.269 358.557 165.739 348.647 175.374 349.799Z" fill="#3F3D56"/>
<path id="Vector_25" d="M162.546 349.126C165.209 349.126 167.369 346.954 167.369 344.274C167.369 341.594 165.209 339.421 162.546 339.421C159.883 339.421 157.723 341.594 157.723 344.274C157.723 346.954 159.883 349.126 162.546 349.126Z" fill="#6C63FF"/>
<path id="Vector_26" d="M163.123 352.446H161.761V362.034H163.123V352.446Z" fill="#3F3D56"/>
<path id="Vector_27" d="M267.856 281.882C267.856 281.882 268.23 274.011 275.883 274.926Z" fill="#3F3D56"/>
<path id="Vector_28" d="M265.694 274.391C267.809 274.391 269.524 272.666 269.524 270.537C269.524 268.409 267.809 266.683 265.694 266.683C263.579 266.683 261.864 268.409 261.864 270.537C261.864 272.666 263.579 274.391 265.694 274.391Z" fill="#6C63FF"/>
<path id="Vector_29" d="M266.152 277.027H265.071V284.643H266.152V277.027Z" fill="#3F3D56"/>
<path id="Vector_30" d="M417.601 257.225C417.601 257.225 417.974 249.354 425.627 250.269Z" fill="#3F3D56"/>
<path id="Vector_31" d="M415.438 249.736C417.554 249.736 419.269 248.01 419.269 245.881C419.269 243.753 417.554 242.027 415.438 242.027C413.323 242.027 411.608 243.753 411.608 245.881C411.608 248.01 413.323 249.736 415.438 249.736Z" fill="#6C63FF"/>
<path id="Vector_32" d="M415.896 252.372H414.815V259.987H415.896V252.372Z" fill="#3F3D56"/>
<path id="Vector_33" d="M274.663 302.428C274.663 302.428 275.036 294.557 282.689 295.472Z" fill="#3F3D56"/>
<path id="Vector_34" d="M272.501 294.938C274.616 294.938 276.331 293.212 276.331 291.084C276.331 288.955 274.616 287.229 272.501 287.229C270.385 287.229 268.67 288.955 268.67 291.084C268.67 293.212 270.385 294.938 272.501 294.938Z" fill="#6C63FF"/>
<path id="Vector_35" d="M272.959 297.574H271.877V305.189H272.959V297.574Z" fill="#3F3D56"/>
<path id="Vector_36" d="M258.327 317.495C258.327 317.495 258.701 309.624 266.354 310.539Z" fill="#3F3D56"/>
<path id="Vector_37" d="M256.165 310.005C258.28 310.005 259.995 308.28 259.995 306.151C259.995 304.022 258.28 302.297 256.165 302.297C254.049 302.297 252.334 304.022 252.334 306.151C252.334 308.28 254.049 310.005 256.165 310.005Z" fill="#6C63FF"/>
<path id="Vector_38" d="M256.623 312.641H255.542V320.257H256.623V312.641Z" fill="#3F3D56"/>
<path id="Vector_39" d="M440.743 270.239C440.743 270.239 441.116 262.368 448.769 263.282Z" fill="#3F3D56"/>
<path id="Vector_40" d="M438.58 262.748C440.696 262.748 442.411 261.023 442.411 258.894C442.411 256.766 440.696 255.04 438.58 255.04C436.465 255.04 434.75 256.766 434.75 258.894C434.75 261.023 436.465 262.748 438.58 262.748Z" fill="#6C63FF"/>
<path id="Vector_41" d="M439.038 265.384H437.957V273H439.038V265.384Z" fill="#3F3D56"/>
<path id="Vector_42" d="M220.21 287.361C220.21 287.361 220.584 279.49 228.237 280.405Z" fill="#3F3D56"/>
<path id="Vector_43" d="M218.048 279.87C220.164 279.87 221.878 278.145 221.878 276.016C221.878 273.888 220.164 272.162 218.048 272.162C215.933 272.162 214.218 273.888 214.218 276.016C214.218 278.145 215.933 279.87 218.048 279.87Z" fill="#6C63FF"/>
<path id="Vector_44" d="M218.506 282.506H217.425V290.122H218.506V282.506Z" fill="#3F3D56"/>
<path id="Vector_45" d="M397.181 248.323C397.181 248.323 397.554 240.452 405.207 241.366Z" fill="#3F3D56"/>
<path id="Vector_46" d="M395.019 240.832C397.134 240.832 398.849 239.106 398.849 236.978C398.849 234.849 397.134 233.124 395.019 233.124C392.903 233.124 391.188 234.849 391.188 236.978C391.188 239.106 392.903 240.832 395.019 240.832Z" fill="#6C63FF"/>
<path id="Vector_47" d="M395.477 243.468H394.395V251.084H395.477V243.468Z" fill="#3F3D56"/>
<path id="Vector_48" d="M72.0189 383.213C72.0189 383.213 72.4889 373.303 82.1246 374.455Z" fill="#3F3D56"/>
<path id="Vector_49" d="M69.2962 373.782C71.9597 373.782 74.1189 371.61 74.1189 368.93C74.1189 366.25 71.9597 364.077 69.2962 364.077C66.6328 364.077 64.4736 366.25 64.4736 368.93C64.4736 371.61 66.6328 373.782 69.2962 373.782Z" fill="#6C63FF"/>
<path id="Vector_50" d="M69.8729 377.101H68.5116V386.689H69.8729V377.101Z" fill="#3F3D56"/>
<path id="Vector_51" d="M540.99 380.474C540.99 380.474 541.46 370.564 551.096 371.716Z" fill="#3F3D56"/>
<path id="Vector_52" d="M538.268 371.043C540.931 371.043 543.09 368.87 543.09 366.19C543.09 363.51 540.931 361.337 538.268 361.337C535.604 361.337 533.445 363.51 533.445 366.19C533.445 368.87 535.604 371.043 538.268 371.043Z" fill="#6C63FF"/>
<path id="Vector_53" d="M538.844 374.362H537.483V383.95H538.844V374.362Z" fill="#3F3D56"/>
<path id="Vector_54" d="M501.512 357.188C501.512 357.188 501.982 347.278 511.618 348.43Z" fill="#3F3D56"/>
<path id="Vector_55" d="M498.79 347.757C501.453 347.757 503.612 345.584 503.612 342.904C503.612 340.224 501.453 338.052 498.79 338.052C496.126 338.052 493.967 340.224 493.967 342.904C493.967 345.584 496.126 347.757 498.79 347.757Z" fill="#6C63FF"/>
<path id="Vector_56" d="M499.366 351.076H498.005V360.664H499.366V351.076Z" fill="#3F3D56"/>
<path id="Vector_57" d="M496.067 392.116C496.067 392.116 496.537 382.206 506.173 383.358Z" fill="#3F3D56"/>
<path id="Vector_58" d="M493.344 382.686C496.008 382.686 498.167 380.513 498.167 377.833C498.167 375.153 496.008 372.981 493.344 372.981C490.681 372.981 488.522 375.153 488.522 377.833C488.522 380.513 490.681 382.686 493.344 382.686Z" fill="#6C63FF"/>
<path id="Vector_59" d="M493.921 386.005H492.56V395.593H493.921V386.005Z" fill="#3F3D56"/>
<path id="Vector_60" d="M79.8542 398.574C79.8542 398.574 294.261 341.729 292.219 283.515C288.475 267.42 262.61 263.311 262.61 263.311C262.61 263.311 201.351 255.092 234.703 235.231C268.055 215.369 359.263 220.163 359.263 220.163C359.263 220.163 265.333 235.231 306.853 243.449C340.205 245.504 383.086 254.407 383.086 254.407C383.086 254.407 470.21 272.899 482.462 318.101C494.714 363.303 484.504 398.232 484.504 398.232L79.8542 398.574Z" fill="#D4D1D1"/>
<path id="Vector_61" d="M323.387 391.389L322.555 390.283C324.784 388.584 326.979 386.876 329.08 385.204L329.935 386.293C327.827 387.97 325.624 389.685 323.387 391.389ZM336.37 381.048L335.489 379.98C337.647 378.177 339.756 376.365 341.759 374.594L342.67 375.637C340.657 377.416 338.538 379.237 336.37 381.048V381.048ZM348.807 370.035L347.863 369.023C349.922 367.08 351.907 365.135 353.763 363.24L354.745 364.215C352.877 366.121 350.878 368.08 348.807 370.035V370.035ZM360.435 358.14L359.408 357.213C361.3 355.093 363.089 352.969 364.725 350.902L365.804 351.767C364.151 353.855 362.344 356 360.435 358.14V358.14ZM370.748 345.046L369.609 344.264C371.212 341.899 372.659 339.539 373.909 337.248L375.118 337.916C373.847 340.246 372.377 342.645 370.748 345.046ZM378.68 330.324L377.396 329.817C378.396 327.277 379.18 324.655 379.738 321.982L381.089 322.261C380.516 325.012 379.71 327.71 378.68 330.324V330.324ZM380.521 313.879C380.481 311.181 380.108 308.498 379.412 305.893L380.744 305.531C381.469 308.247 381.858 311.043 381.901 313.856L380.521 313.879ZM376.395 298.401C375.085 296.02 373.547 293.774 371.804 291.694L372.861 290.803C374.663 292.953 376.251 295.274 377.604 297.734L376.395 298.401ZM366.104 285.836C364.054 284.019 361.907 282.317 359.672 280.737L360.468 279.604C362.744 281.213 364.931 282.947 367.019 284.798L366.104 285.836ZM352.759 276.27C350.503 274.935 348.068 273.604 345.526 272.312L346.147 271.073C348.716 272.378 351.176 273.724 353.458 275.073L352.759 276.27ZM338.07 268.765C335.669 267.691 333.112 266.611 330.468 265.553L330.979 264.264C333.638 265.328 336.213 266.416 338.631 267.496L338.07 268.765ZM322.734 262.603C320.276 261.706 317.649 260.786 314.926 259.867L315.363 258.551C318.097 259.474 320.736 260.397 323.204 261.297L322.734 262.603ZM307.056 257.296C304.652 256.533 302.064 255.73 299.144 254.84L299.544 253.512C302.469 254.403 305.062 255.208 307.471 255.972L307.056 257.296ZM291.207 252.443C288.416 251.603 285.756 250.801 283.265 250.029L283.671 248.702C286.158 249.474 288.815 250.275 291.602 251.113L291.207 252.443ZM275.354 247.455C272.701 246.573 270.106 245.522 267.585 244.308L268.206 243.068C270.671 244.255 273.21 245.282 275.806 246.143L275.354 247.455ZM264.938 238.356L263.954 237.383C265.212 236.097 267.699 234.839 271.559 233.537L271.997 234.853C268.399 236.067 266.024 237.246 264.938 238.356L264.938 238.356ZM279.888 232.592L279.555 231.245C281.941 230.647 284.659 230.021 287.633 229.386L287.919 230.744C284.961 231.376 282.259 231.998 279.888 232.592V232.592ZM296.007 229.109L295.748 227.746C298.29 227.257 301.027 226.751 303.885 226.241L304.126 227.607C301.274 228.116 298.543 228.621 296.007 229.109V229.109ZM312.263 226.198L312.035 224.829C314.635 224.39 317.355 223.942 320.195 223.483L320.414 224.854C317.575 225.312 314.858 225.76 312.263 226.198Z" fill="white"/>
<path id="Vector_62" d="M328.543 224.474L328.331 223.103C329.672 222.894 331.037 222.683 332.425 222.47L332.633 223.842C331.245 224.055 329.882 224.266 328.543 224.474Z" fill="white"/>
</g>
</svg>
