<svg width="301" height="270" viewBox="0 0 501 380" fill="none" xmlns="http://www.w3.org/2000/svg">
<g id="secondMan">
<path id="Vector" d="M250.304 375.48C388.543 375.48 500.607 371.478 500.607 366.541C500.607 361.603 388.543 357.601 250.304 357.601C112.065 357.601 0 361.603 0 366.541C0 371.478 112.065 375.48 250.304 375.48Z" fill="#3F3D56"/>
<path id="Vector_2" d="M287.127 354.766C287.127 354.766 276.415 363.787 270.777 363.223C265.139 362.659 254.427 362.659 258.937 368.861C263.448 375.063 282.053 378.445 289.946 379.009C297.84 379.573 315.318 380.137 314.19 376.754C313.062 373.371 311.935 357.585 307.424 356.457C302.914 355.329 287.127 354.766 287.127 354.766Z" fill="#575A89"/>
<path id="Vector_3" d="M348.61 345.909C348.61 345.909 340.716 357.477 335.134 358.449C329.552 359.422 319.234 362.301 325.245 367.062C331.256 371.823 350.087 370.081 357.841 368.503C365.595 366.925 382.582 362.771 380.587 359.815C378.591 356.86 373.262 341.957 368.615 342.083C363.967 342.209 348.61 345.909 348.61 345.909Z" fill="#575A89"/>
<path id="Vector_4" d="M280.852 180.47C280.852 180.47 273.596 230.164 275.287 239.185C276.979 248.206 278.106 262.301 278.106 262.301C278.106 262.301 276.979 274.141 278.106 279.779C279.234 285.417 286 338.979 286 340.107C286 341.234 284.872 344.617 286 347.436C287.127 350.255 289.382 348 286 352.51C282.617 357.021 284.872 358.148 285.436 358.148C286 358.148 307.988 360.404 309.116 358.148C310.243 355.893 308.552 355.329 309.116 352.51C309.679 349.691 310.243 349.127 311.371 348.564C312.499 348 314.754 349.128 313.062 346.308C311.371 343.489 307.424 340.107 308.552 338.415C309.679 336.724 307.988 324.32 307.988 324.32C307.988 324.32 306.86 296.694 306.297 279.779C305.733 262.865 311.371 245.387 311.371 245.387C312.073 259.227 317.213 272.472 326.03 283.162C340.689 300.64 348.018 333.341 348.018 333.341C348.018 333.341 351.401 338.415 349.71 342.926C348.018 347.436 342.944 344.617 348.018 347.436C353.093 350.255 370.571 346.308 372.262 344.617C373.953 342.926 370.007 340.67 371.134 336.16C372.262 331.65 376.772 332.777 372.826 330.522C368.879 328.267 367.752 328.831 367.752 326.575C367.752 324.32 357.603 275.269 341.816 261.174L340.689 209.868C340.689 209.868 354.784 173.784 340.125 170.401C325.466 167.018 280.852 180.47 280.852 180.47Z" fill="#2F2E41"/>
<path id="Vector_5" d="M291.074 46.9278C291.074 46.9278 300.658 70.6076 298.403 73.9904C296.148 77.3733 326.03 62.7143 326.03 62.7143C326.03 62.7143 316.445 39.0345 316.445 36.2155C316.445 33.3964 291.074 46.9278 291.074 46.9278Z" fill="#A0616A"/>
<path id="Vector_6" d="M298.122 52.8476C309.643 52.8476 318.982 43.5079 318.982 31.9868C318.982 20.4657 309.643 11.126 298.122 11.126C286.6 11.126 277.261 20.4657 277.261 31.9868C277.261 43.5079 286.6 52.8476 298.122 52.8476Z" fill="#A0616A"/>
<path id="Vector_7" d="M326.03 53.1299C326.03 53.1299 311.371 51.4385 304.042 60.4594C296.712 69.4803 295.584 71.7355 295.584 71.7355C295.584 71.7355 278.106 99.9258 281.489 114.021C282.314 115.294 283.067 116.611 283.745 117.968C284.872 120.223 284.872 151.796 283.745 156.87C282.617 161.944 281.489 163.636 282.617 170.965C283.745 178.295 273.596 190.135 285.436 192.39C297.276 194.645 306.297 192.954 310.243 187.879C314.19 182.805 310.807 179.422 323.211 179.422C330.807 179.29 338.066 176.266 343.508 170.965C343.508 170.965 337.306 164.2 339.561 163.072C341.817 161.944 339.561 159.125 338.434 156.306C337.306 153.487 337.306 151.232 338.998 151.232C340.689 151.232 339.561 150.105 338.434 147.285C337.306 144.466 358.167 95.9791 345.763 81.884C333.359 67.7889 327.158 59.8956 327.158 59.8956C327.158 59.8956 329.413 51.4385 326.03 53.1299Z" fill="#6C63FF"/>
<path id="Vector_8" d="M293.893 106.691V131.499L275.851 191.262C275.851 191.262 264.011 222.272 275.851 222.272C287.691 222.272 287.057 192.674 287.057 192.674L312.498 147.849C312.498 147.849 322.647 112.329 321.519 109.51C320.392 106.691 293.893 106.691 293.893 106.691Z" fill="#A0616A"/>
<path id="Vector_9" d="M303.478 70.0442C303.478 70.0442 286.563 76.8099 291.074 94.8517C295.584 112.893 291.074 112.33 291.074 112.33C291.074 112.33 314.19 110.074 321.519 115.149L323.211 108.383C323.211 108.383 329.976 69.4803 303.478 70.0442Z" fill="#6C63FF"/>
<path id="Vector_10" d="M290.998 16.3265C289.697 16.7884 288.3 16.919 286.935 16.7066C285.57 16.4942 284.28 15.9455 283.18 15.1098C282.11 14.2368 281.356 13.0361 281.035 11.6925C280.714 10.349 280.843 8.93719 281.404 7.67454C282.483 5.55587 284.792 4.39355 287.006 3.52671C291.891 1.61619 297.036 0.454474 302.267 0.0809108C304.761 -0.0964692 307.38 -0.0683674 309.606 1.07099C310.707 1.63473 311.664 2.44836 312.755 3.03233C314.76 4.10611 317.094 4.34485 319.261 5.03596C321.479 5.7593 323.515 6.95046 325.232 8.52885C326.949 10.1072 328.307 12.036 329.214 14.1847C329.803 15.6439 330.215 17.1687 330.44 18.7262C331.088 22.9904 330.635 27.3496 329.125 31.3895C326.721 37.7884 321.681 43.3826 321.396 50.212C318.311 47.9737 317.167 43.9337 314.694 41.0326C312.855 38.8882 310.343 37.4311 307.568 36.8992C306.8 36.8524 306.062 36.5833 305.444 36.1246C305.014 35.6105 304.744 34.9811 304.668 34.3148L302.557 24.3477C302.128 22.3192 301.585 20.1077 299.918 18.875C298.88 18.211 297.702 17.7961 296.477 17.6629C293.566 17.1541 290.618 16.8853 287.663 16.8592" fill="#2F2E41"/>
</g>
</svg>
