<svg width="1928" height="1076" viewBox="0 0 1928 1076" fill="none" xmlns="http://www.w3.org/2000/svg">
<path d="M875.583 42.2118C877.31 42.2118 878.71 40.7513 878.71 38.9497C878.71 37.148 877.31 35.6875 875.583 35.6875C873.856 35.6875 872.456 37.148 872.456 38.9497C872.456 40.7513 873.856 42.2118 875.583 42.2118Z" fill="#F2F2F2"/>
<path d="M58.3722 111.804C60.0992 111.804 61.4993 110.344 61.4993 108.542C61.4993 106.74 60.0992 105.28 58.3722 105.28C56.6452 105.28 55.2451 106.74 55.2451 108.542C55.2451 110.344 56.6452 111.804 58.3722 111.804Z" fill="#F2F2F2"/>
<path d="M153.227 327.106C154.954 327.106 156.354 325.646 156.354 323.844C156.354 322.043 154.954 320.582 153.227 320.582C151.5 320.582 150.1 322.043 150.1 323.844C150.1 325.646 151.5 327.106 153.227 327.106Z" fill="#F2F2F2"/>
<path d="M93.0358 941.308C94.7628 941.308 96.1629 939.847 96.1629 938.046C96.1629 936.244 94.7628 934.784 93.0358 934.784C91.3087 934.784 89.9087 936.244 89.9087 938.046C89.9087 939.847 91.3087 941.308 93.0358 941.308Z" fill="#F2F2F2"/>
<path d="M1922.62 1076C1924.35 1076 1925.75 1074.54 1925.75 1072.74C1925.75 1070.94 1924.35 1069.48 1922.62 1069.48C1920.9 1069.48 1919.5 1070.94 1919.5 1072.74C1919.5 1074.54 1920.9 1076 1922.62 1076Z" fill="#F2F2F2"/>
<path d="M3.12708 437.078C4.85412 437.078 6.25417 435.617 6.25417 433.815C6.25417 432.014 4.85412 430.553 3.12708 430.553C1.40004 430.553 0 432.014 0 433.815C0 435.617 1.40004 437.078 3.12708 437.078Z" fill="#F2F2F2"/>
<path d="M132.032 443.985C133.759 443.985 135.159 442.524 135.159 440.723C135.159 438.921 133.759 437.46 132.032 437.46C130.305 437.46 128.905 438.921 128.905 440.723C128.905 442.524 130.305 443.985 132.032 443.985Z" fill="#F2F2F2"/>
<path d="M1703.81 198.777C1705.54 198.777 1706.94 197.316 1706.94 195.515C1706.94 193.713 1705.54 192.252 1703.81 192.252C1702.08 192.252 1700.68 193.713 1700.68 195.515C1700.68 197.316 1702.08 198.777 1703.81 198.777Z" fill="#F2F2F2"/>
<path d="M1864.13 6.5243C1865.86 6.5243 1867.26 5.06379 1867.26 3.26215C1867.26 1.46052 1865.86 0 1864.13 0C1862.4 0 1861 1.46052 1861 3.26215C1861 5.06379 1862.4 6.5243 1864.13 6.5243Z" fill="#F2F2F2"/>
<path d="M153.697 648.9C155.424 648.9 156.824 647.44 156.824 645.638C156.824 643.836 155.424 642.376 153.697 642.376C151.97 642.376 150.57 643.836 150.57 645.638C150.57 647.44 151.97 648.9 153.697 648.9Z" fill="#F2F2F2"/>
<path d="M1804.08 749.35C1805.24 749.35 1806.17 748.376 1806.17 747.175C1806.17 745.974 1805.24 745 1804.08 745C1802.93 745 1802 745.974 1802 747.175C1802 748.376 1802.93 749.35 1804.08 749.35Z" fill="#F2F2F2"/>
<path d="M321.047 111.805C322.198 111.805 323.132 110.831 323.132 109.63C323.132 108.429 322.198 107.455 321.047 107.455C319.896 107.455 318.962 108.429 318.962 109.63C318.962 110.831 319.896 111.805 321.047 111.805Z" fill="#F2F2F2"/>
<path d="M1335.26 107.455C1336.42 107.455 1337.35 106.481 1337.35 105.28C1337.35 104.079 1336.42 103.105 1335.26 103.105C1334.11 103.105 1333.18 104.079 1333.18 105.28C1333.18 106.481 1334.11 107.455 1335.26 107.455Z" fill="#F2F2F2"/>
<path d="M1359.38 269.128C1360.53 269.128 1361.47 268.155 1361.47 266.954C1361.47 265.752 1360.53 264.779 1359.38 264.779C1358.23 264.779 1357.3 265.752 1357.3 266.954C1357.3 268.155 1358.23 269.128 1359.38 269.128Z" fill="#F2F2F2"/>
<path d="M581.088 886.35C582.239 886.35 583.173 885.376 583.173 884.175C583.173 882.974 582.239 882 581.088 882C579.937 882 579.003 882.974 579.003 884.175C579.003 885.376 579.937 886.35 581.088 886.35Z" fill="#F2F2F2"/>
<path d="M1925.92 432.6C1927.07 432.6 1928 431.627 1928 430.426C1928 429.224 1927.07 428.251 1925.92 428.251C1924.76 428.251 1923.83 429.224 1923.83 430.426C1923.83 431.627 1924.76 432.6 1925.92 432.6Z" fill="#F2F2F2"/>
<path d="M726.265 440.153C727.417 440.153 728.35 439.18 728.35 437.978C728.35 436.777 727.417 435.804 726.265 435.804C725.114 435.804 724.18 436.777 724.18 437.978C724.18 439.18 725.114 440.153 726.265 440.153Z" fill="#F2F2F2"/>
<path d="M1903.17 152.856C1904.32 152.856 1905.25 151.882 1905.25 150.681C1905.25 149.48 1904.32 148.506 1903.17 148.506C1902.02 148.506 1901.08 149.48 1901.08 150.681C1901.08 151.882 1902.02 152.856 1903.17 152.856Z" fill="#F2F2F2"/>
<path d="M1888 653.633C1889.15 653.633 1890.09 652.659 1890.09 651.458C1890.09 650.257 1889.15 649.283 1888 649.283C1886.85 649.283 1885.92 650.257 1885.92 651.458C1885.92 652.659 1886.85 653.633 1888 653.633Z" fill="#F2F2F2"/>
<path d="M475.419 364.551C477.146 364.551 478.546 363.091 478.546 361.289C478.546 359.487 477.146 358.027 475.419 358.027C473.692 358.027 472.292 359.487 472.292 361.289C472.292 363.091 473.692 364.551 475.419 364.551Z" fill="#F2F2F2"/>
<path d="M507.127 111.524C508.854 111.524 510.254 110.064 510.254 108.262C510.254 106.461 508.854 105 507.127 105C505.4 105 504 106.461 504 108.262C504 110.064 505.4 111.524 507.127 111.524Z" fill="#F2F2F2"/>
<path d="M1813.3 930.001H1810.42V927H1808.88V930.001H1806V931.612H1808.88V934.612H1810.42V931.612H1813.3V930.001Z" fill="#F2F2F2"/>
<circle cx="331.26" cy="495.26" r="3.26" fill="#C4C4C4"/>
<circle cx="1638.26" cy="60.26" r="3.26" fill="#C4C4C4"/>
<circle cx="600.26" cy="216.26" r="3.26" fill="#C4C4C4"/>
<circle cx="334.26" cy="280.26" r="3.26" fill="#C4C4C4"/>
<circle cx="1539.26" cy="455.26" r="3.26" fill="#C4C4C4"/>
<circle cx="1219.26" cy="272.26" r="3.26" fill="#C4C4C4"/>
<circle cx="858.26" cy="227.26" r="3.26" fill="#C4C4C4"/>
<circle cx="756.26" cy="312.26" r="3.26" fill="#C4C4C4"/>
<circle cx="1570.26" cy="393.26" r="3.26" fill="#C4C4C4"/>
<circle cx="1450.26" cy="256.26" r="3.26" fill="#C4C4C4"/>
<circle cx="1276.26" cy="212.26" r="3.26" fill="#C4C4C4"/>
<circle cx="1398.26" cy="355.26" r="3.26" fill="#C4C4C4"/>
<circle cx="1066.26" cy="209.26" r="3.26" fill="#C4C4C4"/>
<circle cx="1157.26" cy="223.26" r="3.26" fill="#C4C4C4"/>
<circle cx="810.26" cy="966.26" r="3.26" fill="#C4C4C4"/>
<circle cx="1273.26" cy="315.26" r="3.26" fill="#C4C4C4"/>
<circle cx="722.26" cy="595.26" r="3.26" fill="#C4C4C4"/>
<circle cx="825.26" cy="362.26" r="3.26" fill="#C4C4C4"/>
<circle cx="607.26" cy="944.26" r="3.26" fill="#C4C4C4"/>
<circle cx="1041.26" cy="343.26" r="3.26" fill="#C4C4C4"/>
<circle cx="1710.26" cy="414.26" r="3.26" fill="#C4C4C4"/>
<circle cx="778.26" cy="216.26" r="3.26" fill="#C4C4C4"/>
<circle cx="89.26" cy="552.26" r="3.26" fill="#C4C4C4"/>
<circle cx="1584.26" cy="99.26" r="3.26" fill="#C4C4C4"/>
<circle cx="504.26" cy="752.26" r="3.26" fill="#C4C4C4"/>
<circle cx="89.26" cy="755.26" r="3.26" fill="#C4C4C4"/>
<circle cx="638.26" cy="627.26" r="3.26" fill="#C4C4C4"/>
<circle cx="430.26" cy="878.26" r="3.26" fill="#C4C4C4"/>
<circle cx="278.26" cy="793.26" r="3.26" fill="#C4C4C4"/>
<circle cx="468.26" cy="220.26" r="3.26" fill="#C4C4C4"/>
<circle cx="205.26" cy="195.26" r="3.26" fill="#C4C4C4"/>
<circle cx="1744.26" cy="287.26" r="3.26" fill="#C4C4C4"/>
<circle cx="1787.26" cy="248.26" r="3.26" fill="#C4C4C4"/>
<circle cx="1577.26" cy="205.26" r="3.26" fill="#C4C4C4"/>
<circle cx="1826.26" cy="362.26" r="3.26" fill="#C4C4C4"/>
<circle cx="1758.26" cy="116.26" r="3.26" fill="#C4C4C4"/>
<circle cx="1466.26" cy="153.26" r="3.26" fill="#C4C4C4"/>
<path d="M291.127 900.524C292.854 900.524 294.254 899.064 294.254 897.262C294.254 895.461 292.854 894 291.127 894C289.4 894 288 895.461 288 897.262C288 899.064 289.4 900.524 291.127 900.524Z" fill="#F2F2F2"/>
<path d="M378.127 634.524C379.854 634.524 381.254 633.064 381.254 631.262C381.254 629.461 379.854 628 378.127 628C376.4 628 375 629.461 375 631.262C375 633.064 376.4 634.524 378.127 634.524Z" fill="#F2F2F2"/>
<path d="M1800.13 482.524C1801.85 482.524 1803.25 481.064 1803.25 479.262C1803.25 477.461 1801.85 476 1800.13 476C1798.4 476 1797 477.461 1797 479.262C1797 481.064 1798.4 482.524 1800.13 482.524Z" fill="#F2F2F2"/>
<path d="M1758.13 594.524C1759.85 594.524 1761.25 593.064 1761.25 591.262C1761.25 589.461 1759.85 588 1758.13 588C1756.4 588 1755 589.461 1755 591.262C1755 593.064 1756.4 594.524 1758.13 594.524Z" fill="#F2F2F2"/>
<path d="M1714.13 507.524C1715.85 507.524 1717.25 506.064 1717.25 504.262C1717.25 502.461 1715.85 501 1714.13 501C1712.4 501 1711 502.461 1711 504.262C1711 506.064 1712.4 507.524 1714.13 507.524Z" fill="#F2F2F2"/>
<path d="M1627.13 296.524C1628.85 296.524 1630.25 295.064 1630.25 293.262C1630.25 291.461 1628.85 290 1627.13 290C1625.4 290 1624 291.461 1624 293.262C1624 295.064 1625.4 296.524 1627.13 296.524Z" fill="#F2F2F2"/>
<circle cx="1170.26" cy="1003.26" r="3.26" fill="#C4C4C4"/>
<circle cx="511.26" cy="502.26" r="3.26" fill="#C4C4C4"/>
</svg>
