<?xml version="1.0" encoding="utf-8"?>
<svg width="1928px" height="1076px" viewBox="0 0 1928 1076" version="1.1" xmlns:xlink="http://www.w3.org/1999/xlink" xmlns="http://www.w3.org/2000/svg">
  <g id="sky">
    <path d="M3.12701 6.5243C4.854 6.5243 6.25403 5.0638 6.25403 3.2622C6.25403 1.4605 4.854 0 3.12701 0C1.40002 0 0 1.4605 0 3.2622C0 5.0638 1.40002 6.5243 3.12701 6.5243L3.12701 6.5243Z" transform="translate(872.456 35.6875)" id="Vector_38" fill="#F2F2F2" fill-rule="evenodd" stroke="none" />
    <path d="M3.1271 6.524C4.8541 6.524 6.2542 5.064 6.2542 3.262C6.2542 1.46 4.8541 0 3.1271 0C1.4001 0 0 1.46 0 3.262C0 5.064 1.4001 6.524 3.1271 6.524L3.1271 6.524Z" transform="translate(55.245117 105.28)" id="Vector_39" fill="#F2F2F2" fill-rule="evenodd" stroke="none" />
    <path d="M3.127 6.52399C4.85399 6.52399 6.254 5.064 6.254 3.26199C6.254 1.461 4.85399 0 3.127 0C1.39999 0 0 1.461 0 3.26199C0 5.064 1.39999 6.52399 3.127 6.52399L3.127 6.52399Z" transform="translate(150.09998 320.582)" id="Vector_40" fill="#F2F2F2" fill-rule="evenodd" stroke="none" />
    <path d="M3.1271 6.52399C4.8541 6.52399 6.2542 5.06299 6.2542 3.26202C6.2542 1.46002 4.8541 0 3.1271 0C1.4 0 0 1.46002 0 3.26202C0 5.06299 1.4 6.52399 3.1271 6.52399L3.1271 6.52399Z" transform="translate(89.90869 934.784)" id="Vector_41" fill="#F2F2F2" fill-rule="evenodd" stroke="none" />
    <path d="M3.12 6.52002C4.84998 6.52002 6.25 5.06006 6.25 3.26001C6.25 1.45996 4.84998 0 3.12 0C1.40002 0 0 1.45996 0 3.26001C0 5.06006 1.40002 6.52002 3.12 6.52002L3.12 6.52002Z" transform="translate(1919.5 1069.48)" id="Vector_42" fill="#F2F2F2" fill-rule="evenodd" stroke="none" />
    <path d="M3.12701 6.52002C4.85501 6.52002 6.255 5.06006 6.255 3.26001C6.255 1.46008 4.85501 0 3.12701 0C1.40002 0 0 1.46008 0 3.26001C0 5.06006 1.40002 6.52002 3.12701 6.52002L3.12701 6.52002Z" transform="translate(311.972 1034.94)" id="Vector_43" fill="#F2F2F2" fill-rule="evenodd" stroke="none" />
    <path d="M3.12708 6.52499C4.85412 6.52499 6.25417 5.064 6.25417 3.26199C6.25417 1.461 4.85412 0 3.12708 0C1.40004 0 0 1.461 0 3.26199C0 5.064 1.40004 6.52499 3.12708 6.52499L3.12708 6.52499Z" transform="translate(0 430.553)" id="Vector_44" fill="#F2F2F2" fill-rule="evenodd" stroke="none" />
    <path d="M3.127 6.52499C4.854 6.52499 6.254 5.064 6.254 3.263C6.254 1.461 4.854 0 3.127 0C1.39999 0 0 1.461 0 3.263C0 5.064 1.39999 6.52499 3.127 6.52499L3.127 6.52499Z" transform="translate(128.90503 437.46)" id="Vector_45" fill="#F2F2F2" fill-rule="evenodd" stroke="none" />
    <path d="M3.13 6.52499C4.85999 6.52499 6.25989 5.064 6.25989 3.263C6.25989 1.461 4.85999 0 3.13 0C1.3999 0 0 1.461 0 3.263C0 5.064 1.3999 6.52499 3.13 6.52499L3.13 6.52499Z" transform="translate(1700.68 192.25201)" id="Vector_46" fill="#F2F2F2" fill-rule="evenodd" stroke="none" />
    <path d="M3.13 6.5243C4.85999 6.5243 6.26001 5.06379 6.26001 3.26215C6.26001 1.46052 4.85999 0 3.13 0C1.40002 0 0 1.46052 0 3.26215C0 5.06379 1.40002 6.5243 3.13 6.5243L3.13 6.5243Z" transform="translate(1861 0)" id="Vector_47" fill="#F2F2F2" fill-rule="evenodd" stroke="none" />
    <path d="M3.127 6.52405C4.85399 6.52405 6.254 5.06403 6.254 3.26202C6.254 1.46002 4.85399 0 3.127 0C1.39999 0 0 1.46002 0 3.26202C0 5.06403 1.39999 6.52405 3.127 6.52405L3.127 6.52405Z" transform="translate(150.57 642.376)" id="Vector_48" fill="#F2F2F2" fill-rule="evenodd" stroke="none" />
    <path d="M2.07996 4.34998C3.23999 4.34998 4.17004 3.37598 4.17004 2.17499C4.17004 0.973999 3.23999 0 2.07996 0C0.930054 0 0 0.973999 0 2.17499C0 3.37598 0.930054 4.34998 2.07996 4.34998L2.07996 4.34998Z" transform="translate(1802 745)" id="Vector_49" fill="#F2F2F2" fill-rule="evenodd" stroke="none" />
    <path d="M2.08499 4.35C3.23599 4.35 4.16998 3.376 4.16998 2.175C4.16998 0.973999 3.23599 0 2.08499 0C0.933991 0 0 0.973999 0 2.175C0 3.376 0.933991 4.35 2.08499 4.35L2.08499 4.35Z" transform="translate(318.96204 107.45502)" id="Vector_50" fill="#F2F2F2" fill-rule="evenodd" stroke="none" />
    <path d="M2.07996 4.35C3.23999 4.35 4.16992 3.376 4.16992 2.175C4.16992 0.973999 3.23999 0 2.07996 0C0.929932 0 0 0.973999 0 2.175C0 3.376 0.929932 4.35 2.07996 4.35L2.07996 4.35Z" transform="translate(1333.18 103.10501)" id="Vector_51" fill="#F2F2F2" fill-rule="evenodd" stroke="none" />
    <path d="M2.07996 4.349C3.22998 4.349 4.16992 3.37601 4.16992 2.17502C4.16992 0.973022 3.22998 0 2.07996 0C0.929932 0 0 0.973022 0 2.17502C0 3.37601 0.929932 4.349 2.07996 4.349L2.07996 4.349Z" transform="translate(1357.3 264.779)" id="Vector_52" fill="#F2F2F2" fill-rule="evenodd" stroke="none" />
    <path d="M2.08502 4.34998C3.23602 4.34998 4.16998 3.37598 4.16998 2.17499C4.16998 0.973999 3.23602 0 2.08502 0C0.934021 0 0 0.973999 0 2.17499C0 3.37598 0.934021 4.34998 2.08502 4.34998L2.08502 4.34998Z" transform="translate(579.003 882)" id="Vector_53" fill="#F2F2F2" fill-rule="evenodd" stroke="none" />
    <path d="M2.09009 4.349C3.23999 4.349 4.17004 3.37601 4.17004 2.17499C4.17004 0.972992 3.23999 0 2.09009 0C0.930054 0 0 0.972992 0 2.17499C0 3.37601 0.930054 4.349 2.09009 4.349L2.09009 4.349Z" transform="translate(1923.83 428.251)" id="Vector_54" fill="#F2F2F2" fill-rule="evenodd" stroke="none" />
    <path d="M2.08502 4.34903C3.237 4.34903 4.16998 3.37601 4.16998 2.17401C4.16998 0.973023 3.237 0 2.08502 0C0.934021 0 0 0.973023 0 2.17401C0 3.37601 0.934021 4.34903 2.08502 4.34903L2.08502 4.34903Z" transform="translate(724.18 435.804)" id="Vector_55" fill="#F2F2F2" fill-rule="evenodd" stroke="none" />
    <path d="M2.09009 4.35001C3.23999 4.35001 4.17004 3.37601 4.17004 2.175C4.17004 0.973999 3.23999 0 2.09009 0C0.940063 0 0 0.973999 0 2.175C0 3.37601 0.940063 4.35001 2.09009 4.35001L2.09009 4.35001Z" transform="translate(1901.08 148.50598)" id="Vector_56" fill="#F2F2F2" fill-rule="evenodd" stroke="none" />
    <path d="M2.07996 4.34998C3.22998 4.34998 4.16992 3.37598 4.16992 2.17499C4.16992 0.973999 3.22998 0 2.07996 0C0.929932 0 0 0.973999 0 2.17499C0 3.37598 0.929932 4.34998 2.07996 4.34998L2.07996 4.34998Z" transform="translate(1885.92 649.283)" id="Vector_57" fill="#F2F2F2" fill-rule="evenodd" stroke="none" />
    <path d="M3.12701 6.52399C4.854 6.52399 6.254 5.064 6.254 3.26199C6.254 1.45999 4.854 0 3.12701 0C1.39999 0 0 1.45999 0 3.26199C0 5.064 1.39999 6.52399 3.12701 6.52399L3.12701 6.52399Z" transform="translate(472.292 358.027)" id="Vector_58" fill="#F2F2F2" fill-rule="evenodd" stroke="none" />
    <path d="M7.297 3.0012L4.42004 3.0012L4.42004 0L2.87701 0L2.87701 3.0012L0 3.0012L0 4.61159L2.87701 4.61159L2.87701 7.61169L4.42004 7.61169L4.42004 4.61159L7.297 4.61159L7.297 3.0012L7.297 3.0012Z" transform="translate(548.282 70.48389)" id="Vector_59" fill="#F2F2F2" fill-rule="evenodd" stroke="none" />
    <path d="M7.30005 3.00098L4.42004 3.00098L4.42004 0L2.88 0L2.88 3.00098L0 3.00098L0 4.612L2.88 4.612L2.88 7.612L4.42004 7.612L4.42004 4.612L7.30005 4.612L7.30005 3.00098L7.30005 3.00098Z" transform="translate(1806 927)" id="Vector_60" fill="#F2F2F2" fill-rule="evenodd" stroke="none" />
  </g>
</svg>