<svg width="1943" height="1076" viewBox="0 0 1943 1076" fill="none" xmlns="http://www.w3.org/2000/svg">
<path d="M882.396 42.2118C884.136 42.2118 885.547 40.7513 885.547 38.9497C885.547 37.148 884.136 35.6875 882.396 35.6875C880.655 35.6875 879.244 37.148 879.244 38.9497C879.244 40.7513 880.655 42.2118 882.396 42.2118Z" fill="#F2F2F2"/>
<path d="M58.8265 111.804C60.5669 111.804 61.9779 110.344 61.9779 108.542C61.9779 106.74 60.5669 105.28 58.8265 105.28C57.086 105.28 55.675 106.74 55.675 108.542C55.675 110.344 57.086 111.804 58.8265 111.804Z" fill="#F2F2F2"/>
<path d="M93.7596 941.308C95.5 941.308 96.911 939.847 96.911 938.046C96.911 936.244 95.5 934.784 93.7596 934.784C92.0191 934.784 90.6082 936.244 90.6082 938.046C90.6082 939.847 92.0191 941.308 93.7596 941.308Z" fill="#F2F2F2"/>
<path d="M1937.58 1076C1939.32 1076 1940.73 1074.54 1940.73 1072.74C1940.73 1070.94 1939.32 1069.48 1937.58 1069.48C1935.84 1069.48 1934.43 1070.94 1934.43 1072.74C1934.43 1074.54 1935.84 1076 1937.58 1076Z" fill="#F2F2F2"/>
<path d="M3.15141 437.078C4.89189 437.078 6.30282 435.617 6.30282 433.815C6.30282 432.014 4.89189 430.553 3.15141 430.553C1.41094 430.553 0 432.014 0 433.815C0 435.617 1.41094 437.078 3.15141 437.078Z" fill="#F2F2F2"/>
<path d="M1717.07 198.777C1718.81 198.777 1720.22 197.316 1720.22 195.515C1720.22 193.713 1718.81 192.252 1717.07 192.252C1715.33 192.252 1713.92 193.713 1713.92 195.515C1713.92 197.316 1715.33 198.777 1717.07 198.777Z" fill="#F2F2F2"/>
<path d="M1878.63 6.5243C1880.37 6.5243 1881.78 5.06379 1881.78 3.26215C1881.78 1.46052 1880.37 0 1878.63 0C1876.89 0 1875.48 1.46052 1875.48 3.26215C1875.48 5.06379 1876.89 6.5243 1878.63 6.5243Z" fill="#F2F2F2"/>
<path d="M154.893 648.9C156.634 648.9 158.045 647.44 158.045 645.638C158.045 643.836 156.634 642.376 154.893 642.376C153.153 642.376 151.742 643.836 151.742 645.638C151.742 647.44 153.153 648.9 154.893 648.9Z" fill="#F2F2F2"/>
<path d="M1818.12 749.35C1819.28 749.35 1820.22 748.376 1820.22 747.175C1820.22 745.974 1819.28 745 1818.12 745C1816.96 745 1816.02 745.974 1816.02 747.175C1816.02 748.376 1816.96 749.35 1818.12 749.35Z" fill="#F2F2F2"/>
<path d="M323.545 111.805C324.705 111.805 325.646 110.831 325.646 109.63C325.646 108.429 324.705 107.455 323.545 107.455C322.385 107.455 321.444 108.429 321.444 109.63C321.444 110.831 322.385 111.805 323.545 111.805Z" fill="#F2F2F2"/>
<path d="M1345.65 107.455C1346.81 107.455 1347.75 106.481 1347.75 105.28C1347.75 104.079 1346.81 103.105 1345.65 103.105C1344.49 103.105 1343.55 104.079 1343.55 105.28C1343.55 106.481 1344.49 107.455 1345.65 107.455Z" fill="#F2F2F2"/>
<path d="M1369.96 269.128C1371.12 269.128 1372.06 268.155 1372.06 266.954C1372.06 265.752 1371.12 264.779 1369.96 264.779C1368.8 264.779 1367.86 265.752 1367.86 266.954C1367.86 268.155 1368.8 269.128 1369.96 269.128Z" fill="#F2F2F2"/>
<path d="M585.609 886.35C586.769 886.35 587.71 885.376 587.71 884.175C587.71 882.974 586.769 882 585.609 882C584.448 882 583.508 882.974 583.508 884.175C583.508 885.376 584.448 886.35 585.609 886.35Z" fill="#F2F2F2"/>
<path d="M1940.9 432.6C1942.06 432.6 1943 431.627 1943 430.426C1943 429.224 1942.06 428.251 1940.9 428.251C1939.74 428.251 1938.8 429.224 1938.8 430.426C1938.8 431.627 1939.74 432.6 1940.9 432.6Z" fill="#F2F2F2"/>
<path d="M1917.97 152.856C1919.13 152.856 1920.07 151.882 1920.07 150.681C1920.07 149.48 1919.13 148.506 1917.97 148.506C1916.81 148.506 1915.87 149.48 1915.87 150.681C1915.87 151.882 1916.81 152.856 1917.97 152.856Z" fill="#F2F2F2"/>
<path d="M1902.69 653.633C1903.85 653.633 1904.79 652.659 1904.79 651.458C1904.79 650.257 1903.85 649.283 1902.69 649.283C1901.53 649.283 1900.59 650.257 1900.59 651.458C1900.59 652.659 1901.53 653.633 1902.69 653.633Z" fill="#F2F2F2"/>
<path d="M511.073 111.524C512.813 111.524 514.224 110.064 514.224 108.262C514.224 106.461 512.813 105 511.073 105C509.332 105 507.921 106.461 507.921 108.262C507.921 110.064 509.332 111.524 511.073 111.524Z" fill="#F2F2F2"/>
<path d="M1827.4 930.001H1824.5V927H1822.95V930.001H1820.05V931.612H1822.95V934.612H1824.5V931.612H1827.4V930.001Z" fill="#F2F2F2"/>
<circle cx="331.26" cy="495.26" r="3.26" fill="#C4C4C4"/>
<circle cx="1638.26" cy="60.26" r="3.26" fill="#C4C4C4"/>
<circle cx="600.26" cy="216.26" r="3.26" fill="#C4C4C4"/>
<circle cx="1539.26" cy="455.26" r="3.26" fill="#C4C4C4"/>
<circle cx="1219.26" cy="272.26" r="3.26" fill="#C4C4C4"/>
<circle cx="858.26" cy="227.26" r="3.26" fill="#C4C4C4"/>
<circle cx="1570.26" cy="393.26" r="3.26" fill="#C4C4C4"/>
<circle cx="1450.26" cy="256.26" r="3.26" fill="#C4C4C4"/>
<circle cx="1276.26" cy="212.26" r="3.26" fill="#C4C4C4"/>
<circle cx="1398.26" cy="355.26" r="3.26" fill="#C4C4C4"/>
<circle cx="1066.26" cy="209.26" r="3.26" fill="#C4C4C4"/>
<circle cx="1157.26" cy="223.26" r="3.26" fill="#C4C4C4"/>
<circle cx="810.26" cy="966.26" r="3.26" fill="#C4C4C4"/>
<circle cx="1273.26" cy="315.26" r="3.26" fill="#C4C4C4"/>
<circle cx="722.26" cy="595.26" r="3.26" fill="#C4C4C4"/>
<circle cx="607.26" cy="944.26" r="3.26" fill="#C4C4C4"/>
<circle cx="1041.26" cy="343.26" r="3.26" fill="#C4C4C4"/>
<circle cx="1710.26" cy="414.26" r="3.26" fill="#C4C4C4"/>
<circle cx="778.26" cy="216.26" r="3.26" fill="#C4C4C4"/>
<circle cx="89.26" cy="552.26" r="3.26" fill="#C4C4C4"/>
<circle cx="1584.26" cy="99.26" r="3.26" fill="#C4C4C4"/>
<circle cx="504.26" cy="752.26" r="3.26" fill="#C4C4C4"/>
<circle cx="89.26" cy="755.26" r="3.26" fill="#C4C4C4"/>
<circle cx="638.26" cy="627.26" r="3.26" fill="#C4C4C4"/>
<circle cx="430.26" cy="878.26" r="3.26" fill="#C4C4C4"/>
<circle cx="278.26" cy="793.26" r="3.26" fill="#C4C4C4"/>
<circle cx="468.26" cy="220.26" r="3.26" fill="#C4C4C4"/>
<circle cx="1744.26" cy="287.26" r="3.26" fill="#C4C4C4"/>
<circle cx="1787.26" cy="248.26" r="3.26" fill="#C4C4C4"/>
<circle cx="1577.26" cy="205.26" r="3.26" fill="#C4C4C4"/>
<circle cx="1826.26" cy="362.26" r="3.26" fill="#C4C4C4"/>
<circle cx="1758.26" cy="116.26" r="3.26" fill="#C4C4C4"/>
<circle cx="1466.26" cy="153.26" r="3.26" fill="#C4C4C4"/>
<path d="M293.392 900.524C295.133 900.524 296.544 899.064 296.544 897.262C296.544 895.461 295.133 894 293.392 894C291.652 894 290.241 895.461 290.241 897.262C290.241 899.064 291.652 900.524 293.392 900.524Z" fill="#F2F2F2"/>
<path d="M1814.13 482.524C1815.87 482.524 1817.28 481.064 1817.28 479.262C1817.28 477.461 1815.87 476 1814.13 476C1812.39 476 1810.98 477.461 1810.98 479.262C1810.98 481.064 1812.39 482.524 1814.13 482.524Z" fill="#F2F2F2"/>
<path d="M1771.81 594.524C1773.55 594.524 1774.96 593.064 1774.96 591.262C1774.96 589.461 1773.55 588 1771.81 588C1770.06 588 1768.65 589.461 1768.65 591.262C1768.65 593.064 1770.06 594.524 1771.81 594.524Z" fill="#F2F2F2"/>
<path d="M1727.46 507.524C1729.2 507.524 1730.61 506.064 1730.61 504.262C1730.61 502.461 1729.2 501 1727.46 501C1725.72 501 1724.31 502.461 1724.31 504.262C1724.31 506.064 1725.72 507.524 1727.46 507.524Z" fill="#F2F2F2"/>
<path d="M1639.79 296.524C1641.53 296.524 1642.94 295.064 1642.94 293.262C1642.94 291.461 1641.53 290 1639.79 290C1638.05 290 1636.63 291.461 1636.63 293.262C1636.63 295.064 1638.05 296.524 1639.79 296.524Z" fill="#F2F2F2"/>
<circle cx="1170.26" cy="1003.26" r="3.26" fill="#C4C4C4"/>
<circle cx="511.26" cy="502.26" r="3.26" fill="#C4C4C4"/>
</svg>
