<svg width="64" height="64" viewBox="0 0 64 64" fill="none" xmlns="http://www.w3.org/2000/svg">
<path d="M26.824 62.6761L52.912 63.4921L51.282 31.2881L53.728 1.83605L41.702 2.44805L36.1 0.206055L11.54 1.53005L12.76 30.5741L11.54 64.0001L26.826 62.6761" fill="#F14729"/>
<path d="M35.7799 43.748L33.0539 44.492L34.5399 40.9L36.0259 30.866L34.1659 30.494L36.3959 27.398L39.1759 16.958L34.2919 17.982C34.2919 17.982 36.8659 13.268 39.5999 10.196L36.0259 7.45203C36.0259 7.45203 24.5199 12.524 27.6139 29L25.2139 28.584L27.4939 45.854L25.5639 46.35C25.5639 46.35 27.5399 50.384 30.3079 52.296C30.5599 52.47 26.8399 38.796 30.8039 25.168L31.1759 26.036C31.1759 26.036 28.0159 40.56 31.1759 52.296C31.1759 52.296 31.3219 52.576 32.8999 52.388C32.8999 52.388 35.7599 47 35.7599 43.748" fill="#1E5CB3"/>
<path d="M32.0441 23.94C32.0441 23.94 30.3721 31.394 30.8541 43.48C30.9886 46.7802 31.3306 50.0687 31.8781 53.326C32.1941 55.862 32.4061 56.782 33.2261 59.838L33.1781 61.81C33.1781 61.81 26.6041 40.8 32.0401 23.94H32.0441ZM36.0801 17.48C36.0801 17.48 37.5601 16.744 39.6801 16.476C39.6801 16.476 41.9961 20.722 36.2961 27.972C36.2961 27.972 39.6961 20.38 38.8961 18C38.8961 18 37.9961 17.44 36.0841 17.48H36.0801ZM35.4001 30.224C35.4001 30.224 36.7281 30.532 37.3661 30.016C37.3661 30.016 36.1101 34.916 36.4401 37.612C36.7701 40.308 34.3941 42.012 34.3941 42.012C34.3941 42.012 36.4181 39.452 35.7821 37.366C35.3421 35.92 35.8341 32.222 36.3901 31.046C36.3901 31.046 35.8701 30.974 35.4021 30.202L35.4001 30.224ZM34.0861 43.116C34.0861 43.116 36.2801 42.856 36.5101 41.746C36.5101 41.746 36.7781 48.374 33.7101 51.106C33.7101 51.106 36.0361 47.478 35.6701 43.706L34.0641 43.098L34.0861 43.116ZM27.8941 45.894C27.8941 45.894 27.1861 46.686 25.0641 44.938C25.0641 44.938 25.7401 49.394 29.9441 51.432C29.9441 51.432 27.0521 49.232 26.2741 46.9C26.2741 46.9 27.2741 46.6 27.8981 45.892L27.8941 45.894ZM27.2181 44.206C27.2181 44.206 24.3481 36.92 24.9621 27.074C24.9621 27.074 25.6321 28.858 27.7881 29.482C27.7881 29.482 26.7721 29.69 26.1801 29.602C26.1801 29.602 24.6801 33.758 27.2201 44.208L27.2181 44.206ZM39.2761 10.348C39.2761 10.348 38.2001 2.44198 31.4701 10.438C26.1101 16.804 26.7501 22.21 27.0781 25.226C27.1621 25.998 26.0781 17.172 31.9521 11.366C37.8261 5.55998 39.1521 10.014 39.2761 10.352" fill="white"/>
<path d="M29.3601 3.60405C29.3601 3.60405 24.0801 2.09605 22.4001 19.6C22.4001 19.6 21.1041 14.2001 24.4601 6.55605C27.8161 -1.08795 29.3641 3.60405 29.3641 3.60405H29.3601ZM22.8101 2.32405C22.8101 2.32405 20.1161 6.37605 20.7301 10.6901C20.7301 10.6901 18.6901 2.56605 22.8101 2.32405V2.32405ZM42.6341 13.6841C42.6341 13.6841 45.8201 12.51 41.2581 24.364C41.2581 24.364 43.6181 20.9001 45.1041 15.4561C46.0581 11.9621 42.6341 13.6821 42.6341 13.6821V13.6841ZM47.7841 12.7621C47.7841 12.7621 50.0361 14.8021 48.4401 17.4961C48.4401 17.4961 52.4461 13.2881 47.7841 12.7621Z" fill="#FFF200"/>
</svg>
