<svg width="64" height="64" viewBox="0 0 64 64" fill="none" xmlns="http://www.w3.org/2000/svg">
<path d="M27.733 34.453L36.373 29.44L44.906 34.453L36.373 39.36L27.733 34.56V34.453ZM1.81299 19.627L36.373 0L62.08 14.613L53.547 29.44L36.374 19.627L10.454 34.347L1.81299 19.627Z" fill="#F6BD3A"/>
<path d="M27.7331 54.08V44.267L36.2661 39.36L44.9061 34.453V44.266L36.3731 49.173V58.986L27.7331 64V54.08ZM27.7331 34.453L19.0931 29.546L10.4531 34.346V24.533L36.3731 9.81299V29.44L27.7331 34.453ZM53.4401 24.533V19.626L62.0801 14.613L62.1871 24.426L53.5471 29.439L53.4401 24.533Z" fill="#EB8C23"/>
<path d="M19.093 58.773V29.547L27.626 24.747L27.733 34.454L36.373 39.254V49.174L27.733 44.587V64L19.093 58.773ZM6.07999 31.787L1.81299 29.227V19.627L10.453 24.534V34.347L6.07999 31.787ZM36.373 19.627V9.81299L53.44 19.626L53.547 29.439L36.374 19.626L36.373 19.627Z" fill="#E35A2B"/>
</svg>
