<svg width="349" height="703" viewBox="0 0 349 703" fill="none" xmlns="http://www.w3.org/2000/svg">
<path id="Vector" d="M348.55 182.989C348.499 81.8735 270.432 -0.0536046 174.182 2.63158e-05C77.9331 0.0537151 -0.0511072 82.0678 2.51303e-05 183.184C0.0124598 207.895 4.78632 232.347 14.034 255.068C13.8635 254.869 13.6875 254.675 13.5179 254.475C21.2587 273.429 31.9897 290.874 45.2586 306.075C45.2982 306.121 45.3389 306.165 45.3786 306.211C46.4493 307.437 47.526 308.657 48.6276 309.851C64.5533 327.302 83.6201 341.255 104.721 350.901C125.822 360.546 148.536 365.692 171.546 366.04L165.657 702.07H183.85L180.168 480.286L206.486 465.729L202.471 457.718L180 470.147L178.271 366.023C223.787 364.927 267.087 345.161 298.91 310.956C330.732 276.75 348.549 230.819 348.55 182.989Z" fill="#3F3D56"/>
</svg>
