<svg width="544" height="362" viewBox="0 0 544 362" fill="none" xmlns="http://www.w3.org/2000/svg">
<g id="underConstruction" clip-path="url(#clip0)">
<path id="Vector" opacity="0.1" d="M491.809 352.641C491.809 356.054 480.941 359.252 461.976 362H103.269C87.3098 362.037 71.6258 357.501 57.8121 348.854L57.5996 348.724C63.0497 346.575 72.8875 344.571 86.2771 342.762L86.8776 342.683C92.8819 341.888 99.5929 341.134 106.927 340.419C107.112 340.419 107.301 340.389 107.486 340.364C113.306 339.804 119.496 339.28 126.058 338.79C126.266 338.79 126.469 338.75 126.677 338.74C129.208 338.544 131.791 338.357 134.427 338.18L135.443 338.11C154.634 336.821 176.448 335.792 200.105 335.112H200.133C203.446 335.013 206.794 334.924 210.178 334.848C213.941 334.751 217.75 334.666 221.605 334.593C224.547 334.523 227.526 334.473 230.515 334.423H230.584C244.066 334.203 257.996 334.093 272.24 334.093C307.462 334.093 340.754 334.788 370.253 336.037H370.337C374.872 336.227 379.325 336.437 383.666 336.651L387.361 336.841C392.26 337.094 397.033 337.366 401.679 337.656C456.318 341.019 491.809 346.48 491.809 352.641Z" fill="#6C63FF"/>
<path id="Vector_2" d="M72.8926 338.146L77.7376 338.131H84.5687L93.2056 186.339L178.739 31.9243L175.021 27.6071V16.6742L82.518 182.761L72.8926 338.146Z" fill="#BD9962"/>
<path id="Vector_3" d="M58.6162 339.41L280.245 357.758L280.434 357.773L494.922 343.502L495.084 343.492V333.693L258.745 329.001L61.5676 328.797H60.1265L59.9695 329.896L58.6162 339.41Z" fill="#BD9962"/>
<path id="Vector_4" opacity="0.1" d="M58.6162 339.41L280.245 357.758L280.434 357.773L494.922 343.502L495.084 343.312V333.898H494.894L280.245 341.653L61.5676 328.797H61.5352L61.1473 329.071L59.9695 329.896L58.6162 339.41Z" fill="black"/>
<path id="Vector_5" opacity="0.1" d="M58.6162 339.41L280.245 357.758V341.653L61.1473 329.071L59.9695 329.896L58.6162 339.41Z" fill="black"/>
<path id="Vector_6" opacity="0.1" d="M286.66 145.755L287.413 149.428L470.373 215.545L473.458 333.269L480.137 334.078L474.899 213.097L286.66 145.755Z" fill="black"/>
<path id="Vector_7" d="M287.016 225.848L354.121 240.144L354.144 240.149L471.676 265.198L477.057 262.864L477.038 262.455L476.687 254.335L287.085 212.887L287.016 225.848Z" fill="#BD9962"/>
<path id="Vector_8" opacity="0.1" d="M174.993 27.4022L272.702 140.859L269.681 340.429L277.981 341.513L280.244 134.328L174.993 16.7891V27.4022Z" fill="black"/>
<path id="Vector_9" d="M90.9 192.754L158.385 204.779L158.408 204.783L276.605 225.855L281.916 223.341L281.885 222.932L281.3 214.828L90.5956 179.796L90.9 192.754Z" fill="#BD9962"/>
<path id="Vector_10" opacity="0.1" d="M354.144 240.149L471.676 265.198L477.056 262.864L477.038 262.455L354.144 240.149Z" fill="black"/>
<path id="Vector_11" d="M358.638 175.166L360.453 283.266L361.39 338.725L369.653 338.425L374.854 338.235L373.237 176.73L369.653 175.441L368.868 175.166H358.638Z" fill="#BD9962"/>
<path id="Vector_12" opacity="0.1" d="M358.711 175.141V175.166L360.453 283.266L361.39 338.725L369.653 338.425V175.141H358.711Z" fill="black"/>
<path id="Vector_13" d="M229.208 202.773C229.693 203.058 230.156 203.384 230.593 203.748C231.111 204.238 231.576 204.789 231.979 205.392C233.96 208.165 235.789 211.388 235.595 214.886C235.6 215.394 235.511 215.899 235.334 216.371C235.157 216.842 234.896 217.272 234.566 217.634C233.748 218.388 232.575 218.423 231.503 218.423C230.339 218.423 229.115 218.423 228.109 217.774C227.102 217.124 226.261 215.86 225.069 215.89C224.901 215.92 224.73 215.92 224.561 215.89C224.15 215.745 224.067 215.16 223.799 214.791C223.337 214.126 222.363 214.291 221.638 214.581C220.913 214.871 220.109 215.305 219.393 214.97C218.978 214.733 218.638 214.366 218.419 213.916C216.705 210.918 216.34 207.315 216.017 203.833C215.818 201.714 214.303 194.489 218.483 196.133C220.331 196.852 222.058 198.291 223.739 199.346L229.208 202.773Z" fill="#4A41D4"/>
<path id="Vector_14" d="M225.079 203.488C225.452 203.778 225.904 203.925 226.364 203.905C226.823 203.886 227.264 203.7 227.614 203.378C228.302 202.706 228.74 201.786 228.847 200.79C229.309 200.635 229.545 201.289 229.84 201.689C230.358 202.369 231.411 202.359 231.882 203.083C232.21 203.583 232.136 204.277 232.367 204.842C232.667 205.572 233.411 205.951 233.919 206.541C234.399 207.185 234.745 207.933 234.935 208.734L235.692 211.193C236.055 212.215 236.288 213.286 236.385 214.376C236.433 214.921 236.38 215.47 236.229 215.993C236.079 216.515 235.833 217 235.508 217.419C234.491 218.603 232.824 218.728 231.351 218.693C230.859 218.704 230.368 218.642 229.891 218.508C228.584 218.068 227.748 216.644 227.402 215.21C227.055 213.776 227.092 212.272 226.889 210.803C226.67 209.36 226.282 207.953 225.734 206.616C225.328 205.577 224.21 204.028 224.229 202.923C224.561 202.923 224.801 203.253 225.079 203.488Z" fill="#4A41D4"/>
<path id="Vector_15" d="M226.737 198.426C226.521 197.717 226.395 196.979 226.363 196.233C226.363 194.734 226.996 193.324 227.633 191.985L222.354 192.76C221.716 192.855 221.005 192.995 220.645 193.569C220.508 193.854 220.437 194.17 220.437 194.491C220.437 194.812 220.508 195.128 220.645 195.413C220.909 195.983 221.12 196.581 221.273 197.197C221.285 197.736 221.342 198.273 221.444 198.801C221.608 199.189 221.838 199.54 222.123 199.835C223.633 201.644 224.765 203.778 225.892 205.891C225.859 205.831 229.074 203.138 228.945 202.259C228.871 201.759 227.942 201.159 227.647 200.68C227.238 199.983 226.932 199.223 226.737 198.426V198.426Z" fill="#FFB8B8"/>
<path id="Vector_16" d="M272 178.904V183.826L194.096 200.265L190.055 202.913H176.111V200.14L252.652 180.133L272 178.904Z" fill="#BD9962"/>
<path id="Vector_17" opacity="0.1" d="M272 183.826L194.096 200.265L190.055 202.913H176.111L253.22 185.06L272 183.826Z" fill="black"/>
<path id="Vector_18" d="M195.459 193.679C199.545 193.679 202.858 190.095 202.858 185.674C202.858 181.254 199.545 177.67 195.459 177.67C191.372 177.67 188.06 181.254 188.06 185.674C188.06 190.095 191.372 193.679 195.459 193.679Z" fill="#FFB8B8"/>
<path id="Vector_19" d="M194.027 195.673C194.134 196.131 194.134 196.609 194.027 197.067C193.911 197.387 193.747 197.684 193.542 197.946C192.826 198.946 192.033 199.879 191.173 200.735C191.611 201.794 192.401 202.637 193.385 203.098C194.363 203.548 195.388 203.866 196.438 204.043C196.962 204.192 197.508 204.232 198.045 204.162C198.541 204.028 199.011 203.797 199.431 203.483L203.542 200.82C204.162 200.456 204.736 200.008 205.251 199.485C206.005 198.647 206.431 197.527 206.442 196.358C206.461 196.148 206.409 195.938 206.294 195.768C206.137 195.62 205.939 195.53 205.731 195.513C204.285 195.168 203.145 193.899 202.498 192.46C201.913 190.985 201.535 189.424 201.376 187.828L196.992 190.326C196.341 190.701 195.695 191.076 195.02 191.401C194.591 191.611 193.722 191.785 193.418 192.21C192.836 192.995 193.875 194.729 194.027 195.673Z" fill="#FFB8B8"/>
<path id="Vector_20" d="M191.2 199.281C190.576 199.834 190.089 200.547 189.782 201.354C189.496 202.354 189.782 203.408 190.041 204.397C191.253 208.614 192.179 212.921 192.812 217.284C193.2 220.282 193.343 223.325 193.533 226.358C193.921 232.544 194.484 242.408 195.237 248.554C198.008 248.689 200.71 247.814 203.458 247.494C208.594 246.905 213.883 248.254 218.913 246.995C217.693 241.783 216.474 232.884 215.255 227.677C214.715 225.626 214.341 223.528 214.137 221.406C214.031 219.882 214.095 218.353 214.114 216.819C214.155 213.821 214.003 210.823 213.85 207.825C213.675 204.327 213.499 200.83 212.733 197.407C212.679 196.971 212.49 196.567 212.197 196.263C211.735 195.898 211.135 196.028 210.585 196.108C208.902 196.339 207.199 195.902 205.791 194.879C205.181 194.429 204.364 193.879 203.796 194.379C203.553 194.68 203.393 195.049 203.334 195.443C203.082 196.15 202.694 196.791 202.196 197.322C201.697 197.854 201.099 198.264 200.442 198.526C199.126 199.042 197.748 199.348 196.35 199.436C195.923 199.535 195.477 199.48 195.08 199.281C194.424 198.846 194.378 197.282 193.551 197.177C192.826 197.087 191.69 198.776 191.2 199.281Z" fill="#3F3D56"/>
<path id="Vector_21" d="M202.128 211.483C200.424 209.719 199.676 207.161 198.433 204.987C197.587 203.525 196.507 202.239 195.242 201.189C194.606 200.735 194.023 200.2 193.505 199.595C193.066 199.011 192.734 198.231 192.069 198.006C191.794 197.942 191.509 197.95 191.238 198.031C190.967 198.112 190.718 198.263 190.512 198.471C190.105 198.891 189.72 199.335 189.358 199.8C187.399 201.994 183.958 202.299 182.407 204.837C181.988 205.375 181.703 206.02 181.58 206.711C181.133 210.405 182.016 214.144 184.046 217.154C184.439 217.852 185.043 218.381 185.755 218.653C185.658 219.585 185.773 220.528 186.088 221.401C186.943 224.564 187.994 227.66 189.233 230.67C188.937 231.848 188.73 233.049 188.614 234.263C188.291 237.316 188.591 240.414 188.286 243.472C188.037 245.97 187.362 248.404 187.339 250.907C187.339 251.307 187.372 251.782 187.69 251.986C187.86 252.081 188.05 252.124 188.24 252.111L193.921 252.296C197.219 252.401 200.549 252.506 203.796 251.847C204.228 251.777 204.648 251.634 205.038 251.422C206.137 250.757 206.502 249.258 206.678 247.924C206.907 246.194 206.998 244.445 206.95 242.697C207.639 245.051 208.456 247.484 210.534 248.504C211.634 249.043 212.89 249.003 214.095 248.968C216.694 248.843 219.283 248.555 221.85 248.104C222.008 248.125 222.169 248.106 222.319 248.048C222.469 247.99 222.605 247.895 222.715 247.77C222.825 247.645 222.906 247.494 222.953 247.329C222.999 247.164 223.009 246.99 222.982 246.82L223.01 244.092C223.065 238.55 221.795 233.254 221.301 227.737C221.144 225.998 221.157 224.239 220.765 222.536C220.603 221.821 220.368 221.121 220.224 220.402C220.101 219.697 220.024 218.985 219.994 218.268L219.633 212.772C219.462 210.229 219.218 207.775 219.037 205.237C218.938 202.765 218.607 200.311 218.049 197.912C217.647 196.412 216.811 194.714 215.366 194.529C214.594 194.434 213.846 194.799 213.112 195.053C211.307 195.668 209.369 195.659 207.569 195.028C207.013 194.791 206.433 194.623 205.842 194.529C205.544 194.485 205.241 194.527 204.963 194.652C204.686 194.777 204.444 194.979 204.262 195.238C204.083 195.629 203.999 196.062 204.017 196.497C203.8 201.489 203.399 206.631 202.128 211.483Z" fill="#0E0689"/>
<path id="Vector_22" d="M194.697 211.633C192.568 209.204 190.383 206.731 187.639 205.187C186.559 204.577 185.33 204.118 184.134 204.347C182.938 204.577 181.824 205.701 181.88 207.016C181.917 207.83 182.374 208.55 182.517 209.349C182.684 210.249 182.443 211.208 182.702 212.077C182.912 212.65 183.226 213.172 183.626 213.611L186.896 217.804C188.281 219.552 189.667 221.326 191.45 222.536C193.233 223.745 195.542 224.309 197.5 223.45C198.894 222.749 200.052 221.599 200.817 220.157C201.629 218.758 202.202 217.229 202.964 215.785C204.15 213.478 205.716 211.424 207.583 209.724C206.622 209.454 205.417 209.074 204.812 208.225C204.64 207.955 204.493 207.667 204.373 207.365L203.625 205.617C203.37 205.602 203.116 205.645 202.877 205.742C202.639 205.839 202.422 205.989 202.239 206.181C201.918 206.582 201.574 206.961 201.209 207.315C200.558 207.845 199.676 207.99 199.085 208.595C198.856 208.854 198.649 209.135 198.466 209.434C198.019 210.07 197.451 210.595 196.801 210.974C196.151 211.353 195.434 211.578 194.697 211.633V211.633Z" fill="#4A41D4"/>
<path id="Vector_23" d="M207.754 201.184C209.357 198.021 209.283 194.229 209.74 190.656C209.789 189.71 210.096 188.801 210.622 188.043C211.546 186.914 213.176 186.899 214.571 187.044C214.982 187.094 215.495 187.303 215.472 187.748C215.439 187.907 215.367 188.054 215.264 188.173C213.912 190.061 213.117 192.345 212.982 194.729C213.707 195.273 214.83 194.154 215.527 194.729C215.989 195.148 215.777 195.978 215.499 196.577C214.856 197.966 214.192 199.346 213.509 200.715C212.963 201.921 212.251 203.032 211.398 204.008C210.811 204.617 210.123 205.097 209.527 205.696C208.142 207.101 207.306 209.084 205.874 210.453C205.753 210.595 205.589 210.686 205.412 210.708C205.23 210.694 205.058 210.611 204.927 210.473C204.212 209.844 203.619 209.068 203.181 208.19C202.636 207.101 202.719 206.781 203.579 206.011C205.186 204.637 206.752 203.163 207.754 201.184Z" fill="#FFB8B8"/>
<path id="Vector_24" d="M192.018 209.484C192.295 209.669 192.637 209.879 192.941 209.724C193.066 209.642 193.172 209.531 193.251 209.399C193.779 208.637 194.219 207.808 194.563 206.931C194.622 206.807 194.655 206.67 194.66 206.531C194.66 206.211 194.396 205.976 194.152 205.791C192.84 204.887 191.43 204.162 189.953 203.633C188.734 203.133 187.459 202.698 186.166 202.823C185.68 202.859 185.206 203 184.771 203.239C184.337 203.477 183.952 203.809 183.639 204.212C182.716 205.497 184.263 205.886 185.233 206.351C187.478 207.455 189.907 208.095 192.018 209.484Z" fill="#4A41D4"/>
<path id="Vector_25" opacity="0.1" d="M190.563 217.978C190.547 218.093 190.557 218.209 190.591 218.318C190.624 218.428 190.681 218.527 190.757 218.608C190.891 217.899 190.715 217.149 190.854 216.434C191.057 215.36 192.023 214.551 192.106 213.471C190.337 213.097 190.577 216.819 190.563 217.978Z" fill="black"/>
<path id="Vector_26" opacity="0.2" d="M272 178.904V183.826L253.22 185.06L252.652 180.133L272 178.904Z" fill="black"/>
<path id="Vector_27" d="M188.799 186.864C189.972 185.829 189.293 183.661 190.087 182.272C190.549 181.512 191.33 181.112 192.096 180.773C193.022 180.304 194.013 180.007 195.029 179.893C195.538 179.84 196.052 179.912 196.531 180.103C197.011 180.294 197.445 180.6 197.801 180.997C198.101 181.367 198.304 181.817 198.586 182.202C198.935 182.651 199.389 182.989 199.902 183.181C200.414 183.372 200.965 183.411 201.496 183.291C202.11 183.141 202.747 182.636 202.706 181.957C202.636 181.544 202.441 181.167 202.151 180.888L200.83 179.304C199.329 177.505 197.662 175.596 195.459 175.146C193.925 174.832 192.355 175.276 190.877 175.811C190.281 176.026 189.612 176.346 189.445 177C189.335 177.45 189.501 177.939 189.404 178.394C189.214 179.299 188.143 179.603 187.644 180.363C187.145 181.122 187.298 182.022 187.154 182.861C187.011 183.701 186.596 184.52 186.545 185.39C186.512 185.914 186.757 186.889 187.302 187.079C187.847 187.268 188.462 186.239 188.799 186.864Z" fill="#3F3D56"/>
<path id="Vector_28" d="M202.258 181.237C201.868 179.039 201.029 176.963 199.8 175.161C198.708 173.478 197.189 172.173 195.427 171.404C194.545 171.031 193.598 170.879 192.655 170.96C191.711 171.04 190.797 171.351 189.981 171.868C188.769 172.804 187.826 174.091 187.261 175.581C186.064 178.369 185.621 181.777 187.011 184.455C187.565 183.726 188.517 184.056 189.358 183.791C190.411 183.466 191.302 182.706 192.304 182.232C195.33 180.788 199.024 181.957 202.258 181.237Z" fill="#FED253"/>
<path id="Vector_29" opacity="0.1" d="M187.718 181.082C187.612 180.183 187.543 179.139 188.134 178.499C188.163 178.46 188.201 178.429 188.243 178.408C188.286 178.387 188.332 178.377 188.379 178.379C188.42 178.394 188.458 178.417 188.49 178.448C188.523 178.479 188.549 178.517 188.568 178.559C188.909 179.142 189.2 179.757 189.436 180.398C189.092 180.312 188.732 180.34 188.403 180.478C188.073 180.616 187.79 180.858 187.589 181.172" fill="black"/>
<path id="Vector_30" opacity="0.1" d="M198.512 178.544L198.346 176.76C198.319 176.613 198.33 176.461 198.378 176.321C198.448 176.203 198.555 176.117 198.68 176.08C198.804 176.043 198.937 176.058 199.052 176.121C199.28 176.257 199.467 176.459 199.593 176.705C199.977 177.344 200.296 178.026 200.544 178.739C199.8 178.584 199.035 178.594 198.295 178.769" fill="black"/>
<path id="Vector_31" d="M203.485 316.555C203.568 317.315 203.531 318.066 203.377 318.787C202.986 320.211 201.835 321.297 200.696 322.315L207.439 323.681C208.253 323.844 209.171 323.995 209.767 323.592C210.011 323.377 210.182 323.105 210.266 322.8C210.349 322.495 210.343 322.166 210.248 321.842C210.069 321.195 209.964 320.543 209.935 319.897C210.06 319.381 210.129 318.848 210.141 318.306C210.038 317.873 209.845 317.448 209.569 317.054C208.17 314.735 207.324 312.258 206.478 309.802C206.503 309.872 201.818 311.15 201.749 312.037C201.71 312.541 202.704 313.48 202.945 314.053C203.27 314.877 203.452 315.721 203.485 316.555V316.555Z" fill="#FFB8B8"/>
<path id="Vector_32" d="M209.454 318.623C208.586 317.486 207.387 316.7 206.054 316.393C204.72 316.087 203.33 316.277 202.11 316.934C201.849 317.067 201.618 317.262 201.435 317.504C200.974 318.203 201.269 319.168 201.311 320.032C201.417 322.141 199.865 323.855 198.47 325.329C197.722 326.118 196.96 326.963 196.623 328.037C196.286 329.111 196.535 330.475 197.44 331.035C197.835 331.249 198.265 331.378 198.706 331.415C200.182 331.726 201.696 331.772 203.186 331.55C204.659 331.245 206.105 330.341 206.742 328.872C206.865 328.473 207.069 328.11 207.338 327.807C208.151 327.113 209.398 327.927 210.322 327.432C211.084 327.023 211.116 326.378 211.125 325.529C211.153 323.18 210.83 320.522 209.454 318.623Z" fill="#2F2E41"/>
<path id="Vector_33" d="M217.828 313.793C217.688 313.195 217.653 312.599 217.725 312.019C217.941 310.87 218.854 309.947 219.761 309.078L213.732 308.368C213.004 308.283 212.187 308.214 211.7 308.566C211.506 308.75 211.38 308.975 211.334 309.221C211.287 309.467 211.322 309.727 211.434 309.979C211.649 310.481 211.798 310.991 211.881 311.501C211.816 311.917 211.803 312.343 211.841 312.772C211.969 313.11 212.177 313.436 212.453 313.733C213.884 315.492 214.845 317.407 215.803 319.305C215.775 319.251 219.767 317.981 219.749 317.275C219.738 316.874 218.784 316.185 218.522 315.744C218.165 315.11 217.931 314.452 217.828 313.793V313.793Z" fill="#FFB8B8"/>
<path id="Vector_34" d="M221.845 246.79C223.072 247.592 223.546 249.167 223.737 250.63C224.262 254.639 223.341 258.69 223.272 262.736C223.207 268.405 224.834 274.177 223.444 279.667C222.612 282.949 223.318 286.7 222.537 290.015C222.305 291 221.877 291.928 221.654 292.913C221.189 295.046 221.677 297.278 222.333 299.364C222.542 299.927 222.675 300.515 222.728 301.113C222.696 302.034 222.465 302.937 222.049 303.758L219.26 310.411C218.949 311.156 217.722 311.278 216.936 311.377C215.458 311.555 213.808 311.681 212.632 310.758C211.456 309.834 211.173 308.287 210.992 306.843C210.644 304.07 210.489 301.277 210.527 298.483C210.578 297.754 210.514 297.021 210.336 296.312C210.081 295.51 209.518 294.816 209.365 293.968C209.17 292.87 209.723 291.792 209.927 290.686C210.067 289.675 210.052 288.648 209.881 287.643C209.699 286.142 209.49 284.642 209.253 283.151C208.919 281.064 209.397 279.006 209.718 276.915C210.02 274.95 209.634 272.948 209.253 270.998C209.286 272.581 209.09 274.16 208.672 275.686C208.426 276.432 208.073 277.145 207.859 277.904C206.906 281.313 208.937 284.89 208.649 288.421C208.514 290.071 207.873 291.703 208.054 293.33C208.179 294.521 208.728 295.613 209.104 296.748C209.481 297.883 209.676 299.181 209.104 300.241C207.594 303.12 208.723 307.035 210.076 309.989C210.35 310.513 210.59 311.055 210.792 311.611C211.191 312.943 210.857 314.373 210.964 315.761C210.574 315.825 210.176 315.799 209.798 315.684C209.42 315.57 209.073 315.37 208.784 315.1C208.579 314.884 208.412 314.631 208.212 314.406C207.654 313.869 206.992 313.452 206.269 313.182C205.844 312.942 205.361 312.83 204.875 312.858C204.364 313.002 203.904 313.29 203.55 313.688C203.09 314.096 202.603 314.47 202.09 314.809C201.872 314.978 201.617 315.092 201.347 315.142C201.211 315.163 201.071 315.14 200.949 315.077C200.826 315.014 200.726 314.914 200.664 314.79C200.634 314.712 200.617 314.63 200.612 314.546C200.44 313.131 200.348 311.706 200.338 310.28C200.338 307.827 197.428 306.139 197.061 303.715C196.768 301.76 197.312 299.768 197.131 297.798C197.043 296.786 196.764 295.792 196.782 294.779C196.782 294.122 196.931 293.48 196.982 292.828C197.025 292.105 197.014 291.379 196.95 290.657L196.806 288.393C196.666 286.156 196.513 283.873 195.639 281.829C194.603 279.442 193.989 276.89 193.826 274.289C193.733 272.648 193.794 271.007 193.608 269.361C193.44 267.875 193.069 266.398 193.175 264.907C193.264 263.754 193.64 262.638 193.729 261.484C193.91 259.267 193.073 257.11 192.418 254.986C191.762 252.862 191.279 250.508 192.139 248.459C192.262 248.123 192.466 247.823 192.734 247.587C193.064 247.367 193.439 247.226 193.831 247.175C201.806 245.485 209.98 244.959 218.103 245.613C219.427 245.689 220.713 246.093 221.845 246.79Z" fill="#2F2E41"/>
<path id="Vector_35" d="M220.538 318.533C221.107 320.152 221.185 321.916 221.259 323.645C221.301 324.644 221.328 325.714 220.829 326.558C220.331 327.402 219.356 327.847 218.423 328.057C216.497 328.487 214.266 328.082 213.024 326.428C212.072 325.164 211.874 323.43 212.049 321.791C212.197 320.447 212.511 318.873 211.62 317.919C211.389 317.664 211.089 317.484 210.876 317.209C210.414 316.599 210.488 315.68 210.738 314.931C211.062 314.214 211.306 313.457 211.463 312.677C211.5 312.307 217.716 312.937 218.289 313.242C219.07 313.656 218.95 314.351 219.185 315.19C219.513 316.36 220.141 317.414 220.538 318.533Z" fill="#2F2E41"/>
<path id="Vector_36" d="M174.993 27.4022L272.702 140.859L269.681 340.429L277.981 341.513L278.12 341.533H286.419L287.412 149.428L470.373 215.545L473.458 333.269L480.137 334.078L482.4 334.353L477.162 207.38L285.902 134.738L181.03 16.7891H174.993V27.4022Z" fill="#BD9962"/>
<path id="Vector_37" opacity="0.1" d="M78.2549 338.131H84.5687L93.2056 186.339L178.739 31.9243L175.021 27.6071L86.7949 184.026L78.2549 338.131Z" fill="black"/>
</g>
<defs>
<clipPath id="clip0">
<rect width="544" height="362" fill="white"/>
</clipPath>
</defs>
</svg>
