<svg width="354" height="234" viewBox="0 0 354 234" fill="none" xmlns="http://www.w3.org/2000/svg">
<g id="underConstruction" clip-path="url(#clip0)">
<path id="Vector" opacity="0.1" d="M320.037 227.95C320.037 230.156 312.965 232.224 300.625 234H67.2013C56.8159 234.024 46.6098 231.092 37.6207 225.502L37.4824 225.418C41.029 224.029 47.4308 222.734 56.1439 221.565L56.5346 221.513C60.4418 220.999 64.8089 220.512 69.5817 220.05C69.702 220.05 69.8252 220.03 69.9454 220.014C73.7324 219.653 77.7608 219.313 82.0307 218.997C82.166 218.997 82.2982 218.971 82.4335 218.965C84.0805 218.838 85.7616 218.717 87.4768 218.603L88.138 218.558C100.626 217.724 114.821 217.059 130.216 216.62H130.234C132.39 216.555 134.569 216.498 136.771 216.448C139.219 216.386 141.698 216.331 144.207 216.284C146.121 216.239 148.06 216.206 150.004 216.174H150.049C158.823 216.032 167.887 215.961 177.156 215.961C200.077 215.961 221.741 216.41 240.937 217.217H240.991C243.943 217.34 246.84 217.476 249.665 217.614L252.07 217.737C255.258 217.901 258.364 218.076 261.387 218.264C296.943 220.437 320.037 223.968 320.037 227.95Z" fill="#6C63FF"/>
<path id="Vector_2" d="M47.4336 218.58L50.5864 218.571H55.0316L60.652 120.451L116.312 20.6361L113.892 17.8454V10.7783L53.6972 118.139L47.4336 218.58Z" fill="#BD9962"/>
<path id="Vector_3" d="M38.1436 219.397L182.365 231.258L182.488 231.267L322.063 222.043L322.168 222.036V215.702L168.374 212.669L40.0641 212.537H39.1264L39.0242 213.248L38.1436 219.397Z" fill="#BD9962"/>
<path id="Vector_4" opacity="0.1" d="M38.1436 219.397L182.365 231.258L182.488 231.267L322.063 222.043L322.168 221.92V215.835H322.045L182.365 220.848L40.0641 212.537H40.0431L39.7906 212.715L39.0242 213.248L38.1436 219.397Z" fill="black"/>
<path id="Vector_5" opacity="0.1" d="M38.1436 219.397L182.365 231.258V220.848L39.7906 212.715L39.0242 213.248L38.1436 219.397Z" fill="black"/>
<path id="Vector_6" opacity="0.1" d="M186.54 94.2176L187.029 96.5916L306.088 139.33L308.096 215.428L312.442 215.951L309.034 137.748L186.54 94.2176Z" fill="black"/>
<path id="Vector_7" d="M186.771 145.99L230.439 155.231L230.454 155.235L306.936 171.426L310.437 169.918L310.425 169.653L310.197 164.404L186.816 137.612L186.771 145.99Z" fill="#BD9962"/>
<path id="Vector_8" opacity="0.1" d="M113.875 17.713L177.457 91.0522L175.491 220.056L180.892 220.757L182.365 86.8307L113.875 10.8526V17.713Z" fill="black"/>
<path id="Vector_9" d="M59.1518 124.598L103.066 132.371L103.082 132.373L179.996 145.994L183.452 144.369L183.433 144.105L183.052 138.867L58.9538 116.222L59.1518 124.598Z" fill="#BD9962"/>
<path id="Vector_10" opacity="0.1" d="M230.454 155.234L306.936 171.426L310.437 169.918L310.425 169.653L230.454 155.234Z" fill="black"/>
<path id="Vector_11" d="M233.378 113.229L234.559 183.106L235.169 218.955L240.546 218.761L243.93 218.638L242.878 114.24L240.546 113.407L240.035 113.229H233.378Z" fill="#BD9962"/>
<path id="Vector_12" opacity="0.1" d="M233.426 113.213V113.229L234.559 183.106L235.169 218.955L240.546 218.761V113.213H233.426Z" fill="black"/>
<path id="Vector_13" d="M149.153 131.074C149.469 131.259 149.77 131.469 150.055 131.704C150.392 132.021 150.694 132.378 150.957 132.767C152.246 134.56 153.436 136.643 153.31 138.904C153.313 139.233 153.255 139.559 153.14 139.864C153.025 140.169 152.855 140.446 152.64 140.68C152.108 141.168 151.344 141.191 150.647 141.191C149.89 141.191 149.093 141.191 148.438 140.771C147.783 140.351 147.236 139.534 146.46 139.553C146.351 139.573 146.239 139.573 146.13 139.553C145.862 139.459 145.808 139.082 145.634 138.843C145.333 138.413 144.699 138.52 144.227 138.707C143.755 138.894 143.232 139.175 142.767 138.959C142.496 138.805 142.275 138.568 142.132 138.277C141.017 136.339 140.78 134.011 140.569 131.759C140.44 130.39 139.454 125.719 142.174 126.782C143.377 127.247 144.501 128.177 145.595 128.859L149.153 131.074Z" fill="#4A41D4"/>
<path id="Vector_14" d="M146.467 131.536C146.71 131.724 147.004 131.819 147.303 131.806C147.602 131.793 147.889 131.673 148.117 131.465C148.564 131.031 148.85 130.436 148.919 129.792C149.22 129.692 149.373 130.115 149.565 130.374C149.902 130.813 150.587 130.806 150.894 131.275C151.107 131.598 151.059 132.047 151.209 132.412C151.405 132.883 151.889 133.129 152.219 133.51C152.532 133.926 152.757 134.41 152.881 134.928L153.373 136.517C153.609 137.178 153.761 137.87 153.824 138.574C153.855 138.927 153.821 139.282 153.723 139.62C153.625 139.957 153.465 140.271 153.253 140.541C152.592 141.307 151.507 141.388 150.548 141.365C150.228 141.372 149.908 141.332 149.599 141.246C148.748 140.961 148.204 140.041 147.979 139.114C147.753 138.187 147.777 137.215 147.645 136.265C147.502 135.332 147.25 134.423 146.894 133.558C146.629 132.886 145.902 131.885 145.914 131.171C146.13 131.171 146.286 131.385 146.467 131.536Z" fill="#4A41D4"/>
<path id="Vector_15" d="M147.546 128.264C147.405 127.806 147.323 127.329 147.302 126.847C147.302 125.878 147.714 124.967 148.129 124.101L144.693 124.602C144.279 124.663 143.816 124.753 143.581 125.125C143.492 125.309 143.446 125.513 143.446 125.721C143.446 125.928 143.492 126.133 143.581 126.317C143.754 126.685 143.891 127.072 143.99 127.47C143.998 127.818 144.035 128.165 144.101 128.507C144.208 128.757 144.358 128.984 144.543 129.175C145.526 130.345 146.262 131.724 146.996 133.09C146.975 133.051 149.066 131.31 148.982 130.742C148.934 130.419 148.33 130.031 148.138 129.721C147.872 129.271 147.672 128.78 147.546 128.264V128.264Z" fill="#FFB8B8"/>
<path id="Vector_16" d="M177 115.645V118.827L126.305 129.453L123.675 131.165H114.602V129.372L164.41 116.44L177 115.645Z" fill="#BD9962"/>
<path id="Vector_17" opacity="0.1" d="M177 118.827L126.305 129.453L123.675 131.165H114.602L164.779 119.624L177 118.827Z" fill="black"/>
<path id="Vector_18" d="M127.192 125.196C129.851 125.196 132.007 122.879 132.007 120.022C132.007 117.164 129.851 114.847 127.192 114.847C124.533 114.847 122.377 117.164 122.377 120.022C122.377 122.879 124.533 125.196 127.192 125.196Z" fill="#FFB8B8"/>
<path id="Vector_19" d="M126.26 126.485C126.329 126.781 126.329 127.09 126.26 127.386C126.185 127.593 126.078 127.785 125.945 127.954C125.479 128.6 124.963 129.203 124.403 129.757C124.688 130.441 125.202 130.987 125.842 131.284C126.479 131.575 127.146 131.78 127.829 131.895C128.17 131.991 128.525 132.018 128.875 131.972C129.198 131.885 129.503 131.736 129.777 131.533L132.452 129.812C132.855 129.577 133.229 129.287 133.564 128.949C134.054 128.407 134.332 127.683 134.339 126.927C134.352 126.792 134.317 126.656 134.243 126.546C134.14 126.45 134.012 126.392 133.876 126.381C132.936 126.159 132.193 125.338 131.772 124.408C131.392 123.454 131.146 122.445 131.042 121.414L128.19 123.029C127.766 123.271 127.345 123.513 126.906 123.723C126.627 123.859 126.062 123.972 125.864 124.246C125.485 124.753 126.161 125.874 126.26 126.485Z" fill="#FFB8B8"/>
<path id="Vector_20" d="M124.421 128.817C124.015 129.175 123.698 129.635 123.498 130.157C123.312 130.803 123.498 131.485 123.666 132.124C124.455 134.85 125.058 137.634 125.47 140.454C125.722 142.392 125.815 144.359 125.939 146.32C126.191 150.319 126.558 156.694 127.048 160.667C128.851 160.754 130.609 160.189 132.397 159.983C135.74 159.601 139.181 160.473 142.454 159.66C141.661 156.291 140.867 150.538 140.074 147.173C139.723 145.847 139.479 144.49 139.346 143.119C139.277 142.134 139.319 141.145 139.331 140.154C139.358 138.216 139.259 136.278 139.16 134.34C139.046 132.079 138.932 129.818 138.433 127.606C138.398 127.324 138.275 127.063 138.084 126.866C137.783 126.63 137.393 126.714 137.035 126.766C135.94 126.915 134.832 126.633 133.915 125.971C133.519 125.68 132.987 125.325 132.617 125.648C132.459 125.843 132.355 126.081 132.316 126.336C132.153 126.793 131.9 127.207 131.576 127.551C131.251 127.895 130.862 128.16 130.435 128.329C129.578 128.662 128.681 128.86 127.772 128.917C127.494 128.981 127.203 128.946 126.945 128.817C126.519 128.536 126.489 127.525 125.951 127.457C125.479 127.399 124.739 128.491 124.421 128.817Z" fill="#3F3D56"/>
<path id="Vector_21" d="M131.532 136.704C130.423 135.564 129.936 133.91 129.128 132.505C128.577 131.561 127.874 130.729 127.051 130.051C126.637 129.757 126.258 129.411 125.921 129.02C125.635 128.642 125.419 128.138 124.986 127.993C124.807 127.951 124.621 127.957 124.445 128.009C124.269 128.061 124.107 128.159 123.973 128.294C123.708 128.565 123.457 128.852 123.222 129.153C121.947 130.571 119.708 130.768 118.698 132.408C118.426 132.756 118.241 133.173 118.16 133.62C117.87 136.008 118.444 138.425 119.765 140.37C120.021 140.821 120.414 141.164 120.877 141.339C120.814 141.942 120.889 142.551 121.094 143.116C121.65 145.16 122.334 147.162 123.14 149.107C122.948 149.868 122.813 150.645 122.738 151.43C122.527 153.403 122.723 155.406 122.524 157.382C122.362 158.997 121.923 160.57 121.908 162.189C121.908 162.447 121.929 162.754 122.137 162.886C122.247 162.947 122.37 162.975 122.494 162.967L126.191 163.087C128.337 163.154 130.504 163.222 132.617 162.796C132.898 162.751 133.171 162.658 133.425 162.521C134.141 162.092 134.378 161.123 134.492 160.26C134.642 159.142 134.701 158.011 134.67 156.882C135.118 158.403 135.65 159.976 137.002 160.635C137.717 160.984 138.535 160.958 139.319 160.935C141.01 160.854 142.695 160.668 144.366 160.377C144.469 160.39 144.573 160.378 144.671 160.34C144.769 160.303 144.857 160.241 144.928 160.161C145 160.08 145.053 159.982 145.083 159.876C145.113 159.769 145.12 159.656 145.102 159.546L145.12 157.783C145.156 154.201 144.33 150.777 144.008 147.211C143.906 146.087 143.915 144.95 143.659 143.849C143.554 143.387 143.401 142.935 143.308 142.47C143.228 142.014 143.177 141.554 143.157 141.091L142.923 137.538C142.812 135.894 142.653 134.308 142.535 132.667C142.471 131.069 142.255 129.483 141.892 127.932C141.631 126.963 141.087 125.865 140.146 125.745C139.644 125.684 139.157 125.919 138.679 126.084C137.505 126.482 136.244 126.476 135.073 126.068C134.711 125.914 134.333 125.806 133.948 125.745C133.755 125.717 133.557 125.744 133.377 125.825C133.196 125.905 133.039 126.036 132.921 126.204C132.804 126.456 132.749 126.736 132.761 127.018C132.62 130.244 132.358 133.568 131.532 136.704Z" fill="#0E0689"/>
<path id="Vector_22" d="M126.696 136.801C125.311 135.231 123.889 133.633 122.104 132.635C121.4 132.24 120.601 131.943 119.822 132.092C119.044 132.24 118.32 132.967 118.356 133.817C118.38 134.343 118.677 134.808 118.771 135.325C118.879 135.906 118.722 136.527 118.891 137.089C119.028 137.459 119.232 137.796 119.492 138.08L121.62 140.79C122.521 141.921 123.423 143.067 124.583 143.849C125.743 144.631 127.246 144.996 128.521 144.44C129.427 143.987 130.181 143.244 130.679 142.311C131.208 141.407 131.58 140.419 132.076 139.485C132.848 137.994 133.866 136.666 135.082 135.567C134.457 135.393 133.672 135.147 133.278 134.598C133.166 134.424 133.071 134.238 132.993 134.043L132.506 132.912C132.34 132.903 132.175 132.931 132.02 132.994C131.864 133.056 131.723 133.153 131.604 133.277C131.395 133.537 131.172 133.782 130.934 134.011C130.51 134.353 129.936 134.447 129.551 134.837C129.403 135.005 129.268 135.187 129.149 135.38C128.858 135.791 128.488 136.13 128.065 136.376C127.642 136.621 127.176 136.766 126.696 136.801V136.801Z" fill="#4A41D4"/>
<path id="Vector_23" d="M135.193 130.047C136.236 128.003 136.187 125.551 136.485 123.242C136.517 122.63 136.717 122.043 137.059 121.553C137.66 120.823 138.721 120.813 139.629 120.907C139.896 120.939 140.23 121.075 140.215 121.362C140.194 121.465 140.147 121.56 140.08 121.637C139.2 122.857 138.683 124.334 138.595 125.874C139.067 126.226 139.797 125.503 140.251 125.874C140.552 126.146 140.413 126.682 140.233 127.069C139.814 127.967 139.382 128.859 138.938 129.744C138.582 130.524 138.119 131.241 137.564 131.872C137.182 132.266 136.734 132.576 136.347 132.964C135.445 133.872 134.901 135.154 133.969 136.039C133.891 136.131 133.784 136.189 133.669 136.204C133.55 136.195 133.439 136.141 133.353 136.052C132.888 135.645 132.502 135.143 132.217 134.576C131.862 133.872 131.917 133.665 132.476 133.168C133.522 132.279 134.54 131.326 135.193 130.047Z" fill="#FFB8B8"/>
<path id="Vector_24" d="M124.953 135.412C125.133 135.532 125.356 135.667 125.554 135.567C125.635 135.515 125.704 135.443 125.755 135.357C126.099 134.865 126.386 134.329 126.609 133.762C126.647 133.682 126.669 133.593 126.672 133.503C126.672 133.297 126.501 133.145 126.341 133.025C125.488 132.441 124.57 131.972 123.609 131.63C122.816 131.307 121.986 131.026 121.145 131.107C120.829 131.13 120.52 131.221 120.238 131.375C119.955 131.53 119.704 131.744 119.501 132.005C118.9 132.835 119.907 133.087 120.538 133.387C121.998 134.101 123.579 134.514 124.953 135.412Z" fill="#4A41D4"/>
<path id="Vector_25" opacity="0.1" d="M124.006 140.903C123.996 140.977 124.002 141.052 124.024 141.123C124.046 141.194 124.083 141.258 124.132 141.31C124.22 140.852 124.105 140.367 124.196 139.905C124.328 139.211 124.956 138.687 125.01 137.99C123.859 137.748 124.015 140.154 124.006 140.903Z" fill="black"/>
<path id="Vector_26" opacity="0.2" d="M177 115.645V118.827L164.779 119.624L164.41 116.44L177 115.645Z" fill="black"/>
<path id="Vector_27" d="M122.858 120.79C123.621 120.122 123.179 118.72 123.696 117.822C123.997 117.331 124.505 117.073 125.004 116.853C125.606 116.55 126.251 116.358 126.912 116.285C127.243 116.25 127.577 116.297 127.89 116.42C128.202 116.544 128.484 116.741 128.716 116.998C128.911 117.237 129.043 117.528 129.226 117.777C129.454 118.067 129.749 118.286 130.083 118.41C130.416 118.534 130.775 118.558 131.12 118.481C131.52 118.384 131.934 118.058 131.907 117.619C131.862 117.351 131.735 117.108 131.547 116.927L130.687 115.903C129.71 114.741 128.625 113.507 127.192 113.216C126.194 113.013 125.172 113.3 124.21 113.646C123.822 113.785 123.387 113.991 123.278 114.414C123.206 114.705 123.315 115.022 123.251 115.316C123.128 115.9 122.431 116.097 122.106 116.588C121.782 117.079 121.881 117.661 121.788 118.203C121.695 118.746 121.424 119.275 121.391 119.838C121.37 120.177 121.529 120.806 121.884 120.929C122.239 121.052 122.638 120.387 122.858 120.79Z" fill="#3F3D56"/>
<path id="Vector_28" d="M131.616 117.153C131.363 115.732 130.816 114.39 130.017 113.226C129.307 112.138 128.318 111.294 127.171 110.797C126.598 110.556 125.981 110.458 125.367 110.51C124.753 110.562 124.159 110.763 123.628 111.097C122.839 111.702 122.225 112.534 121.857 113.497C121.079 115.299 120.79 117.502 121.695 119.233C122.056 118.762 122.675 118.975 123.222 118.804C123.907 118.594 124.487 118.103 125.139 117.796C127.108 116.863 129.512 117.619 131.616 117.153Z" fill="#FED253"/>
<path id="Vector_29" opacity="0.1" d="M122.154 117.053C122.085 116.472 122.04 115.797 122.425 115.383C122.444 115.358 122.468 115.338 122.496 115.324C122.524 115.311 122.554 115.305 122.584 115.306C122.611 115.315 122.636 115.33 122.657 115.35C122.678 115.37 122.695 115.395 122.707 115.422C122.93 115.799 123.119 116.197 123.273 116.611C123.049 116.555 122.814 116.573 122.6 116.663C122.386 116.752 122.201 116.908 122.07 117.111" fill="black"/>
<path id="Vector_30" opacity="0.1" d="M129.179 115.412L129.071 114.259C129.053 114.164 129.06 114.066 129.092 113.975C129.137 113.899 129.207 113.844 129.288 113.82C129.369 113.796 129.455 113.805 129.531 113.846C129.678 113.934 129.8 114.065 129.882 114.224C130.132 114.637 130.34 115.077 130.501 115.538C130.017 115.438 129.519 115.445 129.038 115.558" fill="black"/>
<path id="Vector_31" d="M132.415 204.624C132.469 205.115 132.445 205.6 132.345 206.067C132.09 206.987 131.341 207.689 130.6 208.347L134.988 209.23C135.518 209.336 136.115 209.433 136.503 209.173C136.662 209.033 136.773 208.858 136.827 208.661C136.882 208.464 136.878 208.251 136.816 208.041C136.699 207.623 136.631 207.202 136.612 206.785C136.694 206.451 136.739 206.106 136.746 205.756C136.68 205.476 136.553 205.201 136.374 204.946C135.463 203.447 134.913 201.846 134.363 200.259C134.379 200.304 131.33 201.13 131.285 201.703C131.26 202.029 131.907 202.636 132.064 203.007C132.275 203.539 132.393 204.085 132.415 204.624V204.624Z" fill="#FFB8B8"/>
<path id="Vector_32" d="M136.299 205.961C135.734 205.226 134.954 204.718 134.087 204.519C133.219 204.321 132.314 204.444 131.52 204.869C131.35 204.955 131.2 205.081 131.081 205.237C130.781 205.69 130.973 206.313 131 206.872C131.069 208.235 130.059 209.343 129.152 210.295C128.665 210.806 128.169 211.352 127.949 212.046C127.73 212.74 127.892 213.622 128.481 213.984C128.739 214.123 129.018 214.206 129.305 214.229C130.266 214.431 131.251 214.46 132.22 214.317C133.179 214.12 134.12 213.535 134.535 212.585C134.615 212.328 134.747 212.093 134.922 211.897C135.451 211.449 136.263 211.975 136.864 211.655C137.36 211.39 137.381 210.974 137.387 210.425C137.405 208.907 137.195 207.188 136.299 205.961Z" fill="#2F2E41"/>
<path id="Vector_33" d="M141.748 202.838C141.657 202.452 141.635 202.067 141.681 201.692C141.822 200.949 142.416 200.352 143.007 199.791L139.083 199.331C138.61 199.277 138.078 199.232 137.761 199.46C137.634 199.579 137.553 199.724 137.523 199.883C137.492 200.042 137.515 200.21 137.588 200.373C137.727 200.698 137.825 201.027 137.879 201.357C137.837 201.626 137.828 201.901 137.853 202.179C137.936 202.397 138.071 202.608 138.251 202.8C139.182 203.937 139.807 205.174 140.431 206.401C140.413 206.367 143.01 205.546 142.999 205.089C142.992 204.83 142.371 204.385 142.2 204.1C141.968 203.69 141.815 203.264 141.748 202.838V202.838Z" fill="#FFB8B8"/>
<path id="Vector_34" d="M144.362 159.527C145.161 160.046 145.469 161.064 145.593 162.01C145.935 164.601 145.336 167.219 145.291 169.835C145.248 173.499 146.307 177.23 145.403 180.779C144.861 182.901 145.321 185.326 144.813 187.468C144.662 188.105 144.383 188.705 144.238 189.341C143.936 190.72 144.253 192.163 144.68 193.512C144.816 193.875 144.902 194.255 144.937 194.642C144.916 195.238 144.766 195.821 144.495 196.352L142.68 200.652C142.478 201.134 141.679 201.213 141.168 201.277C140.206 201.392 139.133 201.474 138.367 200.877C137.602 200.28 137.418 199.279 137.3 198.346C137.073 196.554 136.972 194.748 136.997 192.942C137.03 192.471 136.989 191.997 136.873 191.539C136.707 191.02 136.341 190.572 136.241 190.023C136.114 189.314 136.474 188.617 136.607 187.902C136.698 187.248 136.688 186.585 136.577 185.935C136.459 184.965 136.323 183.995 136.168 183.031C135.951 181.682 136.262 180.352 136.471 179C136.667 177.73 136.416 176.436 136.168 175.175C136.19 176.199 136.062 177.22 135.79 178.206C135.63 178.688 135.4 179.149 135.261 179.64C134.641 181.843 135.963 184.156 135.775 186.438C135.687 187.505 135.27 188.559 135.388 189.611C135.47 190.381 135.827 191.087 136.072 191.821C136.317 192.554 136.444 193.394 136.072 194.078C135.089 195.939 135.824 198.47 136.704 200.38C136.882 200.718 137.038 201.069 137.17 201.428C137.43 202.289 137.212 203.213 137.281 204.11C137.028 204.152 136.769 204.135 136.523 204.061C136.277 203.987 136.051 203.858 135.863 203.683C135.73 203.544 135.621 203.38 135.491 203.235C135.127 202.887 134.697 202.618 134.227 202.444C133.95 202.289 133.635 202.216 133.319 202.234C132.987 202.327 132.688 202.514 132.457 202.771C132.158 203.034 131.841 203.276 131.507 203.495C131.365 203.604 131.2 203.678 131.023 203.71C130.935 203.724 130.844 203.71 130.764 203.669C130.685 203.628 130.62 203.563 130.579 203.483C130.56 203.432 130.549 203.379 130.546 203.325C130.433 202.41 130.374 201.489 130.367 200.567C130.367 198.982 128.474 197.891 128.235 196.324C128.044 195.06 128.398 193.772 128.28 192.499C128.223 191.845 128.041 191.202 128.053 190.548C128.053 190.123 128.15 189.708 128.183 189.287C128.211 188.819 128.204 188.35 128.162 187.884L128.068 186.42C127.978 184.974 127.878 183.498 127.309 182.176C126.635 180.634 126.236 178.984 126.13 177.303C126.069 176.242 126.108 175.181 125.987 174.118C125.878 173.157 125.636 172.202 125.706 171.238C125.764 170.493 126.009 169.771 126.066 169.026C126.184 167.592 125.64 166.198 125.213 164.825C124.787 163.452 124.472 161.931 125.032 160.606C125.112 160.389 125.245 160.195 125.419 160.043C125.633 159.9 125.877 159.809 126.133 159.776C131.322 158.683 136.641 158.344 141.927 158.767C142.789 158.816 143.625 159.077 144.362 159.527Z" fill="#2F2E41"/>
<path id="Vector_35" d="M143.512 205.903C143.882 206.949 143.933 208.089 143.981 209.207C144.008 209.853 144.026 210.544 143.701 211.09C143.377 211.636 142.743 211.923 142.135 212.059C140.882 212.337 139.43 212.075 138.622 211.006C138.003 210.189 137.874 209.068 137.988 208.009C138.084 207.14 138.288 206.122 137.708 205.505C137.558 205.341 137.363 205.224 137.224 205.047C136.924 204.653 136.972 204.058 137.134 203.574C137.346 203.111 137.504 202.621 137.606 202.117C137.63 201.878 141.676 202.285 142.048 202.482C142.556 202.75 142.478 203.199 142.631 203.742C142.845 204.498 143.254 205.179 143.512 205.903Z" fill="#2F2E41"/>
<path id="Vector_36" d="M113.875 17.713L177.457 91.0522L175.491 220.056L180.892 220.757L180.982 220.77H186.383L187.03 96.5916L306.089 139.33L308.096 215.428L312.442 215.951L313.915 216.129L310.507 134.053L186.047 87.0955L117.803 10.8526H113.875V17.713Z" fill="#BD9962"/>
<path id="Vector_37" opacity="0.1" d="M50.9229 218.571H55.0314L60.6518 120.451L116.312 20.6361L113.892 17.8455L56.4801 118.956L50.9229 218.571Z" fill="black"/>
</g>
<defs>
<clipPath id="clip0">
<rect width="354" height="234" fill="white"/>
</clipPath>
</defs>
</svg>
